<?xml version="1.0" standalone="no"?>
<!DOCTYPE svg PUBLIC "-//W3C//DTD SVG 20010904//EN"
 "http://www.w3.org/TR/2001/REC-SVG-20010904/DTD/svg10.dtd">
<svg version="1.0" xmlns="http://www.w3.org/2000/svg"
 width="1312.000000pt" height="736.000000pt" viewBox="0 0 1312.000000 736.000000"
 preserveAspectRatio="xMidYMid meet">

<g transform="translate(0.000000,736.000000) scale(0.100000,-0.100000)"
fill="#000000" stroke="none">
<path d="M0 7080 l0 -280 29 0 c16 0 34 -7 41 -15 7 -8 18 -15 26 -15 19 0 28
-39 14 -66 -18 -33 -38 -37 -76 -15 l-34 20 0 -192 0 -193 115 4 c79 3 124 1
145 -8 34 -14 56 -45 40 -55 -5 -3 -10 -14 -10 -24 0 -9 -6 -25 -13 -35 -12
-16 -27 -18 -110 -17 -108 2 -128 6 -120 27 3 7 -2 17 -11 20 -9 3 -16 13 -16
21 0 8 -5 11 -10 8 -7 -4 -10 -298 -10 -851 0 -699 2 -844 13 -844 8 0 19 -11
25 -25 10 -21 8 -27 -13 -44 l-25 -19 0 -786 c0 -622 3 -786 13 -786 6 0 36 7
65 14 46 13 54 13 59 0 3 -7 8 -12 13 -9 4 2 30 -4 58 -14 75 -28 212 -32 212
-8 0 17 -71 89 -105 107 -20 11 -29 10 -57 -3 -34 -16 -57 -20 -97 -18 -20 1
-22 5 -16 28 8 35 50 70 91 78 19 3 57 21 86 40 29 19 58 35 65 35 30 0 98
151 82 182 -24 45 -47 49 -219 43 -144 -6 -164 -4 -181 11 -24 21 -24 46 -2
67 24 20 38 22 99 14 33 -5 62 -3 80 4 29 12 174 13 452 3 184 -6 263 7 330
53 53 36 56 42 67 121 6 47 -15 106 -41 116 -8 3 -33 -3 -54 -14 -46 -24 -69
-25 -76 -6 -7 18 23 82 45 99 9 7 42 42 75 80 60 70 155 149 192 161 12 4 27
20 34 36 22 54 36 57 74 16 19 -19 37 -48 41 -64 3 -15 17 -50 30 -77 26 -50
33 -109 15 -120 -5 -3 -10 -18 -10 -33 0 -36 -53 -100 -85 -104 -25 -3 -25 -3
-8 -34 10 -18 33 -51 51 -75 26 -34 32 -50 27 -69 -13 -48 -13 -95 1 -111 10
-11 35 -16 85 -17 92 -3 118 -16 63 -31 -21 -6 -50 -11 -64 -11 -30 0 -54 -14
-56 -32 0 -7 -4 -27 -8 -44 -17 -69 -104 -70 -141 -1 -11 20 -28 37 -37 37
-27 0 -48 -11 -48 -25 0 -7 -6 -15 -12 -18 -20 -6 9 -53 41 -67 34 -14 131
-106 131 -123 0 -8 -9 -22 -19 -31 -11 -10 -24 -30 -31 -45 -6 -16 -23 -34
-37 -42 -14 -7 -35 -34 -48 -59 -13 -26 -37 -61 -53 -78 -28 -29 -35 -32 -92
-32 -55 0 -65 -3 -92 -30 -34 -34 -74 -39 -104 -12 -10 9 -41 28 -68 42 -27
14 -61 41 -75 62 -31 43 -72 56 -101 31 -10 -9 -16 -21 -13 -27 3 -6 0 -5 -8
2 -18 17 -26 15 -32 -7 -3 -14 5 -27 26 -43 43 -32 67 -60 67 -75 0 -7 6 -13
13 -13 8 0 7 -4 -3 -10 -8 -5 -23 -7 -32 -4 -10 3 -18 1 -18 -5 0 -6 -22 -13
-50 -17 -40 -5 -57 -14 -87 -45 -40 -41 -57 -47 -70 -26 -4 7 -18 20 -31 29
-25 17 -50 14 -131 -16 -24 -9 -55 -16 -70 -16 -26 0 -81 28 -108 56 -17 17
-47 18 -74 4 -18 -10 -19 -24 -19 -296 l0 -286 26 6 c14 4 31 3 37 -2 7 -5 28
-9 48 -9 46 0 59 -8 59 -40 0 -19 4 -24 17 -19 21 9 63 -31 56 -53 -3 -11 1
-10 14 5 26 31 63 41 63 17 -1 -28 -25 -53 -52 -53 -14 0 -33 -9 -42 -19 -21
-23 -11 -47 29 -79 19 -15 25 -29 25 -60 0 -57 -20 -74 -79 -67 -69 10 -71 11
-71 55 0 29 -4 40 -15 40 -9 0 -15 9 -15 25 0 16 -7 28 -17 31 -15 5 -49 19
-75 32 -5 2 -8 -87 -8 -198 l0 -202 31 6 c17 3 42 6 54 6 16 0 25 8 29 25 3
13 19 31 35 40 28 14 31 13 61 -11 17 -15 40 -44 51 -65 11 -22 25 -39 32 -39
20 0 37 21 37 45 0 34 54 66 119 71 63 5 87 -8 110 -62 7 -18 26 -44 42 -60
16 -15 29 -32 29 -37 0 -17 29 -37 55 -37 29 0 43 -24 28 -49 -16 -26 -74 -41
-98 -25 -18 12 -48 21 -79 23 -4 1 -6 8 -2 16 3 8 1 15 -4 15 -5 0 -7 8 -5 19
2 10 -9 34 -24 52 l-28 33 -28 -28 c-15 -15 -38 -31 -51 -36 -13 -5 -24 -16
-24 -24 0 -8 -5 -16 -12 -18 -6 -2 -11 -19 -10 -37 1 -49 -16 -62 -44 -35 -12
13 -40 28 -62 34 -40 10 -52 23 -82 90 -11 24 -12 24 -25 7 -11 -16 -10 -25 6
-63 11 -24 21 -66 22 -93 2 -43 -2 -54 -28 -81 -18 -19 -50 -37 -82 -46 l-53
-15 0 -164 0 -163 43 -6 c23 -3 68 -5 100 -5 44 0 57 -3 57 -15 0 -10 -17 -16
-63 -20 -34 -3 -73 -4 -87 -2 -47 6 -50 -1 -50 -95 l0 -89 33 -1 c125 -2 190
-8 199 -17 22 -22 -57 -39 -194 -41 l-38 -1 0 -118 0 -118 43 -11 c63 -17 217
-24 217 -9 0 17 68 39 113 38 44 -2 77 -17 77 -35 0 -40 170 -43 288 -5 72 23
117 20 161 -11 15 -11 47 -23 70 -27 36 -6 44 -4 57 15 13 18 23 20 60 17 31
-3 50 -12 63 -27 25 -31 60 -32 72 -2 11 28 8 73 -4 73 -5 0 -6 22 -2 48 4 29
-2 106 -14 197 -30 227 -35 298 -21 339 17 52 50 58 100 18 38 -31 39 -31 111
-22 41 5 88 13 106 18 17 6 58 9 90 6 85 -5 365 -16 383 -14 50 4 214 -2 265
-10 66 -11 79 -3 64 38 -7 18 -5 31 6 48 17 27 55 31 114 14 40 -11 37 -12 46
21 5 21 0 32 -30 60 -33 31 -36 38 -32 77 5 47 30 82 59 82 37 0 138 -63 138
-86 0 -7 12 -22 28 -33 15 -12 40 -31 57 -44 16 -12 40 -33 54 -47 13 -14 28
-24 35 -22 6 1 2 -4 -8 -12 -14 -12 -38 -14 -97 -11 -67 4 -79 3 -79 -11 0
-39 -54 -66 -105 -52 -39 10 -41 9 -85 -31 -38 -34 -43 -44 -34 -58 9 -14 27
-18 80 -20 38 0 116 -6 174 -12 58 -6 258 -12 445 -15 254 -2 370 -8 460 -21
102 -15 170 -16 452 -12 l333 5 24 -29 c14 -16 30 -54 36 -86 16 -78 36 -125
87 -209 44 -72 85 -110 157 -139 43 -18 79 -13 210 32 38 12 83 23 99 23 27 0
29 -2 24 -28 -3 -15 -27 -72 -53 -126 l-48 -99 -329 8 c-180 4 -342 9 -360 10
-158 16 -814 29 -1497 30 -631 0 -839 3 -920 14 -82 11 -121 11 -185 2 -44 -6
-100 -13 -124 -16 -25 -3 -48 -8 -52 -12 -8 -9 -12 -48 -10 -106 l1 -37 2238
2 c1876 3 2237 5 2234 17 -1 7 3 20 10 29 10 12 10 16 1 19 -24 8 -13 23 17
23 35 0 50 -20 50 -70 0 -18 7 -20 86 -20 53 0 83 4 79 10 -3 5 2 18 12 29 24
26 88 16 88 -14 0 -18 8 -20 73 -23 42 -2 79 2 87 8 9 7 21 7 39 0 37 -14 122
-13 163 2 27 10 38 10 53 0 29 -18 168 -16 187 3 11 12 12 19 4 29 -14 16 5
26 48 26 35 0 44 -9 28 -28 -9 -12 -9 -16 1 -19 6 -3 9 -9 6 -15 -5 -7 12 -9
50 -6 55 5 83 16 59 25 -18 7 -16 30 3 37 40 15 79 -3 55 -27 -7 -7 -3 -14 16
-24 20 -10 149 -13 655 -13 l630 0 -6 33 c-3 17 -6 82 -7 142 -2 87 1 117 14
142 23 44 35 48 57 21 l18 -23 11 28 c15 38 14 74 -1 79 -9 3 -5 23 14 69 15
35 32 87 38 114 6 28 19 61 29 75 20 27 54 112 96 235 27 78 27 82 15 179 -14
121 -42 184 -113 254 -53 52 -174 122 -257 148 -65 20 -170 30 -170 15 0 -6 4
-11 8 -11 5 0 29 -20 54 -44 28 -26 59 -46 80 -50 55 -10 169 -70 221 -116 66
-59 81 -91 21 -45 -55 43 -106 65 -145 65 -22 0 -29 5 -29 19 0 12 -13 24 -37
34 -21 8 -39 14 -41 13 -1 -2 16 -39 38 -84 54 -111 70 -185 64 -299 -4 -93
-30 -185 -75 -275 -21 -41 -23 -48 -11 -48 4 0 15 17 24 38 54 117 68 144 62
122 -12 -51 -85 -194 -93 -182 -5 9 -22 -5 -52 -44 -82 -105 -91 -115 -128
-133 -61 -31 -205 -79 -257 -85 l-49 -6 50 14 c72 20 173 59 230 89 72 36 110
85 181 226 60 122 77 188 69 264 -9 85 -30 176 -49 212 -9 17 -16 38 -16 47 0
9 -4 20 -10 23 -11 7 -14 -28 -3 -39 4 -3 8 -12 9 -19 19 -123 34 -192 45
-214 25 -48 -81 -282 -182 -401 -51 -62 -72 -78 -152 -117 -149 -74 -215 -76
-350 -10 -123 61 -202 167 -232 313 -15 71 -12 93 5 46 6 -16 18 -42 26 -58 8
-16 14 -35 14 -41 0 -7 7 -16 16 -19 8 -3 13 -10 10 -14 -3 -5 3 -18 12 -28
19 -19 22 -27 22 -44 0 -5 6 -10 13 -10 7 0 28 -16 47 -35 19 -19 41 -35 48
-35 6 0 12 -4 12 -9 0 -11 46 -29 94 -37 22 -3 50 -10 64 -15 64 -24 218 43
303 133 65 68 69 78 94 238 9 58 23 125 31 150 21 61 19 81 -17 180 -17 47
-39 110 -50 140 -42 118 -88 192 -165 263 -41 38 -74 75 -74 83 0 11 4 12 19
4 25 -13 104 -13 96 0 -3 5 -2 10 3 10 5 0 9 14 10 30 0 17 -4 30 -9 30 -6 0
-8 12 -4 28 4 20 1 33 -9 41 -14 11 -14 17 -1 47 8 21 10 32 3 28 -7 -5 -8 5
-4 32 7 41 8 86 2 119 -2 11 -1 24 1 28 3 4 6 33 8 65 2 31 6 76 8 99 2 24 1
41 -1 38 -10 -10 -30 17 -25 34 3 13 -2 21 -16 26 -20 6 -19 35 1 35 5 0 6 -4
3 -10 -3 -6 -1 -10 4 -10 17 0 13 18 -5 28 -14 8 -15 12 -1 38 8 16 17 48 20
71 3 25 17 56 36 80 16 21 37 54 45 74 13 30 22 38 53 44 21 5 43 9 48 11 106
30 318 24 369 -10 33 -21 34 -46 2 -46 -14 0 -28 -5 -31 -10 -4 -6 -11 -7 -17
-4 -6 4 -8 3 -5 -3 8 -12 -61 -46 -75 -37 -7 5 -8 2 -3 -5 4 -8 -1 -18 -14
-28 -14 -9 -19 -19 -13 -26 4 -7 8 -32 7 -57 -1 -25 3 -48 8 -52 8 -4 7 -15
-2 -34 -11 -24 -10 -30 3 -40 20 -14 20 -43 1 -68 -16 -21 -20 -56 -7 -56 11
0 -3 -139 -22 -213 -13 -46 -15 -71 -8 -80 6 -8 6 -28 -3 -62 -7 -27 -12 -97
-11 -154 l1 -104 38 -21 c60 -34 196 -157 232 -209 38 -57 39 -56 55 72 5 46
12 86 14 89 9 8 34 -65 55 -164 35 -164 70 -387 64 -415 -2 -15 -20 -44 -39
-65 -18 -22 -34 -43 -34 -47 0 -10 -81 -121 -92 -125 -11 -5 -1 -61 22 -132
39 -119 71 -228 85 -290 8 -36 25 -112 38 -170 l23 -105 2182 -3 2182 -2 0
3680 0 3680 -1952 -2 c-1456 -2 -1952 -6 -1951 -14 8 -40 19 -378 14 -419 -1
-11 9 -76 22 -145 14 -69 30 -188 37 -265 6 -77 13 -151 15 -165 16 -110 20
-329 9 -460 -3 -41 -6 -151 -6 -245 0 -105 -3 -174 -10 -182 -16 -20 -63 -16
-83 7 -10 11 -22 17 -28 13 -19 -12 -70 -13 -83 -2 -9 8 -23 8 -46 0 -35 -11
-125 -22 -198 -25 -25 -1 -50 -5 -57 -9 -6 -4 -18 -4 -26 -1 -17 6 -67 -17
-86 -40 -10 -12 -18 -13 -32 -6 -10 6 -24 9 -31 8 -9 -2 -15 20 -19 82 -3 47
-9 97 -13 112 -5 17 -2 38 9 61 11 24 15 51 11 88 -4 51 14 175 24 165 3 -2 5
86 5 197 1 377 19 819 36 880 5 17 9 47 9 65 0 20 4 31 10 27 10 -6 13 13 12
95 -1 25 -1 75 -1 113 l-1 67 -90 0 -90 0 0 -29 c0 -16 -8 -39 -18 -51 -16
-19 -22 -21 -40 -11 -17 9 -22 21 -22 51 l0 40 -60 0 -59 0 1 -92 c1 -51 1
-146 0 -210 -2 -107 -4 -118 -20 -118 -19 0 -39 37 -63 115 -6 22 -18 48 -26
57 -9 9 -17 39 -20 65 -2 26 -10 58 -16 71 -9 20 -7 26 15 45 14 12 31 32 37
45 12 22 12 22 -77 22 l-88 0 -37 -44 c-36 -43 -48 -76 -27 -76 18 0 11 -112
-10 -150 -11 -19 -20 -30 -20 -25 -3 19 -40 -130 -40 -160 0 -36 -85 -417 -97
-440 -8 -14 -11 -13 -28 5 -28 31 -31 107 -7 181 25 75 42 167 42 221 0 61 31
161 57 183 16 14 27 38 34 80 6 33 15 76 21 96 8 28 7 82 -1 127 -1 1 -214 1
-473 0 l-473 -3 -3 -23 c-4 -28 -26 -24 -30 6 -3 22 -6 22 -182 22 -98 0 -181
-4 -184 -9 -3 -5 -20 -11 -38 -14 -90 -13 -121 -30 -112 -60 8 -29 8 -28 27
-22 8 4 19 18 23 33 5 20 8 23 11 10 3 -11 18 -20 41 -23 20 -4 43 -8 50 -10
17 -6 15 -50 -3 -69 -19 -18 -96 -31 -121 -19 -40 18 -81 2 -89 -37 -21 -96 5
-158 49 -115 22 22 62 35 73 24 6 -6 7 -27 2 -52 -8 -45 0 -62 29 -62 18 0 19
-31 2 -49 -11 -11 -82 2 -75 13 9 16 -39 38 -73 33 -26 -3 -32 -9 -33 -31 -1
-14 -1 -29 0 -33 2 -17 -49 -37 -113 -43 l-69 -8 5 29 c3 16 17 83 31 149 15
66 31 156 37 201 6 45 15 96 20 115 6 19 10 37 10 41 0 15 -157 9 -169 -6 -20
-24 -25 -102 -8 -143 20 -51 6 -87 -56 -143 l-47 -43 -35 19 c-29 15 -35 24
-35 50 0 17 7 37 15 44 8 7 22 38 31 69 9 31 29 80 45 109 l29 52 -2323 0
-2324 0 -7 -160 c-4 -99 -3 -167 3 -178 6 -11 10 -27 9 -38 -1 -33 6 -49 27
-54 15 -4 22 -18 27 -55 13 -81 41 -158 61 -163 9 -2 17 -9 17 -14 0 -5 14
-14 30 -20 17 -5 35 -19 41 -29 5 -11 14 -17 18 -14 10 6 36 -51 36 -80 1 -25
12 -59 36 -112 10 -24 19 -49 19 -56 0 -8 3 -17 7 -21 11 -11 14 -35 13 -126
0 -71 4 -93 24 -132 22 -44 24 -46 30 -23 14 55 39 11 29 -51 -5 -28 -10 -34
-27 -32 -11 2 -21 -1 -22 -7 -2 -26 -19 -46 -57 -65 -31 -17 -49 -20 -76 -14
-20 4 -39 7 -43 6 -4 -1 -18 2 -31 7 -29 11 -39 49 -21 82 9 17 9 29 1 44 -6
11 -10 22 -9 25 7 22 -39 60 -73 60 -7 0 -26 7 -44 16 -22 11 -46 14 -79 10
-132 -17 -146 -30 -140 -129 l3 -52 -50 -3 c-51 -3 -77 -16 -73 -36 5 -25 -13
-116 -23 -116 -15 0 -89 53 -117 83 -13 14 -26 42 -29 64 -5 42 16 171 47 278
11 39 33 138 49 220 29 143 52 225 69 249 8 11 13 26 52 171 41 152 58 230 70
315 6 47 14 100 17 118 l5 32 -621 0 -621 0 0 -280z m3095 244 c27 -11 43 -64
35 -122 -7 -60 -29 -83 -75 -79 -24 2 -34 10 -52 47 -39 76 -27 144 27 153 42
7 48 7 65 1z m3905 -44 c0 -5 -4 -10 -9 -10 -6 0 -13 5 -16 10 -3 6 1 10 9 10
9 0 16 -4 16 -10z m1475 -125 c0 -22 -31 -33 -47 -17 -17 17 -1 44 24 40 15
-2 23 -10 23 -23z m1105 -10 c0 -25 -23 -35 -35 -15 -10 16 2 40 20 40 9 0 15
-9 15 -25z m-190 5 c0 -5 -2 -10 -4 -10 -3 0 -8 5 -11 10 -3 6 -1 10 4 10 6 0
11 -4 11 -10z m-1556 -160 c-3 -41 -19 -135 -35 -208 -17 -75 -26 -144 -23
-158 4 -17 1 -29 -10 -37 -20 -15 -46 -137 -39 -183 4 -25 8 -31 14 -22 15 24
10 -29 -7 -72 -31 -78 -62 -36 -49 68 4 31 6 86 6 122 -2 69 4 115 39 305 12
66 27 154 34 195 10 67 14 75 36 80 14 4 28 2 32 -4 4 -6 5 -45 2 -86z m-4708
55 c11 -8 42 -14 74 -15 62 0 100 -20 100 -51 0 -24 16 -25 29 0 20 37 59 42
270 39 l203 -3 29 -33 c37 -41 38 -84 4 -117 -24 -25 -24 -25 -235 -25 -217 0
-246 5 -279 43 -10 13 -15 12 -36 -9 -29 -28 -40 -29 -136 -8 -85 19 -164 55
-173 80 -9 24 12 81 37 99 27 19 87 19 113 0z m5072 -18 c3 -21 -2 -29 -21
-36 -32 -12 -40 -26 -33 -56 5 -18 12 -23 32 -22 16 1 31 -5 38 -16 9 -15 7
-22 -13 -38 -30 -25 -46 -24 -73 4 -29 28 -31 105 -5 132 9 9 17 20 17 25 0
14 32 41 44 37 6 -2 12 -16 14 -30z m-2350 1 c8 -8 8 -17 0 -31 -7 -14 -7 -31
1 -59 18 -58 5 -68 -83 -68 -39 0 -82 6 -96 13 -48 24 -40 92 16 136 21 16 41
21 88 21 34 0 67 -5 74 -12z m-5458 -55 c28 -34 50 -72 50 -88 0 -8 16 -21 35
-29 58 -25 47 -89 -20 -123 -11 -6 -37 -13 -57 -17 -39 -7 -70 -39 -61 -62 3
-8 0 -27 -7 -43 -8 -21 -21 -31 -44 -35 -19 -4 -40 -4 -47 -1 -16 6 -63 164
-63 213 0 40 31 74 71 77 15 1 34 3 41 3 8 1 12 22 12 62 0 54 3 62 23 69 24
10 44 2 67 -26z m6607 -87 c19 -28 6 -106 -17 -106 -12 0 -47 60 -54 96 -7 30
-6 30 29 26 19 -2 38 -9 42 -16z m2430 -18 c15 -20 10 -42 -11 -46 -25 -5 -39
12 -31 37 7 23 28 28 42 9z m212 -12 c9 -11 10 -20 1 -35 -14 -27 -26 -27 -40
0 -21 39 12 68 39 35z m-1301 -49 c2 -10 -3 -17 -11 -17 -16 0 -30 24 -19 34
10 10 27 1 30 -17z m-6663 -17 c3 -5 1 -10 -4 -10 -6 0 -11 5 -11 10 0 6 2 10
4 10 3 0 8 -4 11 -10z m4333 -2 c24 -24 14 -74 -19 -103 -34 -28 -46 -25 -50
15 -7 77 31 126 69 88z m2171 -11 c74 -31 119 -172 80 -249 -20 -39 -25 -103
-10 -113 13 -7 41 23 58 62 8 21 11 48 7 74 -7 40 -6 41 22 37 28 -3 29 -5 36
-73 4 -38 9 -129 11 -201 3 -72 9 -139 14 -150 12 -22 25 -168 24 -265 -1 -37
6 -86 14 -109 9 -26 12 -48 6 -58 -14 -27 -22 -108 -23 -227 -1 -128 7 -179
28 -171 8 3 14 1 14 -4 0 -5 7 -7 16 -3 10 4 15 1 13 -8 -2 -15 8 -43 41 -111
11 -23 20 -47 20 -54 0 -7 14 -25 30 -41 50 -47 40 -63 -43 -68 -29 -2 -65 -6
-82 -10 -25 -5 -38 0 -75 28 -57 44 -94 53 -127 32 l-25 -17 31 -32 c51 -52
37 -70 -42 -55 -60 11 -103 34 -118 62 -6 12 -24 34 -40 49 -36 33 -36 30 -8
388 13 168 26 280 34 288 9 10 17 9 38 -8 22 -18 27 -30 27 -68 1 -46 1 -46
15 -22 8 14 14 34 15 45 0 11 9 35 20 52 16 26 21 58 25 150 8 181 14 265 19
295 6 33 -10 46 -31 25 -10 -10 -17 -42 -21 -86 -6 -86 -21 -105 -58 -70 -35
33 -56 113 -43 164 10 37 22 167 33 345 6 88 17 190 21 190 1 0 17 -6 34 -13z
m344 7 c3 -4 2 -16 -4 -26 -13 -24 -33 -10 -23 15 6 18 16 21 27 11z m-1064
-128 c-1 -28 0 -53 1 -56 1 -3 3 -47 5 -98 1 -72 -1 -92 -11 -88 -7 3 -15 -2
-18 -10 -7 -18 -4 -30 7 -26 5 1 6 -6 2 -17 -3 -12 0 -21 10 -25 8 -3 15 -15
15 -27 0 -12 8 -23 20 -26 13 -3 24 -20 31 -47 12 -42 12 -129 1 -133 -4 -2
-6 -46 -5 -99 1 -72 6 -101 18 -114 14 -16 14 -19 -3 -40 -17 -21 -22 -22 -52
-11 -44 15 -70 39 -70 66 0 26 -46 122 -73 152 -30 33 -54 168 -30 168 6 0 15
3 19 8 4 4 15 7 24 7 26 0 18 43 -10 57 -27 13 -49 56 -25 47 8 -3 24 1 36 9
12 9 28 13 35 10 8 -3 14 -1 14 4 0 17 -12 22 -30 13 -16 -8 -18 -4 -22 30 -2
22 -1 40 2 40 10 0 39 65 46 103 3 20 10 37 14 37 10 0 10 49 0 55 -4 2 -5 16
-3 30 3 13 9 22 14 19 5 -3 9 2 9 10 0 10 6 13 15 10 11 -5 15 -20 14 -58z
m1056 -35 c7 -12 -15 -61 -29 -63 -32 -4 -66 -3 -66 3 0 10 69 69 80 69 5 0
11 -4 15 -9z m943 -67 c4 -41 -24 -54 -40 -19 -13 30 -4 58 19 53 12 -2 19
-14 21 -34z m202 -8 c0 -29 -10 -38 -29 -27 -17 11 -5 51 15 51 8 0 14 -10 14
-24z m-7511 -3 c5 -10 9 -21 9 -26 0 -4 3 -24 6 -45 4 -20 11 -81 16 -134 5
-53 17 -118 26 -145 10 -26 18 -78 19 -114 1 -36 7 -74 12 -84 15 -26 6 -49
-27 -68 -30 -18 -75 -23 -84 -8 -5 7 -19 344 -19 451 0 69 15 190 24 190 4 0
13 -8 18 -17z m1850 -29 c25 -20 31 -34 31 -64 0 -57 -31 -90 -84 -90 -75 0
-117 51 -95 117 20 62 96 81 148 37z m-2064 -39 c43 -42 28 -118 -24 -130 -41
-9 -66 0 -79 31 -17 37 -15 68 9 98 26 33 62 34 94 1z m1318 7 c10 -15 1 -32
-17 -32 -18 0 -39 26 -32 38 8 13 39 10 49 -6z m2437 -56 c0 -3 -4 -8 -10 -11
-5 -3 -10 -1 -10 4 0 6 5 11 10 11 6 0 10 -2 10 -4z m2879 -28 c17 -47 20
-136 5 -155 -13 -17 -15 -17 -33 4 -27 32 -36 116 -15 148 20 31 32 32 43 3z
m-604 -119 c1 -117 -6 -149 -29 -149 -14 0 -56 115 -56 152 0 28 28 91 47 106
32 24 38 8 38 -109z m-2292 -4 c8 -18 -11 -31 -25 -17 -11 11 -3 32 12 32 4 0
10 -7 13 -15z m1136 -13 c23 -17 26 -26 27 -91 1 -39 -2 -74 -7 -77 -5 -3 -9
-16 -9 -30 0 -16 -6 -24 -17 -24 -9 0 -14 -3 -10 -6 3 -4 -4 -21 -17 -38 -19
-26 -22 -37 -14 -63 11 -41 39 -44 66 -6 11 15 24 23 30 19 17 -10 15 -26 -3
-26 -8 0 -15 -7 -15 -15 0 -13 4 -14 20 -5 11 6 20 17 20 25 0 8 5 15 10 15 6
0 10 -4 10 -10 0 -15 27 -12 33 4 3 7 0 19 -6 25 -8 8 -8 14 1 23 18 18 37 -6
34 -45 -2 -17 6 -50 18 -72 11 -21 20 -55 20 -73 0 -34 -1 -34 -32 -27 -30 7
-108 13 -180 15 -16 0 -38 12 -55 29 -28 28 -107 61 -148 61 -27 0 -73 22
-102 49 -13 13 -34 20 -55 20 -38 -2 -61 3 -69 13 -3 5 -32 10 -64 13 -33 3
-63 11 -67 18 -4 7 -11 12 -15 13 -4 1 -23 5 -40 9 -33 8 -46 25 -18 25 8 0
15 3 15 8 0 4 12 8 26 9 38 2 55 23 18 22 -77 -2 -119 9 -133 33 -9 16 -11 32
-6 44 5 10 9 23 9 27 1 5 9 14 19 21 9 7 17 18 17 25 0 6 6 11 14 11 8 0 21 3
30 6 11 4 16 0 16 -11 0 -16 10 -17 128 -10 136 7 178 18 123 30 -18 4 -30 10
-26 13 15 15 151 29 259 26 99 -2 124 -6 145 -22z m-1159 -56 c0 -8 -7 -16
-15 -20 -10 -4 -15 1 -15 14 0 11 7 20 15 20 8 0 15 -6 15 -14z m-2893 -31
c13 -14 13 -18 -1 -40 -18 -27 -49 -29 -64 -4 -8 12 -7 22 4 38 18 25 39 27
61 6z m6747 -1 c8 -22 -4 -64 -19 -64 -22 0 -38 28 -31 55 7 28 40 34 50 9z
m-3591 -138 c10 -8 17 -18 16 -22 -4 -23 4 -32 32 -38 25 -5 30 -10 26 -26 -3
-11 -1 -20 3 -20 5 0 16 -8 25 -17 11 -10 32 -16 54 -15 20 0 46 1 59 1 13 1
37 15 54 31 16 17 31 30 32 30 2 0 13 -9 26 -20 17 -14 33 -18 64 -15 22 2 49
2 59 -1 15 -5 15 -7 2 -20 -10 -11 -23 -13 -47 -6 -24 6 -41 3 -67 -10 -20
-10 -35 -22 -35 -26 1 -4 -14 -14 -32 -23 -19 -8 -40 -23 -47 -33 -10 -13 -31
-19 -83 -23 -38 -2 -93 -14 -122 -25 -35 -14 -57 -17 -63 -11 -13 13 -13 88 0
143 5 25 6 49 2 53 -4 4 -4 27 0 50 4 23 8 45 9 50 0 11 13 8 33 -7z m2202
-66 c0 -28 -4 -35 -20 -35 -13 0 -21 8 -23 23 -5 34 5 54 25 50 13 -2 18 -13
18 -38z m1409 -102 c11 -15 12 -26 5 -40 -12 -23 -31 -23 -53 1 -15 16 -15 22
-4 40 16 27 33 27 52 -1z m-7414 -23 c0 -8 -7 -15 -15 -15 -8 0 -15 7 -15 15
0 8 7 15 15 15 8 0 15 -7 15 -15z m7774 -148 c8 -13 7 -20 -4 -27 -20 -12 -45
12 -36 35 7 20 25 16 40 -8z m-8311 -17 c5 -19 -28 -40 -50 -33 -13 5 -18 35
-8 45 13 13 54 4 58 -12z m-193 -45 c10 -11 9 -18 -4 -30 -14 -14 -19 -14 -51
-1 -38 16 -45 32 -17 39 35 9 60 7 72 -8z m4715 -45 c4 -6 -5 -10 -20 -10 -15
0 -24 4 -20 10 3 6 12 10 20 10 8 0 17 -4 20 -10z m3449 -12 c22 -31 20 -45
-8 -63 -48 -32 -91 28 -50 69 21 22 40 20 58 -6z m206 -33 c15 -18 6 -45 -15
-45 -18 0 -30 24 -21 45 7 19 20 19 36 0z m-3224 -23 c10 -7 29 -68 38 -127
11 -72 27 -110 60 -144 45 -46 48 -68 6 -46 -16 8 -39 15 -50 15 -18 0 -21 -5
-18 -32 3 -28 7 -33 33 -36 27 -2 199 -38 235 -49 24 -7 -42 46 -85 69 -37 19
-85 64 -85 80 0 4 -7 14 -16 22 -19 20 -10 52 16 59 21 5 27 31 10 42 -13 8
-13 25 -1 25 6 0 29 -13 53 -28 71 -47 168 -77 168 -52 0 5 26 22 58 37 31 14
74 39 96 55 31 22 42 25 58 17 17 -9 19 -17 14 -47 -3 -21 -6 -56 -6 -79 0
-35 -7 -50 -52 -102 -29 -34 -58 -61 -65 -61 -6 0 -20 -13 -30 -30 -9 -16 -22
-30 -27 -30 -5 0 58 -34 140 -75 84 -43 187 -104 237 -141 145 -110 289 -278
385 -451 35 -64 37 -66 40 -38 3 44 22 105 31 105 29 0 47 -82 31 -141 -9 -31
-15 -40 -28 -37 -14 4 -9 -20 30 -137 49 -148 72 -265 49 -250 -14 8 -9 -62
11 -168 22 -117 -9 -342 -45 -320 -6 4 -8 0 -4 -10 3 -9 2 -19 -2 -22 -5 -2
-12 -24 -15 -48 -4 -24 -16 -60 -27 -81 -11 -21 -17 -45 -15 -54 8 -23 -31
-85 -46 -76 -8 5 -9 2 -5 -10 5 -12 -3 -28 -22 -49 -56 -60 -81 -92 -81 -104
0 -7 -13 -19 -29 -27 -25 -13 -66 -57 -121 -130 -13 -17 -13 -18 -1 -11 16 9
-31 -58 -61 -88 -10 -10 -18 -22 -18 -28 0 -6 -4 -7 -10 -4 -5 3 -10 1 -10 -4
0 -6 -8 -11 -17 -11 -10 0 -31 -14 -47 -30 -16 -16 -37 -32 -47 -35 -11 -4
-19 -11 -19 -17 0 -6 -17 -8 -42 -4 -36 5 -38 4 -14 -4 35 -11 94 -51 101 -68
3 -8 0 -10 -6 -6 -8 5 -9 2 -1 -12 15 -28 -12 -77 -39 -69 -12 4 -19 2 -19 -7
0 -24 -20 15 -21 42 -1 22 -2 23 -7 5 -7 -20 -24 -26 -37 -13 -4 4 -16 3 -26
-2 -21 -12 -25 -7 -34 43 -8 40 4 63 40 77 14 6 16 9 4 9 -24 1 -67 -43 -74
-76 -11 -49 -13 -51 -47 -58 -18 -4 -39 -12 -46 -18 -7 -5 -34 -11 -60 -14
-26 -2 -51 -9 -57 -16 -5 -6 -19 -12 -30 -12 -11 0 -19 -6 -17 -13 1 -8 -2
-11 -8 -7 -6 3 -17 -1 -26 -9 -18 -18 -47 -20 -74 -6 -13 7 -21 7 -26 -2 -4
-7 -3 -8 4 -4 7 4 12 2 12 -3 0 -7 -22 -9 -62 -6 -135 9 -174 16 -200 35 -15
11 -35 20 -45 20 -14 -1 -13 -4 7 -16 l25 -15 -32 6 c-79 13 -93 17 -93 31 0
8 -10 14 -22 15 -13 0 -32 5 -43 10 -15 7 -12 7 14 3 33 -6 33 -6 14 13 -15
15 -30 19 -67 16 -44 -3 -47 -2 -41 16 5 17 0 21 -32 26 -21 3 -45 10 -54 14
-8 5 -23 5 -33 -1 -12 -7 -22 -6 -32 3 -14 12 -14 14 2 19 13 5 7 11 -27 27
-40 19 -45 19 -55 4 -7 -9 -10 -18 -8 -21 3 -2 8 0 12 6 5 7 15 6 30 -2 15 -7
20 -14 12 -19 -6 -4 -16 -2 -23 3 -7 5 -20 6 -31 3 -17 -7 -17 -8 5 -22 13 -8
45 -23 72 -33 47 -18 66 -33 25 -20 -119 36 -187 67 -192 87 l-7 22 -9 -23
c-7 -16 -18 -22 -40 -22 -16 0 -30 -4 -30 -10 0 -5 -5 -10 -11 -10 -5 0 -7 4
-4 10 3 5 0 8 -7 5 -33 -11 -85 73 -67 107 17 31 82 24 125 -15 37 -31 37 -31
19 -4 -21 33 -45 47 -80 47 -26 0 -92 32 -149 73 -64 46 -126 69 -126 48 0 -5
-11 -4 -24 2 -15 7 -21 16 -16 21 6 6 16 4 26 -5 16 -12 17 -12 11 5 -6 14 -4
17 8 12 9 -3 13 -2 10 4 -3 6 -14 10 -25 10 -13 0 -17 5 -13 20 6 23 7 24 36
9 22 -11 22 -11 -1 14 -13 13 -23 31 -22 38 5 32 -1 69 -10 69 -5 0 -7 -6 -4
-14 10 -25 -23 -43 -78 -44 -49 -1 -55 1 -78 33 -14 19 -31 35 -39 35 -10 0
-12 9 -7 33 6 33 38 67 62 67 10 0 11 6 4 24 -5 13 -6 26 -3 29 3 3 -9 19 -26
36 -17 17 -31 35 -31 40 0 5 -7 17 -16 25 -8 9 -11 16 -5 16 5 0 3 14 -6 30
-8 17 -19 28 -24 25 -8 -6 -13 8 -10 28 0 4 -4 7 -10 7 -11 0 -9 -25 5 -75 4
-11 0 -6 -8 10 -8 17 -16 44 -19 60 -4 17 -9 41 -12 55 -4 18 -2 16 9 -7 16
-34 40 -43 49 -19 6 16 -18 127 -33 157 -12 22 -36 25 -43 5 -3 -7 -1 -31 4
-52 12 -54 11 -61 -6 -38 -13 17 -14 10 -10 -72 l5 -91 -56 -2 c-50 -2 -61 1
-95 28 -43 35 -51 38 -42 14 4 -11 3 -14 -5 -9 -7 4 -12 14 -12 22 0 8 -4 14
-10 14 -5 0 -10 5 -10 11 0 8 6 7 17 -2 15 -12 16 -12 11 6 -3 11 -9 28 -13
37 -5 13 2 23 27 38 48 30 104 22 142 -22 19 -20 27 -25 22 -13 -13 33 -21
259 -8 251 6 -3 13 -2 17 4 12 20 25 10 25 -20 0 -30 28 -65 52 -65 7 0 19
-13 28 -30 8 -16 18 -32 23 -33 4 -2 7 -13 7 -25 1 -12 7 -33 15 -47 20 -34
20 -60 0 -34 -14 18 -14 17 -15 -12 0 -33 15 -54 40 -54 12 0 12 2 1 9 -10 6
-11 13 -3 27 9 16 14 11 35 -38 14 -31 34 -61 45 -67 11 -6 29 -26 40 -45 11
-19 31 -40 44 -46 18 -10 15 -4 -12 25 -33 35 -34 37 -10 30 14 -4 37 -19 52
-33 19 -17 40 -26 67 -27 22 -1 40 1 39 4 -2 24 4 32 22 26 21 -7 25 1 11 24
-11 17 -3 43 10 35 5 -3 9 0 9 5 0 6 -4 11 -10 11 -5 0 -10 10 -10 21 0 19 4
21 40 16 51 -7 99 -44 99 -78 1 -14 4 -29 8 -32 6 -7 14 -57 9 -57 -2 0 -20 7
-39 15 -44 18 -55 19 -39 3 27 -27 8 -96 -23 -84 -19 7 -19 4 8 -67 7 -21 29
-51 48 -67 19 -16 41 -36 50 -43 8 -7 23 -17 33 -20 9 -4 15 -10 12 -15 -2 -4
11 -8 30 -8 20 0 38 -5 42 -11 5 -7 12 -6 22 5 13 14 12 15 -3 9 -15 -6 -16
-4 -7 14 6 11 16 19 23 18 29 -3 35 3 33 33 -1 26 4 34 25 42 15 5 35 6 44 2
16 -6 17 -8 1 -24 -9 -10 -16 -30 -16 -44 0 -24 4 -26 51 -30 60 -4 65 -1 39
21 -20 17 -29 58 -17 77 4 7 -3 14 -18 18 -13 3 -39 20 -57 36 -18 17 -41 30
-51 30 -14 0 -18 5 -14 20 3 14 0 20 -11 20 -8 0 -12 3 -9 7 4 3 2 12 -4 19
-7 9 -2 14 20 19 34 7 36 9 45 47 4 20 -1 33 -23 57 -26 28 -27 30 -7 25 13
-3 29 3 44 16 14 14 22 16 23 8 0 -7 2 -22 5 -33 2 -11 6 -32 8 -47 4 -31 124
-169 173 -199 29 -18 36 -19 63 -7 38 17 38 28 0 28 -16 0 -30 4 -30 9 0 5 17
7 39 4 25 -3 41 -1 46 7 5 9 4 11 -3 6 -7 -4 -12 -2 -12 4 0 8 10 9 31 5 26
-6 30 -4 27 12 -2 14 3 17 23 15 36 -3 63 30 64 79 0 34 -2 39 -22 39 -20 0
-22 4 -17 33 4 17 14 38 22 45 10 7 11 12 4 12 -7 0 -12 7 -12 15 0 8 -3 15
-8 15 -4 0 -12 10 -17 23 -6 14 -19 22 -34 22 -16 0 -27 8 -32 24 -10 26 -4
41 16 41 39 0 37 65 -2 102 -25 23 -25 23 -19 1 11 -34 -13 -39 -40 -8 -13 16
-24 34 -24 42 0 7 -7 13 -15 13 -8 0 -15 4 -15 9 0 5 -9 11 -20 14 -21 5 -28
27 -9 27 5 0 7 5 4 11 -4 6 -12 8 -19 6 -8 -3 -11 6 -8 27 3 26 8 32 25 32 14
-1 22 5 22 15 0 28 30 48 64 44 23 -3 31 0 31 11 0 9 -5 12 -12 8 -6 -4 -8 -3
-4 4 5 8 15 8 37 0 33 -11 85 4 74 21 -3 5 -1 12 4 15 5 3 11 -4 15 -16 10
-41 29 -5 21 41 -7 40 -8 41 -45 41 -21 0 -41 4 -45 10 -3 5 -12 7 -20 3 -8
-3 -15 0 -15 7 0 7 -8 10 -19 7 -10 -2 -24 -1 -30 3 -18 10 -16 86 2 104 8 9
17 21 19 28 4 10 8 10 21 -1 11 -9 21 -10 30 -4 6 5 21 10 32 10 11 1 25 3 30
4 6 2 42 -3 80 -10 58 -11 74 -11 95 1 14 7 25 19 26 26 2 29 5 33 14 27 6 -3
10 -1 10 4 0 6 6 11 14 11 8 0 18 9 21 20 3 11 11 20 16 20 6 0 4 7 -5 15 -17
17 -51 8 -51 -14 0 -8 -6 -16 -14 -19 -8 -3 -11 0 -8 5 4 6 -18 21 -48 34 -30
13 -55 27 -55 32 0 13 -27 37 -42 37 -7 0 -21 7 -31 14 -18 14 -67 10 -67 -6
0 -6 7 -8 15 -5 8 4 17 2 20 -4 6 -9 -1 -13 -47 -23 -29 -7 -39 -26 -13 -26
29 0 15 -19 -16 -22 -19 -2 -36 -11 -43 -23 -17 -31 -24 -33 -73 -24 -54 10
-73 24 -73 51 0 17 -2 18 -15 8 -9 -7 -18 -10 -22 -6 -9 9 28 35 52 36 22 0
85 57 85 77 0 8 -12 13 -30 13 -16 0 -44 9 -62 20 -18 11 -42 20 -53 20 -11 0
-27 5 -35 11 -12 9 -13 12 -1 16 18 7 46 41 46 55 0 7 15 16 33 20 28 8 31 12
26 33 -5 19 -2 25 10 25 9 0 16 5 16 11 0 6 -9 8 -22 3 -20 -6 -21 -5 -9 10
16 19 6 35 -11 18 -11 -11 -48 -17 -48 -8 0 2 7 20 15 40 13 30 13 36 1 36 -7
0 -31 21 -52 46 -22 25 -44 51 -51 59 -7 7 -9 15 -6 19 4 3 1 6 -5 6 -7 0 -12
-4 -12 -10 0 -5 -6 -10 -12 -10 -7 0 -1 11 14 24 l27 24 -24 5 c-17 3 -31 -3
-47 -20 -18 -20 -29 -23 -55 -18 -18 3 -42 0 -55 -6 -13 -7 -30 -15 -38 -19
-8 -4 -15 -14 -15 -23 0 -22 -15 -34 -24 -19 -14 24 -66 -6 -100 -57 -17 -27
-31 -53 -31 -58 0 -4 -14 -25 -31 -46 -26 -31 -35 -36 -62 -33 -18 3 -38 5
-45 5 -10 1 -9 8 3 31 8 16 15 39 15 51 0 21 41 67 118 132 19 16 30 32 26 35
-3 4 -9 1 -11 -5 -3 -7 -13 -13 -24 -13 -10 0 -19 -4 -19 -10 0 -5 -11 -10
-24 -10 -31 0 -100 -45 -117 -76 -7 -13 -16 -24 -21 -24 -5 0 0 13 12 30 14
19 19 37 15 50 -7 24 12 53 28 43 6 -3 7 -1 3 5 -11 17 120 142 215 204 101
67 184 109 301 154 71 28 116 37 247 51 149 17 161 19 170 41 6 12 16 25 23
27 69 24 69 24 58 45 -14 25 -53 26 -71 1 -16 -21 -89 -39 -89 -21 0 5 9 18
20 28 22 18 51 102 52 152 1 16 5 30 10 30 4 0 8 6 8 13 0 36 104 81 136 59z
m864 -28 c0 -8 5 -14 11 -14 6 0 9 -7 6 -15 -4 -8 -2 -17 3 -20 17 -10 11 -61
-9 -79 -17 -16 -20 -16 -35 0 -28 27 -14 166 15 149 5 -4 9 -13 9 -21z m-1221
-2 c12 -22 -2 -47 -22 -39 -10 3 -13 14 -10 31 6 30 18 33 32 8z m-301 -72
c10 0 37 -18 59 -39 58 -57 138 -73 208 -42 11 5 27 12 35 15 8 3 24 13 36 21
18 13 23 13 40 0 18 -14 18 -15 -11 -42 l-29 -28 27 -9 c27 -10 35 -30 17 -41
-6 -4 -8 -11 -5 -16 4 -5 0 -9 -8 -9 -8 0 -35 -16 -61 -36 -57 -43 -148 -68
-215 -58 -34 5 -54 16 -82 45 -21 22 -44 39 -52 39 -14 0 -37 40 -37 64 0 8
-7 19 -15 26 -23 19 -19 91 6 119 19 21 22 21 45 7 13 -9 32 -16 42 -16z
m1422 -174 c-16 -48 -34 -47 -25 1 9 48 15 57 27 45 7 -7 6 -22 -2 -46z
m-1655 14 c3 -5 3 -15 -1 -21 -6 -11 -23 6 -24 24 0 10 18 9 25 -3z m1971
-245 c-9 -210 -17 -328 -22 -365 l-6 -35 -28 33 c-24 29 -27 41 -25 85 2 29 6
115 10 192 7 158 19 228 43 251 14 15 16 14 25 -7 5 -13 6 -82 3 -154z m342
39 c12 -196 2 -261 -32 -196 -18 35 -20 217 -3 240 18 23 32 6 35 -44z m157
-114 c8 -16 15 -42 14 -57 0 -29 -17 -78 -18 -55 -1 6 -9 12 -20 12 -21 0 -31
26 -31 81 0 58 29 68 55 19z m127 -115 c14 -22 31 -35 44 -35 68 0 145 -70
124 -111 -13 -22 -16 -22 -113 1 -43 11 -55 9 -105 -9 -46 -17 -61 -29 -80
-61 -45 -79 -73 -72 -86 23 -8 67 -1 88 39 115 20 12 35 31 35 41 0 22 30 33
53 19 12 -6 20 -2 32 22 20 39 30 38 57 -5z m514 -17 c-20 -149 -63 -273 -112
-317 -25 -23 -33 -38 -28 -49 4 -10 12 -38 17 -65 10 -44 9 -52 -20 -110 -17
-34 -34 -72 -38 -84 -5 -19 -11 -21 -36 -16 -26 5 -31 2 -43 -29 -8 -19 -21
-39 -28 -45 -21 -17 -71 -22 -93 -10 -11 6 -51 10 -89 8 l-69 -2 -38 42 c-50
55 -50 82 -2 125 36 32 37 33 18 54 -19 21 -45 27 -45 10 0 -13 -40 -29 -56
-23 -14 5 -30 39 -60 131 -34 106 -19 132 38 61 30 -38 36 -40 70 -35 25 4 46
1 66 -11 28 -16 32 -16 49 -1 10 9 32 19 48 22 17 4 44 18 60 32 36 31 71 40
90 24 13 -10 18 -6 31 25 11 27 12 41 5 48 -14 14 -14 54 -1 62 14 9 50 -17
50 -37 0 -18 31 -78 41 -78 4 0 9 29 11 65 3 36 12 74 19 84 57 76 123 151
135 151 10 0 13 -9 10 -32z m-8477 -27 c24 -13 28 -86 5 -95 -8 -3 -13 -10 -9
-16 4 -6 -21 -8 -67 -5 -67 5 -160 22 -130 24 6 1 12 6 12 12 0 5 -4 7 -10 4
-13 -8 -13 11 0 36 6 11 7 19 3 18 -27 -5 -23 5 7 16 41 16 163 19 189 6z
m7666 -18 c-1 -16 -3 -41 -3 -56 -3 -37 -22 -25 -22 14 0 26 15 69 24 69 2 0
2 -12 1 -27z m-6074 -25 c-22 -20 -41 -17 -41 7 0 7 10 15 23 17 34 6 41 -2
18 -24z m7018 -96 c14 -115 14 -153 -4 -176 -8 -11 -22 -46 -31 -78 -20 -69
-50 -98 -103 -98 -75 0 -72 69 10 251 22 49 47 115 55 146 28 106 55 89 73
-45z m-2992 52 c-3 -3 -12 -4 -19 -1 -8 3 -5 6 6 6 11 1 17 -2 13 -5z m1921
-80 c3 -27 -13 -48 -32 -41 -19 7 -21 38 -4 55 16 16 32 10 36 -14z m419 -20
c7 -18 -17 -38 -31 -24 -11 11 -1 40 14 40 6 0 13 -7 17 -16z m-5073 -60 c9
-3 16 -13 16 -21 0 -23 -86 -139 -123 -167 -42 -31 -104 -48 -128 -35 -26 13
-24 30 9 67 15 17 38 51 50 76 13 24 37 54 55 65 31 20 89 27 121 15z m2071
-74 c-14 -27 -28 -50 -30 -50 -3 0 6 23 20 50 14 28 28 50 30 50 3 0 -6 -22
-20 -50z m-2799 15 c27 -41 9 -105 -36 -127 -19 -10 -54 -18 -77 -18 -37 0
-42 3 -52 31 -31 90 5 138 106 139 35 0 46 -5 59 -25z m2754 -95 c-6 -11 -13
-20 -16 -20 -2 0 0 9 6 20 6 11 13 20 16 20 2 0 0 -9 -6 -20z m2758 -38 c3
-33 -8 -41 -26 -19 -14 16 -4 59 12 54 6 -2 12 -18 14 -35z m-3661 12 c7 -19
-13 -34 -44 -34 -27 0 -31 25 -5 39 25 15 42 13 49 -5z m1403 -2 c0 -13 -12
-22 -22 -16 -10 6 -1 24 13 24 5 0 9 -4 9 -8z m160 4 c0 -3 -4 -8 -10 -11 -5
-3 -10 -1 -10 4 0 6 5 11 10 11 6 0 10 -2 10 -4z m3084 -22 c7 -17 -10 -54
-24 -54 -12 0 -24 46 -15 59 9 16 32 13 39 -5z m-3065 -51 c0 -25 -1 -25 -8
-8 -5 11 -7 23 -4 28 8 14 13 7 12 -20z m-3205 11 c32 -12 -27 -82 -86 -102
-32 -11 -43 -11 -73 4 -19 9 -35 19 -35 23 1 13 28 41 41 41 8 1 39 9 69 20
63 22 63 22 84 14z m2718 -13 c9 -15 15 -17 25 -9 10 8 13 5 13 -10 0 -12 -9
-26 -20 -32 -24 -13 -26 -42 -5 -60 22 -18 18 -30 -8 -30 -13 0 -33 -11 -45
-25 -26 -30 -42 -32 -35 -6 3 10 0 22 -6 25 -17 11 -13 26 8 26 19 0 35 25 26
40 -3 5 -13 6 -23 3 -13 -6 -12 -1 6 21 12 16 22 36 22 46 0 34 24 40 42 11z
m-777 -10 c0 -19 -29 -36 -49 -28 -14 5 -15 11 -6 27 13 24 55 24 55 1z
m-2250 -38 c57 -28 66 -42 40 -63 -8 -7 -15 -18 -15 -25 0 -10 -51 -30 -71
-27 -3 1 -5 -22 -4 -51 1 -54 0 -59 -35 -120 -19 -32 -24 -36 -38 -25 -9 7
-13 8 -9 2 3 -6 2 -37 -3 -70 -8 -46 -7 -63 5 -81 14 -20 13 -24 -6 -42 -12
-11 -34 -25 -49 -31 -24 -10 -33 -8 -68 17 -48 33 -50 42 -18 72 23 22 26 52
11 99 -7 19 -49 14 -78 -8 -28 -22 -28 -21 4 -95 17 -39 -7 -85 -45 -85 -28 1
-58 27 -81 73 -21 40 -47 48 -74 22 -9 -8 -36 -17 -59 -21 -34 -5 -42 -4 -42
8 0 30 86 121 170 181 109 77 130 97 130 118 0 9 9 19 21 22 15 4 22 -1 29
-19 5 -13 7 -30 4 -38 -3 -7 6 -33 19 -57 22 -40 29 -44 66 -47 31 -2 41 0 41
12 0 8 -5 16 -11 18 -15 5 -17 84 -2 99 11 11 29 15 71 18 22 2 24 29 3 50
-33 33 -37 68 -10 97 28 30 36 30 104 -3z m1395 -23 c30 -21 38 -70 15 -94
-57 -56 -154 32 -115 104 12 23 60 18 100 -10z m-3644 -7 c13 -49 -56 -80 -71
-32 -11 34 4 59 35 59 24 0 31 -5 36 -27z m2704 -12 c0 -18 -18 -21 -30 -6
-10 13 -9 15 9 15 11 0 21 -4 21 -9z m3087 -5 c-3 -8 1 -17 9 -20 8 -3 14 -1
14 4 0 6 5 10 10 10 6 0 10 -13 10 -29 0 -16 7 -34 16 -41 8 -8 14 -9 13 -4
-4 21 2 34 16 34 17 0 20 -16 5 -25 -27 -17 -5 -21 35 -6 29 10 45 22 45 33 0
11 7 16 20 15 25 -2 26 -19 0 -37 -12 -8 -16 -18 -11 -24 10 -12 15 -54 13
-98 -2 -23 -7 -28 -26 -28 -14 0 -28 -5 -31 -11 -4 -6 -14 -8 -22 -5 -17 7
-93 -15 -93 -27 0 -4 14 -10 30 -13 31 -7 42 -24 14 -24 -10 0 -14 -6 -10 -15
3 -8 0 -15 -6 -15 -7 0 -7 -5 2 -15 6 -8 9 -23 5 -35 -5 -16 -2 -20 14 -20 12
0 21 -4 21 -8 0 -5 12 -15 26 -22 17 -9 24 -20 21 -32 -3 -10 -1 -18 4 -18 5
0 12 -12 15 -27 10 -39 31 -68 51 -68 9 0 18 -6 21 -14 3 -10 0 -12 -12 -8
-20 8 -20 8 1 -39 9 -22 19 -60 23 -86 6 -45 5 -48 -15 -48 -23 0 -47 22 -59
54 -4 11 -12 16 -21 12 -16 -6 -55 13 -55 26 0 5 7 8 15 8 23 0 18 16 -10 34
-30 20 -33 36 -5 29 11 -3 20 -3 20 1 0 13 -41 47 -50 41 -5 -3 -14 4 -20 15
-6 11 -20 20 -32 20 -12 0 -18 3 -15 6 3 4 2 15 -3 25 -7 13 -6 22 5 33 21 21
4 53 -32 62 -20 5 -31 2 -44 -15 -10 -12 -15 -29 -12 -38 4 -11 2 -14 -5 -9
-7 4 -12 20 -12 37 0 27 -2 29 -40 29 -43 0 -52 13 -20 30 21 11 17 40 -7 40
-8 0 -11 5 -7 11 5 9 -11 10 -59 5 -47 -5 -67 -4 -73 5 -5 9 -2 10 10 6 27
-10 58 10 51 34 -4 10 -2 19 4 19 6 0 15 9 22 21 9 17 7 25 -9 42 -29 32 -8
73 31 61 9 -3 17 -1 17 5 0 6 7 11 15 11 24 0 18 16 -17 49 -18 17 -29 33 -26
37 4 3 17 -3 29 -15 17 -16 25 -18 30 -9 7 10 11 10 21 0 9 -9 14 -6 24 16
l12 27 7 -32 c6 -25 13 -33 29 -33 12 0 27 -5 34 -12 9 -9 12 -7 12 9 0 12 -4
24 -9 27 -10 7 9 56 23 56 4 0 6 -6 3 -14z m2204 -116 c10 -28 19 -69 19 -91
l0 -41 38 5 c20 3 51 9 69 13 l32 6 -9 -33 c-14 -47 -13 -49 14 -49 24 0 54
-25 43 -36 -9 -10 -68 7 -73 21 -4 9 -14 8 -42 -6 -35 -18 -122 -26 -135 -12
-4 3 5 15 20 25 34 22 28 23 -27 3 -23 -8 -56 -15 -72 -15 -47 0 -17 27 38 36
53 8 62 18 33 37 -26 19 -38 71 -39 164 0 47 4 73 12 75 18 6 57 -45 79 -102z
m-2471 59 c0 -5 -4 -9 -10 -9 -5 0 -10 7 -10 16 0 8 5 12 10 9 6 -3 10 -10 10
-16z m3025 -19 c15 -14 37 -19 90 -20 39 0 81 -1 95 -1 30 -1 60 -25 60 -49 0
-24 -26 -44 -47 -36 -9 4 -48 1 -87 -5 -62 -11 -75 -10 -103 5 -20 10 -30 21
-27 30 7 18 -40 29 -104 24 -38 -2 -47 0 -50 15 -2 10 4 20 15 24 10 3 29 15
43 25 29 23 83 17 115 -12z m-5931 -27 c-3 -28 -30 -56 -49 -50 -5 2 -11 15
-13 30 -2 20 3 29 25 40 35 19 41 15 37 -20z m-174 10 c34 -20 36 -32 16 -72
-10 -18 -31 -34 -59 -45 -42 -16 -45 -19 -51 -65 -4 -29 -16 -59 -30 -76 -19
-22 -23 -38 -22 -80 1 -28 8 -62 17 -75 13 -20 23 -23 66 -21 46 1 55 -2 82
-31 27 -30 37 -33 107 -39 68 -5 80 -9 101 -34 36 -42 25 -66 -38 -79 -14 -3
-36 -15 -50 -27 -30 -26 -91 -21 -121 11 -19 20 -26 21 -99 15 -64 -6 -84 -4
-104 9 -29 19 -92 21 -132 4 -35 -14 -39 -15 -62 -17 -31 -2 -94 -59 -121
-109 l-26 -47 -114 0 c-63 0 -120 3 -125 7 -6 4 -31 8 -55 10 -44 3 -45 4 -44
35 2 29 -2 34 -30 42 -22 7 -25 10 -11 11 33 4 50 -1 58 -16 5 -8 13 -12 18
-9 5 4 6 11 3 17 -4 6 1 8 12 6 10 -2 29 7 43 19 22 22 50 27 112 23 14 0 31
6 38 14 7 8 26 18 42 21 16 4 29 11 29 17 0 6 3 9 6 5 8 -7 64 20 64 31 0 12
87 48 135 56 54 10 102 41 122 79 15 29 15 32 -2 42 -10 5 -27 18 -37 28 -18
17 -18 20 -4 36 20 22 20 61 2 105 -18 43 -6 56 50 56 25 0 49 6 58 16 20 19
20 18 0 60 -13 27 -14 41 -6 58 9 20 18 23 72 25 43 1 70 -4 90 -16z m3065
-63 c3 -5 1 -10 -4 -10 -6 0 -11 5 -11 10 0 6 2 10 4 10 3 0 8 -4 11 -10z
m-91 -65 c9 -13 24 -49 33 -80 13 -42 21 -54 33 -50 11 4 11 2 -2 -8 -12 -10
-18 -31 -20 -71 -2 -46 -5 -54 -14 -42 -12 17 -39 22 -29 6 3 -5 2 -10 -3 -10
-5 0 -12 10 -16 23 -5 18 -8 19 -16 7 -7 -12 -12 -7 -25 24 -14 32 -15 47 -5
84 8 32 8 48 0 58 -16 18 -3 39 15 24 16 -13 26 8 18 39 -7 29 11 26 31 -4z
m-480 -52 c-3 -38 -11 -77 -15 -88 -9 -20 -8 -3 6 108 10 73 18 56 9 -20z
m-2130 -4 c15 -16 32 -29 37 -29 5 0 8 -3 7 -7 -2 -5 7 -18 20 -30 29 -30 28
-49 -7 -83 -49 -49 -99 -10 -85 67 5 29 1 40 -25 73 -17 21 -31 42 -31 45 0
16 57 -9 84 -36z m1076 30 c113 -1 232 1 265 4 41 3 65 1 79 -9 11 -7 29 -11
41 -8 26 7 49 -18 41 -44 -6 -17 -36 -27 -36 -12 0 8 -32 9 -45 1 -5 -3 -133
-6 -282 -6 -150 0 -273 -3 -273 -7 0 -21 -20 -4 -29 25 -14 40 -5 70 18 63 9
-3 108 -6 221 -7z m2055 -37 c-3 -3 -11 0 -18 7 -9 10 -8 11 6 5 10 -3 15 -9
12 -12z m-3400 -52 c22 -11 56 -19 78 -18 50 2 89 -36 85 -83 -4 -58 -62 -75
-110 -32 -17 15 -50 15 -143 -1 -11 -2 -30 3 -42 11 -32 21 -25 88 11 120 33
28 70 29 121 3z m2295 10 c16 0 70 -52 70 -67 0 -9 -8 -21 -17 -28 -10 -7 -17
-28 -19 -52 -3 -60 -13 -83 -36 -83 -21 0 -57 36 -58 58 0 7 -7 15 -15 18 -8
4 -15 12 -15 20 0 17 -17 18 -23 2 -3 -7 -6 -3 -6 10 -1 14 3 21 10 17 6 -4 5
2 -2 14 -12 17 -10 24 7 48 24 32 63 55 82 48 8 -3 17 -5 22 -5z m3130 -42
c11 -12 20 -30 20 -39 0 -10 5 -21 10 -24 6 -3 10 -1 10 4 0 6 5 11 10 11 6 0
10 -11 10 -25 0 -36 18 -31 85 25 64 53 79 59 89 34 8 -22 1 -31 -45 -55 -22
-11 -60 -41 -85 -66 -24 -26 -45 -45 -47 -42 -2 2 -8 15 -13 29 -10 23 -11 22
-17 -17 -5 -27 -14 -46 -27 -53 -11 -6 -20 -19 -20 -30 0 -10 -7 -23 -16 -28
-13 -7 -9 -15 20 -47 31 -33 36 -46 36 -86 0 -30 -6 -53 -16 -63 -21 -21 -26
-20 -59 10 -28 26 -28 27 -12 55 9 16 12 29 7 29 -10 0 -50 -54 -50 -68 0 -5
-11 -17 -24 -25 -29 -20 -49 -4 -39 31 3 12 0 28 -5 35 -21 25 16 85 63 103
45 17 46 20 26 94 -10 34 -10 49 -1 63 13 21 4 80 -11 71 -6 -3 -9 11 -7 36 1
25 8 45 17 50 28 16 70 11 91 -12z m404 11 c14 -7 36 -28 50 -48 21 -30 23
-42 17 -71 l-8 -35 -11 27 c-7 17 -36 41 -81 68 -81 47 -92 70 -31 70 21 0 50
-5 64 -11z m-2382 -7 c15 -6 14 -8 -6 -18 -19 -9 -25 -8 -35 8 -9 15 -8 18 6
17 10 0 26 -3 35 -7z m-322 -62 c0 -5 -7 -10 -16 -10 -8 0 -12 5 -9 10 3 6 10
10 16 10 5 0 9 -4 9 -10z m-102 -11 c-2 -6 -8 -10 -13 -10 -5 0 -11 4 -13 10
-2 6 4 11 13 11 9 0 15 -5 13 -11z m-278 -70 c0 -5 -4 -9 -10 -9 -5 0 -10 7
-10 16 0 8 5 12 10 9 6 -3 10 -10 10 -16z m415 11 c3 -5 1 -10 -4 -10 -6 0
-11 5 -11 10 0 6 2 10 4 10 3 0 8 -4 11 -10z m61 -19 c-4 -5 0 -11 6 -14 10
-3 10 -8 2 -17 -9 -9 -14 -9 -19 0 -7 11 0 40 10 40 4 0 4 -4 1 -9z m-86 -105
c0 -25 -3 -28 -22 -22 -13 3 -29 6 -35 6 -18 0 -16 35 2 50 11 9 13 16 5 24
-25 25 -7 25 20 -1 20 -18 30 -38 30 -57z m-450 -38 c0 -5 -4 -8 -10 -8 -5 0
-10 10 -10 23 0 18 2 19 10 7 5 -8 10 -18 10 -22z m430 -38 c0 -5 -5 -10 -11
-10 -5 0 -7 5 -4 10 3 6 8 10 11 10 2 0 4 -4 4 -10z m96 -27 c-3 -21 -8 -53
-11 -70 -4 -21 0 -42 11 -58 20 -30 12 -32 -27 -4 -23 16 -29 28 -29 59 0 21
5 42 11 45 6 4 8 14 5 22 -6 15 19 42 38 43 4 0 5 -17 2 -37z m124 0 c0 -20
-24 -11 -28 10 -2 12 1 15 12 11 9 -3 16 -13 16 -21z m-2014 -109 c9 -35 -4
-94 -21 -94 -8 0 -17 11 -20 25 -3 14 -7 37 -10 51 -11 51 38 68 51 18z m2234
3 c0 -33 -18 -49 -42 -36 -18 10 -18 11 4 34 29 31 38 31 38 2z m-3775 -57
c-4 -14 -18 -37 -32 -52 -25 -26 -27 -26 -54 -12 -51 26 -35 96 26 113 40 11
69 -12 60 -49z m2375 51 c12 -8 12 -17 -2 -63 -9 -29 -19 -68 -23 -85 -8 -39
-24 -41 -74 -10 -31 19 -50 22 -138 22 -111 0 -121 5 -87 53 10 15 25 22 49
22 19 0 37 5 40 10 11 18 46 10 70 -16 14 -15 25 -25 26 -23 0 2 2 12 4 22 3
18 44 56 74 69 23 10 44 9 61 -1z m1200 -26 c10 -12 10 -15 -4 -15 -9 0 -16 7
-16 15 0 8 2 15 4 15 2 0 9 -7 16 -15z m2430 -5 c0 -5 -4 -10 -10 -10 -5 0
-10 5 -10 10 0 6 5 10 10 10 6 0 10 -4 10 -10z m-370 -20 c-24 -15 -36 -11
-14 4 10 8 21 12 24 10 2 -3 -2 -9 -10 -14z m-2740 -6 c0 -9 -5 -14 -12 -12
-18 6 -21 28 -4 28 9 0 16 -7 16 -16z m-470 -9 c10 -12 10 -15 -4 -15 -9 0
-16 7 -16 15 0 8 2 15 4 15 2 0 9 -7 16 -15z m-1891 -9 c16 -19 -4 -59 -26
-54 -26 5 -39 34 -24 52 17 20 35 20 50 2z m2391 -7 c0 -6 -4 -7 -10 -4 -5 3
-10 11 -10 16 0 6 5 7 10 4 6 -3 10 -11 10 -16z m405 1 c11 0 26 -9 33 -20 7
-13 8 -20 2 -20 -6 0 -13 7 -17 16 -4 11 -13 13 -34 9 -25 -6 -29 -4 -29 16 0
18 3 20 12 11 7 -7 21 -12 33 -12z m2572 4 c-3 -3 -12 -4 -19 -1 -8 3 -5 6 6
6 11 1 17 -2 13 -5z m69 -29 c-20 -15 -36 -19 -36 -10 0 5 38 23 50 24 3 0 -4
-6 -14 -14z m-4137 -41 c30 -38 26 -59 -13 -78 -29 -14 -33 -20 -30 -48 6 -44
21 -57 30 -24 12 50 68 24 72 -34 3 -37 -30 -86 -49 -75 -5 4 -9 0 -9 -7 -1
-9 -5 -8 -13 4 -23 30 -127 -4 -127 -42 0 -3 14 -19 30 -35 23 -22 33 -26 42
-17 19 19 63 14 84 -10 10 -12 13 -18 6 -14 -11 7 -12 4 -3 -13 7 -11 14 -21
17 -21 3 0 2 5 -1 10 -7 12 25 13 41 2 6 -4 17 -24 23 -45 7 -21 27 -48 46
-63 66 -50 51 -87 -36 -85 -69 1 -90 20 -84 75 2 22 7 49 10 59 4 10 3 17 -4
17 -6 0 -11 7 -11 16 0 22 -22 12 -38 -17 -12 -23 -11 -124 1 -174 3 -11 6
-28 6 -38 1 -10 24 -41 51 -68 50 -49 51 -50 100 -43 47 6 49 5 56 -21 9 -36
-2 -143 -26 -240 -10 -44 -31 -138 -46 -210 -14 -71 -30 -148 -35 -170 -4 -22
-8 -62 -9 -88 0 -59 -12 -83 -44 -91 -49 -12 -78 20 -53 58 55 85 31 138 -68
151 -95 13 -177 36 -232 65 -57 31 -107 39 -119 19 -3 -6 -15 -9 -25 -6 -10 3
-20 0 -22 -6 -4 -14 -27 1 -27 19 0 8 10 14 24 14 24 0 43 31 47 75 3 39 -1
45 -30 45 -16 0 -31 6 -34 13 -5 15 -47 -19 -47 -40 0 -15 -5 -16 -49 -7 -25
5 -35 15 -51 51 -19 44 -21 45 -57 40 -21 -2 -50 -7 -65 -11 -26 -6 -51 9 -60
36 -6 17 -62 -7 -104 -44 -39 -34 -113 -48 -132 -25 -19 23 -4 63 33 92 19 14
37 25 42 26 16 1 72 80 67 94 -3 8 -14 17 -25 20 -11 4 -26 21 -35 38 -20 40
-44 67 -58 67 -6 0 -24 -11 -40 -25 -16 -14 -39 -25 -52 -25 -32 0 -64 -37
-64 -74 0 -17 -11 -49 -25 -71 -13 -22 -25 -54 -25 -71 0 -64 -61 -84 -190
-64 -61 9 -91 20 -122 42 l-41 30 6 57 c7 70 23 101 90 174 37 40 61 57 78 57
31 0 49 17 49 47 0 34 51 111 82 124 38 16 75 14 96 -3 9 -8 34 -22 55 -32 31
-14 41 -15 53 -5 14 11 72 18 167 19 32 0 34 16 12 94 -27 94 -2 177 63 207
15 7 61 51 104 98 58 66 100 101 176 149 94 58 105 62 160 62 53 0 252 25 277
35 6 2 33 4 62 4 44 1 54 -3 72 -25z m1222 -9 l34 -15 -34 2 c-23 2 -39 11
-50 28 -14 22 -14 24 0 13 8 -7 31 -19 50 -28z m3144 4 c50 -21 77 -62 64 -96
-6 -16 -4 -36 7 -63 13 -31 14 -46 5 -70 -9 -26 -8 -32 7 -37 18 -7 32 -22 32
-37 0 -4 -7 -6 -15 -2 -10 4 -17 -3 -21 -22 -3 -15 -7 -32 -9 -38 -2 -6 -34
-15 -72 -19 -37 -4 -71 -9 -75 -11 -10 -6 38 -51 73 -70 22 -11 34 -12 43 -5
10 8 17 7 26 -4 7 -9 10 -18 7 -22 -4 -3 5 -14 18 -25 24 -18 34 -65 19 -81
-9 -8 -43 10 -76 41 -15 14 -33 22 -42 19 -8 -3 -26 3 -40 14 -16 13 -26 15
-28 7 -10 -28 -118 35 -118 69 0 12 8 14 38 8 20 -3 47 -13 59 -21 28 -17 33
-18 33 -1 0 8 -18 22 -40 32 -31 14 -55 17 -111 12 -39 -3 -78 -12 -86 -19 -9
-7 -25 -12 -35 -10 -11 2 -25 -1 -32 -7 -8 -6 -35 -12 -62 -13 -27 -1 -57 -8
-66 -16 -10 -8 -18 -12 -18 -9 0 3 -12 0 -27 -8 -33 -17 -36 -15 -27 20 5 19
19 33 48 46 34 15 36 25 4 20 -20 -3 -5 18 20 28 35 13 67 39 59 47 -4 4 -21
0 -39 -9 -18 -9 -34 -15 -35 -13 -8 8 20 76 31 76 8 0 19 7 26 15 10 12 9 16
-6 22 -26 9 -34 23 -34 60 0 60 14 78 75 97 30 10 65 16 77 13 14 -4 36 4 64
24 23 16 47 29 53 29 6 0 11 4 11 10 0 5 15 16 33 24 33 15 141 12 182 -5z
m-4090 1 c-3 -5 1 -10 10 -10 9 0 13 5 10 10 -4 6 9 10 32 9 21 -1 30 -3 20
-6 -13 -3 -1 -13 41 -33 32 -16 71 -34 85 -39 23 -9 26 -15 25 -57 l-1 -46
-33 5 c-19 3 -36 2 -39 -3 -7 -11 50 -42 59 -32 8 7 26 -16 26 -33 0 -27 -16
-34 -54 -24 -27 8 -41 7 -52 -2 -8 -7 -14 -7 -14 -1 0 9 -37 18 -120 27 -19 2
-38 4 -42 4 -9 1 3 41 13 41 5 0 6 7 3 15 -4 10 0 15 15 15 28 0 27 16 -3 24
-21 5 -23 11 -24 63 0 42 4 60 16 70 20 15 36 17 27 3z m1325 -15 c0 -8 -4
-15 -10 -15 -5 0 -10 7 -10 15 0 8 5 15 10 15 6 0 10 -7 10 -15z m225 5 c-3
-5 3 -15 15 -22 22 -14 26 -28 9 -28 -14 0 -38 30 -39 48 0 6 5 12 11 12 5 0
7 -4 4 -10z m-41 -15 c-4 -8 -10 -12 -15 -9 -11 6 -2 24 11 24 5 0 7 -7 4 -15z
m-137 -1 c-3 -3 -12 -4 -19 -1 -8 3 -5 6 6 6 11 1 17 -2 13 -5z m-67 -24 c0
-5 -4 -10 -10 -10 -5 0 -10 5 -10 10 0 6 5 10 10 10 6 0 10 -4 10 -10z m-3219
-20 c21 -12 25 -40 8 -57 -14 -14 -75 12 -84 35 -11 28 38 42 76 22z m-213
-136 c28 -20 28 -40 -2 -59 -49 -32 -101 19 -60 59 19 20 34 20 62 0z m2072
-29 c9 -11 9 -15 1 -15 -6 0 -16 -12 -21 -26 -6 -14 -15 -24 -22 -22 -19 7
-20 24 -3 41 8 9 15 20 15 26 0 16 15 13 30 -4z m737 -17 c13 -12 23 -28 23
-36 0 -12 -6 -10 -23 6 -13 12 -31 22 -40 22 -17 0 -22 11 -10 23 11 12 26 8
50 -15z m2526 -40 c37 -39 39 -44 34 -89 -7 -56 -22 -84 -55 -99 -22 -10 -24
-9 -19 10 3 11 1 18 -3 15 -15 -10 -23 65 -10 93 l12 27 -21 -20 c-32 -28 -84
-29 -96 -2 -16 36 5 86 40 96 58 17 77 13 118 -31z m-2528 1 c11 -17 -13 -17
-30 1 -16 18 -16 18 4 13 12 -3 24 -9 26 -14z m564 0 c13 -11 22 -21 20 -23
-9 -7 -69 25 -64 34 9 14 17 12 44 -11z m-3129 -29 c10 -5 28 -23 40 -39 l21
-30 -21 -11 c-41 -22 -108 41 -80 75 15 18 16 18 40 5z m2120 -19 c0 -11 3
-27 7 -37 5 -14 2 -16 -20 -11 -15 4 -27 3 -29 -4 -5 -16 -45 10 -51 33 -4 13
1 18 16 18 12 0 29 5 37 10 24 15 40 12 40 -9z m-2796 -32 c-7 -11 -34 -12
-34 -1 0 14 11 21 26 15 8 -3 11 -9 8 -14z m3226 5 c0 -2 -7 -4 -15 -4 -8 0
-15 4 -15 10 0 5 7 7 15 4 8 -4 15 -8 15 -10z m-3258 -32 c20 -33 13 -84 -11
-81 -9 1 -24 -2 -35 -6 -26 -11 -50 7 -54 40 -3 22 0 26 12 22 10 -4 16 -1 16
8 0 9 -6 12 -16 8 -12 -4 -15 -2 -12 8 2 8 20 17 39 20 19 4 36 7 39 8 3 0 13
-11 22 -27z m5538 -36 c0 -8 -4 -18 -10 -21 -5 -3 -10 3 -10 14 0 12 5 21 10
21 6 0 10 -6 10 -14z m1260 -2 c0 -8 -4 -12 -10 -9 -5 3 -10 10 -10 16 0 5 5
9 10 9 6 0 10 -7 10 -16z m-3920 -73 c0 -16 17 -41 49 -70 40 -38 49 -54 54
-90 3 -24 15 -56 26 -70 12 -14 26 -37 32 -51 35 -82 58 -117 111 -165 33 -30
54 -55 49 -55 -6 0 -11 -7 -11 -15 0 -8 -11 -22 -25 -31 -27 -17 -34 -59 -15
-93 11 -21 -5 -91 -21 -91 -6 0 -8 -4 -5 -9 4 -5 1 -11 -4 -13 -6 -2 -12 -29
-14 -61 -3 -48 -1 -60 16 -71 12 -9 16 -16 9 -21 -7 -4 -8 -12 -2 -23 10 -18
-24 -72 -46 -72 -7 0 -13 -11 -13 -24 0 -13 -4 -26 -8 -28 -26 -10 -130 -191
-158 -275 -9 -26 -22 -55 -30 -64 -8 -8 -14 -25 -14 -37 0 -12 -8 -30 -18 -39
-17 -17 -17 -20 12 -78 17 -33 29 -64 28 -69 -2 -4 5 -20 15 -35 9 -14 29 -49
43 -77 16 -33 46 -68 85 -100 97 -79 126 -89 264 -93 74 -1 121 1 125 8 4 5
14 7 23 4 8 -3 35 4 58 17 44 24 86 81 117 159 25 64 38 73 38 27 0 -21 -4
-35 -9 -31 -6 3 -8 -8 -5 -27 8 -47 -54 -135 -117 -166 -66 -32 -220 -48 -314
-32 -78 13 -150 43 -159 65 -3 8 -13 15 -23 15 -13 0 -7 -10 22 -35 48 -42 82
-61 149 -86 28 -9 43 -18 34 -18 -39 -2 -137 45 -200 95 -57 46 -73 66 -104
132 -20 42 -56 111 -80 153 -24 42 -48 100 -54 129 -17 90 -25 75 -20 -39 2
-63 22 -115 58 -155 18 -19 23 -30 15 -33 -20 -7 -15 -20 10 -27 18 -5 20 -8
7 -16 -13 -8 -8 -14 11 -12 3 1 6 -6 6 -14 0 -19 -1 -19 -42 17 -39 35 -45 34
-15 -1 23 -27 27 -48 5 -30 -29 24 -83 106 -100 150 -9 25 -21 55 -27 66 -7
15 -7 33 1 57 9 27 9 41 1 57 -17 31 5 94 64 185 29 44 73 99 97 123 37 36 42
44 29 53 -13 9 -13 10 2 6 23 -8 44 18 22 27 -36 14 -131 19 -138 7 -4 -6 -2
-9 6 -6 8 3 31 -1 53 -9 42 -15 40 -16 -40 -22 -22 -2 -62 -8 -90 -14 -27 -6
-61 -13 -75 -16 -70 -15 -99 -26 -124 -49 -24 -22 -34 -45 -21 -45 3 0 25 10
48 22 23 12 45 21 50 20 4 -1 7 2 7 7 0 5 15 8 33 7 17 -1 48 3 67 9 36 12
120 2 120 -14 0 -4 -11 -18 -25 -31 -20 -19 -35 -23 -69 -21 -64 4 -123 -15
-196 -64 -107 -71 -181 -161 -195 -238 l-7 -37 -63 0 c-71 0 -95 6 -95 25 0 7
-8 16 -17 19 -22 9 -11 18 63 55 53 26 61 34 60 57 -1 20 -7 28 -24 31 -27 4
-108 -39 -105 -56 2 -6 -11 -18 -27 -26 -25 -13 -29 -20 -24 -40 5 -19 2 -26
-12 -31 -11 -3 -46 -19 -79 -35 -79 -37 -99 -40 -100 -14 0 14 16 28 59 50 55
28 83 55 57 55 -6 0 -11 7 -11 15 0 34 -126 31 -203 -5 -86 -41 -198 -43 -219
-6 -5 9 -22 22 -37 30 -26 14 -39 46 -18 46 5 0 7 7 3 15 -4 12 7 14 67 13
105 -3 114 2 122 66 8 60 0 96 -19 96 -41 0 -54 101 -19 148 23 31 78 64 114
68 14 2 56 -7 92 -21 62 -22 69 -23 119 -9 80 21 186 18 225 -6 53 -32 54 -64
9 -218 -13 -45 -21 -84 -17 -86 3 -2 23 2 44 9 35 12 41 11 58 -6 10 -10 22
-19 27 -19 4 0 24 34 45 74 58 113 98 144 325 252 9 5 10 134 1 139 -5 4 -7
16 -4 28 11 38 28 67 36 61 5 -3 6 2 3 11 -4 9 -12 14 -19 11 -8 -3 -16 2 -19
10 -9 23 -7 46 3 40 5 -3 11 7 13 23 3 22 1 28 -10 23 -12 -4 -14 0 -10 16 4
12 3 22 -2 22 -15 0 -19 41 -4 47 9 3 12 13 8 29 -6 24 39 134 56 134 5 0 7
10 5 22 -3 12 1 26 8 30 9 6 9 10 0 16 -20 13 -11 53 14 65 13 6 23 15 22 21
-3 25 2 37 13 30 8 -5 9 2 5 24 -4 20 -1 34 8 42 16 13 20 40 7 40 -4 0 -8 16
-9 35 -1 19 3 35 9 35 5 0 6 5 3 10 -3 6 0 10 7 11 10 0 10 2 1 6 -16 6 -17
39 -2 48 7 5 4 14 -8 28 -10 11 -12 17 -4 12 10 -6 12 0 7 26 l-6 34 15 -30
c8 -16 14 -41 15 -54z m-2080 49 c0 -5 -6 -10 -14 -10 -8 0 -18 5 -21 10 -3 6
3 10 14 10 12 0 21 -4 21 -10z m-436 -20 c19 -7 26 -17 26 -37 0 -16 -4 -34
-8 -41 -12 -18 -79 -27 -97 -12 -8 7 -26 9 -43 5 -33 -7 -45 8 -35 45 4 16 12
21 29 17 13 -2 36 4 51 14 32 22 42 23 77 9z m404 -15 c-3 -3 -9 2 -12 12 -6
14 -5 15 5 6 7 -7 10 -15 7 -18z m6017 5 c3 -5 1 -10 -4 -10 -6 0 -11 5 -11
10 0 6 2 10 4 10 3 0 8 -4 11 -10z m-8003 -49 c2 -4 25 -18 51 -29 47 -21 48
-23 42 -54 -4 -18 -10 -37 -12 -42 -10 -15 -72 -36 -90 -29 -23 8 -73 63 -73
79 0 18 23 68 35 76 14 10 43 10 47 -1z m1084 -37 c7 -37 -18 -83 -44 -83 -9
0 -28 -1 -42 -4 -23 -3 -25 -1 -28 44 -3 56 17 76 73 75 31 -1 36 -5 41 -32z
m3824 -80 c13 -37 4 -53 -26 -54 -21 0 -42 43 -33 68 13 35 45 28 59 -14z
m-219 4 c53 -25 56 -29 35 -47 -11 -9 -18 -7 -32 11 -11 13 -30 31 -44 41 -34
23 -17 21 41 -5z m-5091 -5 c24 -7 40 -51 30 -79 -5 -13 -13 -23 -17 -22 -5 0
-16 -2 -26 -7 -25 -10 -66 13 -73 42 -13 51 15 89 56 76 8 -3 22 -7 30 -10z
m1610 -33 c0 -5 7 -10 15 -10 9 0 19 -8 22 -17 10 -28 26 -33 45 -16 9 8 24
13 32 10 9 -4 18 -2 21 4 4 5 11 7 16 4 5 -4 9 -1 9 5 0 7 6 5 15 -4 8 -8 15
-22 15 -31 0 -25 -51 -86 -69 -84 -9 1 -33 -1 -53 -5 -21 -5 -46 -5 -55 -1
-10 5 -23 7 -29 6 -11 -1 -54 90 -54 116 0 10 6 12 20 8 14 -5 20 -2 20 9 0 9
7 16 15 16 8 0 15 -4 15 -10z m-216 -22 c22 -31 20 -65 -3 -78 -24 -12 -27 -8
-36 53 -6 39 -5 47 8 47 9 0 23 -10 31 -22z m4343 -4 c-3 -3 -12 -4 -19 -1 -8
3 -5 6 6 6 11 1 17 -2 13 -5z m-4989 -55 c18 -7 22 -15 18 -36 -2 -16 -5 -34
-5 -41 -1 -7 -5 -11 -10 -8 -5 3 -12 -1 -15 -10 -4 -9 -13 -13 -24 -10 -11 4
-31 -6 -55 -28 -24 -21 -52 -36 -75 -39 -32 -3 -42 1 -71 29 -19 18 -38 31
-42 28 -5 -3 -9 2 -9 10 0 21 32 29 65 16 22 -9 31 -7 46 6 11 10 19 23 19 30
0 6 16 26 36 44 37 32 56 34 122 9z m5040 4 c-10 -2 -26 -2 -35 0 -10 3 -2 5
17 5 19 0 27 -2 18 -5z m-3602 -44 c19 -21 19 -21 -11 -45 -23 -19 -38 -24
-63 -20 -19 3 -30 1 -27 -5 4 -5 -5 -9 -20 -9 -23 0 -25 3 -20 32 9 49 31 68
80 68 30 0 47 -6 61 -21z m-746 -131 c0 -14 -5 -18 -16 -14 -9 3 -18 6 -20 6
-2 0 -4 6 -4 13 0 7 9 13 20 14 14 1 20 -4 20 -19z m798 0 c31 -31 1 -83 -54
-93 -21 -4 -37 1 -58 19 l-29 24 31 31 c33 33 87 42 110 19z m-547 -40 c27
-17 49 -35 49 -39 0 -4 24 -19 54 -34 30 -15 57 -29 60 -32 11 -11 -22 -31
-63 -38 -34 -6 -52 -2 -94 19 -29 14 -63 39 -75 55 -20 28 -21 31 -4 40 14 8
15 13 5 30 -7 12 -13 23 -13 26 0 14 37 2 81 -27z m5707 -70 c-4 -25 -17 -32
-38 -18 -13 8 -12 11 5 24 28 21 37 20 33 -6z m-5391 -53 c0 -8 -4 -12 -9 -9
-5 3 -6 10 -3 15 9 13 12 11 12 -6z m3301 3 c16 -20 26 -88 13 -88 -6 0 -11 6
-11 14 0 8 -9 18 -20 21 -20 7 -25 21 -14 49 7 19 18 20 32 4z m1508 -4 c-3
-9 -6 -20 -6 -25 0 -4 -6 -6 -14 -3 -18 7 -9 44 11 44 10 0 13 -6 9 -16z
m-4748 -51 c3 -47 -25 -71 -58 -51 -38 24 -12 88 35 88 17 0 21 -6 23 -37z
m-1089 0 c-8 -9 -16 -10 -22 -4 -13 13 0 31 19 24 11 -4 12 -8 3 -20z m517
-18 c8 -13 16 -44 18 -70 2 -35 9 -53 24 -66 12 -9 22 -27 22 -38 0 -36 -51
-175 -76 -208 -13 -17 -24 -34 -24 -37 0 -3 -9 -15 -21 -27 -12 -12 -17 -25
-13 -29 15 -14 103 6 120 26 46 57 96 144 111 191 18 59 40 80 111 108 23 10
42 23 42 30 0 7 7 16 16 19 21 8 59 8 51 0 -4 -4 10 -20 31 -36 74 -58 89
-145 47 -263 -14 -39 -37 -110 -51 -160 -14 -49 -37 -110 -51 -135 -37 -63
-112 -160 -125 -160 -5 0 -39 -14 -74 -30 l-63 -31 -50 26 c-28 14 -59 25 -69
25 -11 0 -32 -19 -50 -44 -26 -36 -40 -46 -76 -54 -25 -5 -55 -8 -68 -7 -13 1
-32 3 -44 4 -66 4 -95 101 -54 182 13 24 31 56 41 70 22 31 35 79 21 79 -13 0
-132 -67 -155 -88 -15 -13 -18 -32 -18 -106 1 -146 4 -140 -55 -100 -29 20
-53 27 -101 29 -118 6 -201 74 -187 152 15 85 83 198 158 263 18 16 47 56 65
90 18 33 36 60 41 60 19 0 19 50 1 82 -44 76 -50 232 -7 173 12 -17 16 -18 31
-5 10 8 32 13 52 11 19 -1 39 2 46 7 7 6 50 16 97 22 57 8 107 22 153 44 75
37 109 37 133 1z m5894 18 c0 -5 -22 -32 -49 -62 l-48 -55 -16 25 c-24 36 -34
93 -16 87 8 -2 15 -14 17 -26 2 -12 5 -22 8 -22 2 0 23 14 46 30 41 30 58 37
58 23z m-6576 -67 c19 -39 25 -61 18 -68 -13 -13 -57 53 -67 101 -11 52 15 35
49 -33z m4601 35 c-8 -27 -25 -27 -25 0 0 11 5 17 10 14 6 -3 10 -1 10 6 0 7
3 10 6 6 3 -3 3 -15 -1 -26z m-4545 -6 c7 -8 9 -23 5 -32 -6 -16 -8 -16 -26 6
-18 22 -18 41 0 41 5 0 14 -7 21 -15z m92 -17 c-9 -9 -12 -7 -12 12 0 19 3 21
12 12 9 -9 9 -15 0 -24z m4640 -60 c-22 -26 -32 -22 -32 10 0 38 10 46 30 24
16 -15 16 -19 2 -34z m-2895 24 c7 -4 15 -21 19 -38 5 -26 2 -32 -21 -42 -42
-19 -206 -35 -237 -23 -61 23 -17 77 70 88 26 3 56 9 67 14 26 10 87 11 102 1z
m4657 -37 c-19 -29 -27 -31 -43 -11 -10 11 -8 17 6 25 10 6 26 11 36 11 16 0
16 -2 1 -25z m-6582 -2 c21 -24 32 -73 17 -73 -7 0 -9 -11 -5 -30 5 -29 4 -30
-27 -28 -30 3 -32 1 -33 -31 -1 -21 -8 -39 -19 -48 -15 -10 -67 -18 -105 -15
-3 0 -5 -16 -5 -36 0 -31 -4 -37 -29 -43 -17 -5 -47 -3 -72 3 -35 10 -41 15
-34 29 10 18 50 36 90 41 22 3 26 9 31 51 3 27 11 52 19 57 12 7 12 15 2 43
-7 18 -12 38 -12 44 0 16 48 33 95 33 24 0 47 5 50 10 9 15 20 12 37 -7z m104
-34 c4 -8 9 -7 15 2 12 19 34 -13 49 -69 9 -37 8 -48 -7 -75 -25 -42 -35 -42
-57 -4 -30 52 -31 195 0 146z m2265 -62 c-10 -9 -11 -8 -5 6 3 10 9 15 12 12
3 -3 0 -11 -7 -18z m-2736 -3 c9 -9 15 -26 13 -38 -2 -17 -9 -20 -33 -18 -47
4 -55 10 -55 36 0 18 6 26 23 29 12 2 25 5 29 6 4 0 14 -6 23 -15z m1812 -86
c27 -26 29 -48 6 -119 -19 -63 -44 -94 -95 -120 -36 -18 -38 -22 -39 -67 -1
-82 -20 -134 -59 -160 -19 -13 -45 -22 -60 -20 -21 3 -25 9 -28 40 -4 44 34
277 51 316 7 15 36 62 65 104 l52 77 42 -15 c23 -8 53 -24 65 -36z m-1793 -84
c19 -7 20 -21 4 -38 -37 -36 -88 -40 -88 -6 0 20 16 36 45 43 11 2 21 5 22 6
1 0 8 -2 17 -5z m6213 -94 c18 -36 32 -69 33 -75 0 -9 -194 -42 -418 -70 -79
-10 -95 -9 -99 2 -7 18 5 126 15 134 4 3 59 14 122 23 63 9 149 25 190 36 114
28 120 26 157 -50z m-950 21 c26 -6 70 -13 97 -16 l49 -7 -7 -66 c-4 -36 -8
-68 -10 -69 -2 -3 -272 35 -289 40 -4 1 9 30 30 65 40 68 44 69 130 53z
m-5058 -185 c18 -22 -4 -58 -32 -54 -25 3 -34 32 -17 53 16 19 34 19 49 1z
m-439 -89 c0 -7 -4 -6 -10 3 -8 12 -10 12 -10 1 0 -8 -3 -12 -6 -8 -9 9 6 28
17 22 5 -4 9 -12 9 -18z m5300 -29 c0 -4 -8 -15 -17 -24 -17 -17 -17 -18 0
-11 18 7 20 1 17 -48 -1 -16 -6 -31 -11 -33 -12 -5 -11 -42 1 -42 6 0 10 -7
10 -15 0 -13 -4 -14 -20 -5 -16 9 -20 21 -20 66 0 30 -7 71 -15 91 -11 26 -12
39 -4 49 9 11 15 10 35 -4 13 -9 24 -20 24 -24z m-1230 28 c0 -2 -11 -26 -24
-53 -15 -28 -27 -72 -30 -108 -4 -61 21 -225 35 -225 4 0 11 -15 14 -32 4 -18
18 -47 31 -65 13 -17 24 -37 24 -42 0 -6 37 -48 83 -94 79 -79 118 -105 227
-148 25 -10 36 -18 25 -18 -31 -1 -164 61 -221 102 -81 59 -171 182 -217 300
-35 87 -43 166 -27 251 7 37 11 69 8 71 -4 4 -127 -39 -162 -57 l-21 -11 20
23 c35 39 235 130 235 106z m-3770 -87 c0 -5 -7 -9 -15 -9 -8 0 -15 7 -15 15
0 9 6 12 15 9 8 -4 15 -10 15 -15z m7631 -33 c14 -3 44 -19 68 -36 47 -34 91
-114 91 -165 0 -26 -4 -22 -29 32 -21 44 -44 73 -81 102 -54 42 -87 48 -39 7
15 -13 35 -36 45 -52 l19 -29 -38 33 c-21 17 -41 32 -45 32 -4 0 -7 -64 -7
-142 0 -113 -4 -155 -19 -198 -25 -75 -79 -172 -121 -216 -19 -20 -35 -40 -35
-43 0 -11 -131 -107 -176 -129 -40 -20 -150 -52 -175 -51 -8 0 21 10 63 23 81
24 120 47 230 134 95 76 166 190 199 322 20 80 15 240 -10 320 -26 82 -26 80
7 69 15 -4 39 -11 53 -13z m-7592 0 c22 -27 3 -57 -31 -49 -28 8 -16 62 13 63
4 0 12 -6 18 -14z m3533 -75 c-9 -16 -26 -32 -37 -34 -11 -2 -28 -8 -37 -12
-14 -5 -18 -2 -18 14 0 16 12 27 43 41 60 28 69 26 49 -9z m-2306 -56 c9 -38
1 -59 -28 -69 -20 -7 -35 -6 -54 4 -21 12 -25 19 -20 44 9 43 21 53 61 48 27
-3 37 -10 41 -27z m3529 -83 c-18 -41 -31 -38 -15 4 6 15 10 40 9 54 -3 52 3
64 12 21 6 -32 4 -53 -6 -79z m199 90 c2 -4 -4 -9 -15 -9 -11 -1 -17 2 -14 8
7 11 22 12 29 1z m-1558 -68 c-6 -15 -65 -24 -115 -17 -39 5 -41 7 -24 22 10
9 38 23 63 30 25 8 49 18 55 23 11 9 28 -39 21 -58z m-415 39 c11 -13 12 -17
1 -21 -7 -2 -22 -14 -33 -25 -14 -15 -22 -18 -27 -10 -4 6 -21 14 -37 18 -59
13 -61 17 -15 35 58 23 94 24 111 3z m1943 -4 c-3 -6 0 -16 7 -21 12 -8 12 -9
0 -6 -10 3 -24 -14 -39 -44 -13 -27 -26 -47 -28 -45 -7 6 49 127 58 127 5 0 6
-5 2 -11z m-2158 -69 c-17 -3 -42 -4 -54 -1 l-24 4 21 20 c16 17 23 19 33 9 7
-7 19 -12 28 -11 11 0 12 2 1 6 -11 5 -11 7 0 14 10 6 16 2 20 -14 4 -18 0
-23 -25 -27z m3704 -82 c0 -5 -4 -8 -10 -8 -5 0 -10 10 -10 23 0 18 2 19 10 7
5 -8 10 -18 10 -22z m-1630 -8 c-24 -33 -40 -46 -40 -31 0 12 41 58 53 60 5 1
-1 -12 -13 -29z m1557 -22 c-3 -7 -5 -2 -5 12 0 14 2 19 5 13 2 -7 2 -19 0
-25z m-1619 -39 c-6 -4 -8 -14 -5 -22 4 -11 0 -13 -13 -10 -18 5 -17 33 1 33
5 0 9 8 9 18 0 14 2 15 10 2 6 -9 5 -17 -2 -21z m-605 -144 c75 -35 80 -36
205 -37 139 0 134 -15 -6 -17 -160 -2 -271 40 -345 131 -53 65 -45 71 16 11
34 -34 79 -65 130 -88z m2256 80 c0 -5 -4 -3 -9 5 -5 8 -9 22 -9 30 0 16 17
-16 18 -35z m-490 9 c2 -2 -10 -4 -27 -4 -18 0 -32 5 -32 10 0 9 47 4 59 -6z
m124 -91 c-23 -2 -64 -2 -90 0 -26 2 -7 3 42 3 50 0 71 -1 48 -3z m-75 -30
c-21 -2 -57 -2 -80 0 -24 2 -7 4 37 4 44 0 63 -2 43 -4z m1348 -55 c-19 -30
-47 -65 -63 -78 -24 -22 -24 -21 4 12 18 21 44 58 59 83 14 25 29 44 31 41 3
-2 -11 -29 -31 -58z m-2591 17 c28 -14 66 -27 86 -31 22 -4 36 -12 36 -21 0
-11 -8 -13 -30 -9 -40 8 -144 56 -158 72 -18 22 9 17 66 -11z m1310 -36 c-22
-4 -53 -8 -70 -7 l-30 0 30 8 c17 4 48 8 70 8 l40 0 -40 -9z m212 5 c-3 -3
-12 -4 -19 -1 -8 3 -5 6 6 6 11 1 17 -2 13 -5z m-247 -34 c93 -7 94 -7 25 -8
-95 -2 -205 9 -205 20 0 6 17 7 42 3 24 -4 86 -11 138 -15z m-1710 -6 c0 -2
-21 -4 -47 -3 -37 1 -42 3 -23 8 24 7 70 3 70 -5z m153 1 c9 -23 -11 -28 -23
-5 -8 16 -8 20 4 20 7 0 16 -7 19 -15z m-107 -62 c-10 -10 -19 5 -10 18 6 11
8 11 12 0 2 -7 1 -15 -2 -18z m104 -3 c0 -5 -4 -10 -10 -10 -5 0 -10 5 -10 10
0 6 5 10 10 10 6 0 10 -4 10 -10z m1635 0 c-11 -5 -72 -8 -135 -7 -114 1 -114
1 -35 7 126 10 193 10 170 0z m708 -56 c20 -4 37 -11 37 -15 0 -5 -12 -6 -27
-3 -34 8 -173 71 -173 78 0 3 28 -8 63 -25 34 -16 79 -32 100 -35z m-2525 -6
c-4 -51 -24 -57 -48 -15 -14 26 -14 29 4 43 35 26 47 18 44 -28z m182 0 c0
-13 -23 -5 -28 10 -2 7 2 10 12 6 9 -3 16 -11 16 -16z m2078 0 c-3 -7 -15 -15
-28 -16 -21 -3 -22 -2 -11 12 16 19 44 21 39 4z m122 -18 c0 -11 -4 -20 -9
-20 -5 0 -7 9 -4 20 3 11 7 20 9 20 2 0 4 -9 4 -20z m-2298 -34 c3 -13 1 -31
-4 -40 -13 -23 -38 -20 -38 4 0 11 5 20 11 20 6 0 8 7 5 16 -7 18 1 37 13 29
5 -2 11 -16 13 -29z m2268 24 c0 -5 -5 -10 -11 -10 -5 0 -7 5 -4 10 3 6 8 10
11 10 2 0 4 -4 4 -10z m-2165 -10 c3 -5 2 -10 -4 -10 -5 0 -13 5 -16 10 -3 6
-2 10 4 10 5 0 13 -4 16 -10z m1898 -5 c1 -5 -6 -11 -15 -13 -11 -2 -18 3 -18
13 0 17 30 18 33 0z m152 -5 c-3 -5 -10 -10 -16 -10 -5 0 -9 5 -9 10 0 6 7 10
16 10 8 0 12 -4 9 -10z m-1970 -20 c3 -5 -1 -10 -9 -10 -9 0 -16 5 -16 10 0 6
4 10 9 10 6 0 13 -4 16 -10z m195 -5 c10 -12 10 -15 -3 -15 -23 0 -47 11 -47
21 0 15 37 10 50 -6z m1905 5 c-27 -12 -35 -12 -35 0 0 6 12 10 28 9 24 0 25
-1 7 -9z m115 -20 c0 -4 -7 -11 -16 -14 -28 -11 -35 -7 -24 14 10 18 40 18 40
0z m269 16 c-2 -2 -33 -6 -69 -9 -40 -3 -56 -2 -40 3 25 8 117 13 109 6z
m-514 -16 c-3 -5 -16 -10 -28 -10 -18 0 -19 2 -7 10 20 13 43 13 35 0z m160 0
c-3 -5 -11 -10 -16 -10 -6 0 -7 5 -4 10 3 6 11 10 16 10 6 0 7 -4 4 -10z
m-1945 -25 c8 -9 8 -15 2 -15 -18 0 -42 12 -42 21 0 14 26 10 40 -6z m1610 -5
c-8 -5 -17 -7 -19 -4 -3 3 1 9 9 14 8 5 17 7 19 4 3 -3 -1 -9 -9 -14z m300 11
c0 -10 -24 -21 -43 -21 -7 0 -3 7 7 15 22 17 36 19 36 6z m-2095 -11 c3 -5 2
-10 -4 -10 -5 0 -13 5 -16 10 -3 6 -2 10 4 10 5 0 13 -4 16 -10z m1503 -7 c-4
-19 -73 -36 -96 -24 -26 15 9 31 86 40 8 0 12 -6 10 -16z m-1000 -26 c3 -12
-3 -17 -20 -17 -32 0 -52 15 -45 33 8 21 61 7 65 -16z m1462 18 c-7 -8 -21
-15 -32 -15 -17 0 -18 3 -8 15 7 8 21 15 32 15 17 0 18 -3 8 -15z m-1775 -25
c18 -19 17 -20 -2 -20 -11 0 -28 9 -38 20 -18 19 -17 20 2 20 11 0 28 -9 38
-20z m1895 10 c-20 -13 -33 -13 -25 0 3 6 14 10 23 10 15 0 15 -2 2 -10z
m-453 -6 c-3 -3 -12 -4 -19 -1 -8 3 -5 6 6 6 11 1 17 -2 13 -5z m-1623 -34
c-2 -38 -3 -40 -19 -34 -20 8 -15 66 5 62 9 -2 14 -13 14 -28z m1771 20 c-3
-5 -11 -10 -16 -10 -6 0 -7 5 -4 10 3 6 11 10 16 10 6 0 7 -4 4 -10z m185 -5
c-7 -8 -22 -15 -34 -15 -21 1 -21 1 -2 15 27 21 53 20 36 0z m-1186 -5 c15 0
16 -3 7 -14 -9 -11 -9 -15 1 -19 10 -3 10 -7 1 -17 -15 -17 -93 -3 -93 16 0 8
5 14 10 14 6 0 9 3 9 8 -3 19 3 24 24 18 12 -3 30 -6 41 -6z m711 0 c-3 -5
-24 -10 -46 -10 -21 0 -39 5 -39 10 0 6 21 10 46 10 27 0 43 -4 39 -10z
m-1312 -17 c24 -13 28 -18 15 -21 -20 -4 -58 14 -58 28 0 14 6 13 43 -7z m142
7 c3 -5 1 -10 -4 -10 -6 0 -11 5 -11 10 0 6 2 10 4 10 3 0 8 -4 11 -10z m883
-7 c-4 -20 -54 -31 -70 -15 -17 17 1 32 38 32 28 0 35 -4 32 -17z m-731 1 c-3
-3 -12 -4 -19 -1 -8 3 -5 6 6 6 11 1 17 -2 13 -5z m549 -6 c4 -6 0 -16 -9 -23
-10 -7 -17 -20 -17 -29 0 -9 -7 -16 -15 -16 -9 0 -15 9 -15 25 0 20 -5 25 -25
25 -24 0 -32 10 -18 23 11 12 91 8 99 -5z m953 -4 c-10 -12 -10 -17 -1 -23 9
-5 4 -11 -13 -19 -39 -18 -53 -14 -26 7 l25 19 -29 -5 c-20 -4 -26 -3 -20 6 8
13 42 29 64 30 11 1 11 -2 0 -15z m-1485 -10 c22 -9 20 -24 -3 -24 -26 0 -51
10 -51 21 0 10 31 12 54 3z m996 -3 c0 -11 -25 -21 -55 -21 -25 0 -39 12 -28
24 10 9 83 7 83 -3z m300 -1 c0 -11 -40 -34 -47 -26 -3 3 -3 12 0 21 7 16 47
21 47 5z m-1596 -21 c20 -16 24 -24 15 -30 -10 -6 -10 -11 0 -22 9 -11 9 -17
0 -22 -16 -10 -64 28 -64 51 0 11 -4 25 -8 32 -14 21 28 14 57 -9z m156 0 c0
-12 -37 -12 -44 0 -3 4 -3 11 0 14 8 7 44 -4 44 -14z m869 2 c11 -7 5 -11 -22
-16 -41 -8 -72 0 -62 15 8 12 65 13 84 1z m408 3 c-3 -3 -12 -4 -19 -1 -8 3
-5 6 6 6 11 1 17 -2 13 -5z m-1119 -32 c3 -10 -5 -13 -29 -10 -18 2 -34 9 -37
16 -3 10 5 13 29 10 18 -2 34 -9 37 -16z m267 8 c16 -7 13 -9 -17 -9 -20 -1
-40 4 -43 9 -7 12 32 12 60 0z m710 0 c-3 -5 -22 -10 -41 -10 -19 0 -34 5 -34
10 0 6 18 10 41 10 24 0 38 -4 34 -10z m308 -15 c-3 -8 0 -15 7 -15 7 0 10 -8
7 -20 -3 -11 -1 -20 4 -20 18 0 9 -39 -11 -45 -28 -9 -37 -1 -44 41 -4 19 -10
42 -13 50 -3 8 4 17 18 23 29 10 40 6 32 -14z m-1443 -5 c13 -8 13 -11 1 -19
-11 -7 -9 -13 8 -30 45 -45 6 -58 -57 -19 -34 21 -34 38 1 38 16 0 18 3 9 12
-7 7 -12 16 -12 20 0 11 32 10 50 -2z m1290 1 c0 -6 -4 -12 -9 -15 -13 -8 -42
4 -35 15 7 12 44 12 44 0z m-847 -17 c30 -9 18 -24 -19 -24 -41 0 -77 16 -68
31 5 9 37 6 87 -7z m417 6 c0 -12 -45 -24 -65 -16 -29 11 -15 26 25 26 22 0
40 -4 40 -10z m268 -2 c-5 -15 -78 -24 -78 -10 0 16 13 22 48 22 22 0 32 -4
30 -12z m-458 -38 c13 -8 13 -10 0 -14 -42 -16 -110 -10 -110 9 0 11 12 15 48
15 26 0 54 -4 62 -10z m188 -5 c4 -3 0 -10 -8 -15 -32 -20 -90 -4 -75 20 7 12
70 8 83 -5z"/>
<path d="M8128 5552 c-9 -34 -8 -207 1 -221 10 -15 21 15 42 111 10 49 10 61
-5 92 -19 40 -31 45 -38 18z"/>
<path d="M7390 6430 c0 -5 5 -10 11 -10 5 0 7 5 4 10 -3 6 -8 10 -11 10 -2 0
-4 -4 -4 -10z"/>
<path d="M6740 6270 c0 -5 5 -10 11 -10 5 0 7 5 4 10 -3 6 -8 10 -11 10 -2 0
-4 -4 -4 -10z"/>
<path d="M6435 5970 c3 -5 11 -10 16 -10 6 0 7 5 4 10 -3 6 -11 10 -16 10 -6
0 -7 -4 -4 -10z"/>
<path d="M6187 5883 c-4 -3 -7 -11 -7 -17 0 -6 5 -5 12 2 6 6 9 14 7 17 -3 3
-9 2 -12 -2z"/>
<path d="M6818 5063 c7 -3 16 -2 19 1 4 3 -2 6 -13 5 -11 0 -14 -3 -6 -6z"/>
<path d="M5815 4903 c-26 -6 -38 -18 -42 -43 -3 -19 -2 -19 42 2 62 30 62 56
0 41z"/>
<path d="M5957 4843 c-14 -13 -6 -23 17 -23 13 0 29 7 36 15 11 13 8 15 -17
15 -16 0 -33 -3 -36 -7z"/>
<path d="M6743 4833 c-26 -10 -13 -33 17 -33 29 0 37 16 15 32 -11 9 -15 9
-32 1z"/>
<path d="M5858 4799 c-19 -10 -24 -29 -9 -29 5 0 19 9 32 20 26 21 9 28 -23 9z"/>
<path d="M6617 4804 c-7 -7 31 -64 50 -77 7 -4 10 -14 7 -22 -7 -18 -24 -20
-24 -2 0 8 -21 12 -74 11 -42 0 -72 4 -69 9 3 5 -4 4 -16 -3 -12 -6 -30 -9
-40 -5 -10 3 -24 -1 -31 -10 -11 -13 -10 -20 1 -42 11 -21 11 -27 2 -30 -7 -3
-13 -11 -13 -18 0 -8 -9 -16 -19 -20 -15 -5 -19 -14 -16 -43 2 -20 6 -45 10
-54 11 -28 1 -52 -25 -59 l-25 -7 22 -7 c13 -4 20 -11 17 -16 -3 -5 -7 -31 -9
-58 -3 -43 -1 -50 18 -55 12 -3 27 0 32 7 30 35 89 48 99 21 4 -11 1 -14 -13
-9 -24 7 -51 -4 -51 -21 0 -9 6 -11 18 -7 14 6 15 4 4 -9 -10 -13 -10 -17 2
-21 8 -3 17 1 20 9 4 11 10 12 25 4 11 -5 27 -7 35 -4 10 4 28 -5 48 -25 17
-17 35 -31 39 -31 15 0 21 22 10 33 -17 17 -13 27 9 27 27 0 25 10 -7 37 -24
19 -26 24 -13 33 8 6 42 9 75 8 48 -2 60 -7 63 -20 3 -13 -3 -18 -20 -19 -13
0 -17 -3 -10 -6 6 -2 12 -9 12 -15 0 -5 -6 -8 -12 -5 -7 2 -21 0 -31 -5 -15
-8 -16 -12 -6 -24 10 -13 10 -17 -2 -25 -8 -5 -20 -9 -28 -9 -12 0 -11 -3 1
-17 9 -10 19 -28 22 -40 4 -13 13 -23 21 -23 8 0 11 -7 8 -19 -3 -12 4 -24 19
-35 19 -14 21 -18 8 -26 -13 -9 -13 -11 0 -19 9 -7 17 -6 21 1 8 13 99 -79 99
-100 0 -7 4 -11 8 -8 5 3 32 2 60 -3 30 -5 55 -4 60 1 6 6 18 3 31 -8 25 -22
27 -34 5 -34 -22 0 -12 -23 17 -37 23 -12 23 -13 3 -13 -23 0 -40 -25 -24 -35
5 -3 18 -1 29 5 25 13 34 13 25 -1 -4 -7 -1 -10 7 -7 8 3 12 12 10 19 -2 8 -3
24 -3 37 1 12 -4 22 -11 22 -8 0 -7 4 3 10 11 7 14 25 13 65 -3 79 30 150 53
114 3 -6 17 -8 29 -5 13 3 27 1 30 -4 5 -8 11 -8 20 0 9 8 15 8 20 0 10 -16
35 -12 29 5 -4 8 -3 26 0 40 5 18 13 25 31 25 14 0 26 -3 26 -7 9 -57 7 -72
-7 -77 -11 -4 -14 -13 -10 -30 5 -19 1 -26 -14 -31 -21 -7 -28 -25 -10 -25 6
0 10 -9 10 -21 0 -15 5 -19 18 -15 12 4 26 -2 38 -15 18 -20 18 -21 -1 -35
-19 -14 -19 -14 5 -12 20 2 29 -4 43 -35 14 -28 24 -36 37 -32 12 4 19 -1 24
-17 6 -21 7 -22 17 -5 7 12 15 15 22 9 7 -5 20 -12 31 -16 16 -5 18 -3 13 22
-3 16 -1 34 5 40 19 19 47 142 38 172 -4 15 -6 39 -3 53 l5 26 17 -21 c24 -29
44 -16 29 17 -6 14 -15 25 -20 25 -4 0 -8 7 -8 16 0 10 6 14 15 11 12 -5 12
-2 3 18 -19 43 -39 25 -33 -29 3 -21 1 -26 -8 -17 -6 6 -21 11 -33 11 -21 0
-94 43 -157 91 -35 26 -54 20 -55 -20 0 -20 3 -28 12 -25 17 6 39 -20 34 -41
-3 -15 -6 -14 -30 4 -14 12 -33 21 -42 21 -10 0 -16 9 -16 24 0 13 -7 27 -16
30 -12 4 -15 18 -13 53 4 52 7 49 -84 68 -18 3 -32 15 -39 33 -40 97 -50 112
-67 103 -10 -6 -23 -5 -34 0 -15 9 -17 7 -12 -22 3 -18 8 -36 10 -40 3 -4 -4
-5 -15 -2 -11 3 -20 9 -20 12 0 4 -13 8 -29 8 -22 0 -28 -4 -24 -16 2 -9 -6
-4 -19 10 -13 14 -31 29 -40 32 -9 3 -22 25 -28 48 -6 23 -17 50 -23 61 -10
15 -9 20 2 27 11 7 10 12 -8 22 -11 8 -21 18 -21 24 0 6 -16 19 -35 30 -39 20
-105 84 -105 100 0 6 9 11 20 11 30 2 32 8 8 23 -11 7 -17 8 -13 2 9 -16 -11
-13 -29 4 -8 8 -22 12 -30 9 -9 -3 -16 -1 -16 5 0 12 -13 15 -23 5z m-85 -441
c10 -9 33 -16 53 -15 20 1 33 -2 31 -7 -8 -12 -68 -23 -75 -14 -3 5 -15 13
-25 19 -11 6 -22 16 -24 22 -6 18 19 15 40 -5z m738 -99 c0 -3 -7 -12 -15 -20
-13 -14 -15 -13 -15 5 0 12 6 21 15 21 8 0 15 -3 15 -6z m-505 -154 c3 -5 2
-10 -4 -10 -5 0 -13 5 -16 10 -3 6 -2 10 4 10 5 0 13 -4 16 -10z"/>
<path d="M7395 4594 c14 -11 15 -15 5 -12 -9 2 -33 -12 -55 -29 -25 -21 -34
-33 -23 -33 9 0 19 -7 22 -16 11 -30 6 -37 -14 -19 -11 10 -20 13 -20 8 0 -36
102 -163 152 -189 50 -26 66 -25 88 6 24 34 25 61 4 103 -12 21 -13 32 -5 35
38 13 -112 163 -161 162 -8 -1 -5 -7 7 -16z"/>
<path d="M6310 4584 c0 -8 5 -12 10 -9 6 3 10 10 10 16 0 5 -4 9 -10 9 -5 0
-10 -7 -10 -16z"/>
<path d="M7335 4580 c-3 -5 1 -10 10 -10 9 0 13 5 10 10 -3 6 -8 10 -10 10 -2
0 -7 -4 -10 -10z"/>
<path d="M5470 4531 c0 -6 4 -13 10 -16 6 -3 7 1 4 9 -7 18 -14 21 -14 7z"/>
<path d="M6240 4459 c7 -12 6 -19 -3 -22 -9 -3 -9 -8 -1 -17 9 -9 15 -6 28 11
21 31 20 36 -9 41 -21 4 -23 2 -15 -13z"/>
<path d="M7690 4345 c0 -5 5 -17 10 -25 5 -8 10 -10 10 -5 0 6 -5 17 -10 25
-5 8 -10 11 -10 5z"/>
<path d="M7654 4283 c9 -18 21 -33 27 -33 6 0 9 -7 6 -15 -4 -8 -2 -17 2 -20
5 -3 12 3 15 12 5 11 -5 28 -30 52 l-36 36 16 -32z"/>
<path d="M7635 4245 c4 -11 12 -36 18 -55 9 -30 11 -32 15 -12 2 12 -6 37 -18
55 -12 18 -19 23 -15 12z"/>
<path d="M6457 4024 c-9 -10 2 -24 19 -24 8 0 14 7 14 15 0 15 -21 21 -33 9z"/>
<path d="M7240 3696 c0 -22 -6 -36 -16 -40 -13 -5 -15 -16 -10 -52 6 -56 11
-62 26 -35 16 30 39 26 52 -9 14 -41 32 -33 36 15 3 36 2 37 -22 31 -29 -7
-31 -4 -15 26 9 16 8 23 -2 29 -12 8 -12 11 1 18 12 8 12 13 -4 30 -29 32 -46
26 -46 -13z"/>
<path d="M7455 3590 c3 -5 8 -10 11 -10 2 0 4 5 4 10 0 6 -5 10 -11 10 -5 0
-7 -4 -4 -10z"/>
<path d="M7807 3514 c3 -7 9 -14 14 -14 14 0 10 17 -5 23 -10 4 -13 1 -9 -9z"/>
<path d="M6401 3314 c0 -11 3 -14 6 -6 3 7 2 16 -1 19 -3 4 -6 -2 -5 -13z"/>
<path d="M5590 3272 c0 -14 23 -32 42 -32 10 0 18 5 18 10 0 6 -7 10 -15 10
-8 0 -15 5 -15 10 0 6 -7 10 -15 10 -8 0 -15 -4 -15 -8z"/>
<path d="M5916 3251 c-4 -6 -2 -11 4 -11 6 0 9 -4 6 -8 -2 -4 4 -14 15 -20 18
-12 19 -11 10 5 -23 40 -28 45 -35 34z"/>
<path d="M5951 3148 c9 -17 9 -24 -5 -33 -19 -15 -22 -65 -3 -65 8 0 19 -11
25 -25 10 -22 18 -25 62 -25 27 0 50 -4 50 -10 0 -5 -8 -10 -17 -10 -14 0 -12
-6 11 -25 16 -14 33 -25 38 -25 17 0 23 5 23 20 1 8 6 14 13 13 21 -5 13 5
-35 40 -27 19 -72 65 -101 101 -53 65 -84 87 -61 44z"/>
<path d="M5466 3142 c-3 -6 -1 -14 5 -17 14 -9 20 -2 10 14 -6 8 -11 9 -15 3z"/>
<path d="M5517 3144 c-8 -8 1 -24 12 -24 4 0 8 7 8 15 0 16 -9 20 -20 9z"/>
<path d="M5415 2970 c-6 -10 29 -50 45 -50 14 0 13 33 -2 48 -14 14 -35 16
-43 2z"/>
<path d="M6086 2899 c4 -7 44 0 44 7 0 2 -11 3 -24 2 -14 -1 -23 -5 -20 -9z"/>
<path d="M5984 2849 c-10 -16 7 -29 37 -29 19 0 29 4 27 12 -5 15 -56 29 -64
17z"/>
<path d="M5770 2830 c0 -5 4 -10 9 -10 6 0 13 5 16 10 3 6 -1 10 -9 10 -9 0
-16 -4 -16 -10z"/>
<path d="M5895 2806 c11 -8 27 -16 35 -16 20 0 1 16 -30 25 -24 7 -24 7 -5 -9z"/>
<path d="M5736 2746 c6 -17 42 -32 52 -22 8 8 -8 22 -35 31 -18 5 -22 3 -17
-9z"/>
<path d="M6135 2680 c-3 -5 -2 -10 4 -10 5 0 13 5 16 10 3 6 2 10 -4 10 -5 0
-13 -4 -16 -10z"/>
<path d="M5800 2665 c30 -17 48 -19 32 -3 -6 6 -22 13 -34 15 -22 3 -22 2 2
-12z"/>
<path d="M5885 2664 c-20 -20 -19 -33 3 -41 9 -4 31 -18 47 -31 27 -22 30 -23
33 -7 2 9 -1 22 -8 29 -8 8 -10 7 -5 -6 4 -11 2 -18 -4 -18 -6 0 -11 3 -12 8
0 4 -2 15 -4 25 -2 9 1 17 6 17 18 0 8 17 -16 28 -19 9 -27 8 -40 -4z"/>
<path d="M6048 2663 c7 -3 16 -2 19 1 4 3 -2 6 -13 5 -11 0 -14 -3 -6 -6z"/>
<path d="M6033 2637 c5 -15 47 -22 47 -8 0 6 -3 11 -7 12 -5 0 -16 2 -26 4
-10 2 -17 -2 -14 -8z"/>
<path d="M6180 2560 c0 -5 5 -10 11 -10 5 0 7 5 4 10 -3 6 -8 10 -11 10 -2 0
-4 -4 -4 -10z"/>
<path d="M6598 2353 c7 -3 16 -2 19 1 4 3 -2 6 -13 5 -11 0 -14 -3 -6 -6z"/>
<path d="M8433 4445 c-13 -19 -23 -39 -23 -45 0 -5 -4 -10 -8 -10 -5 0 -6 -14
-4 -31 3 -20 0 -34 -9 -40 -22 -14 -49 -10 -49 6 0 21 -24 19 -45 -5 -10 -11
-26 -22 -36 -25 -29 -10 -22 -32 18 -60 49 -33 61 -32 102 10 21 22 44 35 60
35 20 1 34 13 64 59 44 68 49 111 13 111 -13 0 -29 7 -36 15 -18 21 -22 19
-47 -20z"/>
<path d="M5655 3919 c-4 -6 -5 -13 -2 -16 8 -7 47 7 47 18 0 13 -37 11 -45 -2z"/>
<path d="M5896 3861 c-3 -5 1 -11 9 -14 9 -4 12 -1 8 9 -6 16 -10 17 -17 5z"/>
<path d="M5956 3766 c3 -9 16 -16 28 -15 14 0 16 2 6 6 -8 3 -21 10 -28 16 -9
7 -11 6 -6 -7z"/>
<path d="M6096 3445 c4 -8 10 -12 15 -9 11 6 2 24 -11 24 -5 0 -7 -7 -4 -15z"/>
<path d="M3503 2770 c-13 -5 -23 -12 -23 -15 0 -15 34 -55 48 -55 20 0 41 29
42 58 0 24 -25 29 -67 12z"/>
<path d="M3632 2630 c-11 -18 -9 -22 13 -32 32 -14 41 -5 27 27 -14 30 -23 31
-40 5z"/>
<path d="M4150 2440 c-8 -5 -50 -10 -92 -10 -82 0 -128 -14 -128 -38 0 -8 20
-37 45 -63 25 -26 45 -58 45 -69 0 -24 16 -57 37 -78 10 -10 12 -28 7 -62 -5
-41 -3 -51 15 -69 18 -18 32 -21 84 -20 35 1 73 -3 84 -10 38 -20 61 -13 78
23 26 53 12 78 -40 76 -3 0 -19 7 -36 15 -36 19 -50 51 -37 84 4 13 11 40 14
60 3 20 10 50 16 67 21 61 -43 127 -92 94z"/>
<path d="M2975 2400 c3 -5 12 -7 20 -3 21 7 19 13 -6 13 -11 0 -18 -4 -14 -10z"/>
<path d="M3612 2350 c-22 -17 -44 -40 -47 -50 -9 -28 10 -57 43 -63 48 -10 85
6 114 49 24 36 25 41 12 66 -20 39 -67 38 -122 -2z"/>
<path d="M3870 2290 c-19 -5 -24 -12 -22 -30 3 -30 6 -33 30 -26 20 7 37 46
24 57 -4 3 -18 3 -32 -1z"/>
<path d="M8380 3076 c-29 -8 -40 -15 -32 -20 14 -9 102 14 102 26 0 10 -14 9
-70 -6z"/>
<path d="M8149 2999 c-19 -16 -21 -22 -10 -29 16 -9 74 28 65 42 -9 14 -30 9
-55 -13z"/>
<path d="M8435 2884 c-119 -58 -117 -60 23 -16 101 31 120 43 100 60 -10 8
-41 -4 -123 -44z"/>
<path d="M8175 2790 c-3 -5 1 -10 9 -10 8 0 18 5 21 10 3 6 -1 10 -9 10 -8 0
-18 -4 -21 -10z"/>
<path d="M4640 3102 c0 -5 7 -13 16 -16 10 -4 14 -1 12 6 -5 15 -28 23 -28 10z"/>
<path d="M4343 1368 c-23 -24 -45 -56 -48 -73 l-7 -30 29 34 c28 35 77 111 71
111 -2 0 -22 -19 -45 -42z"/>
<path d="M5540 905 c-10 -12 -10 -15 4 -15 9 0 16 7 16 15 0 8 -2 15 -4 15 -2
0 -9 -7 -16 -15z"/>
<path d="M5502 849 c-7 -11 -11 -23 -9 -25 7 -7 29 24 25 36 -2 6 -9 1 -16
-11z"/>
<path d="M5580 2520 c0 -5 5 -10 11 -10 5 0 7 5 4 10 -3 6 -8 10 -11 10 -2 0
-4 -4 -4 -10z"/>
<path d="M2136 1747 c-16 -12 -16 -14 4 -35 29 -30 68 -29 76 2 3 14 3 30 -1
35 -9 15 -57 14 -79 -2z"/>
<path d="M6748 1463 c17 -2 47 -2 65 0 17 2 3 4 -33 4 -36 0 -50 -2 -32 -4z"/>
<path d="M6618 1453 c7 -3 16 -2 19 1 4 3 -2 6 -13 5 -11 0 -14 -3 -6 -6z"/>
<path d="M5791 1184 c0 -11 3 -14 6 -6 3 7 2 16 -1 19 -3 4 -6 -2 -5 -13z"/>
<path d="M8820 7347 c0 -5 9 -7 20 -4 17 4 20 2 16 -16 -3 -12 -3 -16 0 -9 3
6 10 10 15 6 5 -3 9 4 9 16 0 16 -6 20 -30 18 -16 -1 -30 -6 -30 -11z"/>
<path d="M1307 6899 c-8 -30 1 -43 19 -28 8 6 14 8 14 5 0 -4 7 -1 15 8 17 17
20 36 5 36 -5 0 -10 -7 -10 -17 0 -15 -1 -15 -19 1 -17 16 -19 16 -24 -5z"/>
<path d="M1410 6834 c0 -6 5 -15 12 -22 9 -9 8 -12 -5 -12 -9 0 -17 6 -17 12
0 7 -10 -2 -22 -19 -13 -18 -26 -33 -30 -33 -9 0 -35 27 -40 42 -3 9 -14 10
-43 3 -53 -13 -68 -42 -60 -121 5 -58 -5 -119 -58 -336 -8 -32 -12 -59 -10
-62 3 -2 21 7 40 20 20 13 46 24 59 24 13 0 24 5 24 11 0 5 5 7 10 4 6 -3 10
-2 10 4 0 5 9 8 20 6 26 -5 44 28 34 63 -4 15 -8 38 -10 52 -1 14 -5 34 -8 45
-4 11 0 31 9 45 34 57 57 113 52 129 -5 19 17 44 29 33 4 -4 4 -2 0 5 -10 18
4 63 20 63 8 0 14 3 14 8 -1 11 -30 47 -30 36z"/>
<path d="M1530 6236 c0 -8 5 -18 10 -21 6 -3 10 1 10 9 0 8 -4 18 -10 21 -5 3
-10 -1 -10 -9z"/>
<path d="M8720 5668 c0 -9 5 -20 10 -23 13 -8 13 5 0 25 -8 13 -10 13 -10 -2z"/>
<path d="M1240 3889 c0 -5 5 -7 10 -4 6 3 10 8 10 11 0 2 -4 4 -10 4 -5 0 -10
-5 -10 -11z"/>
<path d="M8277 2605 c3 -8 9 -12 14 -9 12 7 11 11 -5 17 -10 4 -13 1 -9 -8z"/>
<path d="M8025 1580 l-30 -6 34 -18 c26 -14 46 -17 83 -12 44 6 111 -8 191
-39 10 -4 17 -3 17 4 0 14 -94 57 -141 65 -62 10 -124 13 -154 6z"/>
<path d="M0 1378 c0 -54 3 -69 11 -61 7 7 13 31 14 54 1 22 9 45 16 50 12 8
12 11 -1 19 -33 22 -40 12 -40 -62z"/>
<path d="M38 213 l-38 -4 0 -105 0 -104 613 0 613 0 12 33 c23 65 17 86 -34
107 -50 22 -85 25 -99 11 -6 -6 -30 -11 -55 -12 -25 -1 -57 -8 -72 -16 -31
-15 -86 -17 -107 -4 -7 5 -15 19 -16 32 -1 13 -3 27 -4 32 -2 13 -87 7 -107
-8 -12 -9 -44 -14 -91 -15 -60 0 -77 4 -93 20 -33 33 -64 40 -123 28 -36 -8
-72 -8 -113 -2 -32 5 -75 6 -94 2 -19 -4 -53 -5 -75 -2 -62 10 -77 11 -117 7z"/>
<path d="M8417 203 c-13 -12 -7 -22 12 -20 15 1 17 4 9 14 -12 15 -13 15 -21
6z"/>
</g>
</svg>
