<?xml version="1.0" standalone="no"?>
<!DOCTYPE svg PUBLIC "-//W3C//DTD SVG 20010904//EN"
 "http://www.w3.org/TR/2001/REC-SVG-20010904/DTD/svg10.dtd">
<svg version="1.0" xmlns="http://www.w3.org/2000/svg"
 width="500.000000pt" height="375.000000pt" viewBox="0 0 500.000000 375.000000"
 preserveAspectRatio="xMidYMid meet">

<g transform="translate(0.000000,375.000000) scale(0.100000,-0.100000)"
fill="#000000" stroke="none">
<path d="M0 1875 l0 -1875 2500 0 2500 0 0 1875 0 1875 -2500 0 -2500 0 0
-1875z m1930 1075 c0 -5 -5 -10 -11 -10 -5 0 -7 5 -4 10 3 6 8 10 11 10 2 0 4
-4 4 -10z m-12 -36 c15 -11 22 -12 22 -3 0 7 3 9 6 6 4 -4 2 -13 -5 -20 -6 -8
-8 -23 -4 -33 6 -17 5 -17 -14 1 -11 11 -23 27 -26 35 -3 8 -5 3 -4 -12 1 -15
4 -25 8 -22 4 2 11 0 14 -6 4 -6 3 -10 -2 -9 -35 6 -53 -3 -53 -25 0 -13 -7
-26 -15 -30 -8 -3 -15 -13 -15 -21 0 -9 -4 -13 -10 -10 -5 3 -7 0 -4 -8 3 -8
-2 -20 -10 -27 -9 -7 -13 -16 -10 -21 3 -5 0 -9 -5 -9 -6 0 -11 -9 -11 -20 0
-11 -7 -23 -15 -26 -8 -4 -15 -15 -15 -26 0 -10 -4 -17 -8 -14 -5 3 -15 -4
-22 -15 -18 -24 -33 -25 -26 -1 6 18 -5 44 -19 44 -12 0 -45 -55 -45 -75 0
-15 5 -13 25 10 18 21 24 24 25 12 0 -9 -21 -39 -47 -65 -25 -27 -43 -40 -39
-30 5 16 4 17 -9 6 -8 -7 -12 -16 -9 -21 3 -5 2 -14 -2 -20 -4 -8 -9 -8 -13
-1 -3 6 -17 -7 -29 -29 -12 -21 -19 -39 -14 -39 5 0 15 12 22 28 12 24 14 25
18 7 2 -11 -4 -26 -17 -36 -14 -11 -19 -23 -14 -35 4 -12 3 -15 -5 -10 -8 5
-12 -1 -12 -18 0 -14 -5 -26 -11 -26 -5 0 -7 -5 -4 -11 10 -16 -4 -59 -18 -54
-14 5 -47 -55 -47 -85 0 -12 7 -20 18 -20 13 0 14 2 4 9 -11 7 -11 9 2 14 9 4
16 13 16 22 0 8 5 15 10 15 6 0 10 7 10 15 0 19 14 19 30 0 10 -12 9 -20 -4
-41 -15 -21 -20 -23 -33 -13 -13 11 -14 10 -11 -11 1 -14 10 -25 18 -25 8 0
16 -10 18 -22 2 -13 0 -23 -5 -23 -11 0 -34 -78 -32 -105 1 -11 1 -31 1 -44
-2 -21 -4 -22 -18 -10 -15 12 -16 11 -9 -11 4 -14 13 -28 19 -32 8 -6 8 -8 -1
-8 -6 0 -11 -13 -11 -30 1 -32 18 -43 18 -11 0 11 5 23 11 27 7 4 9 22 5 49
-6 38 -4 44 20 60 26 17 27 17 19 -1 -4 -11 -14 -50 -22 -89 -8 -38 -20 -76
-26 -83 -8 -11 -7 -16 6 -23 9 -6 17 -15 17 -21 0 -7 -6 -6 -15 2 -13 11 -14
10 -9 -3 3 -8 12 -18 20 -21 8 -3 14 -16 14 -30 0 -14 5 -28 11 -31 8 -6 32
-54 30 -62 -1 -2 7 -12 17 -22 34 -39 42 -50 42 -66 0 -8 -4 -15 -9 -15 -5 0
-7 -9 -4 -20 3 -11 9 -17 14 -14 5 3 9 -1 9 -8 0 -15 21 -45 58 -84 14 -15 18
-24 10 -25 -10 0 -10 -2 0 -6 6 -2 12 -11 12 -19 0 -9 4 -12 10 -9 11 6 59
-43 60 -60 0 -12 52 -45 69 -45 6 0 9 13 7 30 -3 24 -1 28 10 19 7 -6 10 -17
7 -25 -3 -8 0 -14 6 -14 6 0 11 -5 11 -11 0 -5 -6 -7 -12 -3 -7 5 -3 -5 10
-20 12 -16 22 -35 22 -44 0 -10 7 -13 25 -10 14 3 25 1 25 -4 0 -6 8 -7 18 -3
34 14 70 14 76 0 2 -7 -2 -16 -9 -19 -11 -4 -12 -11 -3 -36 7 -21 15 -29 25
-26 8 3 11 1 8 -4 -3 -6 -1 -10 4 -10 6 0 11 -7 11 -15 0 -8 8 -15 18 -16 11
0 13 -2 4 -6 -7 -3 -24 5 -38 18 -13 12 -24 18 -24 13 0 -12 50 -58 50 -46 0
4 5 0 10 -8 8 -13 11 -13 19 -1 11 17 32 5 24 -14 -4 -13 7 -20 29 -16 4 0 13
-9 19 -22 7 -12 17 -26 23 -30 6 -4 0 -5 -14 -2 -34 7 -55 -8 -45 -31 8 -18 8
-18 12 -1 5 18 33 24 33 6 0 -5 5 -7 10 -4 6 3 10 -1 10 -9 0 -10 -9 -16 -21
-16 -12 0 -19 -5 -16 -12 2 -7 16 -12 31 -10 30 3 36 -17 6 -25 -24 -6 -25
-16 -5 -33 22 -18 39 -7 40 26 0 19 6 30 18 32 11 2 17 -3 17 -15 0 -15 -2
-15 -10 -3 -14 22 -22 6 -11 -21 5 -13 10 -19 10 -12 1 7 8 10 16 7 8 -4 12
-10 9 -15 -3 -6 0 -17 7 -25 12 -14 14 -14 19 1 5 14 8 14 25 -6 17 -19 18
-22 3 -16 -10 3 -20 2 -23 -3 -4 -6 0 -10 7 -11 7 -1 20 -2 28 -3 8 -2 22 -3
31 -4 9 -1 26 -11 39 -22 16 -14 26 -17 31 -9 4 8 10 5 18 -7 6 -11 11 -13 11
-6 0 18 20 15 20 -4 0 -14 3 -14 15 -4 9 8 15 9 15 2 0 -6 20 -14 45 -18 84
-12 38 -15 -71 -5 -317 30 -612 176 -819 403 -212 234 -327 498 -350 808 -19
260 69 575 225 805 52 76 183 222 231 256 26 18 30 19 45 5 15 -16 24 -20 24
-12 0 3 -7 12 -16 21 -15 15 -15 17 2 30 24 18 25 18 52 -1z m-41 -106 c-3 -7
-5 -2 -5 12 0 14 2 19 5 13 2 -7 2 -19 0 -25z m-32 -64 c-12 -24 -15 -25 -15
-8 0 11 5 25 12 32 18 18 20 8 3 -24z m-278 -546 c-3 -8 -6 -5 -6 6 -1 11 2
17 5 13 3 -3 4 -12 1 -19z m124 -181 c-10 -9 -11 -8 -5 6 3 10 9 15 12 12 3
-3 0 -11 -7 -18z m39 -1 c0 -7 -11 -21 -25 -30 -29 -19 -34 -4 -5 17 11 8 17
17 13 20 -3 4 -1 7 5 7 7 0 12 -6 12 -14z m-109 -399 c-13 -13 -26 -3 -16 12
3 6 11 8 17 5 6 -4 6 -10 -1 -17z m329 -427 c0 -5 -2 -10 -4 -10 -3 0 -8 5
-11 10 -3 6 -1 10 4 10 6 0 11 -4 11 -10z m743 -597 c-7 -2 -19 -2 -25 0 -7 3
-2 5 12 5 14 0 19 -2 13 -5z"/>
<path d="M1790 2785 c-10 -12 -10 -19 -2 -27 9 -9 12 -7 12 9 0 12 6 24 13 26
7 4 8 6 1 6 -6 1 -17 -6 -24 -14z"/>
<path d="M1590 1321 c0 -5 7 -14 15 -21 12 -10 15 -10 15 3 0 8 -7 17 -15 21
-8 3 -15 2 -15 -3z"/>
<path d="M1983 1089 c-1 -12 5 -29 14 -38 16 -15 16 -15 10 2 -4 10 -7 27 -7
38 0 26 -15 24 -17 -2z"/>
<path d="M2145 810 c-3 -5 -1 -10 4 -10 6 0 11 5 11 10 0 6 -2 10 -4 10 -3 0
-8 -4 -11 -10z"/>
</g>
</svg>
