<?xml version="1.0" standalone="no"?>
<!DOCTYPE svg PUBLIC "-//W3C//DTD SVG 20010904//EN"
 "http://www.w3.org/TR/2001/REC-SVG-20010904/DTD/svg10.dtd">
<svg version="1.0" xmlns="http://www.w3.org/2000/svg"
 width="1500.000000pt" height="1500.000000pt" viewBox="0 0 1500.000000 1500.000000"
 preserveAspectRatio="xMidYMid meet">

<g transform="translate(0.000000,1500.000000) scale(0.100000,-0.100000)"
fill="#000000" stroke="none">
<path d="M0 7500 l0 -7500 7500 0 7500 0 0 7500 0 7500 -7500 0 -7500 0 0
-7500z m6801 6761 c-18 -14 -21 -20 -10 -24 11 -5 11 -8 -3 -17 -14 -8 -15
-16 -8 -35 6 -16 6 -25 0 -25 -5 0 -7 -7 -4 -15 4 -8 -1 -17 -10 -21 -25 -10
-19 -22 19 -34 19 -6 35 -16 35 -21 0 -5 -2 -9 -4 -9 -2 0 -12 -3 -22 -7 -13
-5 -16 -3 -11 10 3 9 2 17 -3 17 -6 0 -10 -7 -10 -15 0 -8 -7 -15 -15 -15 -17
0 -40 -38 -37 -61 2 -9 -6 -19 -18 -22 -16 -4 -20 -13 -20 -44 0 -39 -39 -108
-40 -70 0 19 -37 38 -57 30 -7 -3 -13 -14 -13 -24 0 -10 -5 -19 -11 -19 -5 0
-7 -4 -4 -10 3 -6 -1 -7 -9 -4 -9 3 -16 12 -16 20 0 8 -5 14 -11 14 -6 0 -9
-5 -7 -12 3 -7 -7 -23 -20 -35 -21 -19 -32 -22 -61 -17 -20 4 -39 11 -42 17
-4 5 -9 5 -12 1 -8 -14 11 -54 28 -60 14 -6 13 -8 -2 -21 -10 -8 -12 -12 -5
-8 13 7 17 -11 4 -19 -14 -8 -67 10 -64 23 3 16 -13 14 -28 -4 -7 -9 -19 -14
-27 -11 -7 3 -13 -1 -13 -9 0 -8 -4 -15 -10 -15 -5 0 -10 18 -10 40 0 22 -5
40 -11 40 -18 0 -39 -27 -39 -52 0 -32 -14 -50 -32 -43 -9 4 -19 2 -23 -4 -3
-6 -1 -11 4 -11 6 0 11 -5 11 -11 0 -5 -3 -8 -8 -5 -4 2 -6 -13 -4 -34 2 -21
-1 -41 -7 -44 -7 -5 -11 2 -11 17 0 30 -10 40 -27 26 -7 -6 -13 -8 -13 -5 0 4
-9 2 -21 -4 -16 -9 -18 -14 -9 -25 6 -8 18 -11 26 -8 8 3 14 -1 14 -11 0 -9
-4 -16 -10 -16 -5 0 -10 -8 -10 -18 0 -11 -13 -23 -35 -31 -32 -11 -35 -16
-35 -52 0 -23 -4 -38 -10 -34 -5 3 -21 3 -35 -1 -25 -6 -25 -7 -9 -25 14 -16
15 -21 3 -35 -8 -10 -13 -25 -11 -35 4 -23 -13 -32 -68 -37 -25 -2 -50 -10
-56 -18 -6 -8 -16 -14 -23 -14 -6 0 -11 -4 -11 -10 0 -5 2 -10 4 -10 2 0 11
-3 20 -6 10 -4 16 -1 16 9 0 9 4 18 9 21 4 3 7 -10 5 -29 -2 -34 12 -49 21
-22 24 67 26 70 38 57 9 -10 9 -13 0 -17 -7 -3 -13 -14 -13 -25 0 -14 5 -18
19 -13 10 3 24 -1 31 -10 7 -8 21 -15 31 -15 11 0 19 -5 19 -12 0 -7 5 -6 13
4 6 8 28 21 47 28 47 16 101 42 120 56 8 6 29 14 45 18 21 5 26 4 15 -3 -8 -6
-15 -18 -15 -28 0 -10 -9 -19 -19 -21 -14 -3 -17 0 -13 12 8 19 0 21 -18 3
-11 -11 -10 -17 5 -37 15 -20 21 -22 33 -12 12 10 14 8 10 -10 -3 -13 -18 -30
-36 -39 -25 -12 -32 -22 -32 -45 0 -16 -4 -35 -8 -41 -5 -8 -4 -13 2 -13 18 0
12 -26 -9 -45 -12 -11 -20 -28 -19 -39 3 -26 -10 -66 -21 -66 -4 0 -11 7 -14
16 -4 10 -13 13 -26 9 -18 -6 -20 -3 -15 22 6 26 5 27 -9 9 -9 -11 -21 -16
-32 -12 -9 3 -23 1 -30 -5 -12 -10 -13 -9 -8 5 4 11 1 16 -10 16 -9 0 -16 5
-16 11 0 6 -8 8 -19 4 -12 -4 -21 0 -25 11 -6 16 -8 16 -25 0 -17 -16 -19 -15
-34 6 l-16 23 0 -24 c-1 -17 -5 -22 -17 -17 -9 4 -23 1 -30 -5 -11 -9 -14 -8
-14 1 0 7 -6 10 -14 7 -7 -3 -18 -1 -24 5 -6 6 -12 1 -16 -17 -5 -21 -10 -24
-21 -15 -15 13 -31 -3 -19 -21 4 -8 -3 -9 -25 -4 -23 5 -32 3 -37 -9 -3 -9
-12 -16 -20 -16 -8 0 -14 -9 -14 -21 0 -17 4 -19 23 -13 21 6 21 6 -3 -15
l-25 -22 24 7 c20 5 23 3 19 -13 -3 -10 1 -24 9 -31 19 -19 17 -56 -3 -48 -11
4 -18 -1 -21 -14 -3 -11 -8 -20 -12 -21 -71 -6 -98 -12 -120 -28 -14 -10 -35
-20 -46 -22 -11 -3 -20 -11 -20 -20 0 -18 -28 -49 -44 -49 -16 0 -14 -7 9 -30
34 -34 1 -67 -40 -40 -11 7 -6 10 20 11 34 0 34 1 -12 13 -26 7 -54 19 -63 26
-12 10 -19 10 -27 2 -7 -7 -27 -12 -44 -12 -36 0 -84 -36 -84 -63 0 -8 -7 -17
-15 -21 -8 -3 -15 -15 -15 -27 0 -15 4 -19 16 -15 9 3 20 6 26 6 6 0 8 7 5 15
-9 22 13 30 31 11 14 -14 14 -17 -2 -35 -10 -11 -24 -17 -31 -15 -17 7 -26 -8
-15 -26 8 -12 13 -13 30 -2 26 16 26 8 -1 -19 -18 -18 -23 -19 -37 -6 -9 8
-25 17 -35 20 -15 6 -17 3 -12 -13 4 -11 2 -20 -4 -20 -18 0 -12 -38 9 -58 25
-23 45 -83 26 -76 -8 3 -17 -8 -23 -28 -6 -18 -11 -25 -12 -15 -1 25 -14 21
-28 -9 -11 -24 -10 -26 8 -21 19 5 19 4 5 -18 -18 -27 -21 -55 -7 -55 5 0 11
12 13 28 l3 27 26 -27 c30 -32 39 -35 39 -13 0 8 5 15 11 15 7 0 9 -12 6 -32
-3 -18 -3 -27 0 -20 7 17 23 15 23 -3 0 -9 7 -18 15 -21 20 -8 9 -24 -16 -24
-10 0 -19 -4 -19 -10 0 -5 5 -10 11 -10 6 0 -3 -12 -20 -27 -17 -15 -31 -33
-31 -39 0 -7 -5 -14 -12 -16 -8 -3 -8 -9 -1 -22 15 -27 5 -60 -13 -45 -11 9
-15 8 -20 -5 -10 -26 -29 -18 -42 17 -16 45 -15 60 4 53 8 -3 12 -2 9 4 -3 6
2 13 12 17 10 4 23 12 29 17 6 6 23 21 38 33 14 13 26 28 26 33 0 20 -62 69
-79 62 -14 -6 -14 -7 2 -10 19 -4 21 -10 8 -31 -5 -8 -16 -11 -29 -7 -23 8
-34 -17 -34 -76 0 -21 -4 -38 -8 -38 -5 0 -12 -9 -15 -20 -7 -23 -35 -27 -35
-5 0 8 -6 15 -12 16 -102 8 -100 8 -81 -7 10 -7 28 -14 41 -14 32 0 62 -18 62
-35 0 -8 7 -15 15 -15 9 0 12 6 9 15 -4 8 -1 15 5 15 14 0 14 -21 0 -57 -11
-27 -11 -27 -19 -7 -14 35 -32 40 -24 7 4 -15 10 -33 15 -38 5 -6 0 -16 -12
-23 -22 -14 -25 -32 -4 -32 8 0 19 -9 25 -20 14 -26 0 -26 -28 1 -24 22 -42
18 -42 -9 0 -15 2 -15 10 -2 8 12 10 10 10 -9 0 -20 4 -23 25 -19 17 4 29 0
35 -11 8 -14 12 -14 31 -3 20 13 21 12 15 -3 -3 -10 -1 -24 5 -31 9 -11 6 -14
-19 -14 -17 0 -34 5 -37 10 -4 6 -11 7 -17 4 -6 -4 5 -15 26 -26 20 -10 36
-23 36 -29 0 -7 10 -9 25 -5 14 4 25 3 25 -1 0 -10 -48 -33 -69 -34 -9 0 -3
-5 14 -10 21 -6 34 -5 45 5 8 7 21 11 28 9 17 -6 -35 -34 -56 -31 -8 2 -17 -3
-19 -9 -3 -9 6 -13 26 -13 21 0 31 -5 31 -15 0 -11 -7 -14 -25 -9 -21 5 -25 3
-25 -18 0 -13 -9 -40 -19 -61 -19 -37 -19 -37 -25 -12 -4 14 -11 23 -15 20 -5
-3 -7 -14 -4 -25 3 -11 0 -20 -6 -20 -6 0 -11 7 -11 16 0 14 -3 14 -15 4 -27
-22 -19 -43 14 -37 38 8 86 -26 61 -43 -12 -8 -9 -10 12 -10 14 0 35 -3 45 -7
14 -6 8 -9 -22 -14 -34 -5 -37 -7 -18 -14 27 -9 40 -42 23 -59 -10 -8 -11 -6
-5 12 6 19 3 22 -24 22 -26 0 -31 -4 -31 -25 0 -29 39 -78 57 -71 7 3 15 1 18
-4 4 -6 0 -10 -7 -10 -9 -1 -8 -5 4 -14 23 -17 13 -56 -14 -56 -21 0 -22 -19
-3 -63 7 -16 4 -18 -16 -15 -17 2 -23 9 -22 23 1 11 0 14 -3 8 -3 -7 -12 -13
-20 -13 -10 0 -14 -12 -14 -40 0 -22 -4 -40 -8 -40 -5 0 -8 -14 -7 -30 1 -17
-4 -35 -12 -41 -7 -6 -13 -22 -13 -35 0 -30 -14 -38 -34 -19 -19 19 -83 34
-72 17 4 -7 14 -12 22 -12 10 0 14 -14 14 -52 l1 -53 22 37 c22 38 42 52 30
23 -5 -13 -2 -14 21 -4 37 17 51 1 34 -36 -10 -22 -10 -29 0 -33 20 -6 14 -23
-18 -52 l-31 -27 46 -13 c40 -11 43 -14 28 -25 -16 -12 -16 -15 -2 -32 9 -10
14 -24 12 -30 -3 -7 2 -16 11 -19 9 -3 14 -10 11 -14 -7 -11 43 -22 57 -14 7
4 8 3 4 -4 -4 -7 -4 -12 1 -12 17 1 40 26 47 53 6 25 4 27 -23 27 -25 0 -29
-3 -24 -17 4 -13 1 -12 -14 5 -17 18 -19 27 -10 46 13 27 38 30 45 4 2 -10 8
-15 13 -13 4 3 4 17 -1 31 -9 23 -8 25 11 19 15 -5 19 -4 15 4 -4 6 -14 11
-22 11 -8 0 -14 5 -14 10 0 6 11 10 25 10 18 0 25 5 25 20 0 11 5 20 10 20 6
0 10 8 10 18 0 15 -2 15 -11 2 -8 -12 -9 -11 -5 5 18 70 18 75 2 75 -9 0 -16
7 -16 15 0 8 -8 15 -17 15 -14 1 -12 4 7 14 14 8 28 12 33 9 5 -3 15 3 22 13
13 17 14 17 15 2 0 -9 5 -20 11 -24 7 -4 9 0 5 12 -7 23 28 51 40 33 4 -6 0
-15 -7 -20 -10 -6 -14 -31 -14 -89 0 -44 -3 -80 -7 -80 -4 0 -5 -6 -2 -14 3
-7 -2 -16 -10 -19 -21 -8 -20 -27 0 -27 13 0 14 -3 5 -14 -7 -8 -11 -20 -10
-28 1 -7 -1 -26 -5 -43 -24 -100 -30 -121 -37 -131 -11 -14 -1 -24 16 -18 19
8 43 -85 25 -96 -11 -7 -9 -19 8 -65 22 -58 29 -100 14 -91 -5 3 -3 -16 3 -42
7 -26 9 -48 4 -50 -5 -2 -9 -9 -9 -15 0 -8 4 -7 12 1 7 7 21 12 32 12 20 -1
21 -1 2 -15 -16 -12 -17 -17 -6 -30 10 -12 9 -15 -6 -16 -14 -1 -12 -3 6 -8
17 -5 24 -14 23 -28 -2 -13 5 -23 17 -26 20 -5 30 10 30 44 0 10 5 19 11 19 6
0 8 -9 4 -21 -6 -18 -5 -19 13 -8 12 7 18 17 15 23 -4 5 6 1 20 -10 27 -20 34
-34 17 -34 -19 0 -10 -21 13 -30 13 -5 16 -9 7 -10 -8 -1 -26 -15 -40 -33 -14
-17 -20 -28 -14 -24 7 4 25 0 40 -8 16 -8 24 -15 18 -15 -7 0 -14 -9 -17 -20
-4 -16 0 -20 19 -20 13 0 24 -5 24 -11 0 -8 4 -8 14 0 25 21 44 2 51 -52 4
-29 12 -58 17 -64 7 -9 7 -22 -2 -42 -8 -20 -9 -47 -4 -83 4 -29 7 -59 5 -66
-2 -10 4 -12 18 -7 18 5 21 2 21 -20 0 -15 -4 -24 -10 -20 -5 3 -10 2 -10 -3
0 -5 -3 -25 -7 -43 -6 -31 -5 -33 10 -20 21 17 23 -2 2 -23 -8 -8 -15 -21 -15
-30 0 -8 -8 -21 -18 -28 -9 -7 -23 -25 -29 -40 -11 -24 -10 -28 3 -28 10 0 14
6 11 15 -13 32 12 22 38 -15 27 -38 27 -41 10 -54 -13 -9 -15 -15 -7 -20 17
-10 15 -26 -3 -26 -8 0 -15 -7 -15 -16 0 -13 3 -14 13 -5 16 13 27 5 27 -21 0
-11 -7 -18 -20 -18 -11 0 -20 -4 -20 -10 0 -5 -8 -10 -17 -11 -14 0 -13 -2 5
-9 12 -5 29 -7 37 -4 22 9 19 -12 -4 -28 -11 -8 -21 -22 -23 -33 -2 -15 3 -21
25 -23 15 -2 27 -7 27 -11 0 -12 -29 -35 -36 -28 -9 8 -44 -31 -40 -45 1 -7 1
-10 -1 -5 -9 14 -23 7 -23 -12 0 -24 -26 -35 -34 -15 -10 25 -7 32 15 39 19 6
20 7 2 20 -10 7 -21 11 -24 9 -4 -2 -12 3 -19 11 -16 19 -30 19 -30 0 0 -8 7
-15 15 -15 8 0 15 -4 15 -9 0 -17 -19 -22 -39 -11 -13 7 -22 7 -26 0 -3 -5
-26 -10 -50 -10 -24 0 -47 -5 -50 -11 -4 -5 -18 -14 -32 -20 -35 -13 -24 -31
22 -36 51 -5 58 -13 12 -13 -26 0 -37 -4 -37 -15 0 -9 -6 -12 -15 -9 -8 4 -15
1 -15 -5 0 -6 8 -11 18 -11 26 -1 50 -42 58 -100 8 -60 -11 -64 -22 -5 -3 20
-12 35 -20 35 -8 0 -14 6 -15 13 0 8 -2 8 -5 1 -6 -14 -45 -6 -56 10 -5 6 -8
2 -8 -10 0 -14 -11 -25 -35 -34 -19 -8 -36 -19 -37 -24 0 -6 -2 -15 -2 -21 -1
-5 -7 -20 -14 -32 -11 -19 -9 -24 8 -33 15 -8 20 -21 20 -50 0 -22 5 -40 13
-43 9 -3 9 -7 -2 -20 -7 -9 -17 -15 -21 -12 -14 9 -40 -6 -41 -24 -1 -14 -2
-14 -6 2 -2 9 -11 17 -18 17 -11 0 -11 -8 -4 -35 6 -20 7 -44 4 -54 -3 -11 1
-26 10 -34 17 -18 22 -137 5 -137 -5 0 -10 -5 -10 -11 0 -6 7 -8 16 -5 21 8
44 -11 44 -35 0 -11 6 -19 14 -19 14 0 26 -29 26 -67 0 -13 -5 -23 -11 -23 -5
0 -7 5 -3 12 5 8 2 9 -10 5 -14 -5 -16 -3 -11 12 3 11 1 22 -4 25 -17 11 -20
-10 -6 -38 13 -24 13 -31 0 -49 -22 -31 -19 -54 3 -26 39 48 65 1 54 -100 -4
-41 -2 -52 7 -47 7 5 11 22 9 39 -3 31 0 33 32 29 5 -1 7 -9 4 -17 -4 -8 1
-17 10 -21 9 -3 16 -16 16 -28 0 -15 3 -17 9 -7 6 10 13 11 29 2 29 -15 45
-14 39 4 -7 17 9 30 18 15 4 -6 15 -8 26 -5 11 4 19 3 18 -2 -1 -4 0 -19 1
-33 1 -23 3 -22 15 10 13 36 25 27 22 -17 -3 -30 16 -30 24 -1 6 21 7 22 14 4
5 -11 4 -26 -2 -35 -12 -17 -16 -17 -48 -5 -18 7 -18 6 -6 -9 12 -15 10 -17
-15 -18 -29 -1 -29 -1 -4 -9 25 -7 25 -7 -5 -11 -20 -3 -29 -9 -27 -19 2 -8 4
-30 5 -47 1 -21 6 -33 15 -33 8 0 12 6 8 15 -3 8 -4 15 -2 15 3 0 11 3 19 6
10 4 14 -1 12 -18 -4 -36 -4 -36 -22 -41 -15 -4 -14 -5 3 -6 16 -1 20 -8 21
-36 1 -30 -1 -34 -13 -24 -8 6 -14 17 -14 25 0 7 -6 17 -14 21 -8 4 -15 11
-15 16 -1 12 -16 8 -16 -5 -1 -7 -6 -12 -13 -10 -7 1 -12 -2 -12 -8 0 -5 7
-10 15 -10 8 0 15 -7 15 -16 0 -13 -3 -14 -15 -4 -27 23 -45 5 -42 -42 3 -37
7 -43 24 -41 25 3 37 -38 18 -64 -16 -21 -45 -10 -45 17 0 12 -4 18 -11 15 -6
-4 -7 -19 -3 -38 4 -18 8 -49 9 -69 3 -48 17 -64 61 -73 29 -5 34 -10 29 -23
-15 -35 -12 -58 12 -90 27 -36 23 -56 -9 -46 -20 6 -20 3 -14 -36 6 -41 6 -42
-18 -38 -14 3 -23 1 -20 -3 3 -5 13 -9 22 -9 16 -1 15 -1 -1 -11 -21 -12 -37
-4 -37 19 0 9 -7 35 -16 57 -8 22 -17 48 -20 57 -3 9 -12 19 -18 21 -17 7 -8
-44 10 -59 8 -6 18 -44 24 -85 17 -118 24 -139 46 -139 13 0 18 -14 17 -47 -1
-9 4 -10 18 -3 12 7 20 7 24 0 3 -5 0 -10 -8 -10 -11 0 -14 -13 -13 -54 1 -44
-1 -53 -14 -49 -11 4 -11 1 3 -10 9 -8 17 -19 17 -26 0 -6 4 -11 8 -11 4 0 9
26 10 58 2 74 12 132 22 132 10 0 19 -58 23 -137 1 -29 5 -53 9 -53 9 0 22 22
23 37 0 7 5 12 10 10 6 -1 10 -15 9 -32 0 -16 6 -34 13 -38 7 -5 11 -13 7 -18
-3 -5 -8 -26 -10 -46 -3 -21 -11 -44 -19 -53 -19 -21 -19 -44 -1 -37 9 4 20
-6 30 -28 21 -44 21 -45 -14 -45 -22 0 -30 5 -31 18 0 13 -2 12 -9 -5 -5 -12
-18 -27 -29 -32 -11 -6 -18 -17 -15 -25 3 -7 -2 -16 -10 -19 -9 -4 -16 -15
-16 -26 0 -10 -7 -21 -14 -24 -8 -3 -18 -22 -22 -42 -7 -40 -23 -52 -51 -37
-17 10 -17 11 0 17 21 9 23 35 2 35 -9 0 -12 6 -8 16 3 9 13 14 24 11 21 -6
25 3 8 20 -5 5 -11 35 -12 66 -1 32 -5 57 -9 57 -3 0 -23 16 -42 35 -36 34
-56 44 -56 26 0 -5 6 -12 13 -14 9 -4 8 -8 -3 -16 -8 -6 -10 -11 -5 -11 17 0
34 -36 28 -58 -5 -20 -6 -20 -29 7 -13 16 -24 34 -24 41 0 6 -4 9 -8 6 -14 -8
-54 25 -48 40 6 17 -3 18 -39 4 -24 -9 -33 -34 -11 -30 5 1 13 -5 18 -14 5 -9
16 -16 23 -16 8 0 15 -6 16 -12 0 -7 2 -26 4 -43 2 -16 -1 -33 -8 -37 -7 -4
-12 -22 -12 -40 0 -28 -4 -34 -32 -42 -36 -10 -45 -36 -13 -36 11 0 20 -5 20
-11 0 -5 -4 -7 -10 -4 -5 3 -19 -3 -31 -14 l-22 -20 32 -36 c17 -20 31 -33 31
-29 0 3 7 1 15 -6 8 -7 15 -18 15 -24 0 -6 -5 -4 -10 4 -9 13 -11 13 -20 0 -5
-8 -10 -20 -10 -27 0 -19 -20 -26 -36 -12 -8 6 -17 9 -21 5 -4 -3 2 -12 12
-20 10 -7 16 -17 12 -22 -3 -5 6 -14 19 -21 13 -6 24 -8 24 -4 0 3 17 5 39 3
34 -3 38 -7 34 -25 -10 -47 -13 -51 -25 -39 -21 21 -28 13 -28 -28 0 -22 5
-40 10 -40 6 0 10 -10 10 -22 0 -17 -3 -19 -9 -9 -11 17 -31 6 -31 -17 0 -26
15 -43 38 -45 26 -2 27 -6 5 -22 -19 -14 -23 -77 -5 -83 13 -4 15 -34 6 -67
-4 -17 -12 -20 -45 -17 -31 3 -39 1 -39 -13 0 -9 9 -19 19 -22 23 -6 35 -43
19 -58 -8 -7 -9 -5 -5 7 4 12 2 15 -9 11 -11 -4 -13 -13 -9 -27 15 -47 11 -59
-24 -68 -35 -10 -34 -22 2 -23 16 0 22 -7 24 -25 1 -14 5 -35 8 -47 12 -37
-19 -39 -54 -4 -17 17 -33 31 -36 31 -13 0 -3 -42 15 -60 11 -11 15 -20 10
-20 -5 0 -10 -10 -10 -22 1 -21 2 -21 11 -6 14 24 32 23 24 -1 -4 -13 1 -24
17 -36 22 -15 22 -17 6 -29 -10 -7 -18 -20 -18 -27 0 -8 -14 -20 -32 -27 -17
-6 -29 -15 -25 -18 4 -4 14 -1 22 6 9 7 15 9 14 4 -1 -5 1 -17 6 -27 5 -13 11
-15 20 -7 9 8 17 4 29 -14 9 -14 16 -33 16 -43 0 -15 2 -16 10 -3 6 9 10 10
10 3 0 -6 -10 -19 -22 -28 -13 -8 -23 -21 -24 -28 0 -6 -2 -20 -2 -29 -1 -10
-9 -18 -17 -18 -21 0 -19 -7 15 -40 18 -17 36 -27 45 -24 11 5 15 -2 15 -26 0
-39 45 -91 53 -62 3 12 5 10 6 -5 1 -16 7 -23 22 -23 17 0 20 -5 17 -32 -3
-32 -2 -33 37 -33 38 -1 81 17 97 40 5 6 11 6 20 -3 9 -9 9 -12 -5 -12 -9 0
-17 -5 -17 -11 0 -6 6 -9 14 -6 7 3 19 0 25 -6 8 -8 11 1 12 34 0 24 3 37 6
29 9 -22 30 -40 47 -40 9 0 16 -4 16 -10 0 -5 -8 -10 -17 -10 -15 0 -16 -2 -3
-10 11 -7 5 -10 -22 -10 -26 0 -38 -4 -38 -14 0 -19 17 -30 25 -17 9 16 35 1
35 -20 0 -10 4 -19 10 -19 5 0 7 7 4 15 -7 17 11 21 21 5 13 -21 21 -9 17 25
-3 28 -1 35 12 35 10 0 14 5 11 10 -3 6 -2 10 3 10 10 0 11 -5 13 -117 1 -61
4 -72 20 -76 15 -4 19 0 19 23 0 44 15 43 35 -2 20 -47 85 -118 85 -94 0 24
21 30 27 7 6 -24 23 -28 23 -6 0 8 7 15 15 15 8 0 15 -4 15 -10 0 -20 27 -10
40 15 15 27 18 29 39 16 12 -8 12 -13 -2 -35 -21 -32 -23 -57 -3 -36 34 36 64
142 35 124 -15 -9 -10 23 6 36 8 7 12 17 8 24 -4 6 -7 20 -8 31 0 11 -5 19
-12 18 -6 -1 -15 11 -18 28 -4 19 -15 33 -27 37 -12 3 -17 10 -14 19 3 8 6 19
6 24 0 5 5 9 10 9 6 0 10 -12 10 -26 0 -14 4 -23 8 -20 5 3 17 -5 28 -17 64
-73 69 -81 52 -74 -22 8 -22 4 -1 -36 l16 -32 9 33 c7 28 12 31 23 22 12 -10
12 -15 -2 -36 -13 -21 -13 -27 -2 -41 11 -13 12 -17 1 -21 -22 -7 -58 -45 -76
-80 -9 -18 -24 -36 -32 -39 -23 -9 -16 -31 16 -48 35 -18 53 -19 47 -2 -2 6
-10 11 -17 9 -9 -2 -11 8 -6 39 9 54 12 59 42 59 20 0 24 -5 24 -30 0 -16 5
-30 10 -30 15 0 12 33 -5 57 -14 20 -12 53 4 53 3 0 12 -15 20 -32 8 -18 17
-35 20 -38 4 -3 16 -32 27 -65 12 -33 25 -59 30 -57 18 6 5 72 -19 98 -40 43
-63 181 -26 159 6 -4 8 -14 5 -22 -7 -17 24 -113 36 -113 5 0 8 -9 8 -20 0
-11 5 -20 10 -20 19 0 34 -48 22 -73 -38 -79 -34 -130 15 -171 l33 -28 -4 29
c-2 15 -9 40 -15 55 -6 16 -7 28 -3 28 24 -1 35 -25 44 -96 5 -44 12 -98 15
-122 6 -47 -11 -58 -27 -17 -5 14 -16 25 -25 25 -8 0 -15 5 -15 10 0 6 -5 10
-11 10 -6 0 -19 10 -29 23 l-19 22 6 -25 c4 -14 21 -43 40 -64 18 -22 33 -46
33 -55 0 -15 48 -71 61 -71 4 0 7 25 6 56 -1 38 3 58 13 64 10 6 15 31 15 89
0 44 5 84 9 88 5 4 6 0 3 -10 -5 -13 0 -25 15 -37 21 -17 22 -21 11 -71 -9
-47 -8 -61 10 -109 11 -30 26 -61 34 -68 14 -15 18 -26 5 -18 -15 9 -53 -30
-56 -58 -6 -48 -46 -62 -46 -16 0 10 -4 21 -9 25 -16 9 -22 -13 -9 -34 10 -16
10 -23 1 -32 -17 -17 -38 37 -23 56 6 7 8 20 4 29 -8 20 -44 21 -44 1 0 -8 -4
-15 -10 -15 -16 0 -12 -77 4 -83 9 -4 14 -21 14 -49 -1 -24 2 -62 6 -85 6 -33
11 -41 24 -36 14 6 15 4 5 -8 -6 -8 -14 -30 -18 -50 -5 -29 -3 -38 10 -43 11
-4 14 -13 10 -28 -5 -18 -4 -20 4 -8 8 12 11 12 11 1 0 -10 3 -11 13 -2 17 13
27 5 20 -17 -4 -14 -3 -14 5 -3 9 12 13 12 27 -3 44 -43 98 -61 65 -21 -7 9
-10 18 -7 22 10 9 37 -18 37 -37 0 -10 12 -39 26 -64 40 -71 21 -142 -44 -167
-13 -5 -26 -18 -29 -29 -3 -11 -9 -20 -14 -20 -5 0 -9 -6 -9 -13 0 -25 -38
-17 -45 10 -3 15 -11 23 -19 20 -8 -3 -22 4 -33 15 -10 12 -13 18 -6 15 19
-12 43 4 43 29 0 17 6 24 20 24 17 0 19 3 11 19 -9 16 -6 21 19 31 17 7 30 18
30 25 0 18 -26 37 -47 35 -38 -4 -46 -1 -34 14 17 21 3 66 -21 66 -10 0 -17 4
-14 8 3 5 -11 6 -32 3 -32 -6 -40 -13 -65 -62 -24 -46 -27 -60 -18 -78 6 -11
15 -30 21 -41 6 -11 10 -30 11 -42 0 -22 1 -22 9 -3 5 11 9 17 11 13 2 -10 3
-15 13 -55 4 -18 11 -33 16 -33 12 0 21 -30 13 -43 -4 -6 -10 -2 -14 11 -11
30 -34 29 -24 0 12 -39 11 -72 -3 -87 -7 -7 -11 -18 -10 -23 5 -14 24 -6 20 8
-11 47 79 8 107 -47 25 -48 25 -46 2 -52 -17 -4 -18 -10 -9 -63 11 -71 25 -90
34 -47 3 18 12 34 20 37 8 3 14 19 14 36 0 16 4 30 9 30 20 0 41 -13 41 -25 0
-6 9 -20 20 -30 19 -18 20 -17 20 3 0 12 -9 31 -21 43 -16 16 -19 28 -14 63 6
38 9 42 30 39 30 -6 41 38 13 56 -20 12 -25 61 -7 61 7 0 18 8 25 18 12 15 13
14 14 -13 0 -16 9 -41 20 -55 14 -17 20 -41 20 -77 0 -29 -1 -53 -3 -53 -1 0
-17 4 -35 9 -28 8 -32 7 -32 -9 0 -10 7 -25 15 -34 20 -20 19 -46 -4 -70 -29
-31 -32 -94 -5 -120 10 -10 13 -24 8 -38 -6 -20 -7 -21 -19 -4 -13 17 -14 16
-25 -4 -9 -16 -9 -25 1 -36 6 -8 12 -34 13 -59 1 -50 2 -51 30 -30 24 18 33
19 39 2 5 -15 -1 15 -14 67 -5 22 -8 45 -5 53 8 20 26 15 26 -7 0 -11 5 -20
10 -20 6 0 10 5 10 11 0 26 17 -4 18 -31 0 -18 8 -42 16 -55 20 -31 21 -57 1
-31 -8 11 -15 18 -16 15 -1 -2 -2 -19 -4 -38 -2 -18 -7 -36 -13 -40 -5 -3 -9
-17 -8 -31 1 -16 -5 -26 -16 -28 -11 -2 -18 3 -18 12 0 9 -5 16 -11 16 -7 0
-9 -11 -6 -30 7 -35 -9 -49 -27 -25 -8 11 -11 31 -7 54 10 57 3 81 -23 81 -18
0 -25 7 -29 30 -8 39 -23 38 -29 -1 -4 -27 -1 -31 24 -36 32 -6 44 -18 28 -28
-5 -3 -10 -22 -10 -41 0 -25 8 -43 30 -64 19 -18 25 -30 17 -30 -8 0 -20 -7
-27 -15 -8 -9 -22 -12 -41 -8 -25 5 -29 2 -29 -16 0 -19 15 -27 43 -22 4 0 7
-4 7 -10 0 -6 8 -8 19 -4 16 5 18 2 14 -15 -4 -15 0 -20 13 -20 22 -1 54 -23
54 -37 0 -6 -6 -16 -14 -22 -9 -8 -14 -29 -13 -56 1 -25 6 -40 11 -35 5 5 15
6 23 3 9 -4 14 0 13 8 -1 8 -2 27 -1 43 1 24 4 27 13 18 9 -9 9 -22 1 -52 -10
-39 -2 -54 14 -26 4 7 19 17 31 21 20 6 23 4 18 -12 -6 -21 1 -35 29 -52 18
-11 16 -12 -13 -7 -22 4 -32 2 -30 -5 2 -6 7 -10 11 -10 17 3 45 -36 50 -69 3
-19 9 -51 14 -70 8 -30 6 -37 -14 -53 -16 -13 -23 -29 -23 -53 0 -19 -4 -34
-9 -34 -13 0 -34 67 -27 85 11 29 -19 13 -41 -21 -21 -33 -22 -37 -7 -59 11
-18 14 -36 10 -60 -4 -19 -4 -41 1 -48 11 -17 13 -37 4 -37 -4 0 -16 9 -26 20
-25 27 -36 25 -68 -11 -26 -30 -28 -49 -5 -49 6 0 17 -8 24 -17 13 -17 13 -17
14 0 0 9 -4 17 -10 17 -5 0 -10 5 -10 11 0 17 72 6 84 -13 5 -9 6 -21 2 -25
-5 -4 -11 -2 -13 5 -9 23 -21 12 -25 -23 -7 -64 61 -90 70 -26 4 25 15 27 32
6 10 -12 10 -18 0 -30 -7 -9 -10 -19 -6 -23 4 -4 14 1 21 11 12 17 14 16 20
-11 4 -19 19 -39 41 -54 26 -17 33 -28 28 -43 -16 -52 -16 -75 -1 -75 20 0 33
-20 18 -29 -14 -9 8 -61 27 -61 17 0 15 -18 -4 -37 -13 -13 -20 -14 -33 -5
-50 36 -70 43 -91 30 -11 -7 -20 -19 -20 -26 0 -16 57 -50 98 -58 26 -5 32
-11 30 -28 -2 -13 3 -21 12 -22 30 -2 32 -4 20 -19 -11 -13 -8 -15 19 -15 17
0 31 -4 31 -9 0 -11 -30 -25 -49 -22 -7 1 -10 -2 -6 -8 3 -6 13 -11 21 -11 18
0 18 -16 0 -23 -15 -6 -95 10 -111 22 -10 8 -42 14 -185 30 -41 5 -95 16 -120
25 -55 19 -147 21 -153 4 -3 -10 -7 -10 -18 -2 -8 7 -57 21 -109 33 -229 52
-347 84 -375 101 -16 10 -48 22 -70 25 -22 4 -48 12 -57 17 -10 5 -68 16 -130
24 -62 9 -128 24 -148 34 -19 10 -72 29 -116 43 -45 14 -122 46 -170 71 -49
24 -125 58 -169 74 -120 44 -156 60 -326 144 -86 43 -160 78 -166 78 -5 0 -40
21 -78 46 -39 25 -92 57 -119 71 -53 27 -114 66 -208 134 -32 22 -109 74 -172
114 -109 70 -234 158 -266 188 -8 8 -58 46 -110 85 -130 98 -205 155 -252 194
-212 174 -322 272 -428 383 -69 71 -168 173 -220 225 -121 123 -262 285 -325
375 -27 39 -52 72 -55 75 -44 40 -298 413 -400 590 -12 19 -34 55 -50 80 -16
25 -40 63 -53 85 -13 22 -49 81 -81 132 -31 51 -63 109 -70 130 -17 49 -44
109 -118 263 -34 69 -78 170 -99 225 -22 55 -53 129 -71 165 -17 36 -44 103
-59 150 -16 47 -54 157 -84 245 -65 185 -100 303 -120 395 -7 36 -23 99 -34
140 -26 92 -33 127 -71 355 -16 99 -39 223 -50 275 -35 161 -73 761 -65 1035
15 491 17 522 66 885 44 330 73 486 134 730 54 214 182 617 235 735 9 22 32
78 50 125 17 47 47 117 65 155 18 39 36 80 39 92 4 12 18 41 32 65 13 24 36
70 51 103 38 83 172 340 258 493 91 164 214 356 295 462 15 19 47 64 72 100
86 125 160 225 193 265 18 22 52 63 75 90 23 28 56 66 74 85 17 19 58 67 91
105 164 194 546 568 710 695 39 30 102 84 140 120 39 36 102 87 140 113 141
98 235 163 297 205 224 152 476 306 610 374 46 23 95 50 109 59 14 10 48 27
75 37 27 11 103 46 169 79 66 32 136 65 155 72 19 8 71 29 115 46 44 18 123
49 175 70 52 20 114 46 137 56 24 10 47 19 53 19 6 0 36 9 68 21 31 11 113 37
182 56 69 20 148 42 175 50 55 16 102 27 315 73 194 42 297 60 345 60 22 0 55
4 74 10 19 5 61 12 94 15 78 7 216 17 245 17 12 0 22 4 22 9 0 5 10 9 23 9
l22 0 -24 -19z m97 -41 c7 -12 10 -25 7 -30 -8 -14 -44 21 -38 36 7 19 16 17
31 -6z m-33 -21 c11 -17 0 -20 -21 -4 -17 13 -17 14 -2 15 9 0 20 -5 23 -11z
m125 -19 c0 -5 -5 -10 -11 -10 -5 0 -7 5 -4 10 3 6 8 10 11 10 2 0 4 -4 4 -10z
m-50 -10 c0 -5 -5 -10 -10 -10 -7 0 -7 -6 -1 -19 8 -14 7 -22 -5 -32 -13 -11
-19 -9 -35 11 -24 32 -24 49 0 43 10 -3 22 0 25 6 9 14 26 14 26 1z m360 -46
c0 -21 -27 -28 -44 -11 -18 18 -15 22 18 23 17 1 26 -3 26 -12z m-85 -43 c-3
-6 -11 -11 -17 -11 -6 0 -6 6 2 15 14 17 26 13 15 -4z m45 -1 c0 -5 -5 -10
-11 -10 -5 0 -7 5 -4 10 3 6 8 10 11 10 2 0 4 -4 4 -10z m-345 -40 c-3 -5 -11
-10 -16 -10 -6 0 -7 5 -4 10 3 6 11 10 16 10 6 0 7 -4 4 -10z m305 -10 c0 -5
-4 -10 -10 -10 -5 0 -10 5 -10 10 0 6 5 10 10 10 6 0 10 -4 10 -10z m-345 -10
c3 -5 -1 -10 -9 -10 -9 0 -16 5 -16 10 0 6 4 10 9 10 6 0 13 -4 16 -10z m35
-20 c0 -5 -5 -10 -11 -10 -5 0 -7 5 -4 10 3 6 8 10 11 10 2 0 4 -4 4 -10z
m-150 -40 c0 -5 -2 -10 -4 -10 -3 0 -8 5 -11 10 -3 6 -1 10 4 10 6 0 11 -4 11
-10z m-37 -20 c-5 -19 -23 -29 -23 -12 0 7 20 32 26 32 1 0 0 -9 -3 -20z m327
1 c3 -1 -3 -6 -12 -12 -10 -5 -18 -17 -18 -24 0 -25 -27 -16 -32 10 -3 13 -4
26 -2 28 3 3 53 1 64 -2z m-253 -43 c-3 -7 -5 -2 -5 12 0 14 2 19 5 13 2 -7 2
-19 0 -25z m107 -53 c-4 -8 -8 -15 -10 -15 -2 0 -4 7 -4 15 0 8 4 15 10 15 5
0 7 -7 4 -15z m-412 -172 c7 -60 -17 -59 -34 1 l-15 54 23 -10 c15 -7 23 -21
26 -45z m28 37 c0 -5 -4 -10 -10 -10 -5 0 -10 5 -10 10 0 6 5 10 10 10 6 0 10
-4 10 -10z m-287 -27 c-7 -3 -13 -9 -13 -14 0 -4 6 -6 14 -3 11 4 11 -3 -2
-40 -19 -53 -47 -62 -63 -20 -8 24 -6 30 28 60 20 18 40 31 43 27 3 -3 -1 -8
-7 -10z m363 -68 c8 -21 -6 -41 -17 -24 -12 19 -11 39 1 39 6 0 13 -7 16 -15z
m-288 -376 c3 -18 -24 -57 -33 -47 -11 11 6 69 18 65 7 -2 13 -10 15 -18z
m-278 7 c0 -2 -7 -7 -16 -10 -8 -3 -12 -2 -9 4 6 10 25 14 25 6z m550 -85 c0
-12 -20 -25 -27 -18 -7 7 6 27 18 27 5 0 9 -4 9 -9z m-315 -31 c4 -6 -2 -9
-14 -7 -29 4 -39 17 -13 17 11 0 24 -5 27 -10z m75 -20 c0 -5 -4 -10 -10 -10
-5 0 -10 5 -10 10 0 6 5 10 10 10 6 0 10 -4 10 -10z m152 -17 c25 -27 32 -46
29 -86 -1 -22 -63 -87 -82 -87 -8 0 0 13 18 30 17 16 35 39 38 51 7 22 -21 99
-37 99 -4 0 -8 5 -8 10 0 17 15 11 42 -17z m-282 -4 c0 -5 -7 -9 -15 -9 -15 0
-20 12 -9 23 8 8 24 -1 24 -14z m650 -21 c0 -19 -2 -20 -10 -8 -13 19 -13 30
0 30 6 0 10 -10 10 -22z m30 -54 c0 -8 -4 -12 -10 -9 -5 3 -10 10 -10 16 0 5
5 9 10 9 6 0 10 -7 10 -16z m-280 -44 c0 -5 -4 -10 -10 -10 -5 0 -10 5 -10 10
0 6 5 10 10 10 6 0 10 -4 10 -10z m60 -21 c0 -11 -4 -17 -10 -14 -5 3 -10 13
-10 21 0 8 5 14 10 14 6 0 10 -9 10 -21z m400 -14 c0 -16 -6 -25 -15 -25 -18
0 -20 21 -3 38 17 17 18 16 18 -13z m-1195 5 c3 -5 1 -10 -4 -10 -6 0 -11 5
-11 10 0 6 2 10 4 10 3 0 8 -4 11 -10z m140 -40 c-3 -5 -14 -6 -25 -3 -11 3
-18 9 -15 13 3 5 14 6 25 3 11 -3 18 -9 15 -13z m149 14 c9 -3 16 -11 16 -17
0 -7 -4 -7 -12 1 -19 19 -31 14 -25 -9 7 -25 -2 -51 -14 -43 -13 8 -11 48 3
62 14 14 12 14 32 6z m756 -24 c0 -11 5 -20 10 -20 6 0 10 -8 10 -17 -1 -17
-1 -17 -11 0 -5 9 -17 17 -24 17 -15 0 -20 21 -8 33 12 13 23 7 23 -13z
m-1030 -51 c0 -11 -4 -17 -10 -14 -5 3 -10 13 -10 21 0 8 5 14 10 14 6 0 10
-9 10 -21z m40 11 c0 -5 -4 -10 -10 -10 -5 0 -10 5 -10 10 0 6 5 10 10 10 6 0
10 -4 10 -10z m538 -21 c-2 -6 -8 -10 -13 -10 -5 0 -11 4 -13 10 -2 6 4 11 13
11 9 0 15 -5 13 -11z m287 -68 c-5 -13 -9 -12 -20 9 -18 31 -19 57 -2 63 14 5
31 -48 22 -72z m-1105 59 c0 -5 -2 -10 -4 -10 -3 0 -8 5 -11 10 -3 6 -1 10 4
10 6 0 11 -4 11 -10z m205 -22 c23 -10 36 -47 18 -49 -5 0 -19 -3 -33 -5 -23
-4 -25 -1 -26 31 -1 38 3 40 41 23z m-215 -18 c0 -5 -2 -10 -4 -10 -3 0 -8 5
-11 10 -3 6 -1 10 4 10 6 0 11 -4 11 -10z m375 -50 c-26 -11 -35 -12 -35 -2 0
4 12 8 28 9 23 1 24 1 7 -7z m113 -8 c2 -7 -3 -12 -12 -12 -9 0 -16 7 -16 16
0 17 22 14 28 -4z m702 -8 c0 -16 -2 -16 -24 -8 -13 5 -14 9 -5 20 13 16 29 9
29 -12z m-930 -9 c0 -8 -7 -15 -15 -15 -8 0 -15 7 -15 15 0 8 7 15 15 15 8 0
15 -7 15 -15z m66 -24 c6 -33 -1 -38 -27 -18 -16 12 -14 37 5 49 14 9 17 6 22
-31z m814 8 c0 -6 -4 -7 -10 -4 -5 3 -10 11 -10 16 0 6 5 7 10 4 6 -3 10 -11
10 -16z m184 6 c-6 -16 -24 -21 -24 -7 0 11 11 22 21 22 5 0 6 -7 3 -15z
m-940 -31 c3 -8 2 -14 -2 -14 -10 0 -32 22 -32 32 0 12 28 -2 34 -18z m963
-56 c-4 -12 -2 -28 4 -34 13 -16 8 -56 -7 -61 -11 -4 -27 94 -17 110 10 17 25
6 20 -15z m-1554 -2 c3 -8 -6 -26 -20 -40 -26 -26 -53 -34 -53 -16 0 6 6 10
14 10 14 0 26 18 35 55 2 11 19 4 24 -9z m819 -41 c6 -14 9 -28 6 -31 -10 -10
-48 20 -48 38 0 27 29 22 42 -7z m-1087 -75 c4 -6 -5 -10 -19 -10 -14 0 -26 5
-26 10 0 6 9 10 19 10 11 0 23 -4 26 -10z m1787 -5 c0 -5 -5 -11 -11 -13 -6
-2 -11 4 -11 13 0 9 5 15 11 13 6 -2 11 -8 11 -13z m-1552 -9 c0 -3 -4 -8 -10
-11 -5 -3 -10 -1 -10 4 0 6 5 11 10 11 6 0 10 -2 10 -4z m-54 -14 c6 -4 8 -18
4 -32 -5 -23 -6 -24 -13 -5 -7 16 -10 17 -17 5 -7 -11 -10 -8 -10 13 0 26 14
34 36 19z m1652 -11 c3 -8 -1 -12 -9 -9 -7 2 -15 10 -17 17 -3 8 1 12 9 9 7
-2 15 -10 17 -17z m57 -48 c5 -25 3 -33 -8 -33 -15 0 -31 55 -21 72 9 14 21
-2 29 -39z m-1585 21 c0 -8 -4 -12 -10 -9 -5 3 -10 10 -10 16 0 5 5 9 10 9 6
0 10 -7 10 -16z m800 -48 c0 -2 -8 -10 -17 -17 -16 -13 -17 -12 -4 4 13 16 21
21 21 13z m824 -38 c18 -25 21 -58 6 -58 -5 0 -10 6 -10 13 0 6 -7 24 -14 40
-18 32 -4 36 18 5z m-1764 -85 c0 -5 -11 -13 -25 -20 -29 -13 -33 -6 -7 13 19
15 32 18 32 7z m-75 -24 c-8 -12 -35 -12 -35 0 0 11 22 20 33 14 4 -2 5 -9 2
-14z m1605 -59 c0 -5 -4 -10 -10 -10 -5 0 -10 5 -10 10 0 6 5 10 10 10 6 0 10
-4 10 -10z m-1634 -27 c-7 -7 -26 7 -26 19 0 6 6 6 15 -2 9 -7 13 -15 11 -17z
m-150 -19 c-4 -9 -9 -15 -11 -12 -3 3 -3 13 1 22 4 9 9 15 11 12 3 -3 3 -13
-1 -22z m108 7 c4 -5 0 -12 -6 -14 -8 -3 -5 -6 5 -6 24 -1 20 -54 -5 -59 -13
-3 -16 3 -15 25 2 21 -2 28 -15 27 -21 -2 -23 7 -6 24 14 14 35 16 42 3z m106
-76 c0 -5 -5 -3 -10 5 -5 8 -10 20 -10 25 0 6 5 3 10 -5 5 -8 10 -19 10 -25z
m-20 -2 c0 -14 -17 -34 -26 -31 -5 1 -19 -3 -31 -10 -21 -11 -23 -10 -23 8 0
16 6 20 30 20 17 0 30 5 30 10 0 6 5 10 10 10 6 0 10 -3 10 -7z m18 -307 c-16
-19 -31 10 -16 33 l13 21 6 -22 c3 -13 2 -27 -3 -32z m-44 18 c10 -25 7 -64
-5 -64 -5 0 -9 -10 -7 -22 2 -11 -2 -23 -8 -25 -15 -5 -25 48 -13 64 6 6 9 17
8 25 -5 37 13 54 25 22z m-136 -30 c2 -1 0 -18 -3 -38 -6 -31 -11 -36 -36 -36
-33 0 -36 7 -12 25 9 7 13 17 9 23 -10 17 -46 -18 -46 -45 0 -14 -6 -23 -15
-23 -11 0 -12 5 -6 23 5 13 9 30 9 38 -3 41 2 51 22 46 11 -3 22 -1 25 4 3 5
16 3 28 -4 12 -6 23 -13 25 -13z m64 6 c0 -11 1 -25 2 -32 1 -6 -5 -13 -11
-15 -9 -3 -13 7 -13 31 0 37 19 51 22 16z m-197 -10 c3 -5 1 -10 -4 -10 -6 0
-11 5 -11 10 0 6 2 10 4 10 3 0 8 -4 11 -10z m295 -44 c0 -3 -4 -8 -10 -11 -5
-3 -10 -1 -10 4 0 6 5 11 10 11 6 0 10 -2 10 -4z m1180 -32 c0 -8 -4 -12 -10
-9 -5 3 -10 10 -10 16 0 5 5 9 10 9 6 0 10 -7 10 -16z m-20 -34 c0 -5 -5 -10
-11 -10 -5 0 -7 5 -4 10 3 6 8 10 11 10 2 0 4 -4 4 -10z m-1300 -33 c0 -5 -4
-5 -10 -2 -5 3 -10 14 -10 23 0 15 2 15 10 2 5 -8 10 -19 10 -23z m1300 -57
c0 -5 -5 -10 -11 -10 -5 0 -7 5 -4 10 3 6 8 10 11 10 2 0 4 -4 4 -10z m-1343
-26 c-3 -3 -12 -4 -19 -1 -8 3 -5 6 6 6 11 1 17 -2 13 -5z m293 -79 c4 3 10
-2 14 -10 7 -18 -5 -20 -22 -3 -9 9 -12 7 -12 -10 0 -24 -15 -30 -23 -9 -5 13
26 49 31 35 2 -4 7 -6 12 -3z m-110 -66 c0 -5 4 -8 9 -4 5 3 12 1 16 -5 10
-16 -21 -12 -35 5 -9 10 -9 15 -1 15 6 0 11 -5 11 -11z m-255 -79 c3 -5 1 -10
-4 -10 -6 0 -11 5 -11 10 0 6 2 10 4 10 3 0 8 -4 11 -10z m31 -39 c26 5 44 -8
44 -32 0 -25 -16 -24 -30 1 -6 11 -19 20 -30 20 -20 0 -33 13 -23 24 4 3 10 1
13 -5 4 -6 16 -9 26 -8z m154 -61 c0 -5 -7 -7 -15 -4 -8 4 -15 8 -15 10 0 2 7
4 15 4 8 0 15 -4 15 -10z m1450 -45 c0 -30 -20 -65 -38 -65 -3 0 -1 5 6 12 7
7 12 32 12 56 0 26 4 41 10 37 6 -3 10 -21 10 -40z m-1410 16 c0 -6 -4 -13
-10 -16 -5 -3 -10 -17 -10 -31 0 -18 5 -24 21 -24 18 0 20 -4 15 -27 -10 -39
-10 -55 -1 -75 5 -14 2 -18 -14 -18 -12 0 -21 -4 -21 -9 0 -21 -34 -20 -54 1
-27 29 -28 54 -5 97 16 31 17 37 4 51 -21 24 -18 33 8 26 16 -4 26 1 35 14 13
21 32 27 32 11z m-263 -23 c-3 -8 -6 -5 -6 6 -1 11 2 17 5 13 3 -3 4 -12 1
-19z m303 -129 c0 -11 -4 -18 -10 -14 -5 3 -7 12 -3 20 7 21 13 19 13 -6z
m-210 -4 c0 -8 -4 -15 -9 -15 -5 0 -11 7 -15 15 -3 9 0 15 9 15 8 0 15 -7 15
-15z m1195 -34 c3 -5 1 -12 -5 -16 -5 -3 -10 1 -10 9 0 18 6 21 15 7z m-50
-21 c3 -5 1 -10 -4 -10 -6 0 -11 5 -11 10 0 6 2 10 4 10 3 0 8 -4 11 -10z
m-1045 -35 c0 -8 5 -15 10 -15 6 0 10 5 10 10 0 6 12 10 26 10 22 0 24 -2 14
-15 -6 -8 -9 -18 -6 -23 3 -5 -2 -25 -11 -43 -14 -27 -18 -30 -21 -15 -2 10 0
21 5 25 4 3 9 17 11 30 2 18 -2 22 -14 17 -19 -7 -57 11 -49 25 9 14 25 11 25
-6z m1150 -5 c0 -5 -4 -10 -10 -10 -5 0 -10 5 -10 10 0 6 5 10 10 10 6 0 10
-4 10 -10z m-373 -32 c-3 -8 -6 -5 -6 6 -1 11 2 17 5 13 3 -3 4 -12 1 -19z
m379 -14 c-4 -9 -9 -15 -11 -12 -3 3 -3 13 1 22 4 9 9 15 11 12 3 -3 3 -13 -1
-22z m-735 -10 c11 -9 19 -29 19 -44 0 -29 -32 -70 -55 -70 -8 0 -15 -5 -15
-11 0 -5 -5 -7 -10 -4 -6 4 -5 11 4 20 8 9 13 33 12 62 -1 40 -4 48 -20 48
-11 0 -21 6 -24 14 -7 20 64 8 89 -15z m-411 6 c0 -5 -4 -10 -10 -10 -5 0 -10
5 -10 10 0 6 5 10 10 10 6 0 10 -4 10 -10z m810 3 c0 -5 -5 -15 -10 -23 -8
-12 -10 -11 -10 8 0 12 5 22 10 22 6 0 10 -3 10 -7z m426 -28 c-4 -14 -12 -25
-18 -25 -9 0 -9 3 0 12 7 7 12 21 12 32 0 10 3 17 6 13 4 -3 4 -18 0 -32z
m920 -2 c-11 -11 -19 6 -11 24 8 17 8 17 12 0 3 -10 2 -21 -1 -24z m-1839 -25
c0 -24 3 -56 6 -73 4 -16 4 -22 1 -12 -3 9 -11 17 -17 17 -7 0 -23 10 -37 21
-14 11 -20 18 -13 14 8 -3 15 5 19 22 15 63 42 70 41 11z m160 20 c-3 -8 -6
-5 -6 6 -1 11 2 17 5 13 3 -3 4 -12 1 -19z m-628 -74 c6 -15 9 -29 6 -32 -3
-3 -5 0 -5 6 0 7 -5 11 -11 10 -6 -2 -15 7 -20 20 -12 32 15 29 30 -4z m1118
-6 c-3 -8 -6 -5 -6 6 -1 11 2 17 5 13 3 -3 4 -12 1 -19z m128 -8 c-3 -5 -10
-10 -16 -10 -5 0 -9 5 -9 10 0 6 7 10 16 10 8 0 12 -4 9 -10z m1015 0 c0 -5
-2 -10 -4 -10 -3 0 -8 5 -11 10 -3 6 -1 10 4 10 6 0 11 -4 11 -10z m-2261 -34
c10 -12 8 -13 -8 -9 -12 3 -21 9 -21 14 0 14 16 11 29 -5z m1211 -6 c0 -5 -4
-10 -10 -10 -5 0 -10 5 -10 10 0 6 5 10 10 10 6 0 10 -4 10 -10z m157 -82 c-3
-7 -5 -2 -5 12 0 14 2 19 5 13 2 -7 2 -19 0 -25z m813 -8 c0 -16 -4 -30 -9
-30 -14 0 -21 44 -8 52 17 11 17 11 17 -22z m-975 0 c-3 -5 -12 -10 -18 -10
-7 0 -6 4 3 10 19 12 23 12 15 0z m-121 -15 c-4 -8 -8 -15 -10 -15 -2 0 -4 7
-4 15 0 8 4 15 10 15 5 0 7 -7 4 -15z m944 -72 c-2 -10 -13 -19 -26 -21 -26
-4 -28 6 -4 24 24 18 34 17 30 -3z m-498 -43 c0 -5 -2 -10 -4 -10 -3 0 -8 5
-11 10 -3 6 -1 10 4 10 6 0 11 -4 11 -10z m480 -21 c0 -24 -23 -21 -28 4 -2
10 3 17 12 17 10 0 16 -9 16 -21z m-180 -23 c0 -3 -4 -8 -10 -11 -5 -3 -10 -1
-10 4 0 6 5 11 10 11 6 0 10 -2 10 -4z m80 -88 c-12 -11 -24 -17 -28 -13 -4 4
-1 10 6 12 6 3 12 12 12 22 0 9 6 23 13 30 10 10 13 8 15 -9 2 -13 -5 -30 -18
-42z m-90 -2 c0 -8 7 -17 16 -20 12 -5 15 -14 10 -38 -3 -17 -11 -37 -18 -45
-18 -22 -30 0 -18 32 7 20 8 31 0 39 -13 13 -13 46 0 46 6 0 10 -6 10 -14z
m-50 -113 c0 -5 -4 -15 -10 -23 -11 -18 -25 -7 -17 15 6 15 27 21 27 8z m-130
-38 c0 -14 -4 -25 -10 -25 -11 0 -14 33 -3 43 11 11 13 8 13 -18z m-74 -31
c-3 -9 -9 -28 -13 -42 -8 -36 -33 -74 -46 -69 -22 7 -9 97 15 97 4 0 8 7 8 15
0 9 9 15 21 15 15 0 19 -4 15 -16z m-1269 -56 c-3 -8 -6 -5 -6 6 -1 11 2 17 5
13 3 -3 4 -12 1 -19z m1146 -42 c-3 -14 -11 -27 -19 -30 -17 -6 -18 8 -4 35
15 27 28 24 23 -5z m44 -58 c-3 -8 -6 -5 -6 6 -1 11 2 17 5 13 3 -3 4 -12 1
-19z m-87 2 c0 -5 -2 -10 -4 -10 -3 0 -8 5 -11 10 -3 6 -1 10 4 10 6 0 11 -4
11 -10z m-30 -20 c0 -6 -7 -13 -15 -16 -8 -4 -15 -17 -15 -30 0 -27 -17 -32
-27 -8 -3 8 4 25 17 40 25 25 40 31 40 14z m87 -12 c-3 -8 -6 -5 -6 6 -1 11 2
17 5 13 3 -3 4 -12 1 -19z m-1227 2 c0 -5 -5 -10 -11 -10 -5 0 -7 5 -4 10 3 6
8 10 11 10 2 0 4 -4 4 -10z m1270 -25 c0 -8 -4 -15 -10 -15 -5 0 -10 7 -10 15
0 8 5 15 10 15 6 0 10 -7 10 -15z m-183 -68 c13 -27 -11 -57 -30 -38 -8 8 -8
11 1 11 8 0 10 9 6 25 -8 31 9 33 23 2z m-106 -65 c12 -38 6 -51 -15 -33 -8 7
-19 10 -24 7 -5 -3 -7 6 -4 19 2 14 -1 31 -7 38 -6 8 -8 17 -5 20 12 12 44
-18 55 -51z m-67 22 c11 -27 7 -37 -9 -24 -16 14 -20 40 -6 40 5 0 12 -7 15
-16z m-47 -36 c-15 -59 -19 -126 -8 -132 13 -8 15 -26 2 -26 -5 0 -11 8 -15
18 -3 9 -14 31 -25 47 -25 38 -25 35 4 69 14 16 25 33 25 38 0 4 5 8 11 8 7 0
9 -9 6 -22z m-717 -38 c0 -5 -4 -10 -10 -10 -5 0 -10 5 -10 10 0 6 5 10 10 10
6 0 10 -4 10 -10z m914 -25 c3 -9 0 -15 -9 -15 -8 0 -15 7 -15 15 0 8 4 15 9
15 5 0 11 -7 15 -15z m-78 -42 c-10 -10 -19 5 -10 18 6 11 8 11 12 0 2 -7 1
-15 -2 -18z m-486 -38 c0 -53 -11 -58 -28 -13 -10 27 -9 33 6 44 9 7 18 14 20
14 1 0 2 -20 2 -45z m-236 19 c3 -8 2 -12 -4 -9 -6 3 -10 10 -10 16 0 14 7 11
14 -7z m416 6 c0 -5 -4 -10 -10 -10 -5 0 -10 5 -10 10 0 6 5 10 10 10 6 0 10
-4 10 -10z m-244 -26 c7 -26 -7 -51 -23 -41 -12 7 -4 67 8 67 5 0 12 -12 15
-26z m189 6 c8 -26 -4 -48 -16 -29 -12 19 -11 49 0 49 5 0 12 -9 16 -20z m-75
-9 c17 -33 12 -46 -10 -26 -21 19 -27 45 -10 45 5 0 14 -9 20 -19z m-212 -13
c0 -13 1 -29 3 -37 2 -7 -5 -15 -17 -17 -17 -3 -20 2 -20 30 1 23 5 32 13 29
7 -3 13 0 13 6 0 6 2 11 4 11 2 0 4 -10 4 -22z m367 13 c3 -5 1 -12 -5 -16 -5
-3 -10 1 -10 9 0 18 6 21 15 7z m245 -47 c0 -8 -4 -12 -10 -9 -5 3 -10 10 -10
16 0 5 5 9 10 9 6 0 10 -7 10 -16z m-553 -29 c-4 -8 -2 -17 3 -20 6 -4 10 0
10 7 1 19 49 -39 56 -67 12 -49 -18 -107 -63 -120 -19 -5 -23 -2 -23 14 0 11
-12 29 -26 40 -18 14 -25 28 -22 47 5 42 28 43 28 0 0 -44 18 -56 40 -26 20
27 14 71 -11 77 -10 3 -15 11 -12 19 3 9 -1 14 -11 14 -14 0 -15 2 -4 15 17
19 42 19 35 0z m583 -35 c0 -5 -5 -10 -11 -10 -5 0 -7 5 -4 10 3 6 8 10 11 10
2 0 4 -4 4 -10z m-633 -232 c-3 -8 -6 -5 -6 6 -1 11 2 17 5 13 3 -3 4 -12 1
-19z m23 -38 c0 -5 -5 -10 -11 -10 -5 0 -7 5 -4 10 3 6 8 10 11 10 2 0 4 -4 4
-10z m-55 -69 c3 -5 1 -12 -5 -16 -5 -3 -10 1 -10 9 0 18 6 21 15 7z m1022
-313 c-3 -8 -6 -5 -6 6 -1 11 2 17 5 13 3 -3 4 -12 1 -19z m400 -150 c-3 -8
-6 -5 -6 6 -1 11 2 17 5 13 3 -3 4 -12 1 -19z m-1497 -95 c0 -32 -5 -28 -14
10 -4 19 -3 26 4 22 5 -3 10 -18 10 -32z m-70 13 c0 -3 -4 -8 -10 -11 -5 -3
-10 -1 -10 4 0 6 5 11 10 11 6 0 10 -2 10 -4z m-175 -16 c3 -5 -1 -10 -10 -10
-9 0 -13 5 -10 10 3 6 8 10 10 10 2 0 7 -4 10 -10z m215 -5 c0 -8 -4 -15 -10
-15 -5 0 -10 7 -10 15 0 8 5 15 10 15 6 0 10 -7 10 -15z m1168 -14 c2 -13 -1
-28 -6 -33 -6 -6 -11 3 -14 26 -4 40 15 46 20 7z m-1218 -7 c0 -17 -22 -14
-28 4 -2 7 3 12 12 12 9 0 16 -7 16 -16z m-20 -44 c0 -5 -2 -10 -4 -10 -3 0
-8 5 -11 10 -3 6 -1 10 4 10 6 0 11 -4 11 -10z m1368 -35 c-3 -3 -9 2 -12 12
-6 14 -5 15 5 6 7 -7 10 -15 7 -18z m-1405 -12 c-7 -2 -19 -2 -25 0 -7 3 -2 5
12 5 14 0 19 -2 13 -5z m1184 -135 c-3 -8 -6 -5 -6 6 -1 11 2 17 5 13 3 -3 4
-12 1 -19z m204 -55 c7 -18 6 -30 -1 -37 -7 -7 -10 -3 -10 11 0 12 -3 28 -6
37 -3 9 -3 16 0 16 4 0 11 -12 17 -27z m-1687 -62 c3 -5 -1 -11 -9 -15 -9 -3
-15 0 -15 9 0 16 16 20 24 6z m213 -3 c16 -20 25 -68 13 -68 -5 0 -13 12 -16
28 -4 15 -11 33 -17 40 -6 8 -6 12 1 12 5 0 14 -6 19 -12z m-46 -47 c-7 -5
-11 -13 -7 -19 3 -6 1 -14 -5 -18 -8 -4 -9 -3 -5 4 5 8 -1 12 -16 13 -23 0
-23 0 -2 9 12 5 25 14 29 20 4 6 10 9 13 5 4 -3 0 -10 -7 -14z m-184 -33 c-3
-7 -5 -2 -5 12 0 14 2 19 5 13 2 -7 2 -19 0 -25z m223 22 c0 -5 -4 -10 -10
-10 -5 0 -10 5 -10 10 0 6 5 10 10 10 6 0 10 -4 10 -10z m243 -30 c-3 -11 -14
-20 -24 -20 -18 0 -18 1 -1 19 23 25 31 26 25 1z m47 4 c0 -8 -5 -12 -10 -9
-6 4 -8 11 -5 16 9 14 15 11 15 -7z m-374 -9 c-25 -19 -46 -19 -46 0 0 10 10
15 33 15 30 -1 31 -1 13 -15z m94 5 c0 -5 -2 -10 -4 -10 -3 0 -8 5 -11 10 -3
6 -1 10 4 10 6 0 11 -4 11 -10z m-203 -42 c-3 -8 -6 -5 -6 6 -1 11 2 17 5 13
3 -3 4 -12 1 -19z m1078 -15 c4 -14 2 -23 -4 -23 -6 0 -11 3 -11 8 0 4 -3 18
-6 32 -8 31 11 16 21 -17z m-898 1 c-3 -3 -12 -4 -19 -1 -8 3 -5 6 6 6 11 1
17 -2 13 -5z m-127 -57 c0 -8 -3 -8 -9 1 -7 11 -9 10 -15 -3 -3 -9 -10 -13
-16 -10 -16 10 -12 23 8 28 21 4 32 -1 32 -16z m205 3 c3 -5 -3 -10 -15 -10
-12 0 -18 5 -15 10 3 6 10 10 15 10 5 0 12 -4 15 -10z m216 -40 c5 0 12 7 15
15 9 22 23 18 17 -5 -4 -15 -14 -20 -37 -20 -42 0 -49 7 -28 29 16 15 17 15
20 -1 2 -10 8 -18 13 -18z m239 -5 c0 -14 -4 -25 -10 -25 -11 0 -14 33 -3 43
11 11 13 8 13 -18z m-640 -15 c0 -5 -4 -10 -10 -10 -5 0 -10 5 -10 10 0 6 5
10 10 10 6 0 10 -4 10 -10z m48 -128 c-2 -19 -9 -28 -26 -30 -24 -4 -45 29
-24 36 7 2 12 12 12 22 0 23 22 32 33 13 5 -7 7 -26 5 -41z m1269 16 c-3 -8
-6 -5 -6 6 -1 11 2 17 5 13 3 -3 4 -12 1 -19z m-290 -10 c-3 -8 -6 -5 -6 6 -1
11 2 17 5 13 3 -3 4 -12 1 -19z m-921 -1 c10 4 12 0 8 -11 -5 -13 -9 -14 -20
-5 -8 6 -14 17 -13 23 0 7 2 7 5 -1 3 -7 12 -9 20 -6z m824 -64 c0 -37 -17
-26 -24 15 -3 20 -5 44 -5 52 1 22 28 -41 29 -67z m-855 -22 c-3 -5 -1 -12 5
-16 19 -12 10 -45 -14 -55 -13 -5 -26 -15 -29 -22 -2 -7 -8 -10 -12 -5 -5 4 2
18 14 31 21 22 21 25 6 34 -16 8 -15 11 6 26 27 18 33 20 24 7z m1034 -79
l-13 -27 -4 33 c-2 19 0 41 3 50 6 15 9 14 18 -6 7 -16 7 -29 -4 -50z m-92
-14 c-3 -7 -5 -2 -5 12 0 14 2 19 5 13 2 -7 2 -19 0 -25z m166 -15 c3 -16 3
-30 1 -33 -7 -7 -24 23 -24 43 0 27 17 20 23 -10z m-366 -15 c-3 -7 -5 -2 -5
12 0 14 2 19 5 13 2 -7 2 -19 0 -25z m560 -10 c-3 -8 -6 -5 -6 6 -1 11 2 17 5
13 3 -3 4 -12 1 -19z m-40 -40 c-3 -8 -6 -5 -6 6 -1 11 2 17 5 13 3 -3 4 -12
1 -19z m-117 -28 c0 -5 -5 -10 -11 -10 -5 0 -7 5 -4 10 3 6 8 10 11 10 2 0 4
-4 4 -10z m165 -9 c3 -5 1 -12 -5 -16 -5 -3 -10 1 -10 9 0 18 6 21 15 7z
m-1080 -31 c-4 -6 -9 -8 -13 -6 -4 2 -5 -18 -4 -45 4 -55 27 -64 26 -11 0 24
4 32 18 32 10 0 18 -6 18 -13 0 -8 9 -24 20 -37 11 -13 20 -27 20 -31 0 -19
-13 -39 -26 -39 -16 0 -19 -16 -4 -25 6 -3 10 0 10 7 0 7 6 4 12 -7 14 -23 17
-65 6 -65 -4 0 -8 5 -8 11 0 6 -9 8 -21 4 -18 -6 -20 -4 -15 13 5 15 2 20 -10
18 -9 0 -23 9 -30 20 -14 20 -13 23 15 35 34 15 44 44 12 34 -11 -3 -31 -3
-45 1 -21 5 -26 12 -26 37 0 17 -8 40 -17 51 -17 20 -17 20 0 6 17 -12 20 -12
28 3 6 9 17 17 25 17 8 0 12 -5 9 -10z m91 -48 c-4 -4 -14 2 -22 12 -11 16
-11 21 -1 28 14 9 35 -27 23 -40z m654 -8 c0 -8 -4 -12 -10 -9 -5 3 -10 10
-10 16 0 5 5 9 10 9 6 0 10 -7 10 -16z m130 7 c0 -6 -4 -13 -10 -16 -5 -3 -10
1 -10 9 0 9 5 16 10 16 6 0 10 -4 10 -9z m-55 -28 c8 -19 16 -68 10 -62 -10
12 -33 79 -26 79 5 0 12 -8 16 -17z m-425 -45 c0 -27 2 -29 16 -17 13 10 17
10 25 -2 4 -8 6 -22 3 -31 -3 -10 -1 -18 4 -18 19 0 19 -37 1 -49 -19 -11 -26
-55 -10 -65 25 -16 14 -96 -13 -96 -6 0 -5 5 1 11 15 15 -3 66 -27 79 -25 13
-30 3 -14 -28 18 -34 18 -50 0 -67 -17 -17 -30 -7 -15 12 9 9 8 13 0 13 -6 0
-12 -6 -12 -12 -1 -7 -3 -22 -4 -33 -1 -11 -2 -28 -3 -37 -1 -10 -6 -18 -10
-18 -8 0 -9 91 -1 119 2 7 -2 16 -8 18 -7 3 -13 0 -13 -7 0 -6 -4 -8 -10 -5
-5 3 -10 16 -10 29 0 21 -16 46 -30 46 -4 0 -6 -10 -6 -22 1 -14 -6 -24 -17
-26 -14 -3 -16 2 -12 32 2 20 0 36 -6 36 -5 0 -8 20 -5 45 2 25 0 48 -6 51 -5
4 1 12 14 18 16 9 25 9 31 2 5 -8 10 -7 16 3 7 10 11 9 23 -8 17 -24 28 -18
28 16 0 16 6 23 20 23 11 0 23 7 26 15 9 23 24 7 24 -27z m260 22 c0 -5 -5
-10 -11 -10 -5 0 -7 5 -4 10 3 6 8 10 11 10 2 0 4 -4 4 -10z m130 -20 c0 -16
-4 -30 -10 -30 -11 0 -14 43 -3 53 11 12 13 8 13 -23z m94 -23 c2 -47 -6 -61
-18 -31 -3 9 -6 31 -6 51 0 53 22 35 24 -20z m-151 -9 c5 -53 -5 -88 -24 -88
-7 0 -8 7 -4 18 5 9 7 41 6 70 -1 28 2 52 7 52 5 0 12 -24 15 -52z m-233 21
c0 -11 -4 -18 -10 -14 -5 3 -7 12 -3 20 7 21 13 19 13 -6z m647 -67 c-13 -48
-33 -58 -23 -10 6 28 25 62 32 56 1 -2 -3 -22 -9 -46z m-317 17 c0 -6 -4 -7
-10 -4 -5 3 -10 11 -10 16 0 6 5 7 10 4 6 -3 10 -11 10 -16z m-642 -27 c2 -12
8 -20 13 -17 12 8 11 -6 -1 -25 -9 -13 -11 -13 -20 0 -8 12 -10 11 -10 -7 0
-13 -4 -23 -8 -23 -13 0 -33 66 -26 84 10 25 48 16 52 -12z m-233 -2 c-3 -5
-10 -10 -16 -10 -5 0 -9 5 -9 10 0 6 7 10 16 10 8 0 12 -4 9 -10z m8 -48 c-10
-15 -20 -52 -23 -82 l-6 -55 -8 37 c-4 21 -6 48 -2 60 9 36 49 95 53 80 3 -7
-3 -25 -14 -40z m57 38 c0 -5 -2 -10 -4 -10 -3 0 -8 5 -11 10 -3 6 -1 10 4 10
6 0 11 -4 11 -10z m1437 -12 c-3 -8 -6 -5 -6 6 -1 11 2 17 5 13 3 -3 4 -12 1
-19z m60 0 c-3 -8 -6 -5 -6 6 -1 11 2 17 5 13 3 -3 4 -12 1 -19z m-1014 -5 c2
-5 7 -20 10 -34 6 -21 2 -28 -19 -38 -23 -10 -26 -10 -20 4 3 9 6 30 6 46 0
27 13 39 23 22z m197 -53 c0 -31 -3 -38 -15 -34 -8 4 -15 1 -15 -5 0 -6 -5
-11 -12 -11 -9 0 -9 3 0 12 7 7 12 26 12 43 0 18 3 35 6 38 14 13 24 -6 24
-43z m250 29 c0 -6 -4 -7 -10 -4 -5 3 -10 11 -10 16 0 6 5 7 10 4 6 -3 10 -11
10 -16z m-381 -21 c-2 -18 -2 -48 -1 -67 2 -28 4 -32 17 -21 13 10 15 9 14
-11 0 -13 -4 -33 -9 -44 -7 -18 -8 -17 -15 10 -4 17 -14 38 -22 47 -11 12 -13
28 -8 60 4 24 9 46 12 51 9 15 14 6 12 -25z m491 23 c0 -17 -18 -21 -24 -6 -3
9 0 15 9 15 8 0 15 -4 15 -9z m-66 -34 c4 -19 3 -26 -4 -22 -5 3 -10 18 -10
32 0 32 5 28 14 -10z m-371 -41 c27 -44 35 -90 17 -101 -5 -3 -10 -20 -10 -36
0 -18 -4 -28 -10 -24 -16 10 -12 65 4 65 8 0 13 7 11 18 -13 62 -17 72 -30 72
-8 0 -15 4 -15 9 0 5 -3 16 -6 25 -12 32 12 15 39 -28z m-416 -23 c-3 -10 -5
-4 -5 12 0 17 2 24 5 18 2 -7 2 -21 0 -30z m329 -46 c8 -4 14 -15 14 -24 0 -9
9 -26 19 -37 23 -24 38 -76 23 -76 -5 0 -17 19 -27 42 -21 52 -47 86 -63 80
-16 -5 -16 33 0 61 13 21 13 21 16 -8 2 -16 10 -34 18 -38z m504 55 c0 -5 -7
-17 -15 -28 -15 -19 -20 -8 -9 20 6 17 24 22 24 8z m-70 -24 c0 -19 -2 -20
-10 -8 -13 19 -13 30 0 30 6 0 10 -10 10 -22z m-1130 -14 c0 -8 -10 -14 -25
-14 -26 0 -35 25 -12 33 18 6 37 -3 37 -19z m1460 -9 c0 -29 -10 -55 -20 -55
-5 0 -4 16 1 35 6 19 7 40 3 47 -4 7 -3 8 4 4 7 -4 12 -18 12 -31z m-596 -40
c2 -22 7 -48 11 -58 4 -10 5 -21 2 -24 -9 -8 -24 36 -32 93 -5 35 -4 46 4 39
6 -6 12 -29 15 -50z m-408 13 c-14 -9 -30 7 -22 21 5 8 11 7 20 -2 10 -9 11
-14 2 -19z m-326 12 c0 -5 -4 -10 -10 -10 -5 0 -10 5 -10 10 0 6 5 10 10 10 6
0 10 -4 10 -10z m1180 -20 c0 -5 -4 -10 -10 -10 -5 0 -10 5 -10 10 0 6 5 10
10 10 6 0 10 -4 10 -10z m-203 -22 c-3 -8 -6 -5 -6 6 -1 11 2 17 5 13 3 -3 4
-12 1 -19z m-959 -29 c-3 -8 -7 -3 -11 10 -4 17 -3 21 5 13 5 -5 8 -16 6 -23z
m332 -48 c0 -9 5 -22 12 -29 9 -9 9 -12 -3 -12 -20 0 -50 69 -42 99 6 22 6 22
19 -9 8 -18 14 -40 14 -49z m180 28 c0 -5 -4 -9 -10 -9 -5 0 -10 7 -10 16 0 8
5 12 10 9 6 -3 10 -10 10 -16z m167 -11 c-3 -8 -6 -5 -6 6 -1 11 2 17 5 13 3
-3 4 -12 1 -19z m186 -19 c-8 -29 -13 -23 -13 14 0 22 3 28 9 18 5 -7 6 -22 4
-32z m67 9 c0 -36 -4 -35 -14 5 -4 16 -2 27 4 27 5 0 10 -14 10 -32z m-550
-13 c0 -14 -4 -25 -10 -25 -5 0 -10 11 -10 25 0 14 5 25 10 25 6 0 10 -11 10
-25z m191 -43 c-6 -19 -5 -34 2 -41 6 -6 7 -14 2 -18 -4 -5 -10 -2 -12 5 -9
24 -25 12 -19 -15 3 -16 2 -34 -3 -42 -7 -11 -11 -5 -17 23 -3 21 -3 41 2 45
8 5 20 27 42 75 3 5 0 6 -7 2 -7 -5 -9 -1 -4 10 11 29 24 -9 14 -44z m179 27
c0 -11 -4 -17 -10 -14 -5 3 -10 13 -10 21 0 8 5 14 10 14 6 0 10 -9 10 -21z
m-106 -38 c-6 -6 -24 19 -24 34 1 6 7 1 15 -9 8 -11 12 -22 9 -25z m766 19 c0
-5 -4 -10 -10 -10 -5 0 -10 5 -10 10 0 6 5 10 10 10 6 0 10 -4 10 -10z m-1148
-36 c-3 -24 -7 -32 -13 -23 -4 7 -6 16 -5 19 2 3 6 13 9 23 10 27 13 20 9 -19z
m509 -16 c-4 -32 -5 -32 -11 -8 -7 26 -4 40 9 40 4 0 5 -15 2 -32z m273 16 c3
-8 2 -12 -4 -9 -6 3 -10 10 -10 16 0 14 7 11 14 -7z m-414 -4 c0 -5 -4 -10
-10 -10 -5 0 -10 5 -10 10 0 6 5 10 10 10 6 0 10 -4 10 -10z m240 -5 c0 -8 -2
-15 -4 -15 -2 0 -6 7 -10 15 -3 8 -1 15 4 15 6 0 10 -7 10 -15z m144 -10 c3
-8 1 -15 -4 -15 -6 0 -10 7 -10 15 0 8 2 15 4 15 2 0 6 -7 10 -15z m-284 -27
c-1 -28 -2 -30 -11 -15 -6 10 -8 25 -5 33 9 24 16 16 16 -18z m250 -20 c0 -14
-18 -9 -24 8 -11 28 -6 39 9 20 8 -11 15 -23 15 -28z m-161 -1 c0 -21 -1 -21
-9 -2 -12 28 -12 37 0 30 6 -3 10 -16 9 -28z m-209 8 c6 4 10 -10 10 -39 0
-59 -14 -59 -34 1 -20 57 -20 58 -1 43 8 -6 19 -9 25 -5z m249 -53 c1 -7 -3
-10 -9 -7 -5 3 -10 18 -9 33 0 24 1 25 9 7 5 -11 9 -26 9 -33z m685 -12 c5
-25 3 -31 -4 -24 -6 6 -14 27 -16 45 -7 45 11 26 20 -21z m-841 10 c3 -11 1
-20 -4 -20 -5 0 -9 9 -9 20 0 11 2 20 4 20 2 0 6 -9 9 -20z m285 -12 c1 -30
-1 -31 -13 -15 -7 11 -11 25 -8 33 9 25 20 15 21 -18z m-418 13 c0 -6 -4 -13
-10 -16 -5 -3 -10 1 -10 9 0 9 5 16 10 16 6 0 10 -4 10 -9z m197 -33 c-3 -8
-6 -5 -6 6 -1 11 2 17 5 13 3 -3 4 -12 1 -19z m-187 -33 c0 -19 -2 -35 -5 -35
-9 0 -25 51 -19 61 12 20 24 7 24 -26z m70 14 c0 -6 -4 -7 -10 -4 -5 3 -10 11
-10 16 0 6 5 7 10 4 6 -3 10 -11 10 -16z m210 5 c0 -8 -4 -12 -10 -9 -5 3 -10
10 -10 16 0 5 5 9 10 9 6 0 10 -7 10 -16z m-33 -26 c-3 -8 -6 -5 -6 6 -1 11 2
17 5 13 3 -3 4 -12 1 -19z m-932 -9 c8 -24 -14 -84 -26 -72 -10 10 1 93 12 93
4 0 11 -9 14 -21z m823 -11 c17 -17 14 -50 -7 -75 -20 -24 -41 -33 -24 -10 16
19 24 65 13 72 -12 7 -13 25 -2 25 4 0 13 -5 20 -12z m-788 -49 c0 -11 -4 -17
-10 -14 -5 3 -10 15 -10 26 0 11 5 17 10 14 6 -3 10 -15 10 -26z m690 -6 c0
-7 -4 -13 -10 -13 -5 0 -10 12 -10 28 0 21 2 24 10 12 5 -8 10 -21 10 -27z
m404 -82 c1 -48 -18 -52 -21 -5 -1 21 -7 42 -13 48 -5 5 -10 17 -10 25 0 34
44 -33 44 -68z m661 69 c3 -5 1 -10 -4 -10 -6 0 -11 5 -11 10 0 6 2 10 4 10 3
0 8 -4 11 -10z m-928 -73 c-3 -7 -9 4 -14 23 -6 19 -8 39 -5 45 7 12 25 -53
19 -68z m790 51 c-3 -8 -6 -5 -6 6 -1 11 2 17 5 13 3 -3 4 -12 1 -19z m-994
-50 c5 -36 5 -37 -13 -20 -13 12 -17 26 -13 45 7 35 19 24 26 -25z m332 22 c3
-5 1 -10 -4 -10 -6 0 -11 5 -11 10 0 6 2 10 4 10 3 0 8 -4 11 -10z m58 -40
c-3 -11 -9 -23 -14 -26 -10 -6 -12 39 -3 49 12 12 22 -3 17 -23z m-431 -37
c-3 -17 1 -30 11 -38 13 -9 14 -19 6 -53 -5 -25 -5 -50 1 -66 7 -20 6 -24 -5
-20 -18 7 -27 52 -17 89 7 24 4 33 -12 46 -18 14 -19 20 -8 43 15 34 31 34 24
-1z m318 -8 c0 -13 -3 -30 -6 -39 -11 -28 -20 -9 -16 33 4 43 22 47 22 6z
m640 -12 c0 -25 -15 -12 -17 14 -1 19 1 22 8 12 5 -8 9 -20 9 -26z m-488 2 c6
-28 -6 -34 -16 -9 -8 22 -7 34 3 34 5 0 11 -11 13 -25z m87 -85 c0 -8 -6 0
-14 19 -8 18 -15 38 -14 45 1 15 28 -46 28 -64z m-444 14 c23 -31 37 -85 25
-97 -4 -5 -11 9 -15 31 -3 22 -15 48 -26 58 -10 9 -19 21 -19 26 0 16 15 8 35
-18z m-448 -14 c-1 -11 -5 -20 -9 -20 -10 0 -10 4 -2 24 8 22 13 20 11 -4z
m47 1 c3 -5 -1 -14 -9 -21 -13 -10 -15 -9 -15 9 0 21 14 28 24 12z m806 -27
c0 -8 -4 -12 -10 -9 -5 3 -10 13 -10 21 0 8 5 12 10 9 6 -3 10 -13 10 -21z
m-315 -23 c3 -5 1 -12 -5 -16 -5 -3 -10 1 -10 9 0 18 6 21 15 7z m676 -77 c3
-67 0 -104 -9 -104 -4 0 -8 32 -9 72 -1 39 -6 74 -10 77 -4 3 -9 14 -11 24 -3
17 -2 17 16 -1 13 -13 21 -36 23 -68z m-781 51 c0 -8 -7 -15 -15 -15 -16 0
-20 12 -8 23 11 12 23 8 23 -8z m350 -10 c0 -8 -4 -15 -10 -15 -5 0 -10 7 -10
15 0 8 5 15 10 15 6 0 10 -7 10 -15z m-25 -55 c3 -5 1 -10 -4 -10 -6 0 -11 5
-11 10 0 6 2 10 4 10 3 0 8 -4 11 -10z m6 -134 c5 -6 9 -19 8 -30 0 -14 -6 -7
-19 21 -11 25 -16 50 -12 65 6 20 7 18 10 -12 2 -19 8 -39 13 -44z m48 24 c1
-13 0 -13 -9 0 -5 8 -9 24 -9 35 l0 20 9 -20 c5 -11 9 -27 9 -35z m421 -31 c0
-18 -4 -28 -10 -24 -5 3 -10 20 -10 36 0 18 4 28 10 24 6 -3 10 -20 10 -36z
m-917 -43 c14 -30 14 -36 1 -46 -12 -10 -14 -8 -14 14 0 15 -5 36 -10 47 -6
10 -7 19 -2 19 4 0 16 -15 25 -34z m-703 -50 c0 -11 -19 -15 -25 -6 -3 5 1 10
9 10 9 0 16 -2 16 -4z m750 -16 c0 -5 -2 -10 -4 -10 -3 0 -8 5 -11 10 -3 6 -1
10 4 10 6 0 11 -4 11 -10z m-863 -52 c-3 -8 -6 -5 -6 6 -1 11 2 17 5 13 3 -3
4 -12 1 -19z m1402 -5 c35 -44 37 -71 8 -101 -33 -32 -45 -22 -28 23 10 28 9
39 -4 64 -8 17 -15 32 -15 36 0 13 21 2 39 -22z m-389 -3 c0 -11 -4 -20 -10
-20 -5 0 -10 9 -10 20 0 11 5 20 10 20 6 0 10 -9 10 -20z m270 6 c0 -3 -4 -8
-10 -11 -5 -3 -10 -1 -10 4 0 6 5 11 10 11 6 0 10 -2 10 -4z m-1350 -36 c0 -5
-5 -10 -11 -10 -5 0 -7 5 -4 10 3 6 8 10 11 10 2 0 4 -4 4 -10z m1329 -22 c0
-27 -2 -29 -8 -13 -5 11 -6 26 -4 33 8 21 13 13 12 -20z m-1260 -114 c9 -8 -6
-10 -51 -6 -27 2 -48 8 -48 12 0 7 90 2 99 -6z m1751 -26 c0 -6 11 -21 25 -34
25 -23 32 -63 19 -98 -10 -26 -20 -18 -20 17 0 18 -10 53 -22 78 -24 50 -27
63 -12 54 6 -3 10 -11 10 -17z m-1661 -35 c0 -21 -3 -32 -6 -25 -2 6 -9 10
-14 6 -12 -7 -11 13 1 37 16 28 20 24 19 -18z m1321 22 c0 -8 -2 -15 -4 -15
-2 0 -6 7 -10 15 -3 8 -1 15 4 15 6 0 10 -7 10 -15z m-163 -87 c-3 -8 -6 -5
-6 6 -1 11 2 17 5 13 3 -3 4 -12 1 -19z m180 -35 c-3 -10 -5 -2 -5 17 0 19 2
27 5 18 2 -10 2 -26 0 -35z m-267 16 c0 -6 -4 -7 -10 -4 -5 3 -10 11 -10 16 0
6 5 7 10 4 6 -3 10 -11 10 -16z m666 -36 c-7 -30 -45 -86 -46 -66 0 6 4 15 10
18 5 3 14 24 20 46 12 45 26 47 16 2z m-786 -3 c0 -5 -4 -10 -10 -10 -5 0 -10
5 -10 10 0 6 5 10 10 10 6 0 10 -4 10 -10z m-900 -4 c0 -11 -19 -15 -25 -6 -3
5 1 10 9 10 9 0 16 -2 16 -4z m-170 -30 c0 -3 -4 -8 -10 -11 -5 -3 -10 -1 -10
4 0 6 5 11 10 11 6 0 10 -2 10 -4z m1780 -10 c0 -2 -8 -10 -17 -17 -16 -13
-17 -12 -4 4 13 16 21 21 21 13z m-1678 -38 c-8 -8 -9 -4 -5 13 4 13 8 18 11
10 2 -7 -1 -18 -6 -23z m-2 -84 c0 -8 -4 -14 -10 -14 -5 0 -10 9 -10 21 0 11
5 17 10 14 6 -3 10 -13 10 -21z m343 -50 c-4 -10 -9 -12 -15 -6 -12 12 -1 35
12 27 5 -3 6 -13 3 -21z m-418 -94 c8 -25 -19 -70 -40 -70 -8 0 -15 5 -15 10
0 6 6 10 13 10 17 0 15 33 -2 54 -12 14 -10 16 12 16 17 0 28 -7 32 -20z
m1554 -46 c12 -43 0 -99 -21 -99 -9 0 -20 -4 -24 -8 -14 -14 -22 -7 -17 14 3
11 11 18 18 15 9 -3 12 9 10 44 -1 26 -5 52 -9 58 -3 6 -3 18 1 28 6 16 7 16
20 -2 7 -10 17 -32 22 -50z m-159 30 c0 -8 -4 -12 -10 -9 -5 3 -10 13 -10 21
0 8 5 12 10 9 6 -3 10 -13 10 -21z m-71 -42 c1 -7 -3 -10 -9 -7 -5 3 -10 21
-9 38 1 31 1 31 9 7 4 -14 8 -31 9 -38z m-1295 -34 c3 -13 6 -42 6 -65 0 -42
0 -42 -25 -31 -18 8 -22 14 -13 19 10 6 8 12 -7 23 -18 14 -18 15 -2 16 24 0
21 15 -5 28 l-23 11 23 0 c12 1 22 6 22 11 0 19 18 10 24 -12z m546 -3 c0 -14
-4 -25 -10 -25 -5 0 -10 11 -10 25 0 14 5 25 10 25 6 0 10 -11 10 -25z m-643
-7 c-3 -8 -6 -5 -6 6 -1 11 2 17 5 13 3 -3 4 -12 1 -19z m1067 -32 c-10 -27
-25 -18 -20 12 2 15 5 29 5 32 1 3 6 -2 11 -12 6 -9 7 -23 4 -32z m-67 2 c-3
-7 -5 -2 -5 12 0 14 2 19 5 13 2 -7 2 -19 0 -25z m-749 -15 c28 -12 33 -17 19
-20 -12 -3 -16 -10 -13 -20 3 -8 6 -27 6 -41 1 -26 1 -27 16 -7 15 19 15 19
12 -10 -2 -22 -8 -30 -23 -30 -11 -1 -26 -5 -34 -9 -10 -7 -12 -2 -6 23 5 22
3 31 -6 31 -10 0 -10 3 -1 12 15 15 16 32 2 23 -6 -4 -10 5 -10 19 0 35 -16
33 -29 -4 -11 -32 -51 -44 -51 -15 0 8 7 15 15 15 9 0 15 9 15 25 0 20 5 25
25 25 14 0 42 -7 63 -17z m-64 -89 c3 -9 6 -31 6 -50 0 -26 -4 -34 -18 -34
-10 0 -24 11 -31 24 -11 20 -10 28 4 50 20 30 30 33 39 10z m1335 -17 c7 -19
8 -43 4 -53 -6 -17 -5 -17 10 -5 19 15 23 1 5 -17 -6 -6 -11 -27 -10 -47 1
-19 -2 -35 -7 -35 -10 0 -26 49 -22 65 8 28 7 56 0 61 -12 7 -11 64 0 64 5 0
14 -15 20 -33z m-302 -69 c-3 -8 -6 -5 -6 6 -1 11 2 17 5 13 3 -3 4 -12 1 -19z
m770 -59 c1 -22 7 -47 13 -54 8 -9 8 -24 1 -47 l-9 -33 -1 45 c-1 52 -16 45
-30 -15 -8 -33 -9 -28 -4 30 5 62 17 115 26 115 1 0 3 -18 4 -41z m-517 -30
c0 -16 -4 -29 -10 -29 -5 0 -10 16 -10 36 0 21 4 33 10 29 6 -3 10 -19 10 -36z
m-51 -23 c14 -17 11 -67 -4 -66 -5 0 -10 13 -11 29 -1 15 -4 33 -8 40 -10 16
9 14 23 -3z m-90 -56 c1 -13 0 -13 -9 0 -5 8 -9 24 -9 35 l0 20 9 -20 c5 -11
9 -27 9 -35z m30 -73 c0 -21 -1 -21 -9 -2 -12 28 -12 37 0 30 6 -3 10 -16 9
-28z m601 3 c0 -5 -4 -10 -10 -10 -5 0 -10 5 -10 10 0 6 5 10 10 10 6 0 10 -4
10 -10z m-515 -28 c-3 -3 -11 0 -18 7 -9 10 -8 11 6 5 10 -3 15 -9 12 -12z
m490 8 c3 -5 1 -10 -4 -10 -6 0 -11 5 -11 10 0 6 2 10 4 10 3 0 8 -4 11 -10z
m-535 -31 c0 -11 -4 -17 -10 -14 -5 3 -10 13 -10 21 0 8 5 14 10 14 6 0 10 -9
10 -21z m-1400 -17 c0 -15 -2 -15 -10 -2 -13 20 -13 33 0 25 6 -3 10 -14 10
-23z m1573 13 c4 -8 2 -17 -3 -20 -6 -4 -10 3 -10 14 0 25 6 27 13 6z m543
-99 c5 -21 4 -27 -5 -22 -6 4 -11 13 -11 19 0 7 -7 26 -16 42 -15 30 -15 30 5
10 11 -11 23 -33 27 -49z m-566 9 c0 -8 -4 -17 -10 -20 -6 -4 -10 5 -10 20 0
15 4 24 10 20 6 -3 10 -12 10 -20z m-771 -82 c0 -31 -2 -34 -9 -18 -12 28 -12
55 0 55 6 0 10 -17 9 -37z m101 5 c0 -5 -4 -8 -10 -8 -5 0 -10 10 -10 23 0 18
2 19 10 7 5 -8 10 -18 10 -22z m1206 5 c-10 -10 -19 5 -10 18 6 11 8 11 12 0
2 -7 1 -15 -2 -18z m-1391 -13 c3 -5 1 -10 -4 -10 -6 0 -11 5 -11 10 0 6 2 10
4 10 3 0 8 -4 11 -10z m-165 -20 c-6 -11 -15 -20 -20 -20 -6 0 -10 -6 -10 -13
0 -19 -27 -53 -36 -45 -10 11 28 86 46 92 28 7 31 6 20 -14z m520 -1 c0 -6 -4
-7 -10 -4 -5 3 -10 11 -10 16 0 6 5 7 10 4 6 -3 10 -11 10 -16z m460 5 c0 -8
-4 -12 -10 -9 -5 3 -10 10 -10 16 0 5 5 9 10 9 6 0 10 -7 10 -16z m-664 -21
c-10 -10 -19 5 -10 18 6 11 8 11 12 0 2 -7 1 -15 -2 -18z m120 0 c-10 -10 -19
5 -10 18 6 11 8 11 12 0 2 -7 1 -15 -2 -18z m-549 1 c-3 -3 -12 -4 -19 -1 -8
3 -5 6 6 6 11 1 17 -2 13 -5z m980 -26 c-3 -7 -5 -2 -5 12 0 14 2 19 5 13 2
-7 2 -19 0 -25z m-869 -39 c-24 -16 -29 -9 -11 18 15 23 18 24 21 9 2 -10 -2
-22 -10 -27z m414 11 c-2 -16 -8 -30 -13 -30 -10 0 -11 7 -3 38 9 33 21 27 16
-8z m185 8 c-3 -8 -6 -5 -6 6 -1 11 2 17 5 13 3 -3 4 -12 1 -19z m451 4 c2 -7
-3 -12 -12 -12 -9 0 -16 7 -16 16 0 17 22 14 28 -4z m-280 -10 c6 -18 -15 -14
-22 4 -4 10 -1 14 6 12 6 -2 14 -10 16 -16z m-306 -52 c-2 -17 -10 -30 -18
-30 -8 0 -14 -5 -14 -12 0 -6 -3 -8 -7 -5 -12 13 -9 59 4 64 7 3 13 15 13 27
1 19 2 20 14 4 7 -10 11 -31 8 -48z m965 -17 c-3 -10 -5 -4 -5 12 0 17 2 24 5
18 2 -7 2 -21 0 -30z m-494 -19 c-7 -20 -10 -18 -15 11 -4 20 -2 23 8 14 7 -6
10 -17 7 -25z m-843 18 c0 -13 -12 -22 -22 -16 -10 6 -1 24 13 24 5 0 9 -4 9
-8z m763 -12 c3 -11 1 -20 -4 -20 -5 0 -9 2 -9 4 0 2 -3 11 -6 20 -3 9 -2 16
4 16 5 0 12 -9 15 -20z m449 -45 c3 3 13 -6 22 -21 10 -14 15 -28 12 -31 -3
-4 -1 -12 5 -20 9 -9 8 -13 0 -13 -6 0 -11 5 -11 10 0 20 -19 10 -22 -12 -2
-12 -8 -23 -15 -25 -8 -3 -11 13 -11 49 1 29 -2 67 -6 83 l-6 30 13 -28 c7
-15 16 -25 19 -22z m-820 30 c7 -7 -14 -55 -24 -55 -5 0 -8 14 -8 30 0 27 17
40 32 25z m28 -45 c0 -5 -4 -10 -10 -10 -5 0 -10 5 -10 10 0 6 5 10 10 10 6 0
10 -4 10 -10z m-270 -30 c0 -5 -4 -10 -10 -10 -5 0 -10 5 -10 10 0 6 5 10 10
10 6 0 10 -4 10 -10z m416 -42 c2 -18 11 -38 19 -44 13 -9 13 -13 0 -30 -21
-28 -18 -49 11 -84 22 -25 24 -34 14 -43 -10 -9 -11 -9 -6 1 5 8 0 12 -13 12
-15 0 -19 5 -15 18 4 13 2 12 -7 -3 -8 -11 -14 -23 -14 -27 0 -18 -20 -7 -23
12 -2 11 1 20 7 20 6 0 11 10 11 23 0 15 -3 18 -9 9 -6 -10 -10 -10 -19 1 -13
16 0 70 24 98 8 8 14 20 14 25 0 5 -7 0 -15 -10 -22 -30 -31 6 -9 39 20 30 25
27 30 -17z m-119 26 c-3 -3 -12 -4 -19 -1 -8 3 -5 6 6 6 11 1 17 -2 13 -5z
m-7 -80 c0 -33 -9 -30 -22 7 -7 19 -15 28 -24 25 -14 -5 -19 6 -8 17 13 12 54
-26 54 -49z m695 16 c3 -5 1 -10 -4 -10 -6 0 -11 5 -11 10 0 6 2 10 4 10 3 0
8 -4 11 -10z m92 -32 c-3 -7 -5 -2 -5 12 0 14 2 19 5 13 2 -7 2 -19 0 -25z
m-545 -5 c25 -23 24 -79 -3 -93 -32 -17 -42 -7 -20 19 25 29 26 38 6 57 -30
30 -15 46 17 17z m412 -59 c3 -9 6 -23 6 -31 0 -13 -3 -13 -15 -3 -16 13 -21
50 -6 50 5 0 12 -7 15 -16z m-579 -40 c4 -22 2 -41 -4 -47 -8 -8 -11 -6 -11 5
0 8 -3 30 -6 47 -4 18 -2 31 4 31 5 0 13 -16 17 -36z m621 -32 c9 -14 8 -22
-2 -37 -8 -10 -17 -16 -20 -12 -4 4 -1 13 5 21 8 10 9 16 1 21 -12 7 -14 25
-2 25 4 0 12 -8 18 -18z m-508 -25 c19 -15 16 -77 -4 -77 -10 0 -14 6 -10 15
3 8 -4 31 -15 50 -20 33 -20 35 -3 29 11 -4 25 -11 32 -17z m-228 9 c0 -3 -4
-8 -10 -11 -5 -3 -10 -1 -10 4 0 6 5 11 10 11 6 0 10 -2 10 -4z m807 -28 c-3
-18 0 -54 5 -79 8 -33 7 -54 -1 -75 -9 -22 -10 -23 -7 -5 3 13 -2 43 -10 67
-12 35 -12 53 -4 84 13 48 24 53 17 8z m-680 -20 c-3 -8 -6 -5 -6 6 -1 11 2
17 5 13 3 -3 4 -12 1 -19z m286 -18 c3 -11 1 -23 -4 -26 -5 -3 -9 6 -9 20 0
31 6 34 13 6z m-43 -22 c0 -5 -4 -8 -10 -8 -5 0 -10 10 -10 23 0 18 2 19 10 7
5 -8 10 -18 10 -22z m141 -126 c-6 -2 -11 -12 -11 -23 0 -10 -5 -19 -11 -19
-7 0 -8 7 -4 18 4 9 9 26 12 37 10 44 17 50 21 20 2 -16 -1 -31 -7 -33z m234
4 c7 -46 -4 -80 -34 -103 -35 -27 -42 -9 -11 27 14 16 20 37 20 72 0 60 17 63
25 4z m-110 4 c3 -5 1 -10 -4 -10 -6 0 -11 5 -11 10 0 6 2 10 4 10 3 0 8 -4
11 -10z m-337 -30 c12 -23 11 -94 -1 -107 -3 -2 -14 1 -25 8 -18 11 -21 22
-19 71 2 64 20 75 45 28z m122 -90 c0 -5 -4 -10 -10 -10 -5 0 -10 5 -10 10 0
6 5 10 10 10 6 0 10 -4 10 -10z m37 -22 c-3 -8 -6 -5 -6 6 -1 11 2 17 5 13 3
-3 4 -12 1 -19z m393 1 c0 -5 -4 -9 -10 -9 -5 0 -10 7 -10 16 0 8 5 12 10 9 6
-3 10 -10 10 -16z m-564 -54 c14 -40 11 -85 -5 -85 -5 0 -11 23 -15 50 -4 28
-10 58 -13 66 -4 11 -2 15 6 13 7 -3 19 -23 27 -44z m480 9 c-4 -9 -9 -15 -11
-12 -3 3 -3 13 1 22 4 9 9 15 11 12 3 -3 3 -13 -1 -22z m-430 3 c4 8 11 7 23
-5 10 -9 28 -25 40 -35 17 -14 21 -24 16 -50 -3 -17 -7 -43 -9 -57 -5 -38 -17
-60 -31 -60 -17 0 -29 -36 -26 -72 1 -16 -2 -28 -8 -28 -6 0 -11 7 -11 15 0 8
-4 15 -10 15 -5 0 -7 -6 -4 -14 3 -9 -4 -15 -20 -18 -31 -6 -31 -5 -7 30 26
36 44 127 31 152 -7 13 -6 21 5 30 13 11 14 10 10 -2 -4 -9 1 -18 9 -21 22 -9
22 36 0 57 -8 9 -12 16 -7 16 4 0 0 5 -9 11 -10 5 -18 20 -18 32 0 18 2 19 11
7 7 -11 12 -12 15 -3z m164 -67 c0 -22 -4 -40 -10 -40 -11 0 -13 39 -4 64 10
26 14 19 14 -24z m203 5 c4 -8 2 -17 -3 -20 -6 -4 -10 3 -10 14 0 25 6 27 13
6z m-500 -35 c3 -13 0 -20 -9 -20 -8 0 -14 9 -14 20 0 11 4 20 9 20 5 0 11 -9
14 -20z m377 -15 c0 -8 -4 -15 -10 -15 -5 0 -10 7 -10 15 0 8 5 15 10 15 6 0
10 -7 10 -15z m155 5 c3 -5 1 -10 -4 -10 -6 0 -11 5 -11 10 0 6 2 10 4 10 3 0
8 -4 11 -10z m55 -41 c0 -17 -5 -29 -11 -27 -6 2 -10 7 -10 11 1 4 1 16 1 27
0 11 5 20 10 20 6 0 10 -14 10 -31z m-641 9 c0 -7 -4 -22 -9 -33 -7 -17 -9
-15 -9 13 -1 17 4 32 9 32 6 0 10 -6 9 -12z m131 -30 c0 -30 -25 -15 -28 17
-3 25 -2 27 12 16 9 -8 16 -22 16 -33z m246 16 c-4 -9 -9 -15 -11 -12 -3 3 -3
13 1 22 4 9 9 15 11 12 3 -3 3 -13 -1 -22z m381 -51 c-3 -10 -5 -4 -5 12 0 17
2 24 5 18 2 -7 2 -21 0 -30z m-437 -1 c0 -9 9 -23 21 -30 22 -14 22 -18 3
-110 -5 -24 -2 -38 12 -53 14 -16 16 -26 8 -56 -10 -39 -34 -57 -34 -26 -1 17
-1 17 -14 1 -7 -10 -16 -18 -20 -18 -12 0 -6 44 10 61 11 12 13 23 6 36 -5 10
-12 33 -15 51 -6 27 -4 32 13 32 12 0 22 9 26 24 4 19 -1 32 -26 56 -31 30
-33 50 -4 50 8 0 14 -8 14 -18z m-170 -2 c0 -5 -2 -10 -4 -10 -3 0 -8 5 -11
10 -3 6 -1 10 4 10 6 0 11 -4 11 -10z m0 -30 c0 -5 -2 -10 -4 -10 -3 0 -8 5
-11 10 -3 6 -1 10 4 10 6 0 11 -4 11 -10z m507 -12 c-3 -8 -6 -5 -6 6 -1 11 2
17 5 13 3 -3 4 -12 1 -19z m73 12 c0 -5 -4 -10 -10 -10 -5 0 -10 5 -10 10 0 6
5 10 10 10 6 0 10 -4 10 -10z m-630 -29 c0 -11 3 -28 7 -38 6 -16 5 -16 -10
-4 -18 14 -23 61 -7 61 6 0 10 -9 10 -19z m30 -1 c0 -5 -4 -10 -10 -10 -5 0
-10 5 -10 10 0 6 5 10 10 10 6 0 10 -4 10 -10z m880 -32 c0 -6 7 -19 16 -29
20 -22 11 -80 -9 -60 -8 8 -8 14 0 22 8 8 6 20 -9 45 -11 19 -15 34 -9 34 6 0
11 -5 11 -12z m-940 -27 c0 -10 -6 -21 -14 -24 -9 -4 -12 -17 -10 -37 2 -19 0
-29 -6 -25 -13 8 -13 61 0 86 14 24 30 25 30 0z m-80 -21 c0 -5 -5 -10 -11
-10 -5 0 -7 5 -4 10 3 6 8 10 11 10 2 0 4 -4 4 -10z m860 -38 c0 -15 -2 -15
-10 -2 -13 20 -13 33 0 25 6 -3 10 -14 10 -23z m-880 -8 c0 -18 -8 -18 -26 0
-19 20 -18 25 6 19 11 -3 20 -12 20 -19z m144 -15 c10 -22 15 -43 12 -46 -9
-10 -45 41 -46 65 0 34 14 26 34 -19z m578 -9 c16 0 7 -38 -10 -42 -15 -4 -18
2 -19 46 -1 46 0 49 10 24 6 -16 14 -28 19 -28z m-432 -90 c0 -11 -4 -20 -10
-20 -5 0 -10 9 -10 20 0 11 5 20 10 20 6 0 10 -9 10 -20z m420 -6 c0 -8 -4
-12 -10 -9 -5 3 -10 10 -10 16 0 5 5 9 10 9 6 0 10 -7 10 -16z m110 -40 c0
-28 -4 -43 -10 -39 -5 3 -10 26 -10 51 0 28 4 43 10 39 6 -3 10 -26 10 -51z
m-412 6 c11 -17 10 -20 -7 -20 -22 0 -35 15 -26 30 9 15 19 12 33 -10z m342
-51 c0 -30 -6 -51 -15 -59 -23 -19 -28 -7 -15 39 6 23 8 46 5 52 -4 5 -4 17 0
27 10 28 25 -6 25 -59z m-736 25 c20 -19 20 -38 1 -54 -13 -10 -15 -9 -15 8 0
12 -4 24 -10 27 -13 8 -13 35 -1 35 5 0 17 -7 25 -16z m439 -44 c-1 -32 -17
-59 -29 -48 -3 4 -3 25 1 48 8 48 31 49 28 0z m344 -17 c-3 -10 -5 -4 -5 12 0
17 2 24 5 18 2 -7 2 -21 0 -30z m-297 -47 c0 -39 -21 -89 -33 -77 -14 14 -10
83 5 93 21 13 28 9 28 -16z m-244 -13 c-10 -10 -19 5 -10 18 6 11 8 11 12 0 2
-7 1 -15 -2 -18z m-66 -20 c0 -10 -8 -27 -17 -38 -15 -20 -15 -19 -9 5 3 14 6
31 6 38 0 6 5 12 10 12 6 0 10 -8 10 -17z m75 -13 c-3 -5 -1 -19 5 -30 9 -16
8 -20 -5 -20 -11 0 -15 10 -15 36 0 21 4 33 10 29 6 -4 8 -10 5 -15z m129 4
c3 -8 3 -26 0 -39 -3 -14 1 -34 12 -49 16 -26 16 -27 -2 -40 -22 -17 -38 -10
-30 11 4 9 1 22 -5 29 -7 9 -9 30 -5 59 7 46 19 58 30 29z m-273 -47 c-8 -8
-11 -7 -11 4 0 20 13 34 18 19 3 -7 -1 -17 -7 -23z m-78 -103 c-5 -69 -27 -57
-39 21 l-7 49 24 -16 c19 -13 24 -24 22 -54z m637 5 c0 -46 -25 -35 -26 11 -1
33 1 38 12 29 8 -6 14 -24 14 -40z m-380 26 c0 -8 -4 -15 -10 -15 -5 0 -10 7
-10 15 0 8 5 15 10 15 6 0 10 -7 10 -15z m110 -66 c0 -11 -4 -17 -10 -14 -5 3
-10 15 -10 26 0 11 5 17 10 14 6 -3 10 -15 10 -26z m-85 1 c8 -26 -14 -69 -25
-49 -10 16 -1 69 10 69 5 0 11 -9 15 -20z m-245 -29 c0 -6 -4 -13 -10 -16 -5
-3 -10 1 -10 9 0 9 5 16 10 16 6 0 10 -4 10 -9z m266 -59 c-12 -12 -18 8 -10
35 l8 28 4 -28 c2 -16 1 -31 -2 -35z m-239 16 c-3 -8 -6 -5 -6 6 -1 11 2 17 5
13 3 -3 4 -12 1 -19z m189 -21 c-2 -19 -32 -58 -39 -51 -8 9 3 37 21 52 20 15
21 15 18 -1z m444 -9 c23 -35 40 -78 31 -78 -12 0 -36 30 -54 68 -18 38 -1 46
23 10z m80 -72 c0 -14 -4 -27 -8 -30 -5 -3 -9 8 -9 24 0 17 4 30 9 30 4 0 8
-11 8 -24z m140 -23 c-11 -17 -11 -17 -6 0 3 10 6 24 7 30 0 9 2 9 5 0 3 -7 0
-20 -6 -30z m-134 -62 c6 8 14 21 18 29 3 8 3 1 0 -16 -3 -21 0 -37 11 -48 12
-12 14 -20 6 -33 -6 -10 -11 -14 -11 -8 0 16 -27 -28 -33 -56 -9 -35 -37 -47
-37 -16 0 12 -3 33 -6 47 -5 24 -5 24 10 6 15 -18 16 -18 26 9 6 15 7 37 3 49
-6 19 -8 18 -14 -9 -6 -28 -7 -27 -8 12 0 23 2 50 6 60 6 15 8 13 13 -11 4
-24 7 -26 16 -15z m51 2 c-3 -10 -5 -4 -5 12 0 17 2 24 5 18 2 -7 2 -21 0 -30z
m-553 -57 c5 -32 4 -46 -3 -42 -13 9 -25 71 -16 86 10 16 11 12 19 -44z m136
-133 c0 -18 -6 -23 -25 -23 -21 0 -23 3 -16 23 5 13 7 36 4 53 l-5 29 21 -30
c11 -16 21 -40 21 -52z m222 10 c-9 -7 -18 -10 -21 -7 -3 4 0 9 7 11 6 3 12
17 13 31 l1 27 8 -25 c5 -18 3 -29 -8 -37z m38 -23 c0 -5 -4 -10 -10 -10 -5 0
-10 5 -10 10 0 6 5 10 10 10 6 0 10 -4 10 -10z m-344 -37 c-10 -10 -19 5 -10
18 6 11 8 11 12 0 2 -7 1 -15 -2 -18z m94 -93 c-6 -11 -15 -18 -21 -15 -14 9
-11 25 6 25 8 0 14 3 14 8 -3 15 3 26 7 15 3 -7 0 -21 -6 -33z m-94 -17 c-10
-10 -19 5 -10 18 6 11 8 11 12 0 2 -7 1 -15 -2 -18z m-4 -52 c9 -24 11 -25 22
-9 7 10 16 15 19 11 10 -9 -13 -33 -33 -33 -22 0 -39 -39 -33 -73 3 -15 2 -27
-2 -27 -11 0 -32 25 -39 48 -4 12 -11 22 -16 22 -4 0 -6 9 -3 20 3 10 8 19 12
18 3 0 14 0 24 1 17 1 17 3 3 23 -9 12 -16 31 -16 40 0 18 1 18 26 1 14 -9 30
-28 36 -42z m608 -5 c0 -8 -4 -18 -10 -21 -5 -3 -10 3 -10 14 0 12 5 21 10 21
6 0 10 -6 10 -14z m-444 -91 c7 -31 64 -91 102 -106 12 -5 22 -16 22 -25 0 -9
7 -22 16 -29 14 -10 15 -23 9 -83 -4 -40 -11 -72 -15 -72 -5 0 -15 -7 -24 -15
-23 -24 -64 0 -76 44 -13 48 -13 56 4 70 21 17 16 51 -11 84 -13 16 -23 35
-23 42 0 17 -31 35 -60 35 -17 0 -20 4 -15 18 9 20 18 83 9 65 -8 -18 -34 -16
-34 2 0 8 4 15 9 15 5 0 13 9 16 20 6 20 8 19 35 -7 16 -15 32 -41 36 -58z
m-326 45 c0 -21 -15 -27 -25 -9 -4 6 -14 8 -22 4 -13 -4 -14 -3 -3 10 18 22
50 19 50 -5z m226 -48 c-9 -9 -37 8 -31 18 5 8 11 7 21 -1 8 -6 12 -14 10 -17z
m4 -183 c0 -11 -7 -22 -15 -26 -23 -8 -27 1 -14 30 13 29 29 27 29 -4z m111
-130 c28 -19 28 -22 14 -48 -13 -27 -33 -41 -56 -41 -5 0 -9 25 -8 55 1 30 6
55 11 55 6 0 23 -9 39 -21z m179 -40 c0 -30 -6 -34 -34 -23 -15 6 -14 40 1 67
9 16 33 -16 33 -44z m-250 31 c0 -5 -4 -10 -10 -10 -5 0 -10 5 -10 10 0 6 5
10 10 10 6 0 10 -4 10 -10z m202 -127 c11 -14 1 -36 -13 -28 -5 4 -9 13 -9 22
0 9 -8 25 -17 36 -17 18 -17 20 2 33 19 14 20 13 23 -18 2 -18 8 -38 14 -45z
m-231 11 c7 -8 13 -26 14 -38 0 -21 -2 -23 -27 -14 -26 9 -40 38 -18 38 5 0 7
7 4 15 -8 20 10 19 27 -1z m124 -24 c-3 -5 -10 -10 -16 -10 -5 0 -9 5 -9 10 0
6 7 10 16 10 8 0 12 -4 9 -10z m-155 -44 c0 -8 -4 -18 -10 -21 -5 -3 -10 3
-10 14 0 12 5 21 10 21 6 0 10 -6 10 -14z m144 -25 c-4 -14 -12 -32 -20 -40
-11 -12 -14 -9 -22 20 -11 40 0 59 28 52 16 -4 18 -11 14 -32z m156 24 c0 -8
-4 -15 -9 -15 -5 0 -11 7 -15 15 -3 9 0 15 9 15 8 0 15 -7 15 -15z m62 -47
c-7 -7 -12 -8 -12 -2 0 14 12 26 19 19 2 -3 -1 -11 -7 -17z m-312 -8 c0 -5 -4
-10 -9 -10 -6 0 -13 5 -16 10 -3 6 1 10 9 10 9 0 16 -4 16 -10z m44 -13 c-2
-7 2 -21 10 -32 13 -18 14 -18 39 11 20 23 28 26 38 17 10 -10 7 -18 -14 -37
-15 -14 -27 -30 -27 -36 0 -5 -5 -10 -11 -10 -5 0 -7 5 -4 10 3 6 -1 10 -9 10
-9 0 -16 6 -16 14 0 17 -25 27 -47 19 -9 -4 -14 -2 -11 3 3 5 8 17 11 27 4 9
15 17 26 17 13 0 18 -5 15 -13z m646 -23 c0 -8 -9 -14 -20 -14 -17 0 -19 3 -8
19 13 21 28 19 28 -5z m-797 -14 c3 -11 1 -20 -4 -20 -5 0 -9 9 -9 20 0 11 2
20 4 20 2 0 6 -9 9 -20z m97 -25 c0 -5 -5 -3 -10 5 -5 8 -10 20 -10 25 0 6 5
3 10 -5 5 -8 10 -19 10 -25z m34 -55 c-12 -12 -14 -9 -14 26 0 52 13 65 22 22
5 -23 2 -37 -8 -48z m322 60 c0 -11 -4 -20 -8 -20 -4 0 -8 2 -8 4 0 2 -3 11
-6 20 -4 10 -1 16 8 16 7 0 14 -9 14 -20z m188 -11 c-10 -16 -24 -9 -24 12 0
18 2 19 15 9 8 -7 12 -16 9 -21z m-570 -37 c-4 -9 -6 -23 -5 -30 2 -15 -33 -8
-56 10 -18 14 6 36 35 33 16 -2 20 1 12 10 -5 6 -7 15 -3 19 11 11 25 -24 17
-42z m-199 28 c3 -5 2 -10 -4 -10 -5 0 -13 5 -16 10 -3 6 -2 10 4 10 5 0 13
-4 16 -10z m118 -10 c-3 -11 -14 -20 -24 -20 -27 0 -24 28 4 33 12 2 23 5 24
6 0 0 -1 -8 -4 -19z m535 -11 c2 -5 12 -9 23 -9 19 0 24 -16 11 -37 -6 -10
-33 -17 -100 -27 -30 -4 -23 17 9 24 24 6 42 50 20 50 -6 0 -11 5 -11 11 0 12
43 1 48 -12z m-538 -39 c0 -5 -2 -10 -4 -10 -3 0 -8 5 -11 10 -3 6 -1 10 4 10
6 0 11 -4 11 -10z m530 -70 c0 -5 -5 -10 -11 -10 -5 0 -7 5 -4 10 3 6 8 10 11
10 2 0 4 -4 4 -10z m-236 -39 c-3 -16 -1 -38 6 -50 11 -21 10 -22 -27 -15 -50
9 -52 10 -46 35 4 14 12 19 24 16 12 -3 19 0 20 9 1 8 3 19 4 24 1 6 3 13 4
16 0 3 5 2 11 -1 5 -3 7 -19 4 -34z m564 -1 c7 -11 8 -20 2 -20 -5 0 -14 9
-20 20 -6 11 -7 20 -3 20 5 0 14 -9 21 -20z m-448 -33 c0 -4 9 -18 20 -30 12
-12 16 -23 11 -25 -17 -6 -51 37 -58 71 -5 31 -5 31 10 12 9 -11 17 -24 17
-28z m482 -29 c-9 -9 -12 -7 -12 12 0 19 3 21 12 12 9 -9 9 -15 0 -24z m-561
-72 c7 -14 17 -22 25 -19 8 3 19 -9 28 -32 9 -21 16 -39 16 -41 0 -2 -16 -4
-35 -4 -41 0 -44 -13 -14 -64 19 -33 20 -36 4 -42 -11 -5 -21 -1 -27 9 -5 10
-17 17 -27 17 -14 0 -20 9 -23 33 -4 39 12 75 31 69 10 -3 12 0 8 11 -3 9 -9
32 -13 51 -7 42 10 50 27 12z m163 9 c-4 -8 -8 -15 -10 -15 -2 0 -4 7 -4 15 0
8 4 15 10 15 5 0 7 -7 4 -15z m62 -32 c-12 -12 -29 15 -21 34 7 17 8 16 18 -5
5 -12 7 -25 3 -29z m14 -74 c0 -18 -2 -19 -15 -9 -8 7 -15 16 -15 21 0 5 7 9
15 9 9 0 15 -9 15 -21z m-112 -6 c-10 -2 -26 -2 -35 0 -10 3 -2 5 17 5 19 0
27 -2 18 -5z m215 -47 c17 -13 17 -15 -5 -30 -40 -28 -68 -14 -48 24 12 23 28
25 53 6z m-473 -26 c0 -11 -6 -20 -14 -20 -18 0 -29 16 -21 30 11 18 35 11 35
-10z m569 -7 c17 4 21 1 21 -18 0 -22 -2 -22 -74 -19 -43 2 -78 0 -81 -6 -8
-12 -35 -13 -35 -1 0 10 56 24 87 22 13 -2 26 6 33 20 9 16 14 18 20 9 4 -7
17 -10 29 -7z m-59 -79 c0 -8 -6 -14 -14 -14 -9 0 -12 7 -9 20 6 22 23 18 23
-6z m150 0 c0 -9 -7 -14 -17 -12 -25 5 -28 28 -4 28 12 0 21 -6 21 -16z m-526
-28 c7 -35 21 -46 62 -46 37 0 29 -14 -16 -28 -40 -12 -150 -17 -150 -6 0 14
27 31 45 28 11 -2 27 -1 35 2 13 5 12 7 -2 18 -15 11 -16 17 -5 39 16 36 23
34 31 -7z m52 -3 c-11 -11 -17 4 -9 23 7 18 8 18 11 1 2 -10 1 -21 -2 -24z
m419 17 c8 -13 -5 -13 -25 0 -13 8 -13 10 2 10 9 0 20 -4 23 -10z m-285 -55
c0 -8 -4 -15 -9 -15 -5 0 -14 7 -21 15 -10 13 -9 15 9 15 12 0 21 -6 21 -15z
m145 4 c10 -15 -1 -23 -20 -15 -9 3 -13 10 -10 16 8 13 22 13 30 -1z m-42 -24
c9 -22 -11 -28 -46 -14 l-31 13 24 7 c39 11 47 10 53 -6z m26 -61 c2 -2 -10
-4 -27 -4 -17 0 -34 4 -37 10 -5 9 53 3 64 -6z"/>
<path d="M6464 14195 c-6 -16 2 -35 16 -35 5 0 7 7 4 15 -4 8 -1 15 5 15 6 0
11 5 11 10 0 16 -30 12 -36 -5z"/>
<path d="M6600 14175 c-17 -31 -9 -41 13 -17 9 10 13 23 8 30 -5 9 -11 5 -21
-13z"/>
<path d="M6720 14181 c0 -6 -6 -11 -13 -11 -8 0 -22 -9 -32 -20 -18 -20 -17
-20 12 -20 16 0 38 6 48 14 18 13 18 15 2 30 -9 10 -17 13 -17 7z"/>
<path d="M6536 14135 c-9 -14 -13 -25 -8 -25 16 0 52 32 47 41 -10 15 -22 10
-39 -16z"/>
<path d="M6495 14100 c-3 -5 -1 -10 4 -10 6 0 11 5 11 10 0 6 -2 10 -4 10 -3
0 -8 -4 -11 -10z"/>
<path d="M6395 14059 c-4 -6 -4 -13 -1 -16 8 -8 36 5 36 17 0 13 -27 13 -35
-1z"/>
<path d="M5963 14033 c-22 -8 -14 -23 11 -23 13 0 26 7 30 15 5 15 -15 19 -41
8z"/>
<path d="M6290 14020 c0 -5 5 -10 10 -10 6 0 10 5 10 10 0 6 -4 10 -10 10 -5
0 -10 -4 -10 -10z"/>
<path d="M6004 13894 c3 -9 6 -18 6 -20 0 -3 4 -3 10 1 11 7 2 35 -12 35 -6 0
-7 -7 -4 -16z"/>
<path d="M6395 13901 c-8 -15 3 -31 21 -31 9 0 14 7 12 17 -4 20 -24 28 -33
14z"/>
<path d="M6061 13694 c-32 -41 -27 -54 19 -54 38 0 40 2 34 24 -3 13 -1 27 5
30 19 12 12 26 -13 26 -15 0 -33 -11 -45 -26z"/>
<path d="M5775 13271 c-3 -5 -1 -12 5 -16 5 -3 10 1 10 9 0 18 -6 21 -15 7z"/>
<path d="M5997 13123 c-4 -3 -7 -11 -7 -17 0 -6 5 -5 12 2 6 6 9 14 7 17 -3 3
-9 2 -12 -2z"/>
<path d="M6038 13099 c-22 -12 -24 -49 -3 -49 17 0 28 21 23 44 -2 11 -7 12
-20 5z"/>
<path d="M5425 13080 c3 -5 8 -10 11 -10 2 0 4 5 4 10 0 6 -5 10 -11 10 -5 0
-7 -4 -4 -10z"/>
<path d="M5811 13074 c0 -11 3 -14 6 -6 3 7 2 16 -1 19 -3 4 -6 -2 -5 -13z"/>
<path d="M6106 13073 c-6 -14 -5 -15 5 -6 7 7 10 15 7 18 -3 3 -9 -2 -12 -12z"/>
<path d="M5090 13065 c0 -8 5 -15 10 -15 6 0 10 7 10 15 0 8 -4 15 -10 15 -5
0 -10 -7 -10 -15z"/>
<path d="M6065 13020 c3 -5 8 -10 11 -10 2 0 4 5 4 10 0 6 -5 10 -11 10 -5 0
-7 -4 -4 -10z"/>
<path d="M6037 13003 c-4 -3 -7 -11 -7 -17 0 -6 5 -5 12 2 6 6 9 14 7 17 -3 3
-9 2 -12 -2z"/>
<path d="M5970 12949 c0 -5 5 -7 10 -4 6 3 10 8 10 11 0 2 -4 4 -10 4 -5 0
-10 -5 -10 -11z"/>
<path d="M5225 12880 c3 -5 8 -10 11 -10 2 0 4 5 4 10 0 6 -5 10 -11 10 -5 0
-7 -4 -4 -10z"/>
<path d="M5112 12840 c0 -14 2 -19 5 -12 2 6 2 18 0 25 -3 6 -5 1 -5 -13z"/>
<path d="M5460 12749 c-7 -11 -9 -23 -6 -26 8 -9 36 17 36 33 0 21 -18 17 -30
-7z"/>
<path d="M5370 12733 c0 -12 5 -25 10 -28 13 -8 13 15 0 35 -8 12 -10 11 -10
-7z"/>
<path d="M5008 12581 c-31 -31 -19 -42 16 -16 12 9 16 18 10 24 -5 5 -16 2
-26 -8z"/>
<path d="M4950 12108 c0 -9 -7 -19 -16 -22 -10 -4 -14 -14 -11 -26 3 -11 1
-20 -5 -20 -5 0 -7 -4 -3 -10 3 -5 15 -6 28 -1 18 7 21 15 18 47 -3 39 -11 61
-11 32z"/>
<path d="M4822 12020 c7 -11 16 -20 20 -20 5 0 3 9 -4 20 -7 11 -16 20 -20 20
-5 0 -3 -9 4 -20z"/>
<path d="M4785 11930 c3 -5 8 -10 11 -10 2 0 4 5 4 10 0 6 -5 10 -11 10 -5 0
-7 -4 -4 -10z"/>
<path d="M4897 11924 c-10 -10 -9 -44 1 -44 4 0 13 5 20 12 9 9 12 9 12 0 0
-7 5 -12 10 -12 6 0 10 9 10 21 0 14 -5 19 -14 16 -7 -3 -18 -1 -23 4 -5 5
-12 6 -16 3z"/>
<path d="M4850 11903 c0 -13 5 -23 10 -23 13 0 13 11 0 30 -8 12 -10 11 -10
-7z"/>
<path d="M4820 11841 c0 -5 7 -11 15 -15 8 -3 15 -15 15 -26 0 -11 6 -20 14
-20 23 0 28 18 9 30 -16 10 -15 10 5 5 12 -4 22 -2 22 3 0 12 -29 24 -40 17
-5 -3 -11 -1 -15 5 -8 12 -25 13 -25 1z"/>
<path d="M4810 11791 c0 -6 5 -13 10 -16 6 -3 10 1 10 9 0 9 -4 16 -10 16 -5
0 -10 -4 -10 -9z"/>
<path d="M4890 11748 c0 -15 -4 -30 -10 -33 -6 -3 -7 1 -4 10 4 11 2 14 -9 9
-9 -3 -17 1 -21 13 -3 10 -4 6 -2 -9 2 -16 -1 -28 -5 -28 -18 0 -8 -18 12 -23
14 -4 29 2 44 17 20 20 21 25 9 47 l-13 24 -1 -27z"/>
<path d="M4820 11656 c0 -9 7 -16 16 -16 17 0 14 22 -4 28 -7 2 -12 -3 -12
-12z"/>
<path d="M4940 11505 c0 -8 5 -15 10 -15 6 0 10 7 10 15 0 8 -4 15 -10 15 -5
0 -10 -7 -10 -15z"/>
<path d="M4655 11460 c-4 -7 -1 -16 6 -21 17 -10 26 8 11 23 -6 6 -12 6 -17
-2z"/>
<path d="M4925 11460 c-8 -13 4 -32 16 -25 12 8 12 35 0 35 -6 0 -13 -4 -16
-10z"/>
<path d="M4960 11399 c0 -5 5 -7 10 -4 6 3 10 8 10 11 0 2 -4 4 -10 4 -5 0
-10 -5 -10 -11z"/>
<path d="M4847 11383 c-10 -10 -8 -41 3 -48 17 -10 34 6 19 17 -11 7 -11 11
-1 15 6 2 10 9 6 14 -6 11 -18 12 -27 2z"/>
<path d="M4780 11280 c0 -5 5 -10 10 -10 6 0 10 5 10 10 0 6 -4 10 -10 10 -5
0 -10 -4 -10 -10z"/>
<path d="M4890 11240 c19 -13 30 -13 30 0 0 6 -10 10 -22 10 -19 0 -20 -2 -8
-10z"/>
<path d="M4900 11151 c0 -6 5 -13 10 -16 6 -3 10 1 10 9 0 9 -4 16 -10 16 -5
0 -10 -4 -10 -9z"/>
<path d="M4933 11083 c14 -4 17 -11 13 -28 -4 -14 -1 -25 7 -28 16 -6 20 32 5
50 -6 7 -18 12 -27 12 -13 -1 -12 -2 2 -6z"/>
<path d="M4900 11035 c0 -9 5 -15 11 -13 6 2 11 8 11 13 0 5 -5 11 -11 13 -6
2 -11 -4 -11 -13z"/>
<path d="M4850 10870 c0 -5 7 -10 15 -10 8 0 15 5 15 10 0 6 -7 10 -15 10 -8
0 -15 -4 -15 -10z"/>
<path d="M4855 10760 c-19 -8 -19 -9 3 -9 12 -1 22 4 22 9 0 6 -1 10 -2 9 -2
0 -12 -4 -23 -9z"/>
<path d="M4750 10718 c0 -10 -7 -18 -15 -18 -19 0 -38 -36 -31 -58 3 -9 18
-22 32 -29 26 -12 26 -12 21 22 -4 24 -1 37 8 42 11 7 11 12 0 33 -11 19 -14
21 -15 8z"/>
<path d="M5130 10714 c0 -8 5 -12 10 -9 6 3 10 10 10 16 0 5 -4 9 -10 9 -5 0
-10 -7 -10 -16z"/>
<path d="M5175 10610 c-3 -5 -1 -10 4 -10 6 0 11 5 11 10 0 6 -2 10 -4 10 -3
0 -8 -4 -11 -10z"/>
<path d="M4853 10514 c-3 -8 -1 -20 6 -27 8 -8 11 -4 9 16 -3 31 -6 34 -15 11z"/>
<path d="M5112 10480 c0 -14 2 -19 5 -12 2 6 2 18 0 25 -3 6 -5 1 -5 -13z"/>
<path d="M4996 10329 c-13 -15 -15 -24 -7 -29 7 -3 9 -14 5 -23 -3 -10 -1 -17
5 -17 6 0 11 3 12 8 0 4 2 24 4 45 2 20 3 37 2 37 -2 0 -11 -10 -21 -21z"/>
<path d="M5031 10268 c-6 -10 -9 -23 -5 -29 3 -6 -6 -23 -20 -38 -17 -18 -24
-34 -20 -44 9 -24 34 -21 34 3 0 13 7 20 19 20 11 0 22 6 25 13 3 6 3 -3 0
-22 -4 -23 -2 -36 7 -42 10 -6 6 -9 -12 -9 -15 0 -30 -7 -33 -16 -9 -23 -8
-24 12 -24 10 0 23 -5 29 -11 15 -15 54 -7 67 14 8 14 8 20 -4 27 -12 7 -13
15 -3 40 9 25 9 30 -3 30 -8 0 -14 6 -13 13 2 6 -4 28 -13 48 -19 43 -49 55
-67 27z"/>
<path d="M4685 10120 c-3 -5 -3 -15 1 -21 6 -11 23 6 24 24 0 10 -18 9 -25 -3z"/>
<path d="M4747 10095 c-3 -16 0 -24 7 -22 14 4 21 47 8 47 -5 0 -12 -11 -15
-25z"/>
<path d="M4960 10064 c0 -8 5 -12 10 -9 6 4 8 11 5 16 -9 14 -15 11 -15 -7z"/>
<path d="M4933 10015 c16 -33 41 -43 31 -12 -6 21 -21 37 -36 37 -3 0 -1 -11
5 -25z"/>
<path d="M5082 10020 c-15 -25 -15 -27 3 -27 9 0 15 10 15 24 0 28 -2 28 -18
3z"/>
<path d="M5170 10013 c0 -5 5 -15 10 -23 8 -12 10 -11 10 8 0 12 -4 22 -10 22
-5 0 -10 -3 -10 -7z"/>
<path d="M5190 9841 c-16 -30 -12 -48 12 -54 29 -8 37 1 15 17 -19 14 -23 36
-7 36 6 0 10 5 10 10 0 17 -19 11 -30 -9z"/>
<path d="M4530 9770 c0 -5 5 -10 10 -10 6 0 10 5 10 10 0 6 -4 10 -10 10 -5 0
-10 -4 -10 -10z"/>
<path d="M5201 9754 c0 -11 3 -14 6 -6 3 7 2 16 -1 19 -3 4 -6 -2 -5 -13z"/>
<path d="M5341 9673 c0 -5 4 -17 9 -28 8 -18 9 -17 9 8 1 15 -3 27 -9 27 -5 0
-10 -3 -9 -7z"/>
<path d="M4075 9640 c3 -5 8 -10 11 -10 2 0 4 5 4 10 0 6 -5 10 -11 10 -5 0
-7 -4 -4 -10z"/>
<path d="M5356 9602 c-6 -10 17 -82 26 -82 11 0 10 28 -1 34 -5 3 -7 15 -4 25
5 19 -12 38 -21 23z"/>
<path d="M4312 9537 c-12 -14 -6 -57 8 -57 11 0 18 46 10 60 -5 8 -10 7 -18
-3z"/>
<path d="M5295 9489 c-8 -23 -1 -34 14 -24 13 8 15 45 2 45 -5 0 -13 -9 -16
-21z"/>
<path d="M4650 9484 c0 -9 5 -14 12 -12 18 6 21 28 4 28 -9 0 -16 -7 -16 -16z"/>
<path d="M4650 9426 c0 -22 17 -28 24 -10 9 22 8 24 -9 24 -8 0 -15 -6 -15
-14z"/>
<path d="M5480 9304 c-6 -14 -10 -39 -10 -55 0 -18 -5 -28 -12 -26 -7 1 -13
-4 -12 -10 1 -7 2 -26 3 -43 2 -40 14 -38 30 5 12 34 30 47 32 23 0 -7 4 -4 8
7 4 11 6 41 3 67 -5 54 -27 72 -42 32z"/>
<path d="M5400 9305 c0 -8 4 -15 10 -15 5 0 7 7 4 15 -4 8 -8 15 -10 15 -2 0
-4 -7 -4 -15z"/>
<path d="M4625 9290 c-3 -5 -1 -10 4 -10 6 0 11 5 11 10 0 6 -2 10 -4 10 -3 0
-8 -4 -11 -10z"/>
<path d="M5480 8986 c0 -8 -5 -16 -12 -18 -6 -2 -8 -9 -4 -16 5 -8 12 -6 26 6
24 20 26 42 5 42 -8 0 -15 -6 -15 -14z"/>
<path d="M4508 8909 c-20 -34 -24 -84 -8 -94 6 -4 10 10 10 35 0 22 7 52 16
65 9 14 12 25 8 25 -5 0 -17 -14 -26 -31z"/>
<path d="M5450 8800 c0 -5 5 -10 11 -10 5 0 7 5 4 10 -3 6 -8 10 -11 10 -2 0
-4 -4 -4 -10z"/>
<path d="M5490 8789 c0 -5 5 -7 10 -4 6 3 10 8 10 11 0 2 -4 4 -10 4 -5 0 -10
-5 -10 -11z"/>
<path d="M4612 8470 c0 -14 2 -19 5 -12 2 6 2 18 0 25 -3 6 -5 1 -5 -13z"/>
<path d="M4275 8160 c-15 -17 -17 -27 -9 -57 14 -55 34 -55 34 0 0 25 3 52 6
61 9 22 -9 20 -31 -4z"/>
<path d="M3901 7703 c-12 -23 -15 -53 -5 -53 18 0 33 30 25 51 l-8 23 -12 -21z"/>
<path d="M5040 7697 c0 -15 4 -27 8 -27 10 0 9 36 -1 46 -4 4 -7 -5 -7 -19z"/>
<path d="M5056 7632 c-4 -7 -4 -17 0 -23 3 -6 1 -15 -6 -19 -9 -6 -9 -12 1
-29 19 -30 29 -26 28 12 -1 43 -13 75 -23 59z"/>
<path d="M5168 7633 c6 -2 18 -2 25 0 6 3 1 5 -13 5 -14 0 -19 -2 -12 -5z"/>
<path d="M5218 7587 c7 -8 9 -17 5 -20 -3 -4 -1 -7 5 -7 18 0 14 27 -4 34 -13
5 -14 4 -6 -7z"/>
<path d="M5134 7510 c5 -27 14 -50 18 -50 12 0 10 58 -2 81 -19 35 -27 20 -16
-31z"/>
<path d="M5162 7533 c17 -39 28 -51 28 -27 -1 19 -22 54 -33 54 -4 0 -1 -12 5
-27z"/>
<path d="M5190 7549 c0 -5 5 -7 10 -4 6 3 10 8 10 11 0 2 -4 4 -10 4 -5 0 -10
-5 -10 -11z"/>
<path d="M5170 7466 c0 -9 7 -16 16 -16 9 0 14 5 12 12 -6 18 -28 21 -28 4z"/>
<path d="M5001 7444 c0 -11 3 -14 6 -6 3 7 2 16 -1 19 -3 4 -6 -2 -5 -13z"/>
<path d="M5068 7443 c7 -3 16 -2 19 1 4 3 -2 6 -13 5 -11 0 -14 -3 -6 -6z"/>
<path d="M5160 7401 c0 -28 24 -60 37 -48 6 6 -24 77 -32 77 -3 0 -5 -13 -5
-29z"/>
<path d="M5090 7358 c0 -7 5 -20 10 -28 8 -12 10 -9 10 13 0 15 -4 27 -10 27
-5 0 -10 -6 -10 -12z"/>
<path d="M5127 7219 c-3 -12 0 -27 7 -35 11 -10 13 -7 14 17 1 35 -14 47 -21
18z"/>
<path d="M5196 7041 c-4 -7 -5 -15 -2 -18 9 -9 19 4 14 18 -4 11 -6 11 -12 0z"/>
<path d="M5231 7028 c-1 -16 4 -28 9 -28 12 0 12 8 0 35 -8 18 -9 17 -9 -7z"/>
<path d="M5281 7014 c0 -11 3 -14 6 -6 3 7 2 16 -1 19 -3 4 -6 -2 -5 -13z"/>
<path d="M5155 6960 c-3 -5 -1 -10 4 -10 6 0 11 5 11 10 0 6 -2 10 -4 10 -3 0
-8 -4 -11 -10z"/>
<path d="M5073 6903 c-15 -5 -18 -73 -4 -73 5 0 11 17 13 38 6 43 7 41 -9 35z"/>
<path d="M4772 6728 c9 -7 18 -22 21 -33 4 -16 5 -14 6 6 1 16 -5 29 -15 33
-25 9 -29 7 -12 -6z"/>
<path d="M4736 6692 c-3 -5 1 -15 9 -22 18 -15 20 -56 3 -64 -7 -3 3 -3 22 0
44 8 58 20 42 36 -9 9 -12 9 -12 0 0 -7 -5 -12 -11 -12 -6 0 -9 6 -7 13 5 15
-38 61 -46 49z"/>
<path d="M5110 6666 c0 -8 5 -18 10 -21 6 -3 10 3 10 14 0 12 -4 21 -10 21 -5
0 -10 -6 -10 -14z"/>
<path d="M5160 6659 c0 -11 4 -18 10 -14 5 3 7 12 3 20 -7 21 -13 19 -13 -6z"/>
<path d="M4845 6660 c-3 -5 -1 -10 4 -10 6 0 11 5 11 10 0 6 -2 10 -4 10 -3 0
-8 -4 -11 -10z"/>
<path d="M4835 6600 c-4 -6 -1 -18 6 -26 14 -17 30 -104 18 -104 -4 0 -9 7
-13 15 -8 23 -25 18 -32 -10 -3 -14 -10 -23 -15 -20 -4 3 -13 -11 -18 -32 -14
-48 -14 -63 -1 -63 6 0 10 7 10 15 0 8 7 15 15 15 8 0 15 -7 15 -16 0 -9 -5
-12 -12 -8 -9 5 -9 2 1 -9 7 -9 19 -17 25 -17 8 0 7 3 -1 8 -8 5 -9 13 -3 22
6 8 10 26 10 39 0 19 3 21 14 12 8 -7 12 -21 9 -31 -3 -11 -1 -20 4 -20 5 0
10 -16 11 -35 2 -28 -1 -35 -15 -35 -10 0 -29 7 -41 16 -22 15 -42 12 -42 -7
0 -5 9 -9 20 -9 11 0 20 -5 20 -11 0 -6 6 -9 14 -6 10 4 12 0 9 -14 -4 -13 0
-19 11 -19 9 0 16 7 16 15 0 10 10 15 29 15 17 0 33 5 36 10 10 15 23 12 29
-7 2 -10 3 0 0 22 -2 22 -1 34 2 28 9 -19 24 -15 24 6 0 10 -7 22 -16 25 -10
4 -13 13 -9 26 7 23 -4 45 -24 45 -24 0 -24 23 0 27 34 5 33 23 -2 25 -33 3
-65 33 -47 44 7 5 3 18 -10 37 -12 16 -19 32 -15 36 3 3 -1 6 -10 6 -9 0 -19
-5 -22 -10z m65 -130 c0 -5 -4 -10 -10 -10 -5 0 -10 5 -10 10 0 6 5 10 10 10
6 0 10 -4 10 -10z m18 -63 c2 -10 -3 -17 -12 -17 -10 0 -16 9 -16 21 0 24 23
21 28 -4z m32 -21 c0 -3 -4 -8 -10 -11 -5 -3 -10 -1 -10 4 0 6 5 11 10 11 6 0
10 -2 10 -4z"/>
<path d="M4790 6565 c0 -16 27 -32 37 -21 7 7 -16 36 -28 36 -5 0 -9 -7 -9
-15z"/>
<path d="M5002 6560 c0 -14 2 -19 5 -12 2 6 2 18 0 25 -3 6 -5 1 -5 -13z"/>
<path d="M5034 6538 c3 -12 0 -18 -9 -18 -19 0 -19 -14 -1 -30 8 -6 12 -19 9
-27 -5 -11 -3 -14 6 -9 7 5 11 16 8 26 -3 13 0 16 15 12 16 -4 19 0 16 19 -2
14 -9 23 -17 21 -8 -2 -18 3 -24 10 -6 9 -7 8 -3 -4z"/>
<path d="M5248 6464 c-17 -57 -15 -84 6 -84 8 0 12 13 12 33 0 17 3 49 7 70
12 57 -6 44 -25 -19z"/>
<path d="M5027 6422 c-24 -26 -21 -32 8 -19 14 7 25 18 25 25 0 17 -14 15 -33
-6z"/>
<path d="M5404 6429 c-3 -6 -1 -16 5 -22 8 -8 11 -5 11 11 0 24 -5 28 -16 11z"/>
<path d="M4734 6387 c-8 -23 3 -50 19 -44 13 4 11 36 -4 51 -5 6 -11 3 -15 -7z"/>
<path d="M5025 6370 c-3 -5 -1 -10 4 -10 6 0 11 5 11 10 0 6 -2 10 -4 10 -3 0
-8 -4 -11 -10z"/>
<path d="M5120 6340 c0 -5 5 -10 10 -10 6 0 10 5 10 10 0 6 -4 10 -10 10 -5 0
-10 -4 -10 -10z"/>
<path d="M5370 6308 c0 -9 5 -20 11 -23 17 -11 18 -2 3 19 -12 17 -14 17 -14
4z"/>
<path d="M4771 6140 c-1 -21 16 -46 26 -37 4 5 3 11 -3 15 -6 4 -14 14 -17 22
-5 13 -5 13 -6 0z"/>
<path d="M3361 6104 c0 -11 3 -14 6 -6 3 7 2 16 -1 19 -3 4 -6 -2 -5 -13z"/>
<path d="M4380 6030 c0 -5 5 -10 10 -10 6 0 10 5 10 10 0 6 -4 10 -10 10 -5 0
-10 -4 -10 -10z"/>
<path d="M4898 5863 c5 -21 7 -23 10 -9 2 10 0 22 -6 28 -6 6 -7 0 -4 -19z"/>
<path d="M5042 5765 c-6 -13 -7 -27 -3 -30 5 -2 12 7 15 21 9 35 2 40 -12 9z"/>
<path d="M4671 5624 c0 -11 3 -14 6 -6 3 7 2 16 -1 19 -3 4 -6 -2 -5 -13z"/>
<path d="M5010 5505 c1 -26 2 -28 11 -12 8 14 8 22 0 30 -8 8 -11 3 -11 -18z"/>
<path d="M4563 5383 c-19 -40 -16 -97 5 -116 21 -19 34 -13 25 11 -4 10 -2 13
5 8 14 -8 15 3 3 23 -5 7 -5 28 -1 47 5 19 4 32 -1 28 -5 -3 -9 2 -9 10 0 24
-14 19 -27 -11z"/>
<path d="M4775 5328 c8 -37 12 -44 21 -35 9 9 -6 67 -18 67 -6 0 -7 -13 -3
-32z"/>
<path d="M4995 5250 c-3 -5 -1 -10 4 -10 6 0 11 5 11 10 0 6 -2 10 -4 10 -3 0
-8 -4 -11 -10z"/>
<path d="M4712 5179 c1 -12 9 -24 16 -27 9 -3 13 3 10 19 -1 12 -9 24 -16 27
-9 3 -13 -3 -10 -19z"/>
<path d="M4713 5049 c-16 -16 -17 -49 -3 -49 13 0 23 24 18 45 -2 13 -5 14
-15 4z"/>
<path d="M4460 4929 c0 -24 23 -21 28 4 2 10 -3 17 -12 17 -10 0 -16 -9 -16
-21z"/>
<path d="M4240 4518 c1 -21 21 -58 31 -58 3 0 3 18 1 40 -4 43 -32 58 -32 18z"/>
<path d="M4760 4501 c0 -6 5 -13 10 -16 6 -3 10 1 10 9 0 9 -4 16 -10 16 -5 0
-10 -4 -10 -9z"/>
<path d="M5214 4469 c-10 -17 7 -31 21 -19 8 7 19 9 25 5 5 -3 10 -2 10 3 0
13 -49 22 -56 11z"/>
<path d="M5320 4420 c0 -14 57 -70 71 -70 7 0 -2 13 -19 28 -18 16 -32 34 -32
40 0 7 -4 12 -10 12 -5 0 -10 -4 -10 -10z"/>
<path d="M5850 4350 c-13 -8 -12 -10 3 -10 9 0 17 5 17 10 0 12 -1 12 -20 0z"/>
<path d="M5340 4330 c0 -11 5 -20 10 -20 6 0 10 9 10 20 0 11 -4 20 -10 20 -5
0 -10 -9 -10 -20z"/>
<path d="M5540 4278 c0 -25 3 -29 10 -18 13 20 13 50 0 50 -5 0 -10 -15 -10
-32z"/>
<path d="M4721 4264 c0 -11 3 -14 6 -6 3 7 2 16 -1 19 -3 4 -6 -2 -5 -13z"/>
<path d="M5575 4250 c-3 -5 -1 -10 4 -10 6 0 11 5 11 10 0 6 -2 10 -4 10 -3 0
-8 -4 -11 -10z"/>
<path d="M4560 4215 c0 -8 5 -15 10 -15 6 0 10 7 10 15 0 8 -4 15 -10 15 -5 0
-10 -7 -10 -15z"/>
<path d="M5160 4215 c0 -8 5 -15 10 -15 6 0 10 7 10 15 0 8 -4 15 -10 15 -5 0
-10 -7 -10 -15z"/>
<path d="M5340 4215 c0 -8 2 -15 4 -15 2 0 6 7 10 15 3 8 1 15 -4 15 -6 0 -10
-7 -10 -15z"/>
<path d="M5725 4200 c-3 -5 3 -10 14 -10 12 0 21 5 21 10 0 6 -6 10 -14 10 -8
0 -18 -4 -21 -10z"/>
<path d="M5767 4158 c-7 -25 -3 -33 12 -23 13 8 15 45 2 45 -5 0 -11 -10 -14
-22z"/>
<path d="M5960 4141 c0 -12 6 -21 16 -21 9 0 14 7 12 17 -5 25 -28 28 -28 4z"/>
<path d="M5376 4125 c-3 -8 -1 -15 4 -15 6 0 10 7 10 15 0 8 -2 15 -4 15 -2 0
-6 -7 -10 -15z"/>
<path d="M5607 4133 c-12 -11 -8 -40 8 -53 13 -11 14 -8 9 21 -8 40 -9 41 -17
32z"/>
<path d="M5302 4110 c0 -14 2 -19 5 -12 2 6 2 18 0 25 -3 6 -5 1 -5 -13z"/>
<path d="M5762 4089 c8 -24 8 -33 -2 -39 -37 -23 -39 -121 -4 -161 16 -18 19
-75 4 -84 -16 -10 -12 -45 5 -45 8 0 15 -6 15 -14 0 -16 27 -29 34 -17 3 5 -3
16 -14 26 -21 19 -26 50 -11 59 5 3 7 16 4 27 -5 19 -3 20 18 14 13 -4 28 -14
32 -21 12 -22 27 -16 27 9 0 13 -17 41 -40 65 -45 46 -51 79 -20 107 11 10 20
13 20 7 0 -27 17 -9 27 29 9 36 9 39 -6 33 -18 -7 -26 -8 -58 -6 -16 1 -23 8
-23 22 0 11 -4 20 -9 20 -6 0 -6 -12 1 -31z"/>
<path d="M5930 4107 c0 -10 5 -23 10 -30 6 -7 17 -21 24 -32 12 -16 16 -17 30
-6 21 17 20 45 -1 62 -15 13 -16 12 -11 -8 4 -13 2 -26 -3 -29 -5 -3 -9 -2 -9
3 0 4 -9 19 -20 33 -16 21 -20 22 -20 7z"/>
<path d="M5450 4024 c0 -8 5 -12 10 -9 6 4 8 11 5 16 -9 14 -15 11 -15 -7z"/>
<path d="M5016 4017 c-21 -16 -13 -69 10 -60 8 3 14 0 14 -6 0 -6 4 -11 9 -11
12 0 7 83 -5 87 -5 2 -18 -3 -28 -10z"/>
<path d="M5564 3994 c3 -9 6 -18 6 -20 0 -3 5 -2 10 1 16 10 12 35 -6 35 -11
0 -14 -5 -10 -16z"/>
<path d="M6021 3994 c0 -11 3 -14 6 -6 3 7 2 16 -1 19 -3 4 -6 -2 -5 -13z"/>
<path d="M5610 3979 c0 -5 5 -7 10 -4 6 3 10 8 10 11 0 2 -4 4 -10 4 -5 0 -10
-5 -10 -11z"/>
<path d="M5397 3973 c-12 -12 -7 -22 8 -17 8 4 15 10 15 15 0 11 -14 12 -23 2z"/>
<path d="M5995 3967 c-7 -17 11 -57 26 -57 5 0 7 12 3 28 -9 36 -22 49 -29 29z"/>
<path d="M5600 3939 c0 -5 5 -7 10 -4 6 3 10 8 10 11 0 2 -4 4 -10 4 -5 0 -10
-5 -10 -11z"/>
<path d="M4526 3931 c-11 -17 3 -103 15 -96 11 7 11 62 0 89 -6 14 -10 16 -15
7z"/>
<path d="M5410 3915 c0 -14 5 -25 10 -25 6 0 10 11 10 25 0 14 -4 25 -10 25
-5 0 -10 -11 -10 -25z"/>
<path d="M6055 3920 c-6 -10 15 -50 27 -50 4 0 10 5 13 10 3 6 1 10 -4 10 -6
0 -11 9 -11 20 0 21 -15 27 -25 10z"/>
<path d="M5685 3843 c11 -46 25 -51 25 -10 0 27 -4 37 -16 37 -13 0 -15 -6 -9
-27z"/>
<path d="M5450 3843 c0 -11 7 -26 15 -33 20 -17 20 7 0 34 -15 19 -15 19 -15
-1z"/>
<path d="M4761 3834 c0 -11 3 -14 6 -6 3 7 2 16 -1 19 -3 4 -6 -2 -5 -13z"/>
<path d="M5064 3836 c-3 -8 -1 -23 5 -33 9 -15 10 -13 11 15 0 34 -7 42 -16
18z"/>
<path d="M5994 3839 c-3 -6 -1 -16 5 -22 8 -8 11 -5 11 11 0 24 -5 28 -16 11z"/>
<path d="M5221 3824 c0 -11 3 -14 6 -6 3 7 2 16 -1 19 -3 4 -6 -2 -5 -13z"/>
<path d="M5897 3793 c-4 -21 -9 -50 -13 -66 -5 -22 -3 -26 9 -21 13 5 23 22
29 52 0 4 8 12 16 18 19 14 7 54 -17 54 -13 0 -20 -10 -24 -37z"/>
<path d="M4655 3760 c3 -5 8 -10 11 -10 2 0 4 5 4 10 0 6 -5 10 -11 10 -5 0
-7 -4 -4 -10z"/>
<path d="M4900 3755 c0 -8 5 -15 10 -15 6 0 10 7 10 15 0 8 -4 15 -10 15 -5 0
-10 -7 -10 -15z"/>
<path d="M5632 3754 c4 -21 22 -23 26 -1 2 10 -3 17 -13 17 -10 0 -15 -6 -13
-16z"/>
<path d="M5691 3734 c0 -11 3 -14 6 -6 3 7 2 16 -1 19 -3 4 -6 -2 -5 -13z"/>
<path d="M5090 3731 c0 -6 4 -13 10 -16 6 -3 7 1 4 9 -7 18 -14 21 -14 7z"/>
<path d="M6206 3700 c6 -35 4 -41 -17 -49 -18 -7 -19 -10 -6 -10 9 -1 17 -5
17 -11 0 -16 20 -12 26 5 9 21 -5 105 -17 105 -5 0 -7 -17 -3 -40z"/>
<path d="M4868 3725 c-8 -9 4 -65 13 -59 11 7 12 64 1 64 -5 0 -11 -2 -14 -5z"/>
<path d="M5400 3706 c0 -26 31 -66 50 -66 7 0 8 14 4 38 -8 44 -4 38 -31 46
-20 6 -23 4 -23 -18z"/>
<path d="M5611 3712 c-21 -3 -23 -7 -17 -40 3 -21 6 -46 6 -56 0 -12 3 -16 9
-10 9 11 36 103 30 107 -2 2 -15 1 -28 -1z"/>
<path d="M5820 3712 c0 -4 8 -15 18 -23 9 -9 22 -25 29 -35 11 -17 12 -16 12
12 1 16 -4 35 -11 42 -13 13 -48 16 -48 4z"/>
<path d="M6047 3706 c-4 -10 -5 -21 -2 -24 9 -9 17 6 13 25 -3 17 -4 17 -11
-1z"/>
<path d="M5106 3692 c-3 -6 0 -26 8 -44 13 -30 14 -31 14 -8 1 35 -13 67 -22
52z"/>
<path d="M4791 3664 c0 -11 3 -14 6 -6 3 7 2 16 -1 19 -3 4 -6 -2 -5 -13z"/>
<path d="M6097 3661 c3 -12 10 -21 15 -21 13 0 6 32 -9 37 -7 3 -9 -3 -6 -16z"/>
<path d="M6240 3650 c0 -5 5 -10 11 -10 5 0 7 5 4 10 -3 6 -8 10 -11 10 -2 0
-4 -4 -4 -10z"/>
<path d="M5938 3643 c7 -3 16 -2 19 1 4 3 -2 6 -13 5 -11 0 -14 -3 -6 -6z"/>
<path d="M5810 3610 c0 -5 5 -10 10 -10 6 0 10 5 10 10 0 6 -4 10 -10 10 -5 0
-10 -4 -10 -10z"/>
<path d="M5772 3574 c-18 -12 -22 -25 -22 -68 0 -30 7 -67 15 -82 l15 -29 0
30 c0 17 6 41 13 55 15 29 22 110 10 110 -5 0 -19 -7 -31 -16z"/>
<path d="M5187 3574 c-4 -4 -7 -17 -7 -28 1 -19 1 -20 11 -3 11 19 8 43 -4 31z"/>
<path d="M5333 3555 c-15 -16 -17 -32 -5 -39 4 -3 13 8 19 25 12 31 6 37 -14
14z"/>
<path d="M5937 3493 c-7 -34 18 -68 29 -40 7 20 -3 67 -15 67 -5 0 -11 -12
-14 -27z"/>
<path d="M5452 3458 c-18 -18 -14 -56 7 -69 15 -10 16 -17 8 -39 -11 -28 -4
-60 12 -60 15 0 19 25 11 70 -5 25 -4 55 1 69 7 17 6 27 -3 33 -17 10 -22 10
-36 -4z"/>
<path d="M5876 3445 c-3 -8 -12 -15 -21 -15 -8 0 -15 -4 -15 -10 0 -14 33 -13
48 2 14 14 16 38 3 38 -5 0 -11 -7 -15 -15z"/>
<path d="M5981 3424 c0 -11 3 -14 6 -6 3 7 2 16 -1 19 -3 4 -6 -2 -5 -13z"/>
<path d="M5150 3400 c0 -19 3 -21 12 -12 9 9 9 15 0 24 -9 9 -12 7 -12 -12z"/>
<path d="M5797 3392 c-18 -19 -15 -39 12 -82 5 -8 12 -24 16 -34 10 -32 17
-10 16 50 0 69 -18 95 -44 66z"/>
<path d="M6014 3392 c-15 -10 4 -174 20 -169 15 5 20 47 7 60 -17 17 -13 40 5
33 12 -5 15 2 12 37 -3 42 -19 56 -44 39z"/>
<path d="M4915 3380 c-3 -5 -1 -10 4 -10 6 0 11 5 11 10 0 6 -2 10 -4 10 -3 0
-8 -4 -11 -10z"/>
<path d="M5397 3373 c-7 -11 18 -51 26 -43 3 3 0 16 -7 29 -7 13 -16 19 -19
14z"/>
<path d="M5554 3366 c-7 -19 3 -36 22 -36 10 0 14 8 12 22 -4 26 -26 36 -34
14z"/>
<path d="M5960 3335 c-11 -21 -11 -32 0 -65 18 -54 30 -60 30 -16 0 20 -5 36
-10 36 -7 0 -8 13 -4 35 7 41 2 44 -16 10z"/>
<path d="M5544 3286 c-8 -22 3 -49 19 -43 6 2 12 14 12 27 0 27 -22 39 -31 16z"/>
<path d="M6091 3300 c-2 -3 -5 -21 -8 -40 -3 -26 -2 -32 7 -24 6 6 10 24 7 40
-2 16 -5 27 -6 24z"/>
<path d="M5899 3268 c-1 -7 -1 -19 0 -25 1 -8 -9 -13 -23 -13 -19 0 -26 -7
-31 -31 -8 -35 10 -79 32 -79 7 0 13 11 13 25 0 36 20 74 36 68 23 -9 17 45
-6 57 -15 8 -20 8 -21 -2z"/>
<path d="M5611 3211 c-1 -7 -7 -11 -15 -8 -27 10 -35 -47 -12 -78 30 -41 60
25 36 80 -5 11 -9 14 -9 6z"/>
<path d="M5456 3181 c-4 -7 -5 -15 -2 -18 9 -9 19 4 14 18 -4 11 -6 11 -12 0z"/>
<path d="M5907 3170 c-3 -11 -1 -20 4 -20 5 0 9 9 9 20 0 11 -2 20 -4 20 -2 0
-6 -9 -9 -20z"/>
<path d="M5273 3127 c-31 -46 -39 -90 -19 -110 9 -8 16 -25 16 -36 0 -31 14
-25 29 12 l13 32 8 -33 c10 -41 18 -50 26 -28 4 10 -5 32 -22 57 -25 37 -26
43 -16 73 12 31 8 66 -7 66 -3 0 -16 -15 -28 -33z"/>
<path d="M5691 3144 c0 -11 3 -14 6 -6 3 7 2 16 -1 19 -3 4 -6 -2 -5 -13z"/>
<path d="M5784 3140 c-12 -4 -24 -16 -28 -26 -9 -22 3 -102 16 -110 15 -9 28
17 21 43 -3 15 -1 23 7 23 8 0 11 11 8 30 -4 24 -1 30 14 30 11 0 16 5 13 10
-7 12 -22 12 -51 0z"/>
<path d="M5971 3134 c0 -11 3 -14 6 -6 3 7 2 16 -1 19 -3 4 -6 -2 -5 -13z"/>
<path d="M5930 3100 c0 -5 5 -10 10 -10 6 0 10 5 10 10 0 6 -4 10 -10 10 -5 0
-10 -4 -10 -10z"/>
<path d="M5851 3051 c-8 -5 -11 -16 -8 -25 10 -25 27 -19 27 9 0 28 0 28 -19
16z"/>
<path d="M5690 3036 c0 -8 5 -18 10 -21 6 -3 10 3 10 14 0 12 -4 21 -10 21 -5
0 -10 -6 -10 -14z"/>
<path d="M5991 2986 c-14 -16 -4 -46 15 -46 8 0 14 10 14 24 0 30 -14 41 -29
22z"/>
<path d="M5880 2980 c0 -5 5 -10 11 -10 5 0 7 5 4 10 -3 6 -8 10 -11 10 -2 0
-4 -4 -4 -10z"/>
<path d="M5821 2971 c-15 -10 -8 -41 9 -41 15 0 25 29 14 40 -5 5 -15 5 -23 1z"/>
<path d="M5210 2946 c0 -39 12 -86 22 -86 5 0 6 10 2 23 -4 12 -6 37 -5 55 1
17 -3 32 -9 32 -5 0 -10 -11 -10 -24z"/>
<path d="M5681 2934 c0 -11 3 -14 6 -6 3 7 2 16 -1 19 -3 4 -6 -2 -5 -13z"/>
<path d="M5880 2896 c0 -14 5 -26 10 -26 6 0 10 7 10 15 0 8 0 18 1 22 0 4 -4
9 -10 11 -6 2 -11 -8 -11 -22z"/>
<path d="M5827 2883 c-18 -38 -12 -61 27 -108 l34 -40 8 29 c6 24 3 32 -14 44
-17 11 -22 24 -22 58 0 50 -13 57 -33 17z"/>
<path d="M5110 2879 c0 -11 5 -17 10 -14 6 3 10 13 10 21 0 8 -4 14 -10 14 -5
0 -10 -9 -10 -21z"/>
<path d="M5370 2874 c0 -8 5 -12 10 -9 6 3 10 10 10 16 0 5 -4 9 -10 9 -5 0
-10 -7 -10 -16z"/>
<path d="M5442 2865 c0 -16 2 -22 5 -12 2 9 2 23 0 30 -3 6 -5 -1 -5 -18z"/>
<path d="M6000 2831 c0 -10 7 -21 15 -25 11 -4 15 1 15 19 0 16 -6 25 -15 25
-8 0 -15 -9 -15 -19z"/>
<path d="M5413 2793 c-15 -6 -17 -39 -3 -48 12 -7 23 17 18 38 -1 8 -9 12 -15
10z"/>
<path d="M5728 2769 c-23 -13 -23 -25 0 -54 l19 -24 10 32 c15 51 5 66 -29 46z"/>
<path d="M5942 2769 c-3 -23 -53 -71 -69 -65 -14 6 -18 -38 -7 -68 9 -22 24
-20 24 4 0 10 14 33 31 51 24 24 29 38 26 62 -2 18 -5 25 -5 16z"/>
<path d="M5785 2726 c-3 -9 -7 -22 -9 -30 -5 -14 12 -36 26 -36 12 0 10 68 -2
75 -6 3 -12 -1 -15 -9z"/>
<path d="M6007 2693 c-23 -24 -29 -26 -37 -13 -8 13 -10 13 -10 -2 0 -10 -11
-25 -25 -34 -17 -11 -25 -25 -24 -43 l1 -26 10 29 11 29 12 -29 c11 -28 12
-28 19 -6 11 34 22 27 36 -23 22 -77 35 -72 36 13 1 43 5 89 9 105 4 15 3 27
-2 27 -4 0 -21 -12 -36 -27z"/>
<path d="M6165 2669 c-4 -6 -5 -12 -2 -15 2 -3 7 2 10 11 7 17 1 20 -8 4z"/>
<path d="M5486 2655 c-5 -14 18 -38 45 -48 17 -6 19 13 6 43 -9 20 -44 23 -51
5z"/>
<path d="M5600 2655 c7 -8 17 -15 22 -15 6 0 5 7 -2 15 -7 8 -17 15 -22 15 -6
0 -5 -7 2 -15z"/>
<path d="M5400 2640 c0 -6 -11 -21 -25 -33 -37 -32 -37 -98 0 -161 15 -26 38
-51 50 -56 13 -5 26 -23 34 -49 13 -46 31 -55 31 -16 0 30 3 30 38 8 l27 -18
-29 40 c-16 22 -36 47 -45 55 -30 27 -67 103 -53 107 21 8 15 71 -9 84 -15 8
-18 14 -10 22 14 14 14 27 1 27 -5 0 -10 -5 -10 -10z m-25 -120 c3 -5 1 -10
-4 -10 -6 0 -11 5 -11 10 0 6 2 10 4 10 3 0 8 -4 11 -10z"/>
<path d="M5448 2631 c-7 -24 6 -51 23 -51 5 0 9 9 9 20 0 11 -4 20 -9 20 -5 0
-11 8 -13 18 -3 13 -5 11 -10 -7z"/>
<path d="M5595 2610 c-7 -12 2 -30 16 -30 12 0 12 27 0 35 -5 3 -12 1 -16 -5z"/>
<path d="M5855 2600 c-4 -6 -3 -16 3 -22 6 -6 12 -6 17 2 4 6 3 16 -3 22 -6 6
-12 6 -17 -2z"/>
<path d="M6156 2592 c-8 -13 3 -42 15 -42 11 0 11 21 0 39 -5 8 -11 9 -15 3z"/>
<path d="M4970 2564 c0 -8 5 -12 10 -9 6 4 8 11 5 16 -9 14 -15 11 -15 -7z"/>
<path d="M5471 2544 c0 -11 3 -14 6 -6 3 7 2 16 -1 19 -3 4 -6 -2 -5 -13z"/>
<path d="M5850 2525 c0 -8 5 -15 10 -15 6 0 10 7 10 15 0 8 -4 15 -10 15 -5 0
-10 -7 -10 -15z"/>
<path d="M6086 2532 c-3 -6 -1 -14 5 -17 14 -9 20 -2 10 14 -6 8 -11 9 -15 3z"/>
<path d="M5443 2508 c2 -7 10 -13 17 -13 7 0 15 6 18 13 2 7 -5 12 -18 12 -13
0 -20 -5 -17 -12z"/>
<path d="M6267 2513 c-4 -3 -7 -11 -7 -17 0 -6 5 -5 12 2 6 6 9 14 7 17 -3 3
-9 2 -12 -2z"/>
<path d="M6160 2483 c0 -6 -9 -9 -20 -6 -12 3 -20 0 -20 -7 0 -8 -9 -10 -25
-6 -25 6 -25 5 -21 -39 3 -34 1 -48 -9 -52 -8 -2 -17 -21 -20 -41 -3 -21 -11
-45 -16 -55 -14 -25 -6 -31 21 -15 18 11 23 11 34 -4 7 -10 15 -18 17 -18 2 0
5 24 7 53 1 28 4 61 6 72 3 11 5 26 5 33 1 6 7 12 14 12 12 0 40 70 31 79 -2
2 -4 0 -4 -6z"/>
<path d="M5906 2433 c-3 -3 -6 -22 -6 -42 1 -34 2 -35 15 -17 8 11 15 28 15
37 0 20 -14 32 -24 22z"/>
<path d="M6290 2395 c0 -8 5 -15 10 -15 6 0 10 7 10 15 0 8 -4 15 -10 15 -5 0
-10 -7 -10 -15z"/>
<path d="M6230 2390 c0 -6 -7 -10 -16 -8 -28 5 -27 -20 1 -46 17 -16 22 -27
15 -31 -7 -4 -9 -18 -6 -34 l6 -26 -20 24 c-20 23 -20 23 -20 2 0 -12 5 -19
10 -16 6 3 10 -3 10 -15 0 -12 5 -18 10 -15 10 6 14 -7 11 -32 -1 -6 7 -17 17
-25 24 -17 34 -55 16 -62 -26 -10 -15 -33 16 -33 22 0 30 5 30 18 0 10 -4 21
-10 24 -5 3 -10 19 -10 36 0 21 -5 29 -18 29 -10 0 -19 6 -19 13 0 6 -4 24 -8
40 -5 17 -3 27 4 27 6 0 11 9 11 19 0 11 4 22 9 26 5 3 -2 17 -15 30 -17 17
-23 32 -19 45 4 11 4 20 1 20 -3 0 -6 -5 -6 -10z"/>
<path d="M6302 2338 c2 -12 9 -23 16 -26 18 -6 15 35 -4 42 -11 4 -15 0 -12
-16z"/>
<path d="M5960 2301 c0 -12 9 -20 23 -23 20 -4 23 -1 19 19 -5 29 -42 32 -42
4z"/>
<path d="M5919 2298 c-1 -1 -2 -25 -4 -53 -1 -27 -5 -60 -9 -73 -6 -19 -1 -30
30 -57 21 -19 42 -31 48 -28 6 4 6 8 -2 11 -7 2 -12 14 -12 27 0 13 -5 36 -12
52 -6 15 -12 48 -12 72 -1 26 -6 46 -13 48 -7 3 -14 3 -14 1z"/>
<path d="M4812 2260 c15 -24 33 -27 24 -4 -3 9 -6 18 -6 20 0 2 -7 4 -15 4
-13 0 -13 -3 -3 -20z"/>
<path d="M5000 2255 c0 -8 5 -15 10 -15 6 0 10 7 10 15 0 8 -4 15 -10 15 -5 0
-10 -7 -10 -15z"/>
<path d="M6386 2241 c-4 -5 -2 -12 4 -16 6 -4 8 -10 6 -14 -3 -4 1 -8 9 -8 19
0 19 21 1 36 -9 8 -16 8 -20 2z"/>
<path d="M5744 2208 c10 -53 19 -53 29 0 6 28 4 32 -14 32 -19 0 -21 -4 -15
-32z"/>
<path d="M5576 2213 c-11 -12 -6 -41 9 -47 11 -4 15 1 15 19 0 25 -12 39 -24
28z"/>
<path d="M6022 2159 c2 -7 10 -15 17 -17 8 -3 12 1 9 9 -2 7 -10 15 -17 17 -8
3 -12 -1 -9 -9z"/>
<path d="M6072 2125 c3 -33 6 -38 31 -41 35 -3 34 6 -4 47 l-30 33 3 -39z"/>
<path d="M6207 2123 c-6 -34 1 -44 14 -20 6 10 16 14 22 10 7 -3 3 3 -7 15
-11 12 -20 22 -21 22 -2 0 -5 -12 -8 -27z"/>
<path d="M5091 2124 c0 -11 3 -14 6 -6 3 7 2 16 -1 19 -3 4 -6 -2 -5 -13z"/>
<path d="M5710 2100 c0 -19 7 -33 21 -40 28 -15 32 -9 18 26 -7 16 -12 32 -11
37 1 4 -5 7 -13 7 -10 0 -15 -10 -15 -30z"/>
<path d="M5922 2070 c0 -14 2 -19 5 -12 2 6 2 18 0 25 -3 6 -5 1 -5 -13z"/>
<path d="M6123 2048 c-4 -7 -18 -19 -30 -26 -20 -10 -23 -10 -23 4 0 8 -5 12
-11 8 -6 -3 -8 -15 -5 -27 3 -13 -5 -30 -26 -53 -35 -36 -50 -34 -93 12 -24
26 -35 30 -35 13 0 -6 22 -32 49 -58 49 -46 58 -72 65 -177 1 -18 5 -20 22
-14 24 9 81 -19 90 -45 4 -8 10 -15 15 -15 6 0 19 -9 31 -19 22 -21 44 -18 66
8 11 14 13 11 9 -17 -3 -28 0 -35 19 -42 12 -5 25 -18 29 -30 9 -28 30 -20 28
11 -3 46 8 56 23 20 16 -39 17 -44 5 -37 -5 4 -7 -2 -4 -12 2 -10 20 -26 38
-36 31 -17 35 -17 50 -2 9 9 12 16 6 16 -6 0 -11 11 -11 25 0 14 6 25 13 25 7
0 18 14 24 31 14 36 1 45 -47 35 -20 -4 -30 -1 -30 7 0 6 -14 13 -32 14 -18 1
-36 9 -40 18 -5 8 -13 15 -19 15 -5 0 -19 9 -31 20 -12 11 -29 20 -39 20 -9 0
-19 6 -22 14 -3 8 -14 12 -24 10 -13 -4 -24 5 -38 32 -23 43 -21 74 9 129 17
30 32 42 61 51 53 15 54 30 3 53 -65 29 -86 33 -95 19z m43 -55 c-10 -10 -19
5 -10 18 6 11 8 11 12 0 2 -7 1 -15 -2 -18z m-76 -48 c0 -8 -7 -15 -16 -15
-14 0 -14 3 -4 15 7 8 14 15 16 15 2 0 4 -7 4 -15z m-40 -42 c0 -25 -1 -26
-16 -11 -9 9 -13 21 -10 27 13 20 26 11 26 -16z m52 -155 c-9 -9 -12 -7 -12
12 0 19 3 21 12 12 9 -9 9 -15 0 -24z"/>
<path d="M6240 2045 c0 -8 4 -15 10 -15 5 0 7 7 4 15 -4 8 -8 15 -10 15 -2 0
-4 -7 -4 -15z"/>
<path d="M5277 1984 c-8 -8 1 -24 14 -24 5 0 9 7 9 15 0 15 -12 20 -23 9z"/>
<path d="M6390 1931 c0 -12 5 -21 10 -21 6 0 10 6 10 14 0 8 -4 18 -10 21 -5
3 -10 -3 -10 -14z"/>
<path d="M5175 1910 c3 -5 8 -10 11 -10 2 0 4 5 4 10 0 6 -5 10 -11 10 -5 0
-7 -4 -4 -10z"/>
<path d="M5370 1896 c0 -16 28 -42 36 -33 8 7 -14 47 -26 47 -6 0 -10 -6 -10
-14z"/>
<path d="M6276 1877 c3 -10 9 -15 12 -12 3 3 0 11 -7 18 -10 9 -11 8 -5 -6z"/>
<path d="M6320 1860 c0 -5 5 -10 10 -10 6 0 10 5 10 10 0 6 -4 10 -10 10 -5 0
-10 -4 -10 -10z"/>
<path d="M5440 1808 c0 -25 3 -29 10 -18 13 20 13 50 0 50 -5 0 -10 -15 -10
-32z"/>
<path d="M6205 1820 c3 -5 8 -10 11 -10 2 0 4 5 4 10 0 6 -5 10 -11 10 -5 0
-7 -4 -4 -10z"/>
<path d="M5060 1756 c0 -8 7 -16 15 -20 9 -3 15 0 15 8 0 8 -7 16 -15 20 -9 3
-15 0 -15 -8z"/>
<path d="M5610 1715 c-16 -20 -8 -66 14 -79 11 -6 28 -19 38 -28 20 -20 58
-24 58 -7 0 6 -11 24 -25 41 -25 30 -34 68 -15 68 6 0 10 4 10 8 0 15 -67 12
-80 -3z"/>
<path d="M6470 1670 c0 -5 5 -10 11 -10 5 0 7 5 4 10 -3 6 -8 10 -11 10 -2 0
-4 -4 -4 -10z"/>
<path d="M6511 1654 c0 -11 3 -14 6 -6 3 7 2 16 -1 19 -3 4 -6 -2 -5 -13z"/>
<path d="M6011 1636 c-9 -10 -8 -21 0 -42 7 -16 11 -34 10 -41 -1 -6 3 -14 9
-18 5 -3 10 -13 10 -21 0 -37 109 -123 183 -143 26 -8 50 -11 54 -7 12 11 -19
54 -48 66 -33 14 -37 23 -34 73 1 21 -2 40 -6 43 -19 11 -85 10 -97 -3 -15
-15 -42 -18 -42 -4 0 5 6 12 13 15 10 5 10 7 0 12 -7 3 -13 23 -13 45 0 41
-17 52 -39 25z"/>
<path d="M4820 1530 c0 -5 5 -10 11 -10 5 0 7 5 4 10 -3 6 -8 10 -11 10 -2 0
-4 -4 -4 -10z"/>
<path d="M5891 1494 c0 -11 3 -14 6 -6 3 7 2 16 -1 19 -3 4 -6 -2 -5 -13z"/>
<path d="M5165 1439 c-9 -14 26 -52 38 -40 12 12 -1 51 -18 51 -8 0 -17 -5
-20 -11z"/>
<path d="M5980 1401 c0 -5 5 -13 10 -16 6 -3 10 -2 10 4 0 5 -4 13 -10 16 -5
3 -10 2 -10 -4z"/>
<path d="M6150 1360 c0 -6 7 -10 15 -10 8 0 15 2 15 4 0 2 -7 6 -15 10 -8 3
-15 1 -15 -4z"/>
<path d="M6305 1350 c-3 -5 -1 -10 4 -10 6 0 11 5 11 10 0 6 -2 10 -4 10 -3 0
-8 -4 -11 -10z"/>
<path d="M6083 1303 c-23 -9 -14 -41 13 -47 34 -9 37 -4 23 28 -13 27 -15 28
-36 19z"/>
<path d="M6251 1274 c0 -11 3 -14 6 -6 3 7 2 16 -1 19 -3 4 -6 -2 -5 -13z"/>
<path d="M5450 1231 c0 -21 43 -41 58 -27 11 11 -14 41 -37 44 -16 3 -21 -2
-21 -17z"/>
<path d="M6352 1218 c-12 -12 -17 -38 -6 -38 14 0 36 32 27 41 -5 5 -14 4 -21
-3z"/>
<path d="M6216 1197 c-17 -12 -17 -15 4 -52 21 -37 21 -40 4 -52 -23 -17 -13
-26 19 -17 27 6 31 13 41 76 6 30 3 39 -13 47 -25 14 -33 14 -55 -2z"/>
<path d="M6115 1170 c-8 -13 20 -24 40 -16 8 3 15 10 15 16 0 13 -47 13 -55 0z"/>
<path d="M6060 1148 c0 -12 7 -18 23 -17 15 0 17 2 7 6 -8 3 -18 11 -22 17 -5
7 -8 4 -8 -6z"/>
<path d="M5760 1145 c0 -5 5 -17 10 -25 5 -8 10 -10 10 -5 0 6 -5 17 -10 25
-5 8 -10 11 -10 5z"/>
<path d="M6323 1064 c-4 -11 -13 -14 -29 -10 -13 4 -23 3 -22 -1 1 -5 -6 -20
-16 -35 -15 -23 -21 -26 -37 -17 -23 12 -62 2 -56 -14 2 -7 22 -22 45 -34 45
-24 48 -21 44 30 -1 12 5 17 21 16 26 -1 108 -26 90 -28 -7 -1 -13 -10 -13
-22 0 -12 -8 -23 -20 -26 -21 -6 -27 -37 -10 -48 6 -4 17 -23 25 -42 11 -27
18 -34 26 -26 8 8 7 18 -5 34 -9 13 -16 29 -16 35 0 21 38 22 75 3 19 -10 42
-19 50 -19 8 0 15 -4 15 -10 0 -5 4 -10 8 -10 5 0 7 13 4 29 -2 16 1 32 7 35
15 10 14 36 -1 36 -7 0 -33 10 -58 22 -25 12 -50 20 -56 19 -6 0 -17 6 -24 15
-12 13 -9 19 14 39 27 23 27 24 7 34 -29 16 -61 13 -68 -5z m77 -139 c0 -8 -6
-12 -14 -9 -8 3 -12 12 -9 20 6 17 23 9 23 -11z"/>
<path d="M6420 1010 c0 -5 7 -10 15 -10 8 0 15 5 15 10 0 6 -7 10 -15 10 -8 0
-15 -4 -15 -10z"/>
<path d="M5825 940 c4 -6 11 -8 16 -5 14 9 11 15 -7 15 -8 0 -12 -5 -9 -10z"/>
<path d="M5870 875 c0 -22 39 -43 95 -50 l50 -6 -36 20 c-19 11 -41 27 -48 35
-17 20 -61 21 -61 1z"/>
<path d="M6070 870 c0 -5 7 -10 15 -10 8 0 15 5 15 10 0 6 -7 10 -15 10 -8 0
-15 -4 -15 -10z"/>
<path d="M6173 848 c2 -30 5 -33 40 -36 l38 -3 -15 29 c-14 27 -34 42 -57 42
-5 0 -8 -15 -6 -32z"/>
<path d="M6430 813 c0 -2 11 -14 25 -27 14 -13 25 -31 25 -40 0 -9 5 -16 10
-16 13 0 13 27 0 35 -6 4 -8 15 -5 25 4 14 -1 19 -25 22 -16 3 -30 3 -30 1z"/>
<path d="M6565 781 c-3 -5 -2 -12 3 -15 12 -7 52 4 52 15 0 12 -47 12 -55 0z"/>
<path d="M6320 745 c0 -10 29 -24 34 -17 3 6 -3 12 -14 15 -11 3 -20 4 -20 2z"/>
<path d="M6620 734 c0 -8 5 -12 10 -9 6 3 10 10 10 16 0 5 -4 9 -10 9 -5 0
-10 -7 -10 -16z"/>
<path d="M5166 7883 c-6 -14 -5 -15 5 -6 7 7 10 15 7 18 -3 3 -9 -2 -12 -12z"/>
<path d="M5765 7330 c-3 -5 1 -10 9 -10 9 0 16 5 16 10 0 6 -4 10 -9 10 -6 0
-13 -4 -16 -10z"/>
<path d="M5770 7292 c0 -11 9 -22 20 -25 17 -4 18 -2 10 13 -15 28 -30 34 -30
12z"/>
<path d="M6840 1779 c0 -11 5 -17 10 -14 6 3 10 13 10 21 0 8 -4 14 -10 14 -5
0 -10 -9 -10 -21z"/>
</g>
</svg>
