<?xml version="1.0" standalone="no"?>
<!DOCTYPE svg PUBLIC "-//W3C//DTD SVG 20010904//EN"
 "http://www.w3.org/TR/2001/REC-SVG-20010904/DTD/svg10.dtd">
<svg version="1.0" xmlns="http://www.w3.org/2000/svg"
 width="1000.000000pt" height="698.000000pt" viewBox="0 0 1000.000000 698.000000"
 preserveAspectRatio="xMidYMid meet">

<g transform="translate(0.000000,698.000000) scale(0.100000,-0.100000)"
fill="#000000" stroke="none">
<path d="M0 3490 l0 -3490 5000 0 5000 0 0 3490 0 3490 -5000 0 -5000 0 0
-3490z m5236 3035 c22 -16 38 -20 29 -6 -3 5 -1 12 5 16 5 3 10 2 10 -3 0 -10
47 -27 67 -23 7 1 9 -7 6 -20 -6 -21 -23 -22 -67 -4 -14 6 -17 4 -14 -5 10
-32 110 -35 122 -4 9 23 28 17 21 -7 -6 -18 -4 -20 14 -14 16 5 19 3 15 -8 -3
-9 3 -17 17 -20 13 -4 20 -9 17 -12 -3 -4 -16 -1 -28 5 -16 9 -25 9 -33 1 -8
-8 -5 -11 11 -11 14 0 22 -6 22 -16 0 -12 -6 -15 -25 -10 -22 6 -25 3 -25 -21
0 -19 -3 -24 -9 -15 -4 7 -6 24 -3 38 3 20 0 24 -18 24 -18 0 -21 -4 -18 -25
3 -14 1 -25 -3 -25 -5 0 -8 -3 -8 -7 1 -5 1 -17 0 -28 -1 -16 -3 -17 -10 -6
-6 9 -6 22 1 34 9 17 8 19 -6 14 -9 -4 -16 -1 -16 5 0 9 -3 9 -12 0 -10 -10
-10 -15 2 -22 10 -7 0 -8 -31 -4 -30 4 -49 2 -53 -5 -5 -8 -13 -8 -29 0 l-22
12 20 -23 20 -23 -25 5 c-14 3 -40 9 -57 13 -31 7 -33 6 -33 -19 0 -23 -2 -25
-19 -16 -29 15 -41 12 -41 -10 0 -23 -10 -26 -29 -7 -10 10 -16 8 -30 -10 -14
-17 -21 -19 -30 -10 -9 9 -14 9 -21 -2 -6 -11 -12 -12 -22 -3 -11 9 -17 7 -28
-8 -8 -11 -19 -20 -26 -20 -13 0 -64 -56 -64 -70 0 -13 6 -13 30 0 10 5 26 7
34 4 20 -8 21 -33 2 -40 -22 -8 -28 -34 -8 -32 56 4 64 -24 14 -55 -25 -15
-26 -16 -5 -17 12 0 29 -3 38 -6 11 -5 18 0 21 13 7 25 61 66 75 57 6 -3 31
-8 55 -10 34 -3 57 2 96 21 50 25 96 30 90 10 -2 -5 -15 -8 -29 -7 -20 3 -25
0 -20 -12 5 -12 0 -16 -15 -16 -16 0 -18 -3 -9 -14 10 -11 8 -17 -6 -26 -16
-10 -15 -10 5 -5 17 5 22 2 22 -14 0 -22 -15 -36 -24 -22 -3 5 -23 7 -45 4
-30 -4 -41 -1 -52 14 -14 20 -89 37 -89 21 0 -4 -6 -7 -12 -6 -7 2 -14 -7 -16
-19 -2 -15 -10 -23 -23 -23 -10 0 -19 -7 -19 -15 0 -9 -9 -15 -24 -15 -13 0
-29 -7 -36 -15 -7 -8 -21 -15 -30 -15 -10 0 -32 -11 -48 -25 -16 -13 -32 -22
-36 -18 -3 3 -6 -3 -6 -13 0 -29 -20 -46 -37 -33 -10 9 -13 5 -13 -17 0 -29
-1 -29 -18 -9 -36 44 -65 50 -145 33 -115 -25 -145 -44 -182 -113 -18 -33 -35
-75 -38 -92 -6 -28 -4 -33 13 -33 11 0 20 -4 20 -9 0 -15 -18 -23 -25 -11 -10
16 -20 12 -56 -20 -19 -16 -41 -32 -49 -35 -17 -6 -43 -55 -29 -55 16 0 10
-20 -8 -27 -10 -4 -21 -11 -25 -17 -6 -7 -11 -6 -18 4 -8 12 -11 13 -19 1 -5
-8 -16 -11 -30 -6 -15 4 -23 1 -28 -10 -7 -19 15 -37 35 -30 7 2 12 -4 12 -16
0 -11 -8 -22 -17 -26 -33 -12 -45 -25 -31 -34 9 -6 6 -9 -9 -9 -30 0 -38 17
-14 31 10 7 17 19 14 26 -7 19 -47 16 -74 -6 -22 -18 -26 -18 -41 -4 -16 15
-20 15 -38 -2 -11 -10 -20 -24 -20 -32 0 -8 -4 -11 -10 -8 -17 11 -11 101 11
151 12 29 19 65 18 89 -3 32 0 39 13 37 9 -1 18 7 21 19 3 11 15 23 26 26 23
6 27 18 10 29 -6 3 -9 19 -7 34 4 23 1 26 -19 24 -13 -1 -35 -9 -48 -18 -13
-9 -36 -16 -49 -16 -16 0 -41 -15 -67 -40 -23 -22 -46 -40 -51 -40 -4 0 -8 -4
-8 -9 0 -15 -57 -71 -73 -71 -22 0 -32 21 -16 31 11 7 9 9 -6 9 -11 0 -31 -7
-43 -16 -12 -8 -22 -10 -22 -5 0 6 5 11 11 11 8 0 8 4 1 13 -10 12 -5 67 7 67
3 0 12 10 20 23 l14 22 -25 -22 c-13 -13 -29 -23 -35 -23 -6 0 -13 -5 -15 -12
-2 -6 -10 -8 -16 -4 -9 5 -8 11 3 22 16 17 20 34 7 34 -5 0 -17 -9 -27 -20
-10 -11 -22 -17 -28 -13 -6 3 -7 1 -3 -5 4 -7 2 -12 -4 -12 -7 0 -9 -7 -6 -16
4 -10 -1 -25 -10 -35 -16 -18 -16 -19 0 -19 9 0 19 7 22 15 6 15 24 11 24 -5
0 -12 -78 -33 -95 -26 -7 2 -21 -5 -32 -16 -18 -21 -18 -21 5 -15 27 6 26 -10
-1 -27 -13 -8 -20 -7 -26 3 -7 11 -10 9 -13 -10 -2 -13 -9 -23 -16 -21 -6 1
-12 -1 -12 -5 0 -5 -11 -21 -25 -37 -14 -16 -25 -33 -25 -38 0 -5 -6 -8 -12
-5 -16 5 -48 -10 -48 -24 0 -6 8 -5 21 2 21 11 22 10 15 -22 -6 -29 -35 -69
-51 -69 -3 0 -3 17 0 38 6 35 5 36 -9 18 -9 -11 -16 -28 -16 -37 0 -9 -35 -53
-77 -97 -50 -51 -86 -98 -100 -131 l-21 -50 21 2 c12 1 27 13 34 27 9 19 12
21 13 7 0 -24 20 -11 20 14 0 10 5 19 10 19 6 0 10 -10 10 -23 0 -12 9 -28 21
-35 18 -11 23 -11 35 5 13 17 15 17 29 -1 21 -28 19 -34 -19 -72 -19 -19 -36
-41 -38 -50 -2 -8 -7 -14 -12 -14 -4 1 -19 -15 -32 -34 -15 -22 -33 -36 -46
-36 -16 0 -19 -5 -16 -25 3 -13 2 -22 -2 -20 -4 2 -11 -27 -17 -66 -6 -38 -17
-77 -24 -86 -8 -9 -14 -23 -14 -31 0 -8 -6 -17 -14 -20 -10 -3 -12 2 -7 21 6
24 4 25 -22 18 -18 -5 -28 -15 -30 -32 -2 -13 -9 -30 -14 -36 -8 -10 -6 -13 6
-13 10 0 16 -8 16 -22 -1 -23 -23 -62 -31 -53 -3 2 -3 -14 -1 -35 2 -22 -2
-51 -11 -67 -8 -15 -21 -41 -30 -58 -22 -40 -12 -46 18 -11 14 16 25 26 25 21
0 -4 7 -2 15 5 12 10 15 10 15 -4 0 -9 -8 -16 -18 -16 -10 0 -25 -11 -32 -25
-14 -27 -5 -49 10 -25 14 22 13 -15 -1 -41 -13 -25 4 -49 30 -42 21 5 34 -10
36 -43 0 -15 -6 -25 -19 -28 -17 -4 -18 -7 -5 -22 7 -9 12 -27 11 -40 -2 -15
3 -24 16 -29 27 -8 36 -34 18 -54 -14 -15 -13 -18 4 -29 21 -13 27 -42 10 -42
-18 0 -10 -22 15 -42 19 -15 24 -25 19 -44 -4 -15 -2 -24 6 -24 7 0 9 -8 5
-19 -3 -11 1 -25 10 -34 28 -28 18 -40 -27 -34 -24 3 -35 3 -24 0 15 -4 17
-12 13 -46 -7 -52 2 -97 18 -97 19 0 26 -27 15 -56 -14 -36 -12 -47 5 -40 26
10 45 -5 45 -34 0 -42 18 -81 39 -87 13 -3 17 -11 13 -29 -3 -16 3 -33 15 -47
11 -12 26 -37 33 -55 12 -30 14 -31 26 -15 11 16 12 13 7 -20 -5 -34 -3 -42
23 -62 22 -18 26 -26 17 -36 -16 -20 -4 -71 19 -77 11 -3 17 -10 14 -19 -6
-15 14 -53 28 -53 5 0 17 -7 26 -15 18 -16 60 -9 60 11 0 7 -4 15 -9 18 -4 3
-7 16 -6 28 1 13 3 29 4 36 0 7 10 20 21 29 11 10 20 23 20 30 0 16 40 27 53
14 8 -8 6 -15 -8 -24 -10 -8 -15 -19 -11 -26 6 -9 11 -9 22 0 11 9 14 8 14 -5
0 -9 -4 -16 -10 -16 -5 0 -10 -4 -10 -10 0 -5 9 -10 20 -10 19 0 25 -14 21
-47 -1 -7 5 -13 14 -13 8 0 15 -4 15 -10 0 -5 -10 -9 -22 -7 -19 2 -23 -3 -23
-28 0 -36 25 -41 40 -7 5 12 16 20 23 17 21 -8 73 7 80 23 3 9 -4 22 -16 33
-12 9 -22 27 -22 39 0 19 1 20 16 6 18 -18 30 -20 39 -6 11 18 27 10 22 -11
-4 -16 -3 -18 9 -8 8 6 14 18 14 25 0 17 9 17 60 2 45 -15 50 -25 18 -38 -13
-5 -17 -9 -10 -9 9 -1 11 -8 7 -21 -6 -20 2 -24 29 -14 8 3 12 12 9 21 -5 13
-1 15 20 9 20 -5 27 -2 32 14 8 27 -3 44 -19 31 -17 -15 -29 -1 -14 16 8 10 8
17 0 25 -16 16 -15 28 3 28 9 0 18 7 21 15 10 24 32 17 48 -14 9 -16 22 -31
31 -34 8 -4 15 -18 15 -31 0 -14 6 -29 13 -33 8 -4 16 -16 20 -25 3 -9 18 -18
34 -20 38 -4 45 -38 9 -38 -27 0 -35 -14 -15 -25 7 -5 5 -13 -6 -25 -17 -18
-12 -46 5 -35 5 3 12 -7 15 -22 4 -15 10 -36 16 -45 14 -27 11 -37 -18 -63
-30 -27 -44 -31 -40 -14 4 18 -19 21 -36 4 -12 -12 -22 -13 -42 -5 -14 5 -30
10 -34 10 -14 0 -50 -98 -44 -120 4 -15 -1 -26 -16 -36 -20 -14 -31 -74 -13
-74 4 0 13 -14 20 -30 8 -17 18 -28 22 -25 5 3 20 -5 32 -17 l23 -23 -30 -5
c-32 -6 -35 -22 -9 -51 8 -8 14 -19 14 -23 0 -11 52 -61 78 -75 21 -11 22 -11
16 13 -5 22 -3 26 17 26 27 0 104 -74 94 -90 -3 -6 -1 -10 4 -10 6 0 11 -9 11
-20 0 -12 7 -20 18 -21 33 -2 57 3 64 15 6 8 8 8 8 -1 0 -7 5 -13 10 -13 14 0
13 26 -2 50 -7 10 -9 23 -4 27 4 4 12 1 16 -8 6 -11 18 -15 34 -12 21 4 26 0
32 -23 5 -18 3 -29 -4 -32 -7 -2 -12 -10 -12 -19 0 -10 6 -12 23 -7 28 9 39
25 26 40 -6 8 -4 14 6 18 9 3 13 10 10 16 -9 15 3 48 18 47 32 -1 45 4 51 19
9 24 0 29 -21 13 -15 -13 -16 -12 -9 6 5 11 9 26 9 34 0 8 9 16 19 19 10 2 18
12 18 22 0 13 6 17 20 13 14 -4 20 -14 20 -34 0 -16 5 -29 10 -29 6 0 10 7 10
15 0 23 18 18 35 -9 17 -25 13 -58 -11 -104 -7 -14 -10 -38 -7 -54 5 -25 3
-27 -13 -22 -11 4 -24 11 -31 16 -26 20 -36 2 -12 -21 18 -16 21 -24 11 -30
-10 -6 -9 -14 5 -39 10 -18 21 -32 26 -32 4 0 12 -11 17 -25 9 -23 14 -24 75
-23 58 1 69 -2 93 -26 31 -29 52 -34 52 -11 0 20 -60 74 -82 75 -26 0 -22 18
4 22 12 2 23 9 26 16 2 7 0 12 -5 11 -17 -3 -33 1 -33 9 0 4 16 8 35 8 19 0
31 -2 27 -6 -14 -10 -13 -33 4 -51 20 -22 46 -24 73 -7 15 9 22 8 36 -6 21
-20 46 -6 27 16 -8 10 -2 26 24 63 l33 50 -22 17 c-16 13 -35 16 -67 13 -50
-4 -77 6 -65 25 4 7 17 9 32 5 14 -3 39 -3 55 0 24 6 28 11 26 33 -2 15 -9 32
-16 37 -8 7 -10 21 -6 43 7 36 27 38 32 4 2 -13 8 -19 17 -16 7 3 18 -3 24
-15 6 -11 23 -28 38 -39 32 -22 88 -38 79 -23 -14 23 17 21 37 -2 28 -32 109
-68 128 -57 11 7 10 10 -4 16 -9 3 -17 12 -17 20 0 7 -14 17 -32 22 -45 12
-48 32 -4 30 36 -1 47 -11 24 -22 -7 -4 2 -4 19 -1 28 4 34 1 39 -19 4 -17 11
-22 27 -20 89 12 95 15 101 39 4 14 10 25 15 25 13 0 22 -28 11 -35 -6 -4 -10
-14 -10 -23 1 -15 2 -15 14 1 8 10 17 18 20 18 3 -1 14 -1 24 -1 13 0 14 2 3
9 -9 6 -12 18 -7 37 7 28 8 28 22 10 8 -11 14 -26 14 -33 0 -7 9 -13 20 -13
11 0 23 -1 27 -2 4 -2 9 5 11 15 2 12 -3 17 -17 17 -26 0 -27 14 -1 40 l20 20
0 -25 c0 -18 5 -25 20 -25 13 0 20 7 20 19 0 10 6 24 14 30 8 7 17 23 20 36 4
16 11 22 21 19 9 -4 15 0 15 7 0 11 3 11 10 -1 5 -8 10 -11 10 -6 0 5 7 3 16
-4 13 -11 16 -10 21 8 3 12 9 22 14 22 16 0 21 -27 10 -48 -8 -15 -7 -19 6
-19 12 0 14 8 10 39 -3 21 -3 38 -1 38 16 0 29 -28 26 -57 -4 -33 10 -45 24
-21 8 12 22 -13 23 -42 1 -11 -2 -11 -11 -2 -16 16 -55 15 -60 0 -3 -9 14 -57
27 -75 3 -5 55 22 55 29 0 4 14 14 30 23 17 9 30 22 30 30 0 8 5 15 10 15 6 0
10 5 10 10 0 6 -11 8 -25 4 -21 -5 -25 -3 -25 18 0 13 -5 29 -12 36 -9 9 -8
12 5 12 10 0 17 8 17 19 0 11 4 22 9 25 4 3 6 -6 3 -19 -2 -15 0 -25 7 -25 6
0 11 -6 11 -14 0 -20 30 -29 47 -14 8 6 12 19 10 29 -3 9 4 24 14 33 11 9 19
23 19 31 0 8 5 15 10 15 6 0 10 -7 10 -15 0 -8 -5 -15 -11 -15 -6 0 -9 -16 -7
-37 2 -24 8 -37 16 -36 6 2 12 -1 12 -6 0 -5 3 -17 7 -27 5 -13 3 -16 -10 -11
-8 3 -18 1 -21 -6 -2 -7 -5 -1 -5 12 l-1 24 -20 -25 c-16 -21 -18 -31 -10 -59
12 -41 12 -39 0 -39 -5 0 -10 9 -10 19 0 25 -17 36 -34 22 -7 -6 -16 -8 -20
-4 -3 4 -3 -9 0 -28 4 -19 3 -31 -1 -27 -8 8 -37 -25 -48 -55 -6 -15 -4 -16
13 -7 11 6 20 15 20 20 0 6 9 10 20 10 11 0 20 -7 20 -15 0 -8 4 -15 10 -15 5
0 7 -7 4 -15 -5 -12 -10 -10 -24 8 -13 15 -18 17 -18 7 3 -44 -1 -50 -27 -40
-22 8 -25 7 -25 -11 0 -11 4 -17 10 -14 6 4 8 -7 4 -27 -4 -24 -3 -29 5 -18 5
8 13 12 16 8 10 -10 -6 -58 -20 -58 -22 0 -25 -28 -4 -53 21 -28 25 -68 9 -97
-8 -16 -8 -18 5 -14 8 4 15 15 15 25 0 34 50 101 78 105 11 2 12 0 3 -9 -15
-15 -14 -40 2 -31 6 4 9 4 5 -1 -5 -5 2 -13 15 -19 24 -13 36 -71 18 -89 -8
-8 -11 -6 -11 6 0 9 -5 17 -11 17 -6 0 -9 9 -6 19 3 12 -3 27 -15 38 -26 23
-53 6 -54 -35 0 -17 -6 -37 -13 -46 -9 -11 -10 -20 -2 -34 8 -15 7 -23 -6 -33
-9 -8 -19 -13 -22 -11 -3 1 -7 -13 -9 -33 -2 -27 -10 -39 -31 -50 -21 -10 -31
-11 -40 -2 -14 14 -14 2 0 -24 8 -16 13 -18 25 -8 9 7 14 8 14 1 0 -22 -13
-42 -27 -42 -18 0 -10 -46 13 -71 8 -8 14 -21 14 -27 0 -7 5 -12 11 -12 16 0
0 -61 -22 -86 -10 -11 -35 -26 -54 -34 -35 -14 -46 -35 -23 -42 7 -3 2 -7 -10
-10 -15 -4 -22 -2 -22 9 0 8 -4 12 -10 8 -5 -3 -7 -12 -4 -19 3 -7 -2 -16 -12
-20 -12 -5 -15 -2 -10 10 3 8 6 22 6 30 0 8 6 14 14 14 8 0 19 14 25 31 6 17
15 28 21 24 5 -3 10 -2 10 3 0 6 -20 16 -45 23 -25 7 -45 18 -45 24 0 5 -4 4
-8 -3 -5 -7 -16 -10 -25 -6 -9 3 -14 10 -11 15 3 5 0 9 -5 9 -6 0 -11 11 -11
25 0 27 -15 34 -24 10 -3 -8 -12 -15 -20 -15 -15 0 -26 -22 -25 -48 0 -10 5
-5 11 11 5 15 14 27 20 27 6 0 8 -7 5 -14 -4 -10 -1 -13 9 -9 10 4 14 -3 14
-27 0 -28 -2 -31 -15 -20 -12 10 -15 9 -15 -6 0 -11 4 -25 9 -33 13 -20 39 7
34 34 -4 15 -2 17 5 6 5 -7 15 -10 21 -7 7 5 11 -2 11 -18 0 -26 14 -35 25
-16 8 13 25 13 25 -1 0 -5 -4 -8 -9 -5 -12 8 -21 -18 -21 -57 -1 -29 -2 -30
-14 -14 -8 10 -20 15 -30 11 -10 -4 -16 -1 -16 9 0 8 -7 18 -16 21 -12 4 -15
0 -12 -17 2 -12 9 -21 17 -19 10 2 12 -4 7 -22 -3 -14 -2 -28 4 -31 5 -3 10 3
10 14 0 32 19 25 35 -14 8 -19 24 -39 34 -45 17 -8 19 -20 17 -72 -1 -49 -5
-64 -18 -66 -19 -4 -13 -30 11 -48 8 -6 12 -18 8 -28 -8 -20 19 -34 36 -17 14
14 47 14 47 0 0 -6 -8 -8 -19 -4 -15 4 -20 0 -23 -16 -2 -15 -14 -26 -35 -33
-62 -21 -80 -67 -32 -79 18 -5 19 -8 8 -28 -10 -19 -9 -25 7 -36 10 -7 26 -13
36 -13 9 0 22 -9 28 -21 13 -23 4 -41 -9 -20 -5 7 -11 12 -15 12 -3 0 -13 2
-23 6 -9 4 -19 1 -21 -5 -5 -15 -42 -16 -42 -1 0 6 7 8 16 5 14 -5 15 -4 4 9
-10 12 -10 21 -1 42 11 23 10 29 -5 40 -10 7 -21 13 -25 13 -4 0 -9 10 -11 22
-4 25 -28 37 -28 14 0 -11 -9 -16 -30 -16 -26 0 -30 3 -30 29 0 27 -1 28 -25
18 -15 -7 -23 -18 -20 -26 7 -18 -3 -51 -16 -51 -5 0 -9 6 -9 13 0 7 -9 13
-20 14 -11 1 -20 -2 -20 -8 0 -5 7 -9 15 -9 8 0 15 -4 15 -10 0 -5 7 -10 15
-10 11 0 14 -9 11 -32 -3 -26 -8 -32 -22 -30 -11 2 -25 9 -32 15 -10 8 -14 5
-19 -11 -5 -22 -36 -38 -53 -27 -11 7 -40 -17 -40 -33 0 -5 9 -12 21 -15 16
-4 18 -3 9 8 -16 19 16 28 58 16 22 -7 32 -6 32 1 0 6 2 9 5 6 12 -12 -9 -39
-26 -35 -11 3 -22 1 -25 -4 -7 -11 -71 -12 -78 -1 -3 5 -33 10 -66 11 -33 1
-72 6 -86 12 -15 5 -35 7 -45 4 -10 -3 -49 3 -87 14 -38 12 -81 21 -95 21 -14
0 -28 4 -31 8 -3 5 -40 17 -83 26 -99 22 -158 41 -258 82 -44 17 -90 35 -103
39 -13 4 -59 24 -103 46 -43 21 -81 39 -83 39 -3 0 -22 12 -43 26 -21 14 -48
30 -61 35 -32 12 -243 155 -337 228 -44 34 -105 80 -135 103 -117 89 -329 310
-444 463 -122 162 -176 240 -176 250 0 4 -21 40 -46 81 -61 97 -228 497 -298
709 -38 117 -71 285 -97 490 -17 134 -15 512 4 664 45 356 140 674 299 995 32
65 67 131 78 146 11 16 20 32 20 37 0 24 241 367 290 413 3 3 30 34 60 70 237
280 610 563 961 728 311 146 691 255 959 275 25 2 50 4 56 5 5 1 19 -5 30 -13z
m224 -35 c0 -5 -7 -10 -16 -10 -8 0 -12 5 -9 10 3 6 10 10 16 10 5 0 9 -4 9
-10z m60 -25 c0 -7 3 -21 7 -30 5 -15 3 -16 -18 -4 -13 7 -26 11 -29 9 -3 -2
-7 5 -8 15 -4 20 15 36 35 28 7 -3 13 -11 13 -18z m-260 -170 c0 -8 -7 -15
-15 -15 -8 0 -15 7 -15 15 0 8 7 15 15 15 8 0 15 -7 15 -15z m-413 -121 c-3
-3 -12 -4 -19 -1 -8 3 -5 6 6 6 11 1 17 -2 13 -5z m123 -64 c0 -5 -8 -10 -18
-10 -10 0 -23 -5 -29 -11 -7 -7 -13 -8 -17 0 -4 6 7 14 26 20 18 5 34 10 36
10 1 1 2 -3 2 -9z m600 -86 c0 -8 -5 -12 -10 -9 -6 4 -8 11 -5 16 9 14 15 11
15 -7z m-222 -25 c-3 -8 -7 -3 -11 10 -4 17 -3 21 5 13 5 -5 8 -16 6 -23z
m262 -29 c0 -5 -4 -10 -10 -10 -5 0 -10 5 -10 10 0 6 5 10 10 10 6 0 10 -4 10
-10z m30 0 c0 -5 -2 -10 -4 -10 -3 0 -8 5 -11 10 -3 6 -1 10 4 10 6 0 11 -4
11 -10z m-160 -61 c0 -6 -4 -7 -10 -4 -5 3 -10 11 -10 16 0 6 5 7 10 4 6 -3
10 -11 10 -16z m-410 -9 c0 -5 -4 -10 -10 -10 -5 0 -10 5 -10 10 0 6 5 10 10
10 6 0 10 -4 10 -10z m520 -25 c0 -8 -4 -15 -10 -15 -5 0 -10 7 -10 15 0 8 5
15 10 15 6 0 10 -7 10 -15z m-465 -15 c3 -6 -1 -7 -9 -4 -18 7 -21 14 -7 14 6
0 13 -4 16 -10z m479 -70 c-5 -5 -9 4 -10 23 -1 30 -1 30 9 9 6 -14 7 -26 1
-32z m653 -22 c-3 -8 -6 -5 -6 6 -1 11 2 17 5 13 3 -3 4 -12 1 -19z m-607 -23
c0 -8 -2 -15 -4 -15 -2 0 -6 7 -10 15 -3 8 -1 15 4 15 6 0 10 -7 10 -15z m30
-35 c0 -5 -5 -10 -11 -10 -5 0 -7 5 -4 10 3 6 8 10 11 10 2 0 4 -4 4 -10z
m317 -62 c-3 -8 -6 -5 -6 6 -1 11 2 17 5 13 3 -3 4 -12 1 -19z m3 -73 c-13
-15 -30 -11 -30 7 0 5 7 8 15 4 10 -4 15 1 16 17 1 17 2 18 6 4 3 -10 -1 -24
-7 -32z m90 0 c0 -5 -5 -3 -10 5 -5 8 -10 20 -10 25 0 6 5 3 10 -5 5 -8 10
-19 10 -25z m-2300 -45 c0 -5 -7 -10 -15 -10 -8 0 -15 5 -15 10 0 6 7 10 15
10 8 0 15 -4 15 -10z m-330 -60 c0 -5 -12 -10 -26 -10 -14 0 -23 4 -19 10 3 6
15 10 26 10 10 0 19 -4 19 -10z m117 -26 c7 -19 -26 -82 -49 -95 -13 -7 -22
-4 -35 11 -32 37 -53 17 -53 -52 0 -20 -9 -32 -37 -49 -21 -13 -39 -27 -41
-31 -2 -4 -11 -8 -19 -8 -9 0 -13 -6 -9 -15 6 -16 -12 -65 -24 -65 -4 0 -13 6
-19 14 -10 12 -9 20 5 41 16 24 16 25 -1 19 -17 -7 -17 -6 0 19 9 15 21 27 25
27 14 0 21 33 9 41 -9 5 -8 15 7 36 18 27 19 27 22 6 4 -26 9 -27 47 -13 19 7
25 15 21 26 -8 21 32 56 55 49 12 -4 25 4 40 25 25 33 46 39 56 14z m174 -43
c-7 -11 -16 -21 -21 -21 -6 0 -10 -11 -10 -24 0 -34 -16 -42 -24 -12 -3 13 -9
31 -12 40 -4 11 -1 16 10 16 9 0 21 12 27 27 9 24 11 25 25 11 13 -12 14 -20
5 -37z m359 -26 c-7 -8 -16 -15 -21 -15 -5 0 -9 7 -9 15 0 9 9 15 21 15 18 0
19 -2 9 -15z m1629 6 c9 -6 11 -15 6 -27 -8 -18 -8 -18 -13 1 -2 11 -9 23 -16
27 -6 4 -6 8 -1 8 6 0 16 -4 24 -9z m-2059 -16 c0 -8 -4 -15 -10 -15 -5 0 -10
7 -10 15 0 8 5 15 10 15 6 0 10 -7 10 -15z m-20 -56 c0 -5 -7 -9 -15 -9 -15 0
-20 12 -9 23 8 8 24 -1 24 -14z m14 -111 c-11 -26 -22 -37 -32 -33 -7 3 -20 5
-28 5 -21 0 -17 17 6 23 13 3 22 17 26 37 4 17 13 34 20 37 8 3 15 13 16 22 0
9 3 1 5 -18 3 -20 -3 -51 -13 -73z m2083 30 c-3 -8 -6 -5 -6 6 -1 11 2 17 5
13 3 -3 4 -12 1 -19z m-2572 -18 c3 -5 19 -10 34 -10 15 0 30 -3 34 -6 10 -10
-15 -54 -31 -54 -8 0 -29 -15 -46 -34 -39 -40 -68 -51 -96 -36 -21 11 -21 13
-5 30 10 11 15 26 12 35 -5 10 0 15 14 15 16 0 20 5 16 20 -3 12 -1 17 5 14 5
-3 12 3 15 15 5 22 37 29 48 11z m395 -54 c0 -16 -58 -89 -98 -124 -18 -16
-23 -26 -14 -29 6 -2 12 -9 12 -14 0 -14 -28 -11 -33 4 -3 10 -9 10 -26 0 -50
-30 -54 -10 -6 40 19 20 35 33 35 27 0 -17 28 -11 49 11 11 12 17 28 14 37 -5
11 -3 13 7 7 8 -5 11 -4 6 3 -8 13 23 52 41 52 7 0 13 -6 13 -14z m180 -16 c0
-12 -9 -30 -20 -42 -11 -12 -20 -25 -20 -29 0 -9 57 -29 82 -29 11 0 16 -4 13
-10 -3 -5 -15 -10 -27 -10 -15 0 -19 -5 -15 -20 3 -11 1 -20 -4 -20 -5 0 -9
-5 -9 -11 0 -7 14 -8 39 -4 38 6 81 -6 81 -24 0 -4 -12 -14 -26 -21 -24 -13
-24 -15 -7 -27 15 -11 15 -17 5 -33 -7 -12 -8 -20 -2 -20 16 0 12 -47 -4 -53
-8 -3 -32 -3 -52 0 -27 4 -35 3 -30 -5 4 -7 15 -12 24 -12 12 0 13 -3 4 -12
-9 -9 -21 -7 -51 7 -23 10 -48 15 -58 11 -15 -6 -13 -10 14 -21 22 -9 35 -23
39 -42 4 -15 11 -33 16 -39 4 -6 6 -20 2 -30 -4 -13 -3 -15 3 -6 7 9 19 2 46
-29 20 -22 37 -42 37 -44 0 -2 -13 -8 -30 -14 -33 -11 -41 -31 -12 -31 10 0
29 -10 42 -22 14 -13 36 -23 50 -23 24 0 25 -3 26 -60 1 -33 2 -70 3 -83 1
-14 10 -26 26 -32 14 -5 25 -16 25 -25 0 -8 8 -15 17 -15 13 0 14 -3 5 -12
-18 -18 -15 -31 5 -24 10 4 14 4 10 0 -4 -4 0 -16 10 -26 9 -10 11 -18 5 -18
-7 0 -10 -16 -7 -47 2 -27 4 -58 5 -70 0 -17 6 -23 23 -23 12 0 33 -3 47 -7
l25 -7 -25 -6 c-18 -4 -25 -13 -26 -31 -1 -23 2 -25 40 -24 23 1 49 5 58 9 10
4 34 2 55 -5 29 -9 38 -9 41 0 2 7 14 21 25 32 21 19 21 19 28 0 9 -24 29 -37
38 -24 3 5 14 12 24 16 10 4 15 11 12 17 -3 5 3 10 15 10 18 0 19 2 8 14 -31
30 -85 41 -145 28 -37 -7 -61 -8 -67 -2 -12 12 18 25 39 16 12 -4 14 3 10 40
-2 25 -8 50 -11 56 -4 7 -3 8 4 4 26 -16 10 12 -19 33 -30 22 -30 23 -12 43
18 21 18 21 -4 16 -25 -7 -34 17 -10 25 6 2 2 2 -10 0 -50 -8 -18 30 34 41 27
6 32 11 31 37 -1 17 -6 29 -15 29 -7 0 -13 4 -13 9 0 5 -9 7 -21 4 -17 -5 -20
-2 -17 18 2 17 11 25 28 27 14 2 30 8 37 14 7 5 21 7 33 3 14 -5 20 -2 20 10
0 12 -9 15 -35 13 -39 -2 -50 4 -42 26 7 17 43 11 70 -13 15 -12 20 -13 26 -2
7 11 10 10 17 -2 12 -21 70 -28 66 -8 -2 8 3 18 10 22 10 7 10 9 1 9 -17 0
-16 18 1 36 8 7 17 19 20 26 3 9 8 8 16 -5 8 -13 21 -17 43 -15 31 3 32 2 42
-49 8 -40 13 -50 24 -44 14 9 49 4 68 -11 15 -12 33 -2 33 18 0 8 7 14 15 14
8 0 15 -9 15 -19 0 -10 -7 -21 -15 -25 -21 -8 -19 -29 4 -50 24 -22 35 -7 26
34 -7 34 -7 34 30 20 17 -6 25 -16 23 -27 -2 -13 4 -18 22 -18 15 0 28 -7 32
-18 10 -23 28 -13 28 14 0 11 5 17 10 14 6 -4 9 -28 6 -56 -4 -43 -2 -51 21
-69 14 -11 23 -21 19 -21 -3 -1 -10 -2 -15 -3 -5 0 -13 -4 -17 -8 -4 -5 -20
-8 -36 -8 -23 0 -28 -4 -28 -25 0 -23 4 -25 43 -26 37 -1 39 -2 13 -8 -47 -10
-40 -24 28 -50 37 -15 20 -40 -24 -33 -17 2 -36 0 -43 -6 -8 -7 -18 -7 -27 -2
-23 14 -28 12 -32 -12 -2 -18 -13 -25 -46 -33 -46 -11 -62 -27 -55 -54 2 -9
-8 -29 -22 -45 -14 -16 -25 -39 -25 -51 0 -11 -6 -27 -12 -33 -10 -10 -10 -15
2 -22 11 -7 16 -5 18 5 5 20 28 19 36 -1 4 -10 13 -13 26 -9 19 6 20 3 14 -34
-6 -36 -4 -41 10 -35 11 4 16 1 16 -10 0 -9 -7 -16 -15 -16 -8 0 -15 -6 -15
-14 0 -8 -8 -13 -17 -12 -12 1 -22 -11 -30 -34 -6 -19 -12 -31 -12 -27 -1 5
-6 5 -12 1 -8 -4 -8 -9 0 -17 16 -16 13 -37 -4 -37 -8 0 -15 8 -15 18 0 14 -4
12 -20 -8 -15 -19 -20 -21 -20 -8 0 9 4 18 8 20 5 1 12 18 15 37 6 29 5 32 -8
21 -13 -11 -15 -8 -15 20 0 28 2 31 15 20 13 -11 15 -8 15 14 0 36 -3 41 -20
41 -9 0 -16 11 -18 29 -4 33 -27 62 -37 46 -3 -5 -1 -10 4 -10 6 0 11 -5 11
-11 0 -6 -6 -9 -14 -6 -20 8 -29 -23 -12 -42 12 -13 12 -18 1 -28 -8 -7 -18
-20 -23 -30 -9 -15 -15 -15 -51 -4 -24 7 -41 18 -41 26 0 8 4 15 10 15 15 0
23 46 11 67 -6 10 -11 12 -11 5 0 -9 -5 -10 -18 -3 -10 5 -44 12 -75 14 -66 6
-107 28 -107 57 0 23 -4 24 -31 10 -14 -8 -19 -7 -19 1 0 8 -21 9 -71 4 -55
-6 -73 -4 -80 6 -6 10 -9 6 -9 -14 0 -41 -23 -107 -37 -107 -7 0 -13 -11 -13
-25 0 -54 -49 -109 -80 -90 -15 9 -12 23 10 45 26 26 25 32 -4 63 -17 18 -30
24 -45 20 -13 -3 -29 1 -40 11 -22 20 -40 4 -21 -19 16 -19 5 -47 -31 -86 -35
-37 -56 -29 -39 15 5 15 10 45 10 67 0 32 3 39 20 39 11 0 20 6 20 14 0 26
-17 27 -33 3 -12 -19 -22 -23 -46 -19 -17 2 -31 8 -31 13 0 9 9 11 55 13 11 1
21 9 23 18 5 24 -34 41 -74 33 -29 -5 -34 -3 -34 14 0 15 11 23 43 32 23 7 48
18 56 25 12 11 9 14 -15 20 -52 13 -55 44 -3 44 19 0 29 5 29 15 0 9 -9 15
-25 15 -15 0 -25 6 -25 15 0 11 8 13 33 8 17 -3 38 -10 45 -16 16 -12 18 -10
27 31 3 17 3 32 -2 32 -5 0 -10 8 -10 18 1 47 -4 72 -13 72 -5 0 -10 -8 -10
-17 0 -15 -2 -16 -10 -3 -6 9 -5 17 2 21 6 4 9 21 5 42 -4 29 -2 36 14 40 11
3 19 14 19 27 0 12 5 30 10 41 7 13 7 19 0 19 -5 0 -10 7 -10 15 0 26 -31 14
-43 -17 -7 -19 8 -25 18 -8 9 15 25 12 25 -5 0 -8 -4 -15 -10 -15 -5 0 -10 -7
-10 -15 0 -8 -6 -15 -14 -15 -8 0 -16 7 -20 15 -3 8 -15 15 -26 15 -23 0 -27
15 -5 24 8 3 15 10 15 16 0 6 -5 8 -11 4 -7 -4 -10 -1 -7 7 2 8 19 18 36 24
18 5 32 13 32 18 0 4 10 6 23 2 19 -5 20 -4 4 5 -9 6 -21 9 -26 6 -5 -3 -14 1
-21 9 -10 12 -9 15 4 15 13 0 15 6 10 28 -10 41 -24 54 -51 47 -18 -4 -31 2
-56 29 -43 47 -62 37 -55 -29 l6 -47 -33 32 c-34 33 -47 30 -49 -13 -1 -26
-26 -35 -26 -9 0 32 -39 74 -64 68 -11 -3 -39 4 -61 15 -27 13 -32 18 -15 15
14 -3 34 2 44 10 17 12 18 14 3 14 -9 0 -17 5 -17 10 0 6 5 9 11 8 7 -2 15 10
20 25 4 16 13 35 20 44 11 13 10 18 -6 29 -18 13 -18 14 4 14 27 0 61 34 61
62 0 10 6 18 14 18 21 0 29 30 8 30 -16 1 -16 1 1 11 9 5 17 16 17 23 0 21 39
27 50 8 6 -12 9 -13 10 -3 0 7 6 11 15 7 8 -3 15 0 15 6 0 20 -24 78 -32 78
-4 0 -8 7 -8 16 0 13 7 15 40 9 37 -6 41 -4 57 23 15 25 52 46 91 51 6 0 12
-8 12 -19z m274 5 c11 -8 16 -18 13 -22 -13 -12 -47 -10 -58 4 -13 15 -41 17
-54 4 -6 -5 -19 -5 -30 -1 -17 7 -17 9 -2 9 9 1 17 6 17 11 0 15 93 11 114 -5z
m116 -25 c0 -11 -4 -20 -10 -20 -5 0 -10 9 -10 20 0 11 5 20 10 20 6 0 10 -9
10 -20z m-673 -16 c-7 -7 -37 7 -37 17 0 6 9 5 21 -1 11 -7 19 -14 16 -16z
m-82 6 c3 -5 15 -10 26 -10 10 0 19 -4 19 -8 0 -8 -69 -36 -75 -30 -4 4 -8 30
-6 46 1 14 27 16 36 2z m820 -40 c3 -6 -4 -10 -17 -10 -18 0 -20 2 -8 10 19
12 18 12 25 0z m-55 -15 c0 -8 -7 -15 -16 -15 -10 0 -14 -6 -10 -15 10 -28 -5
-45 -41 -45 -28 0 -34 3 -29 16 3 9 6 20 6 25 0 6 5 7 10 4 6 -3 10 1 10 9 0
9 14 19 33 25 17 5 33 10 35 10 1 1 2 -6 2 -14z m1720 -5 c0 -5 -4 -10 -10
-10 -5 0 -10 5 -10 10 0 6 5 10 10 10 6 0 10 -4 10 -10z m-1375 -20 c-3 -5
-10 -10 -16 -10 -5 0 -9 5 -9 10 0 6 7 10 16 10 8 0 12 -4 9 -10z m585 6 c0
-15 -14 -35 -21 -30 -15 9 -10 34 6 34 8 0 15 -2 15 -4z m-1215 -26 c3 -6 -1
-13 -10 -16 -19 -8 -30 0 -20 15 8 14 22 14 30 1z m-430 -60 c3 -5 -1 -10 -9
-10 -8 0 -18 5 -21 10 -3 6 1 10 9 10 8 0 18 -4 21 -10z m2390 0 c3 -5 -1 -10
-10 -10 -9 0 -13 5 -10 10 3 6 8 10 10 10 2 0 7 -4 10 -10z m-2465 -30 c0 -18
-3 -19 -20 -8 -14 9 -16 14 -7 20 20 13 27 9 27 -12z m2407 -16 c-3 -3 -12 -4
-19 -1 -8 3 -5 6 6 6 11 1 17 -2 13 -5z m-2589 -16 c-6 -18 -28 -21 -28 -4 0
9 7 16 16 16 9 0 14 -5 12 -12z m2572 -14 c0 -8 -6 -11 -15 -8 -8 4 -15 12
-15 20 0 8 6 11 15 8 8 -4 15 -12 15 -20z m-2320 -14 c0 -5 -4 -10 -10 -10 -5
0 -10 5 -10 10 0 6 5 10 10 10 6 0 10 -4 10 -10z m2290 -14 c0 -8 -4 -18 -10
-21 -5 -3 -10 3 -10 14 0 12 5 21 10 21 6 0 10 -6 10 -14z m-1406 -18 c3 -12
10 -32 24 -68 3 -8 6 -30 7 -47 2 -28 -1 -33 -21 -33 -24 0 -32 14 -15 24 16
11 0 44 -25 50 -31 8 -32 41 -2 73 22 24 28 24 32 1z m1370 -20 c8 -5 6 -12
-4 -22 -13 -14 -15 -11 -17 22 -1 20 1 30 4 22 3 -8 11 -18 17 -22z m-97 -70
c-3 -7 -5 -2 -5 12 0 14 2 19 5 13 2 -7 2 -19 0 -25z m-33 -22 c-6 -25 -24
-37 -24 -15 0 15 21 52 26 46 3 -3 2 -16 -2 -31z m-2550 9 c-4 -8 -10 -15 -15
-15 -5 0 -9 7 -9 15 0 8 7 15 15 15 9 0 12 -6 9 -15z m1296 -2 c0 -8 -8 -13
-17 -11 -14 2 -17 -3 -15 -24 3 -23 -2 -30 -24 -38 -20 -8 -29 -8 -35 2 -4 7
-3 15 3 19 6 4 7 12 4 18 -4 6 0 11 8 11 18 0 21 11 7 26 -6 5 5 9 30 9 26 1
39 -3 39 -12z m106 -10 c-7 -7 -26 7 -26 19 0 6 6 6 15 -2 9 -7 13 -15 11 -17z
m290 -2 c-9 -14 -43 -14 -51 -1 -8 13 37 31 49 20 4 -5 5 -13 2 -19z m-1606
-16 c-7 -8 -17 -12 -22 -9 -5 3 -1 15 9 26 20 22 32 6 13 -17z m200 0 c0 -8
-4 -15 -10 -15 -5 0 -10 7 -10 15 0 8 5 15 10 15 6 0 10 -7 10 -15z m664 -19
c-3 -8 -14 -16 -25 -19 -19 -5 -18 2 4 30 12 16 28 7 21 -11z m106 4 c0 -11
-7 -20 -15 -20 -18 0 -19 12 -3 28 16 16 18 15 18 -8z m-1010 -9 c0 -10 -7
-24 -15 -31 -8 -7 -15 -16 -15 -21 0 -8 -40 -73 -60 -97 -6 -7 -8 -17 -4 -24
4 -7 3 -8 -4 -4 -7 4 -12 1 -12 -8 0 -9 -7 -16 -15 -16 -8 0 -15 7 -15 15 0 8
4 15 9 15 4 0 8 24 7 54 0 59 17 90 46 83 12 -4 25 5 39 24 23 33 39 37 39 10z
m1264 -34 c-3 -9 -10 -17 -15 -17 -11 0 -12 34 -2 44 11 11 24 -9 17 -27z
m1148 -29 c-9 -9 -12 -7 -12 12 0 19 3 21 12 12 9 -9 9 -15 0 -24z m-57 -14
c9 -9 14 -18 11 -21 -7 -7 -46 16 -46 27 0 15 17 12 35 -6z m-1195 -19 c0 -12
-19 -12 -23 0 -4 9 -1 12 9 8 7 -3 14 -7 14 -8z m2307 -17 c-3 -8 -6 -5 -6 6
-1 11 2 17 5 13 3 -3 4 -12 1 -19z m-2363 -4 c3 -8 2 -12 -4 -9 -6 3 -10 10
-10 16 0 14 7 11 14 -7z m1193 -6 c-3 -8 -6 -5 -6 6 -1 11 2 17 5 13 3 -3 4
-12 1 -19z m-1402 2 c8 -13 -5 -13 -25 0 -13 8 -13 10 2 10 9 0 20 -4 23 -10z
m792 -42 c-3 -7 -5 -2 -5 12 0 14 2 19 5 13 2 -7 2 -19 0 -25z m140 6 c-3 -16
0 -28 9 -31 21 -8 17 -23 -6 -23 -21 0 -25 16 -14 58 9 31 17 28 11 -4z m180
-34 c3 -11 9 -20 14 -20 5 0 9 -5 9 -11 0 -6 -6 -9 -14 -6 -7 3 -19 0 -26 -6
-10 -10 -11 -6 -6 16 4 16 2 27 -4 27 -5 0 -10 5 -10 10 0 19 32 10 37 -10z
m1140 -22 c-3 -8 -6 -5 -6 6 -1 11 2 17 5 13 3 -3 4 -12 1 -19z m-1400 -10
c-3 -8 -6 -5 -6 6 -1 11 2 17 5 13 3 -3 4 -12 1 -19z m-1872 -20 c-4 -13 -18
-32 -31 -43 -13 -12 -24 -28 -24 -37 0 -8 -7 -21 -15 -28 -13 -11 -15 -8 -15
13 0 14 6 32 13 39 7 7 20 28 28 46 17 38 55 47 44 10z m2248 -18 c-3 -11 -10
-20 -15 -20 -6 0 -7 7 -4 16 3 9 6 20 6 25 0 6 4 8 9 5 5 -3 7 -15 4 -26z
m-113 0 c0 -5 -4 -10 -9 -10 -6 0 -13 5 -16 10 -3 6 1 10 9 10 9 0 16 -4 16
-10z m-60 -35 c0 -28 -4 -35 -20 -35 -19 0 -19 1 -3 35 9 19 18 35 20 35 2 0
3 -16 3 -35z m-853 8 c2 -6 -5 -14 -15 -17 -11 -4 -22 -16 -25 -27 -3 -12 -10
-18 -16 -14 -6 3 -9 11 -6 16 4 5 -1 12 -9 15 -21 8 -20 31 2 37 28 8 65 3 69
-10z m800 -35 c-3 -8 -6 -5 -6 6 -1 11 2 17 5 13 3 -3 4 -12 1 -19z m113 -27
c0 -14 -29 -41 -43 -41 -8 0 -9 3 -1 8 6 4 13 15 17 25 7 18 27 24 27 8z
m-990 -26 c0 -9 -6 -12 -15 -9 -8 4 -12 10 -9 15 8 14 24 10 24 -6z m880 -15
c0 -5 -2 -10 -4 -10 -3 0 -8 5 -11 10 -3 6 -1 10 4 10 6 0 11 -4 11 -10z m-40
-39 c0 -22 -16 -36 -24 -22 -8 12 3 41 15 41 5 0 9 -9 9 -19z m-1375 -22 c-8
-11 -16 -11 -34 0 -22 14 -4 33 20 21 11 -6 17 -15 14 -21z m1315 21 c0 -5 -2
-10 -4 -10 -3 0 -8 5 -11 10 -3 6 -1 10 4 10 6 0 11 -4 11 -10z m-2020 -75 c0
-8 -4 -15 -10 -15 -5 0 -10 7 -10 15 0 8 5 15 10 15 6 0 10 -7 10 -15z m1380
-19 c0 -6 -4 -17 -9 -25 -7 -11 -13 -10 -35 4 l-26 17 23 18 c22 19 47 11 47
-14z m697 28 c-3 -3 -12 -4 -19 -1 -8 3 -5 6 6 6 11 1 17 -2 13 -5z m-797 -69
c0 -8 -7 -15 -15 -15 -16 0 -20 12 -8 23 11 12 23 8 23 -8z m1707 -17 c-3 -7
-5 -2 -5 12 0 14 2 19 5 13 2 -7 2 -19 0 -25z m-194 -43 c-3 -8 -9 -15 -14
-15 -10 0 -12 24 -3 33 11 11 24 -3 17 -18z m-893 -16 c0 -5 -4 -9 -10 -9 -5
0 -10 7 -10 16 0 8 5 12 10 9 6 -3 10 -10 10 -16z m-30 -81 c0 -5 -12 -8 -27
-8 -26 0 -26 0 -8 20 14 16 20 17 27 8 4 -7 8 -16 8 -20z m-1607 -8 c19 -23
22 -34 6 -24 -6 3 -23 -6 -38 -20 -24 -23 -29 -24 -45 -13 -23 16 -12 41 25
62 33 18 32 18 52 -5z m3224 -17 c-3 -10 -5 -4 -5 12 0 17 2 24 5 18 2 -7 2
-21 0 -30z m-1460 11 c-3 -3 -12 -4 -19 -1 -8 3 -5 6 6 6 11 1 17 -2 13 -5z
m1101 -5 c-2 -6 -8 -10 -13 -10 -5 0 -11 4 -13 10 -2 6 4 11 13 11 9 0 15 -5
13 -11z m-1858 -20 c0 -5 -7 -9 -15 -9 -15 0 -20 12 -9 23 8 8 24 -1 24 -14z
m60 -28 c-6 -13 -6 -21 0 -23 11 -3 -19 -78 -32 -78 -4 0 -8 9 -8 20 0 27 30
100 41 100 6 0 5 -8 -1 -19z m-483 -67 c-9 -10 -38 16 -31 28 4 6 13 4 22 -6
9 -8 13 -19 9 -22z m2633 -3 c0 -11 -4 -23 -10 -26 -6 -4 -10 5 -10 19 0 14 5
26 10 26 6 0 10 -9 10 -19z m-2210 -25 c0 -15 -7 -26 -20 -29 -24 -6 -31 3
-23 31 8 31 43 29 43 -2z m1996 -12 c-4 -9 -9 -15 -11 -12 -3 3 -3 13 1 22 4
9 9 15 11 12 3 -3 3 -13 -1 -22z m-2676 -5 c-7 -11 -14 -18 -17 -15 -8 8 5 36
17 36 7 0 7 -6 0 -21z m428 -4 c-3 -3 -9 2 -12 12 -6 14 -5 15 5 6 7 -7 10
-15 7 -18z m332 15 c0 -5 -8 -10 -17 -10 -15 0 -16 2 -3 10 19 12 20 12 20 0z
m606 -60 c1 -19 6 -36 13 -38 8 -3 9 -8 2 -15 -5 -7 -11 -25 -13 -42 -4 -26
-5 -27 -13 -11 -4 10 -23 34 -42 52 -18 19 -31 34 -27 34 3 0 1 7 -6 15 -18
22 8 44 50 41 33 -2 35 -4 36 -36z m-1017 -7 c9 -7 25 -13 36 -13 11 0 26 -9
33 -20 15 -25 -4 -28 -34 -5 -10 8 -27 15 -36 15 -21 0 -42 -35 -35 -61 3 -10
1 -22 -4 -25 -5 -3 -9 1 -10 8 -1 7 -3 30 -4 51 -2 20 0 37 4 37 5 0 12 12 16
28 5 18 9 22 13 12 3 -8 12 -20 21 -27z m766 28 c3 -5 1 -12 -5 -16 -5 -3 -10
1 -10 9 0 18 6 21 15 7z m-485 -5 c0 -3 -4 -8 -10 -11 -5 -3 -10 -1 -10 4 0 6
5 11 10 11 6 0 10 -2 10 -4z m1987 -28 c-3 -7 -5 -2 -5 12 0 14 2 19 5 13 2
-7 2 -19 0 -25z m-1567 -8 c0 -11 -7 -20 -15 -20 -8 0 -15 9 -15 20 0 11 7 20
15 20 8 0 15 -9 15 -20z m-216 -6 c10 -25 -2 -33 -42 -27 -46 7 -66 23 -29 23
15 0 27 5 27 10 0 16 37 11 44 -6z m69 -45 c7 -1 24 0 38 1 19 1 28 -5 32 -19
6 -25 -2 -61 -14 -61 -5 0 -9 9 -9 20 0 11 -6 20 -12 20 -10 0 -9 3 1 9 8 5 9
11 3 15 -6 3 -13 2 -17 -4 -10 -16 -22 -12 -39 14 -9 15 -13 32 -8 43 6 15 8
13 10 -9 2 -16 9 -28 15 -29z m217 35 c0 -8 -4 -12 -10 -9 -5 3 -10 10 -10 16
0 5 5 9 10 9 6 0 10 -7 10 -16z m-580 -4 c0 -5 -6 -10 -14 -10 -8 0 -18 5 -21
10 -3 6 3 10 14 10 12 0 21 -4 21 -10z m895 -19 c3 -5 1 -12 -5 -16 -5 -3 -10
1 -10 9 0 18 6 21 15 7z m555 5 c0 -3 -4 -8 -10 -11 -5 -3 -10 -1 -10 4 0 6 5
11 10 11 6 0 10 -2 10 -4z m50 -12 c0 -8 -4 -12 -10 -9 -5 3 -10 10 -10 16 0
5 5 9 10 9 6 0 10 -7 10 -16z m-1555 -14 c-3 -5 -10 -10 -16 -10 -5 0 -9 5 -9
10 0 6 7 10 16 10 8 0 12 -4 9 -10z m245 -15 c0 -9 -6 -12 -15 -9 -8 4 -15 10
-15 15 0 5 7 9 15 9 8 0 15 -7 15 -15z m510 -11 c0 -2 -7 -4 -15 -4 -8 0 -15
4 -15 10 0 5 7 7 15 4 8 -4 15 -8 15 -10z m160 -5 c0 -11 -4 -17 -10 -14 -5 3
-10 13 -10 21 0 8 5 14 10 14 6 0 10 -9 10 -21z m190 -29 c0 -5 -2 -10 -4 -10
-3 0 -8 5 -11 10 -3 6 -1 10 4 10 6 0 11 -4 11 -10z m493 -40 c7 -26 -7 -76
-19 -71 -5 2 -17 6 -26 9 -25 6 -22 47 5 65 29 21 34 21 40 -3z m-1307 -11 c3
-6 2 -15 -4 -21 -6 -6 -8 -26 -5 -44 4 -27 2 -34 -11 -34 -9 0 -17 3 -17 8
-12 66 13 129 37 91z m1138 -30 c5 -4 15 -5 23 -2 12 5 14 1 8 -15 -5 -19 -2
-22 24 -22 23 0 31 5 34 23 4 19 4 18 6 -5 0 -16 -3 -28 -9 -28 -5 0 -10 -9
-10 -19 0 -11 -9 -23 -20 -26 -14 -5 -19 -12 -15 -24 3 -10 -1 -33 -9 -52 -9
-19 -15 -29 -16 -23 0 6 -9 21 -20 34 -11 13 -20 29 -20 36 0 10 -6 11 -27 3
-27 -10 -42 0 -43 29 0 6 -6 12 -14 12 -8 0 -21 8 -28 19 -7 10 -22 21 -33 24
-18 4 -18 5 3 6 12 1 22 7 22 16 0 9 9 15 24 15 13 0 29 6 35 14 10 12 19 12
44 4 18 -6 36 -14 41 -19z m-1026 -14 c-3 -14 -1 -25 3 -25 5 0 9 -5 9 -10 0
-14 -38 10 -45 28 -7 18 3 32 22 32 11 0 14 -7 11 -25z m1782 5 c0 -5 -4 -10
-10 -10 -5 0 -10 5 -10 10 0 6 5 10 10 10 6 0 10 -4 10 -10z m-1131 -70 c0
-19 -3 -28 -6 -20 -3 8 -12 19 -19 23 -17 10 -18 24 -1 41 16 19 27 1 26 -44z
m558 38 c-3 -8 -6 -5 -6 6 -1 11 2 17 5 13 3 -3 4 -12 1 -19z m98 2 c3 -6 -1
-7 -9 -4 -18 7 -21 14 -7 14 6 0 13 -4 16 -10z m-41 -59 c-5 -39 -10 -49 -19
-41 -10 8 -9 20 3 55 19 58 25 52 16 -14z m23 17 c-3 -7 -5 -2 -5 12 0 14 2
19 5 13 2 -7 2 -19 0 -25z m-923 6 c8 -22 8 -24 -8 -24 -18 0 -29 16 -21 30 9
15 22 12 29 -6z m326 6 c0 -5 -2 -10 -4 -10 -3 0 -8 5 -11 10 -3 6 -1 10 4 10
6 0 11 -4 11 -10z m680 -19 c12 -23 4 -51 -15 -51 -7 0 -16 7 -19 16 -3 8 -2
12 4 9 6 -3 10 5 10 19 0 31 6 33 20 7z m-2363 -17 c-3 -18 -1 -24 9 -20 17 7
26 -8 18 -29 -6 -16 -8 -16 -16 -1 -10 18 -43 22 -53 6 -9 -14 -25 -3 -25 17
0 11 6 14 25 9 22 -6 25 -3 25 19 0 14 5 25 11 25 7 0 9 -10 6 -26z m1530 9
c4 -9 2 -18 -4 -20 -5 -2 -8 -14 -6 -27 3 -13 1 -26 -5 -30 -10 -6 -24 72 -16
86 9 13 24 9 31 -9z m568 -13 c3 -5 -1 -10 -9 -10 -9 0 -16 5 -16 10 0 6 4 10
9 10 6 0 13 -4 16 -10z m-1035 -31 c0 -12 -7 -27 -16 -33 -9 -7 -12 -18 -8
-29 7 -19 34 -23 34 -5 0 6 3 9 6 6 3 -3 -7 -30 -22 -60 -28 -53 -32 -70 -34
-140 -1 -43 -15 -48 -48 -18 -23 22 -28 45 -12 55 21 13 8 24 -22 18 -26 -5
-30 -3 -25 10 4 11 2 14 -9 10 -21 -8 -17 -31 6 -38 21 -7 26 -20 12 -29 -5
-3 -20 6 -35 18 -23 20 -25 25 -13 35 10 8 12 24 9 51 -3 21 -3 50 1 63 5 22
11 24 50 23 25 -1 48 -5 52 -9 11 -11 34 13 27 29 -3 7 2 17 11 20 9 3 16 15
16 25 0 10 5 19 10 19 6 0 10 -10 10 -21z m-82 -1 c18 -18 14 -28 -12 -28 -25
0 -51 22 -39 33 10 11 38 8 51 -5z m383 -3 c-1 -15 -24 -12 -29 3 -3 9 2 13
12 10 10 -1 17 -7 17 -13z m839 -32 c-1 -24 -2 -26 -11 -10 -5 9 -7 22 -4 27
10 17 15 11 15 -17z m-265 8 c3 -5 1 -12 -5 -16 -5 -3 -10 1 -10 9 0 18 6 21
15 7z m632 -43 c-3 -7 -5 -2 -5 12 0 14 2 19 5 13 2 -7 2 -19 0 -25z m-2536
-25 c-9 -15 -10 -12 -10 17 0 29 1 32 10 18 7 -12 7 -24 0 -35z m2815 10 c-11
-11 -17 4 -9 23 7 18 8 18 11 1 2 -10 1 -21 -2 -24z m-1166 17 c0 -5 -2 -10
-4 -10 -3 0 -8 5 -11 10 -3 6 -1 10 4 10 6 0 11 -4 11 -10z m1087 -22 c-3 -7
-5 -2 -5 12 0 14 2 19 5 13 2 -7 2 -19 0 -25z m-2577 2 c0 -13 -5 -18 -15 -14
-12 5 -13 10 -4 20 15 19 19 18 19 -6z m1450 10 c0 -5 -6 -10 -13 -10 -7 0
-22 -7 -33 -15 -18 -15 -18 -15 9 -9 21 5 27 2 27 -10 0 -9 6 -16 13 -17 10 0
10 -2 0 -6 -7 -2 -13 -10 -13 -17 0 -9 -9 -12 -26 -8 -18 3 -30 0 -36 -12 -11
-20 -28 -21 -28 -1 0 8 6 14 13 13 13 -3 14 26 3 54 -5 12 0 20 21 31 33 18
63 21 63 7z m580 -22 c0 -16 -3 -19 -11 -11 -6 6 -8 16 -5 22 11 17 16 13 16
-11z m-540 8 c0 -3 -4 -8 -10 -11 -5 -3 -10 -1 -10 4 0 6 5 11 10 11 6 0 10
-2 10 -4z m-1917 -12 c9 -10 -4 -34 -19 -34 -8 0 -14 9 -14 20 0 19 19 27 33
14z m2400 -24 c3 -11 1 -20 -4 -20 -5 0 -9 9 -9 20 0 11 2 20 4 20 2 0 6 -9 9
-20z m-2083 -26 c0 -19 -16 -18 -24 2 -11 27 -7 37 9 24 8 -7 15 -19 15 -26z
m2019 -12 c1 -7 -3 -10 -9 -7 -5 3 -10 18 -9 33 0 24 1 25 9 7 5 -11 9 -26 9
-33z m421 24 c0 -8 -4 -18 -10 -21 -5 -3 -10 3 -10 14 0 12 5 21 10 21 6 0 10
-6 10 -14z m-1980 -30 c-15 -15 -33 4 -19 20 10 12 14 12 20 2 5 -7 4 -17 -1
-22z m227 12 c-3 -8 -6 -5 -6 6 -1 11 2 17 5 13 3 -3 4 -12 1 -19z m43 -13 c0
-8 -4 -15 -10 -15 -5 0 -10 7 -10 15 0 8 5 15 10 15 6 0 10 -7 10 -15z m1384
-20 c4 -14 2 -33 -3 -43 -10 -16 -10 -16 -11 1 0 9 -6 17 -14 17 -9 0 -12 8
-8 25 6 32 28 32 36 0z m1293 -17 c-3 -7 -5 -2 -5 12 0 14 2 19 5 13 2 -7 2
-19 0 -25z m-1253 7 c6 -16 -2 -45 -13 -45 -3 0 -7 14 -8 30 -2 31 11 41 21
15z m-97 -57 c-3 -7 -5 -2 -5 12 0 14 2 19 5 13 2 -7 2 -19 0 -25z m630 10
c-3 -8 -6 -5 -6 6 -1 11 2 17 5 13 3 -3 4 -12 1 -19z m-2547 -34 c0 -14 -3
-14 -15 -4 -8 7 -15 14 -15 16 0 2 7 4 15 4 8 0 15 -7 15 -16z m1464 0 c4 -11
0 -15 -16 -12 -12 2 -23 9 -26 16 -6 18 35 15 42 -4z m631 -4 c3 -5 -1 -10
-10 -10 -9 0 -13 5 -10 10 3 6 8 10 10 10 2 0 7 -4 10 -10z m-602 -30 c-3 -11
0 -20 6 -20 6 0 11 -6 11 -13 0 -18 -23 -67 -32 -67 -16 0 -17 19 -2 34 14 15
14 16 0 16 -20 0 -22 56 -3 63 22 9 25 7 20 -13z m484 -22 c-3 -8 -6 -5 -6 6
-1 11 2 17 5 13 3 -3 4 -12 1 -19z m213 -2 c0 -8 -4 -18 -10 -21 -5 -3 -10 3
-10 14 0 12 5 21 10 21 6 0 10 -6 10 -14z m-8 -82 c-7 -12 -9 -8 -10 18 -1 26
1 30 9 16 6 -11 6 -24 1 -34z m268 26 c0 -5 -4 -10 -10 -10 -5 0 -10 5 -10 10
0 6 5 10 10 10 6 0 10 -4 10 -10z m-1380 -46 c0 -8 -4 -14 -8 -14 -5 0 -6 -20
-2 -45 4 -24 6 -55 4 -67 -1 -13 -3 -31 -3 -40 -1 -25 -47 -24 -61 2 -6 11 -7
20 -3 20 25 1 -28 20 -54 20 -18 0 -33 5 -33 11 0 6 8 8 19 4 13 -4 24 3 37
22 10 16 18 33 19 38 0 15 66 75 76 69 5 -3 9 -12 9 -20z m-1124 -21 c-7 -7
-26 7 -26 19 0 6 6 6 15 -2 9 -7 13 -15 11 -17z m1824 17 c0 -5 -4 -10 -10
-10 -5 0 -10 5 -10 10 0 6 5 10 10 10 6 0 10 -4 10 -10z m300 0 c0 -5 -4 -10
-10 -10 -5 0 -10 5 -10 10 0 6 5 10 10 10 6 0 10 -4 10 -10z m-1106 -31 c11
-10 -38 -24 -53 -15 -6 4 -8 13 -4 22 5 15 38 11 57 -7z m923 -1 c-3 -8 -6 -5
-6 6 -1 11 2 17 5 13 3 -3 4 -12 1 -19z m153 -28 c0 -16 -4 -30 -8 -30 -5 0
-9 14 -9 30 0 17 4 30 9 30 4 0 8 -13 8 -30z m-1500 -58 c0 -32 -16 -52 -42
-52 -13 0 -18 8 -18 31 0 27 -3 31 -21 26 -15 -4 -19 -1 -17 10 2 9 13 17 25
18 13 1 26 5 29 8 14 14 44 -15 44 -41z m2210 38 c0 -5 -5 -10 -11 -10 -5 0
-7 5 -4 10 3 6 8 10 11 10 2 0 4 -4 4 -10z m-1861 -22 c5 -13 12 -32 16 -43
l7 -20 8 20 c7 19 7 19 14 -2 8 -25 22 -30 29 -10 4 9 8 8 16 -3 6 -9 7 -18 1
-24 -15 -15 -12 -43 7 -61 10 -10 12 -19 6 -23 -5 -4 -15 -16 -21 -27 -11 -19
-11 -19 -12 -1 0 28 -38 84 -61 91 -16 5 -19 13 -15 30 3 13 -1 36 -9 51 -18
34 -19 44 -5 44 6 0 14 -10 19 -22z m1328 -52 c15 -27 -1 -68 -32 -83 -29 -13
-33 0 -10 31 19 25 19 62 0 70 -9 3 -12 12 -9 21 6 14 8 14 23 -2 10 -10 22
-27 28 -37z m173 18 c0 -8 -4 -14 -10 -14 -5 0 -10 2 -10 4 0 2 -3 12 -6 20
-5 12 -2 15 10 10 9 -3 16 -12 16 -20z m-341 -21 c0 -25 -1 -25 -8 -8 -5 11
-7 23 -4 28 8 14 13 7 12 -20z m391 -4 c0 -4 -9 -7 -20 -6 -20 1 -27 17 -13
30 7 8 33 -11 33 -24z m-1736 -23 c-10 -25 -59 -18 -59 9 0 24 34 37 53 20 7
-6 10 -19 6 -29z m1459 4 c-3 -11 -7 -20 -9 -20 -2 0 -4 9 -4 20 0 11 4 20 9
20 5 0 7 -9 4 -20z m-33 -12 c0 -19 -2 -20 -10 -8 -13 19 -13 30 0 30 6 0 10
-10 10 -22z m-1120 -14 c0 -8 -4 -12 -10 -9 -5 3 -10 10 -10 16 0 5 5 9 10 9
6 0 10 -7 10 -16z m-480 -4 c0 -5 6 -7 13 -5 6 3 19 0 27 -5 13 -9 13 -11 0
-20 -19 -12 -40 -13 -40 -1 0 5 -9 13 -20 16 -11 3 -20 11 -20 16 0 5 9 9 20
9 11 0 20 -4 20 -10z m1426 -16 c9 -35 -12 -56 -24 -23 -10 26 -6 49 9 49 5 0
12 -12 15 -26z m-61 6 c3 -5 1 -10 -4 -10 -6 0 -11 5 -11 10 0 6 2 10 4 10 3
0 8 -4 11 -10z m-1145 -54 c0 -16 7 -27 20 -31 11 -3 20 -15 20 -25 0 -10 5
-22 11 -25 7 -5 2 -16 -12 -31 -16 -17 -18 -24 -8 -24 8 0 4 -9 -13 -25 -15
-14 -34 -25 -42 -25 -8 0 -16 -5 -18 -12 -2 -6 -12 -9 -21 -5 -13 5 -16 15
-13 42 3 26 1 35 -10 35 -10 0 -14 12 -14 40 0 22 0 43 -1 48 0 4 8 9 17 11
10 2 27 14 38 27 27 31 46 30 46 0z m140 5 c0 -19 -25 -31 -67 -31 -18 0 -23
6 -23 25 0 23 4 25 45 25 37 0 45 -3 45 -19z m48 -23 c2 -9 -4 -18 -13 -21
-11 -5 -15 0 -15 19 0 28 23 29 28 2z m962 18 c0 -3 -4 -8 -10 -11 -5 -3 -10
-1 -10 4 0 6 5 11 10 11 6 0 10 -2 10 -4z m150 -35 c0 -17 -4 -33 -10 -36 -5
-3 -10 -1 -10 4 0 6 -4 11 -10 11 -5 0 -7 -6 -4 -14 3 -8 1 -17 -5 -21 -22
-13 -24 26 -2 42 17 12 20 18 10 29 -9 11 -7 14 10 14 17 0 21 -6 21 -29z
m797 7 c-3 -8 -6 -5 -6 6 -1 11 2 17 5 13 3 -3 4 -12 1 -19z m-1692 -9 c32
-19 36 -26 33 -57 -2 -29 -7 -36 -25 -37 -14 -1 -29 8 -39 23 -14 22 -14 25 2
43 16 17 16 19 1 19 -10 0 -17 -7 -17 -15 0 -15 -21 -20 -33 -8 -6 5 30 53 39
53 2 0 19 -10 39 -21z m-229 -19 c29 0 34 -3 34 -24 0 -28 -27 -43 -33 -18 -3
10 -5 5 -6 -11 -1 -26 -2 -27 -24 -12 -19 12 -22 21 -18 52 2 21 6 32 8 26 3
-7 20 -13 39 -13z m1162 -25 c13 -28 6 -55 -13 -55 -14 0 -28 -29 -31 -65 -1
-11 -5 -41 -9 -66 -7 -42 -5 -48 14 -54 25 -7 27 -20 6 -29 -8 -3 -15 -1 -15
5 0 6 -7 17 -15 25 -8 8 -12 21 -9 29 4 8 1 15 -5 15 -6 0 -11 -4 -11 -10 0
-5 -7 -10 -15 -10 -8 0 -15 9 -15 21 0 11 5 17 10 14 6 -3 13 1 16 9 3 9 10
13 15 10 9 -5 13 14 9 54 -1 12 3 22 9 22 6 0 11 6 11 14 0 8 5 16 12 18 7 3
12 21 11 41 -1 43 9 48 25 12z m312 -30 c0 -8 -4 -15 -10 -15 -5 0 -7 7 -4 15
4 8 8 15 10 15 2 0 4 -7 4 -15z m-570 -15 c0 -5 -4 -10 -10 -10 -5 0 -10 5
-10 10 0 6 5 10 10 10 6 0 10 -4 10 -10z m-996 -15 c-7 -17 -20 -20 -28 -6 -7
10 3 21 20 21 8 0 11 -6 8 -15z m1838 -37 c-6 -6 -7 0 -4 19 5 21 7 23 10 9 2
-10 0 -22 -6 -28z m-319 -5 c-7 -3 -13 -12 -13 -20 0 -9 -2 -14 -5 -11 -4 3
-3 18 1 33 5 20 9 24 18 14 8 -8 8 -13 -1 -16z m-38 -23 c3 -5 1 -10 -4 -10
-6 0 -11 5 -11 10 0 6 2 10 4 10 3 0 8 -4 11 -10z m-1417 -17 c-4 -22 -22 -20
-26 1 -2 10 3 16 13 16 10 0 15 -7 13 -17z m-198 -28 c0 -5 -5 -3 -10 5 -5 8
-10 20 -10 25 0 6 5 3 10 -5 5 -8 10 -19 10 -25z m54 29 c9 -3 15 -16 15 -28
-1 -16 -2 -17 -6 -3 -2 9 -11 17 -18 17 -8 0 -17 5 -20 10 -7 11 6 13 29 4z
m335 -23 c21 -29 27 -51 15 -51 -12 0 -54 51 -54 66 0 23 17 16 39 -15z m1163
7 c5 -32 -16 -101 -32 -106 -10 -4 -11 3 -6 24 4 16 10 46 13 67 6 41 20 49
25 15z m98 -24 c0 -8 -5 -12 -10 -9 -6 4 -8 11 -5 16 9 14 15 11 15 -7z
m-1973 -36 c-3 -8 -6 -5 -6 6 -1 11 2 17 5 13 3 -3 4 -12 1 -19z m1923 13 c0
-6 -4 -13 -10 -16 -5 -3 -10 1 -10 9 0 9 5 16 10 16 6 0 10 -4 10 -9z m256
-17 c-4 -9 -9 -15 -11 -12 -3 3 -3 13 1 22 4 9 9 15 11 12 3 -3 3 -13 -1 -22z
m103 -24 l-1 -25 -10 28 c-5 15 -15 27 -21 27 -7 0 -6 4 3 10 18 11 30 -5 29
-40z m88 8 c-3 -8 -6 -5 -6 6 -1 11 2 17 5 13 3 -3 4 -12 1 -19z m-1911 -26
c-10 -10 -29 15 -21 28 6 9 10 8 17 -4 6 -10 7 -20 4 -24z m39 18 c4 -7 12 -7
25 0 25 13 30 13 30 -4 0 -8 7 -17 16 -20 17 -7 10 -27 -9 -22 -7 1 -9 1 -4
-1 4 -3 7 -11 7 -19 0 -8 7 -14 16 -14 8 0 12 -4 9 -10 -20 -32 -90 17 -109
78 -7 22 7 31 19 12z m1461 -37 c-11 -11 -17 4 -9 23 7 18 8 18 11 1 2 -10 1
-21 -2 -24z m87 25 c15 -7 29 -19 32 -26 7 -19 -5 -63 -16 -56 -5 3 -9 0 -9
-5 0 -6 -5 -11 -10 -11 -6 0 -8 18 -5 44 5 37 3 44 -11 42 -9 0 -19 5 -21 12
-3 6 -1 12 4 12 5 0 21 -6 36 -12z m-1253 -54 c0 -3 -7 -1 -15 6 -8 7 -15 17
-15 22 0 5 7 3 15 -6 8 -8 15 -18 15 -22z m-855 -15 c-10 -15 -22 -10 -28 11
-4 17 -2 18 14 9 11 -5 17 -14 14 -20z m400 2 c14 -29 7 -49 -13 -37 -9 5 -14
66 -7 66 3 0 11 -13 20 -29z m278 -40 c2 -10 1 -25 -4 -32 -6 -10 -9 -4 -9 19
0 36 5 42 13 13z m-58 -21 c3 -6 -1 -7 -9 -4 -18 7 -21 14 -7 14 6 0 13 -4 16
-10z m1599 -12 c3 -13 6 -26 6 -30 0 -10 -30 -38 -41 -38 -6 0 -3 7 6 16 9 9
14 23 11 30 -3 8 -9 21 -12 29 -4 9 -1 15 9 15 8 0 17 -10 21 -22z m-837 -10
c-3 -8 -6 -5 -6 6 -1 11 2 17 5 13 3 -3 4 -12 1 -19z m-616 -46 c-6 -2 -11
-17 -11 -33 0 -31 -4 -32 -62 -23 -44 8 -49 20 -13 34 16 6 23 14 19 25 -7 17
11 21 21 5 12 -19 35 -10 35 13 0 35 14 43 18 11 2 -16 -1 -30 -7 -32z m1330
-28 c6 -8 7 -14 2 -14 -14 0 -45 59 -37 72 5 8 10 2 15 -16 4 -15 13 -34 20
-42z m-87 29 c4 -9 2 -21 -4 -27 -7 -7 -10 -4 -10 10 0 16 -2 17 -10 4 -8 -13
-10 -13 -10 1 0 30 24 39 34 12z m-1667 1 c-3 -3 -12 -4 -19 -1 -8 3 -5 6 6 6
11 1 17 -2 13 -5z m1703 -44 c5 8 12 11 16 7 11 -10 -15 -114 -32 -127 -17
-15 -19 -1 -5 46 5 19 5 37 -1 48 -6 10 -6 29 -2 44 l8 27 4 -29 c3 -22 6 -26
12 -16z m720 25 c0 -8 -4 -15 -10 -15 -5 0 -7 7 -4 15 4 8 8 15 10 15 2 0 4
-7 4 -15z m-750 -83 c0 -7 -4 -10 -10 -7 -5 3 -10 16 -10 28 0 18 2 19 10 7 5
-8 10 -21 10 -28z m-37 -23 c22 2 26 0 21 -14 -12 -31 -43 -2 -42 40 0 17 1
17 6 -3 4 -13 10 -23 15 -23z m154 -12 c15 -9 18 -53 4 -61 -5 -3 -12 9 -15
28 -4 19 -14 40 -22 47 -14 11 -18 10 -30 -6 -20 -26 -18 -10 2 21 l17 25 15
-23 c9 -13 22 -27 29 -31z m283 -3 c0 -8 -5 -12 -10 -9 -6 4 -8 11 -5 16 9 14
15 11 15 -7z m146 -11 c-10 -10 -19 5 -10 18 6 11 8 11 12 0 2 -7 1 -15 -2
-18z m-2012 -4 c-3 -5 0 -9 7 -9 7 0 10 -3 7 -6 -9 -9 -49 16 -43 26 3 5 12 7
20 4 8 -4 12 -10 9 -15z m1449 -29 c-3 -11 -7 -20 -9 -20 -2 0 -4 9 -4 20 0
11 4 20 9 20 5 0 7 -9 4 -20z m-44 -50 c0 -10 -3 -8 -9 5 -12 27 -12 43 0 25
5 -8 9 -22 9 -30z m74 -22 c-2 -5 -8 -8 -14 -8 -11 0 -12 31 -2 57 6 15 8 13
13 -12 4 -16 5 -33 3 -37z m-113 -2 c-1 -17 -2 -18 -9 -6 -5 8 -12 26 -15 40
-7 24 -6 24 8 6 9 -11 16 -29 16 -40z m70 18 c0 -8 -5 -12 -10 -9 -6 4 -8 11
-5 16 9 14 15 11 15 -7z m-95 -43 c-3 -12 -10 -21 -15 -21 -12 0 -18 49 -6 53
18 7 29 -9 21 -32z m132 -6 c8 -22 -6 -33 -17 -15 -13 20 -12 30 0 30 6 0 13
-7 17 -15z m157 -48 c-7 -18 -24 -23 -24 -8 0 22 13 42 22 33 5 -5 6 -16 2
-25z m-114 -37 c-18 -33 -25 -15 -9 22 9 23 15 28 17 16 2 -9 -2 -27 -8 -38z
m-124 -7 c-10 -10 -19 5 -10 18 6 11 8 11 12 0 2 -7 1 -15 -2 -18z m304 -13
c0 -5 -4 -10 -10 -10 -5 0 -10 5 -10 10 0 6 5 10 10 10 6 0 10 -4 10 -10z
m-287 -32 c3 -12 2 -29 -4 -39 -5 -10 -9 -26 -9 -37 0 -11 -7 -22 -15 -26 -9
-3 -15 0 -15 10 0 9 5 12 12 8 8 -5 9 0 5 17 -4 13 -7 28 -7 33 0 4 -7 6 -15
2 -21 -8 -19 4 7 31 27 29 34 29 41 1z m580 -18 c-3 -12 -8 -19 -11 -16 -5 6
5 36 12 36 2 0 2 -9 -1 -20z m-223 -4 c0 -3 -4 -8 -10 -11 -5 -3 -10 -1 -10 4
0 6 5 11 10 11 6 0 10 -2 10 -4z m-289 -39 c-13 -13 -26 -3 -16 12 3 6 11 8
17 5 6 -4 6 -10 -1 -17z m276 -9 c-3 -8 -6 -5 -6 6 -1 11 2 17 5 13 3 -3 4
-12 1 -19z m223 -8 c-6 -11 -15 -20 -20 -20 -14 0 -12 6 6 24 21 22 27 20 14
-4z m-480 1 c0 -5 -9 -13 -20 -16 -11 -3 -20 -13 -20 -21 0 -8 -4 -14 -10 -14
-16 0 -12 12 12 37 22 24 38 30 38 14z m67 -43 c-2 -13 -4 -5 -4 17 -1 22 1
32 4 23 2 -10 2 -28 0 -40z m-151 -26 c-4 -3 -12 0 -19 8 -9 10 -9 11 1 6 8
-5 12 2 13 21 l2 28 4 -28 c3 -16 2 -31 -1 -35z m284 38 c0 -5 -4 -10 -10 -10
-5 0 -10 5 -10 10 0 6 5 10 10 10 6 0 10 -4 10 -10z m-373 -22 c-3 -8 -6 -5
-6 6 -1 11 2 17 5 13 3 -3 4 -12 1 -19z m53 -3 c0 -12 -29 -3 -34 10 -4 13 -2
14 14 5 11 -6 20 -13 20 -15z m79 -62 c1 -7 -3 -13 -9 -13 -5 0 -10 15 -9 33
0 27 2 29 9 12 5 -11 9 -26 9 -32z m-39 -37 c-14 -14 -22 -2 -14 18 5 14 9 15
15 4 4 -7 4 -17 -1 -22z m70 4 c0 -5 -2 -10 -4 -10 -3 0 -8 5 -11 10 -3 6 -1
10 4 10 6 0 11 -4 11 -10z m170 -30 c0 -11 -4 -20 -10 -20 -5 0 -10 9 -10 20
0 11 5 20 10 20 6 0 10 -9 10 -20z m-375 -11 c-4 -5 1 -9 9 -9 21 0 52 -68 38
-82 -12 -12 -46 8 -37 22 3 5 0 14 -7 22 -16 17 -23 72 -8 63 6 -3 8 -11 5
-16z m241 -6 c-10 -10 -19 5 -10 18 6 11 8 11 12 0 2 -7 1 -15 -2 -18z m111
-55 c-3 -8 -6 -5 -6 6 -1 11 2 17 5 13 3 -3 4 -12 1 -19z m-133 4 c-7 -4 -16
-26 -20 -49 -9 -41 -9 -42 -21 -18 -6 14 -7 23 -3 20 4 -3 13 9 19 25 5 17 16
30 23 30 9 0 10 -2 2 -8z m-71 -27 c-22 -17 -30 -11 -13 10 7 8 17 12 22 9 5
-3 1 -12 -9 -19z m187 5 c0 -5 -5 -10 -11 -10 -5 0 -7 5 -4 10 3 6 8 10 11 10
2 0 4 -4 4 -10z m117 -22 c-3 -8 -6 -5 -6 6 -1 11 2 17 5 13 3 -3 4 -12 1 -19z
m-342 -8 c3 -5 2 -10 -4 -10 -5 0 -13 5 -16 10 -3 6 -2 10 4 10 5 0 13 -4 16
-10z m185 -5 c0 -12 -19 -12 -23 0 -4 9 -1 12 9 8 7 -3 14 -7 14 -8z m-149
-105 c-9 -22 -10 -21 -6 10 5 52 7 57 12 35 2 -12 -1 -32 -6 -45z m59 15 c0
-8 -4 -15 -10 -15 -5 0 -7 7 -4 15 4 8 8 15 10 15 2 0 4 -7 4 -15z m-220 -11
c0 -3 -7 -12 -15 -20 -16 -17 -18 -14 -9 10 6 15 24 23 24 10z m104 -26 c-4
-6 -10 -5 -15 3 -14 22 -10 33 6 19 8 -7 12 -17 9 -22z m-144 4 c0 -5 -6 -17
-14 -28 -10 -13 -14 -14 -13 -4 4 26 27 54 27 32z m64 -29 c-3 -12 -12 -24
-19 -27 -10 -3 -9 3 2 25 17 34 25 34 17 2z m186 23 c0 -3 -4 -8 -10 -11 -5
-3 -10 -1 -10 4 0 6 5 11 10 11 6 0 10 -2 10 -4z m110 0 c0 -3 -4 -8 -10 -11
-5 -3 -10 -1 -10 4 0 6 5 11 10 11 6 0 10 -2 10 -4z m-300 -85 c0 -5 -7 -11
-14 -14 -10 -4 -13 -1 -9 9 6 15 23 19 23 5z m-100 -33 c0 -5 -7 -8 -15 -8
-17 0 -18 2 -9 25 5 13 8 14 15 3 5 -7 9 -16 9 -20z m315 -98 c3 -5 1 -10 -4
-10 -6 0 -11 5 -11 10 0 6 2 10 4 10 3 0 8 -4 11 -10z m-198 -126 c12 -11 13
-18 4 -27 -8 -8 -11 -7 -11 6 0 9 -4 17 -10 17 -5 0 -10 5 -10 10 0 14 9 12
27 -6z m-19 -106 c2 -10 -8 -20 -27 -26 -31 -11 -45 0 -16 12 8 3 15 13 15 22
0 20 24 13 28 -8z m102 -2 c0 -3 -4 -8 -10 -11 -5 -3 -10 -1 -10 4 0 6 5 11
10 11 6 0 10 -2 10 -4z m80 -16 c0 -5 -5 -10 -11 -10 -5 0 -7 5 -4 10 3 6 8
10 11 10 2 0 4 -4 4 -10z m-440 -41 c0 -11 5 -17 10 -14 6 3 10 -3 10 -15 0
-18 -3 -19 -20 -10 -25 14 -43 4 -37 -20 6 -22 -23 -37 -35 -18 -12 19 -10 25
10 40 11 7 24 23 31 36 15 28 31 29 31 1z m270 -55 c0 -21 -27 -17 -33 5 -3
14 0 17 14 14 11 -3 19 -12 19 -19z m44 -79 c-4 -8 -11 -15 -16 -15 -6 0 -5 6
2 15 7 8 14 15 16 15 2 0 1 -7 -2 -15z m-414 -5 c0 -13 -28 -25 -38 -16 -3 4
0 11 8 16 20 13 30 12 30 0z m130 -4 c0 -11 -19 -15 -25 -6 -3 5 1 10 9 10 9
0 16 -2 16 -4z"/>
<path d="M5220 6490 c0 -5 5 -10 10 -10 6 0 10 5 10 10 0 6 -4 10 -10 10 -5 0
-10 -4 -10 -10z"/>
<path d="M4905 6430 c-3 -5 -1 -10 4 -10 6 0 11 5 11 10 0 6 -2 10 -4 10 -3 0
-8 -4 -11 -10z"/>
<path d="M4518 6083 c-29 -35 -30 -42 -1 -39 15 2 30 11 34 22 12 35 -8 46
-33 17z"/>
<path d="M4575 6080 c-3 -5 3 -10 14 -10 12 0 21 5 21 10 0 6 -6 10 -14 10 -8
0 -18 -4 -21 -10z"/>
<path d="M4815 5980 c4 -6 11 -8 16 -5 14 9 11 15 -7 15 -8 0 -12 -5 -9 -10z"/>
<path d="M4780 5961 c0 -12 39 -25 47 -17 4 3 -1 6 -10 6 -9 0 -17 5 -17 10 0
6 -4 10 -10 10 -5 0 -10 -4 -10 -9z"/>
<path d="M4690 5930 c0 -5 5 -10 10 -10 6 0 10 5 10 10 0 6 -4 10 -10 10 -5 0
-10 -4 -10 -10z"/>
<path d="M3985 5920 c-4 -7 -23 -18 -41 -26 -38 -16 -50 -56 -14 -47 11 3 20
0 20 -6 0 -6 -5 -11 -10 -11 -6 0 -10 -8 -8 -17 2 -10 -3 -18 -11 -18 -21 0
-24 -20 -6 -35 12 -10 19 -10 27 -2 7 7 8 12 4 12 -5 0 -3 7 4 15 7 8 21 15
31 15 11 0 19 5 19 10 0 6 7 10 15 10 9 0 25 9 37 20 12 10 25 17 29 14 5 -3
6 1 3 9 -3 8 2 17 10 20 9 4 16 13 16 22 0 12 -4 13 -17 7 -21 -11 -85 -4 -94
10 -4 6 -9 5 -14 -2z"/>
<path d="M4657 5866 c-16 -12 -15 -13 8 -13 15 0 25 5 25 13 0 17 -10 17 -33
0z"/>
<path d="M3623 5654 c-28 -32 -29 -54 -3 -54 13 0 20 7 20 19 0 11 9 23 20 26
11 3 20 13 20 21 0 23 -33 16 -57 -12z"/>
<path d="M3359 5591 c-13 -11 -22 -22 -19 -24 3 -3 16 3 29 14 13 11 22 22 19
25 -3 2 -16 -4 -29 -15z"/>
<path d="M3570 5600 c0 -5 5 -10 10 -10 6 0 10 5 10 10 0 6 -4 10 -10 10 -5 0
-10 -4 -10 -10z"/>
<path d="M3977 5444 c-8 -8 1 -24 14 -24 5 0 9 7 9 15 0 15 -12 20 -23 9z"/>
<path d="M2857 4923 c-10 -10 -8 -45 2 -39 11 7 21 46 12 46 -4 0 -11 -3 -14
-7z"/>
<path d="M2860 4785 c-11 -13 -10 -14 4 -9 9 3 16 10 16 15 0 13 -6 11 -20 -6z"/>
<path d="M2876 4643 c8 -33 12 -39 20 -30 4 3 3 14 -1 24 -5 10 -7 21 -7 26 1
4 -3 7 -8 7 -6 0 -8 -11 -4 -27z"/>
<path d="M2850 4610 c0 -5 5 -10 10 -10 6 0 10 5 10 10 0 6 -4 10 -10 10 -5 0
-10 -4 -10 -10z"/>
<path d="M2760 4460 c0 -5 4 -10 9 -10 6 0 13 5 16 10 3 6 -1 10 -9 10 -9 0
-16 -4 -16 -10z"/>
<path d="M2745 4420 c3 -5 8 -10 11 -10 2 0 4 5 4 10 0 6 -5 10 -11 10 -5 0
-7 -4 -4 -10z"/>
<path d="M2871 3524 c0 -11 3 -14 6 -6 3 7 2 16 -1 19 -3 4 -6 -2 -5 -13z"/>
<path d="M2796 3217 c5 -13 2 -16 -11 -10 -17 6 -18 1 -11 -52 8 -72 24 -88
60 -62 16 12 18 22 12 70 -4 32 -12 57 -17 57 -5 0 -9 -5 -9 -12 0 -6 -7 -3
-15 8 -13 16 -14 16 -9 1z"/>
<path d="M3370 2880 c0 -5 7 -10 16 -10 8 0 12 5 9 10 -3 6 -10 10 -16 10 -5
0 -9 -4 -9 -10z"/>
<path d="M3622 2868 c7 -20 58 -23 58 -4 0 11 -10 16 -31 16 -20 0 -29 -4 -27
-12z"/>
<path d="M3360 2801 c0 -4 9 -20 21 -35 16 -20 18 -30 10 -40 -12 -14 -2 -27
32 -39 13 -5 17 -1 17 16 0 13 5 28 11 34 7 7 -3 19 -36 42 -50 33 -55 36 -55
22z"/>
<path d="M3543 2724 c-7 -18 11 -39 25 -30 12 7 4 46 -9 46 -6 0 -12 -7 -16
-16z"/>
<path d="M3386 2661 c-5 -13 -4 -27 2 -33 14 -14 20 2 12 32 l-6 25 -8 -24z"/>
<path d="M2962 2620 c0 -14 2 -19 5 -12 2 6 2 18 0 25 -3 6 -5 1 -5 -13z"/>
<path d="M4330 2214 c0 -8 5 -12 10 -9 6 3 10 10 10 16 0 5 -4 9 -10 9 -5 0
-10 -7 -10 -16z"/>
<path d="M3676 2212 c-2 -4 -1 -14 5 -22 7 -12 9 -10 9 8 0 23 -5 28 -14 14z"/>
<path d="M5451 2154 c0 -11 3 -14 6 -6 3 7 2 16 -1 19 -3 4 -6 -2 -5 -13z"/>
<path d="M3885 2090 c3 -5 8 -10 11 -10 2 0 4 5 4 10 0 6 -5 10 -11 10 -5 0
-7 -4 -4 -10z"/>
<path d="M4285 2090 c4 -6 11 -8 16 -5 14 9 11 15 -7 15 -8 0 -12 -5 -9 -10z"/>
<path d="M5357 2083 c-4 -3 -7 -11 -7 -17 0 -6 5 -5 12 2 6 6 9 14 7 17 -3 3
-9 2 -12 -2z"/>
<path d="M3955 2050 c-3 -6 -17 -7 -31 -4 -26 7 -32 -8 -12 -30 16 -17 58 2
58 27 0 19 -6 22 -15 7z"/>
<path d="M5150 2041 c0 -5 11 -11 25 -13 17 -4 25 -1 25 8 0 8 -11 14 -25 14
-14 0 -25 -4 -25 -9z"/>
<path d="M5225 2040 c3 -5 10 -10 16 -10 5 0 9 5 9 10 0 6 -7 10 -16 10 -8 0
-12 -4 -9 -10z"/>
<path d="M4135 2020 c-3 -11 -15 -20 -26 -20 -10 0 -19 -4 -19 -10 0 -5 6 -10
13 -10 6 0 21 -3 32 -6 17 -4 20 0 21 31 1 38 -11 47 -21 15z"/>
<path d="M5415 2030 c-3 -5 -1 -10 4 -10 6 0 11 5 11 10 0 6 -2 10 -4 10 -3 0
-8 -4 -11 -10z"/>
<path d="M5053 1993 c-22 -8 -14 -23 12 -23 14 0 29 -8 35 -20 6 -11 15 -20
20 -20 18 0 11 29 -12 50 -22 20 -32 23 -55 13z"/>
<path d="M5187 1970 c-18 -36 -9 -39 16 -5 9 13 13 26 8 30 -5 3 -16 -8 -24
-25z"/>
<path d="M5351 1983 c0 -5 4 -17 9 -28 8 -18 9 -17 9 8 1 15 -3 27 -9 27 -5 0
-10 -3 -9 -7z"/>
<path d="M4183 1954 c-7 -20 32 -58 50 -47 6 4 4 11 -6 18 -10 7 -17 17 -17
23 0 19 -20 24 -27 6z"/>
<path d="M4830 1960 c0 -5 5 -10 10 -10 6 0 10 5 10 10 0 6 -4 10 -10 10 -5 0
-10 -4 -10 -10z"/>
<path d="M4760 1921 c0 -12 5 -21 10 -21 6 0 10 6 10 14 0 8 -4 18 -10 21 -5
3 -10 -3 -10 -14z"/>
<path d="M5183 1915 c6 -7 15 -11 20 -8 13 8 7 19 -13 20 -16 1 -17 -1 -7 -12z"/>
<path d="M5356 1915 c4 -8 8 -15 10 -15 2 0 4 7 4 15 0 8 -4 15 -10 15 -5 0
-7 -7 -4 -15z"/>
<path d="M4890 1893 c0 -5 5 -15 10 -23 8 -12 10 -11 10 8 0 12 -4 22 -10 22
-5 0 -10 -3 -10 -7z"/>
<path d="M3950 1880 c0 -5 5 -10 10 -10 6 0 10 5 10 10 0 6 -4 10 -10 10 -5 0
-10 -4 -10 -10z"/>
<path d="M5241 1874 c0 -11 3 -14 6 -6 3 7 2 16 -1 19 -3 4 -6 -2 -5 -13z"/>
<path d="M3520 1851 c0 -6 5 -13 10 -16 6 -3 10 1 10 9 0 9 -4 16 -10 16 -5 0
-10 -4 -10 -9z"/>
<path d="M3561 1844 c0 -11 3 -14 6 -6 3 7 2 16 -1 19 -3 4 -6 -2 -5 -13z"/>
<path d="M4156 1843 c-6 -14 -5 -15 5 -6 7 7 10 15 7 18 -3 3 -9 -2 -12 -12z"/>
<path d="M4760 1849 c0 -5 5 -7 10 -4 6 3 10 8 10 11 0 2 -4 4 -10 4 -5 0 -10
-5 -10 -11z"/>
<path d="M3990 1843 c0 -6 5 -15 11 -19 6 -3 9 -14 6 -24 -2 -9 4 -22 14 -29
11 -6 19 -16 19 -22 0 -17 32 -38 57 -39 12 0 24 -6 26 -12 4 -10 8 -10 15 1
10 14 8 20 -15 66 -6 12 -7 29 -1 44 11 31 4 37 -23 18 -19 -14 -24 -14 -45
-1 -13 9 -28 13 -35 9 -6 -4 -15 -1 -20 6 -6 9 -9 10 -9 2z"/>
<path d="M4871 1841 c-8 -5 -11 -16 -7 -26 5 -15 7 -15 22 0 19 19 7 39 -15
26z"/>
<path d="M5080 1833 c0 -5 4 -15 10 -23 11 -18 25 -7 17 15 -6 15 -27 21 -27
8z"/>
<path d="M4751 1814 c0 -11 3 -14 6 -6 3 7 2 16 -1 19 -3 4 -6 -2 -5 -13z"/>
<path d="M5620 1816 c0 -9 5 -16 10 -16 6 0 10 4 10 9 0 6 -4 13 -10 16 -5 3
-10 -1 -10 -9z"/>
<path d="M3950 1806 c0 -9 5 -16 10 -16 6 0 10 4 10 9 0 6 -4 13 -10 16 -5 3
-10 -1 -10 -9z"/>
<path d="M4290 1811 c0 -15 40 -50 56 -51 6 0 11 14 12 30 1 32 -12 40 -22 14
-6 -15 -8 -15 -26 1 -13 12 -20 14 -20 6z"/>
<path d="M5390 1791 c0 -5 5 -13 10 -16 6 -3 10 -2 10 4 0 5 -4 13 -10 16 -5
3 -10 2 -10 -4z"/>
<path d="M5690 1769 c0 -5 5 -7 10 -4 6 3 10 8 10 11 0 2 -4 4 -10 4 -5 0 -10
-5 -10 -11z"/>
<path d="M5574 1756 c-3 -8 1 -23 10 -31 15 -15 16 -15 16 4 0 12 0 24 1 28 1
15 -21 14 -27 -1z"/>
<path d="M4160 1720 c0 -5 5 -10 10 -10 6 0 10 5 10 10 0 6 -4 10 -10 10 -5 0
-10 -4 -10 -10z"/>
<path d="M5531 1690 c-9 -31 -9 -44 1 -59 10 -16 10 -23 0 -33 -9 -9 -8 -16 5
-31 11 -11 18 -35 18 -58 0 -32 2 -37 11 -24 16 21 24 19 24 -7 0 -18 2 -20
10 -8 5 9 5 19 -2 27 -7 9 -7 17 2 28 7 9 10 18 7 22 -4 3 -2 12 5 20 13 17 4
28 -17 20 -8 -4 -15 -18 -15 -33 0 -34 -12 -24 -16 13 -2 17 3 33 12 40 13 10
13 13 -6 26 -17 12 -20 21 -14 56 8 53 -9 54 -25 1z"/>
<path d="M5005 1710 c-3 -5 -1 -10 4 -10 6 0 11 5 11 10 0 6 -2 10 -4 10 -3 0
-8 -4 -11 -10z"/>
<path d="M3910 1700 c0 -5 7 -7 15 -4 8 4 15 8 15 10 0 2 -7 4 -15 4 -8 0 -15
-4 -15 -10z"/>
<path d="M4551 1694 c-7 -8 -11 -16 -10 -17 2 -2 12 -8 21 -15 13 -11 20 -11
37 0 18 11 28 10 69 -12 26 -13 49 -28 52 -32 6 -8 50 1 50 11 0 3 -4 12 -9
20 -7 11 -11 10 -20 -5 -10 -18 -10 -18 -11 3 0 28 -79 71 -91 51 -6 -9 -13
-9 -34 0 -33 15 -37 15 -54 -4z"/>
<path d="M3830 1683 c0 -25 15 -38 25 -22 4 6 0 18 -9 27 -15 15 -16 15 -16
-5z"/>
<path d="M5340 1689 c0 -5 5 -7 10 -4 6 3 10 8 10 11 0 2 -4 4 -10 4 -5 0 -10
-5 -10 -11z"/>
<path d="M5672 1678 c-16 -16 -15 -33 3 -48 17 -14 21 -45 5 -35 -12 7 -12
-12 0 -40 8 -19 9 -19 9 3 1 13 6 33 12 44 9 17 8 24 -6 34 -11 8 -15 19 -10
33 7 24 4 26 -13 9z"/>
<path d="M4793 1673 c-7 -2 -13 -11 -13 -20 0 -20 34 -12 38 10 3 17 -3 20
-25 10z"/>
<path d="M5416 1613 c4 -21 7 -58 7 -83 0 -25 2 -39 4 -32 3 6 9 12 14 12 6 0
9 -6 8 -12 -3 -16 30 -92 37 -85 2 2 0 16 -6 31 -7 19 -7 34 1 49 9 16 9 22 0
25 -6 2 -9 13 -5 26 6 24 -18 42 -38 30 -7 -5 -9 2 -6 19 3 15 0 28 -6 31 -7
3 -7 5 2 5 17 1 15 21 -3 21 -12 0 -14 -8 -9 -37z"/>
<path d="M5056 1611 c-4 -7 -5 -15 -2 -18 9 -9 19 4 14 18 -4 11 -6 11 -12 0z"/>
<path d="M5280 1569 c-18 -33 -6 -42 13 -9 10 16 14 30 8 30 -6 0 -15 -9 -21
-21z"/>
<path d="M4898 1556 c-3 -17 -1 -23 8 -19 7 2 14 -1 17 -9 2 -7 3 -4 1 6 -2
11 2 26 8 33 8 10 6 13 -10 13 -13 0 -21 -8 -24 -24z"/>
<path d="M5505 1540 c-3 -5 -1 -10 4 -10 6 0 11 5 11 10 0 6 -2 10 -4 10 -3 0
-8 -4 -11 -10z"/>
<path d="M3796 1511 c-7 -10 25 -71 37 -71 4 0 7 -7 7 -15 0 -13 4 -13 28 2
54 35 54 47 0 73 -46 22 -64 25 -72 11z"/>
<path d="M4872 1485 c0 -16 2 -22 5 -12 2 9 2 23 0 30 -3 6 -5 -1 -5 -18z"/>
<path d="M5513 1475 c0 -22 2 -30 4 -17 2 12 2 30 0 40 -3 9 -5 -1 -4 -23z"/>
<path d="M4160 1490 c0 -5 7 -10 16 -10 8 0 12 5 9 10 -3 6 -10 10 -16 10 -5
0 -9 -4 -9 -10z"/>
<path d="M5426 1461 c-4 -5 -2 -12 3 -15 5 -4 12 -2 15 3 4 5 2 12 -3 15 -5 4
-12 2 -15 -3z"/>
<path d="M5625 1460 c3 -5 8 -10 11 -10 2 0 4 5 4 10 0 6 -5 10 -11 10 -5 0
-7 -4 -4 -10z"/>
<path d="M5347 1445 c-16 -15 -12 -59 4 -49 5 3 7 9 4 14 -3 5 -1 19 5 30 13
24 7 26 -13 5z"/>
<path d="M5534 1448 c-7 -10 20 -38 38 -38 4 0 8 11 8 25 0 18 -5 25 -19 25
-11 0 -23 -5 -27 -12z"/>
<path d="M5290 1440 c0 -5 5 -10 10 -10 6 0 10 5 10 10 0 6 -4 10 -10 10 -5 0
-10 -4 -10 -10z"/>
<path d="M5600 1395 c-10 -12 -10 -15 3 -15 8 0 20 7 27 15 10 12 10 15 -3 15
-8 0 -20 -7 -27 -15z"/>
<path d="M4017 1387 c-3 -7 4 -24 14 -38 19 -25 24 -15 13 29 -7 25 -19 29
-27 9z"/>
<path d="M5523 1383 c-7 -2 -13 -12 -13 -21 -1 -15 -3 -14 -15 2 -17 23 -20
21 -29 -16 -4 -17 -2 -28 4 -28 5 0 10 5 10 11 0 6 9 9 20 6 11 -3 18 -1 15 3
-3 5 5 10 17 12 13 2 24 11 26 21 3 17 -10 21 -35 10z"/>
<path d="M4986 1371 c-4 -7 -5 -15 -2 -18 9 -9 19 4 14 18 -4 11 -6 11 -12 0z"/>
<path d="M4910 1350 c-9 -5 -11 -20 -7 -46 6 -37 20 -54 45 -54 18 0 15 27 -5
34 -12 5 -14 9 -5 18 27 27 3 67 -28 48z"/>
<path d="M5025 1340 c-3 -5 -1 -10 4 -10 6 0 11 5 11 10 0 6 -2 10 -4 10 -3 0
-8 -4 -11 -10z"/>
<path d="M4253 1303 c-18 -7 -16 -40 3 -47 25 -10 64 -7 64 5 0 10 -40 49 -50
48 -3 0 -11 -3 -17 -6z"/>
<path d="M5604 1266 c3 -11 6 -24 6 -28 0 -18 20 -6 20 11 0 11 6 21 13 24 6
2 -1 6 -16 9 -25 5 -28 3 -23 -16z"/>
<path d="M4796 1245 c-3 -8 -1 -25 5 -37 9 -23 9 -23 5 1 -3 14 0 31 6 38 7 8
7 13 0 13 -5 0 -12 -7 -16 -15z"/>
<path d="M5360 1239 c0 -11 4 -18 10 -14 5 3 7 12 3 20 -7 21 -13 19 -13 -6z"/>
<path d="M5225 1237 c-4 -10 -5 -21 -1 -24 10 -10 18 4 13 24 -4 17 -4 17 -12
0z"/>
<path d="M4400 1230 c0 -5 4 -10 9 -10 5 0 18 -3 28 -6 16 -5 16 -4 -1 10 -23
18 -36 20 -36 6z"/>
<path d="M5286 1224 c-4 -9 -4 -19 -1 -22 2 -3 7 3 11 12 4 9 4 19 1 22 -2 3
-7 -3 -11 -12z"/>
<path d="M5155 1220 c2 -3 -3 -20 -11 -35 -12 -23 -13 -35 -5 -53 11 -23 -3
-71 -16 -58 -3 3 -14 1 -24 -5 -20 -10 -26 -39 -9 -39 6 0 10 7 10 15 0 8 7
15 15 15 9 0 12 -6 8 -17 -4 -11 -3 -14 5 -9 8 5 12 -1 12 -18 0 -19 -7 -27
-25 -32 -21 -5 -23 -9 -14 -21 9 -10 14 -11 19 -2 4 6 12 9 18 5 6 -3 17 3 25
14 15 22 29 17 20 -6 -3 -8 3 -21 13 -28 16 -12 20 -11 32 3 12 14 13 13 9
-10 -3 -20 3 -29 24 -42 17 -9 31 -12 34 -6 4 5 -1 9 -9 9 -10 0 -16 9 -16 23
0 30 -11 44 -43 56 -19 8 -27 18 -27 35 0 30 -9 56 -21 56 -4 0 -6 -6 -3 -14
3 -8 1 -17 -5 -21 -6 -3 -11 0 -11 9 0 8 -5 16 -12 18 -8 3 -5 13 10 33 25 32
28 47 7 39 -12 -5 -12 0 -5 28 6 18 17 38 25 44 13 10 12 12 -9 16 -14 3 -24
2 -21 -2z"/>
<path d="M4610 1206 c0 -8 5 -18 10 -21 6 -3 10 3 10 14 0 12 -4 21 -10 21 -5
0 -10 -6 -10 -14z"/>
<path d="M4354 1185 c-4 -8 2 -27 12 -43 10 -15 27 -44 37 -64 23 -45 42 -62
62 -54 20 7 19 23 -2 29 -17 4 -17 5 0 6 9 0 17 6 17 11 0 6 7 10 15 10 8 0
15 -4 15 -10 0 -5 7 -10 15 -10 18 0 20 19 3 25 -7 3 -24 6 -38 8 -15 2 -30
14 -38 30 -13 27 -67 77 -83 77 -5 0 -12 -7 -15 -15z"/>
<path d="M5346 1135 c4 -16 12 -36 20 -44 11 -12 15 -10 24 13 14 39 13 45
-11 39 -12 -4 -25 0 -30 8 -6 9 -7 4 -3 -16z"/>
<path d="M5196 1138 c3 -4 9 -8 15 -8 5 0 9 4 9 8 0 5 -7 9 -15 9 -8 0 -12 -4
-9 -9z"/>
<path d="M4320 1120 c0 -10 9 -24 19 -30 18 -9 20 -7 19 20 -1 22 -6 30 -20
30 -11 0 -18 -7 -18 -20z"/>
<path d="M4840 1128 c0 -9 5 -20 10 -23 13 -8 13 5 0 25 -8 13 -10 13 -10 -2z"/>
<path d="M5213 1103 c-7 -3 -13 -17 -13 -31 0 -24 1 -25 16 -10 18 18 16 47
-3 41z"/>
<path d="M5260 1090 c0 -5 5 -10 11 -10 5 0 7 5 4 10 -3 6 -8 10 -11 10 -2 0
-4 -4 -4 -10z"/>
<path d="M5395 1071 c-8 -16 -20 -31 -26 -33 -9 -3 -9 -12 -2 -33 l9 -29 19
22 c11 12 23 22 27 22 16 0 7 -26 -12 -38 -21 -13 -27 -56 -10 -67 6 -3 10 5
10 18 0 16 7 26 19 30 13 3 18 11 16 23 -2 11 -7 40 -10 67 -7 54 -18 59 -40
18z m35 -20 c0 -12 -20 -25 -27 -18 -7 7 6 27 18 27 5 0 9 -4 9 -9z"/>
<path d="M4810 1070 c0 -5 7 -10 16 -10 8 0 12 5 9 10 -3 6 -10 10 -16 10 -5
0 -9 -4 -9 -10z"/>
<path d="M4858 1052 c-20 -4 -24 -17 -8 -27 6 -4 8 -16 4 -27 -4 -15 -2 -19
11 -16 24 4 44 36 29 46 -6 4 -13 12 -15 17 -2 6 -12 9 -21 7z"/>
<path d="M5472 1027 c1 -21 -4 -43 -10 -49 -15 -15 -15 -28 -2 -28 6 0 10 7
10 15 0 8 5 15 10 15 12 0 12 37 0 65 -6 15 -8 11 -8 -18z"/>
<path d="M4580 1020 c0 -5 7 -10 16 -10 8 0 12 5 9 10 -3 6 -10 10 -16 10 -5
0 -9 -4 -9 -10z"/>
<path d="M4936 945 c4 -8 10 -15 15 -15 5 0 9 -7 9 -15 0 -17 16 -20 25 -4 7
11 -27 49 -44 49 -6 0 -8 -7 -5 -15z"/>
<path d="M5120 920 c0 -11 5 -20 10 -20 6 0 10 9 10 20 0 11 -4 20 -10 20 -5
0 -10 -9 -10 -20z"/>
<path d="M5160 900 c0 -5 -9 -10 -19 -10 -15 0 -18 -5 -13 -22 8 -34 35 -54
62 -48 13 3 26 12 28 19 3 9 -2 11 -17 6 -17 -5 -21 -2 -21 14 0 12 4 21 9 21
5 0 11 7 15 15 4 11 -1 15 -19 15 -14 0 -25 -4 -25 -10z"/>
<path d="M5418 880 c-7 -24 -3 -38 8 -28 3 4 4 17 2 30 l-3 23 -7 -25z"/>
<path d="M5473 885 c-16 -18 -16 -38 -1 -53 9 -9 9 -12 -2 -12 -21 0 -49 -30
-43 -46 3 -8 13 -14 22 -14 9 0 23 -6 30 -12 11 -11 14 -10 18 0 3 6 9 9 15 6
6 -4 8 1 4 14 -4 12 -3 30 3 40 14 27 -13 65 -29 42 -9 -11 -10 -7 -5 18 7 36
6 38 -12 17z m27 -100 c0 -8 -4 -15 -10 -15 -5 0 -10 7 -10 15 0 8 5 15 10 15
6 0 10 -7 10 -15z"/>
<path d="M5035 869 c-4 -6 -5 -12 -2 -15 2 -3 7 2 10 11 7 17 1 20 -8 4z"/>
<path d="M5315 820 c-3 -5 -1 -10 4 -10 6 0 11 5 11 10 0 6 -2 10 -4 10 -3 0
-8 -4 -11 -10z"/>
<path d="M5105 780 c-8 -13 15 -24 27 -12 6 6 4 11 -6 15 -8 3 -18 2 -21 -3z"/>
<path d="M5190 779 c0 -5 5 -7 10 -4 6 3 10 8 10 11 0 2 -4 4 -10 4 -5 0 -10
-5 -10 -11z"/>
<path d="M5245 780 c3 -5 8 -10 11 -10 2 0 4 5 4 10 0 6 -5 10 -11 10 -5 0 -7
-4 -4 -10z"/>
<path d="M5520 780 c0 -5 5 -10 10 -10 6 0 10 5 10 10 0 6 -4 10 -10 10 -5 0
-10 -4 -10 -10z"/>
<path d="M5260 750 c-9 -16 -8 -22 5 -26 19 -8 20 -6 29 24 9 29 -19 31 -34 2z"/>
<path d="M5315 760 c3 -5 8 -10 11 -10 2 0 4 5 4 10 0 6 -5 10 -11 10 -5 0 -7
-4 -4 -10z"/>
<path d="M5400 756 c0 -11 8 -16 28 -15 15 0 21 3 12 6 -8 3 -21 10 -27 16 -9
7 -13 5 -13 -7z"/>
<path d="M4790 750 c0 -5 5 -10 11 -10 5 0 7 5 4 10 -3 6 -8 10 -11 10 -2 0
-4 -4 -4 -10z"/>
<path d="M5225 750 c-3 -5 -1 -10 4 -10 6 0 11 5 11 10 0 6 -2 10 -4 10 -3 0
-8 -4 -11 -10z"/>
<path d="M5150 731 c0 -10 -7 -22 -16 -25 -8 -3 -12 -10 -9 -16 9 -15 55 19
55 41 0 11 -7 19 -15 19 -8 0 -15 -9 -15 -19z"/>
<path d="M5095 730 c-8 -13 4 -32 16 -25 12 8 12 35 0 35 -6 0 -13 -4 -16 -10z"/>
<path d="M4920 714 c0 -8 5 -12 10 -9 6 4 8 11 5 16 -9 14 -15 11 -15 -7z"/>
<path d="M5168 688 c-32 -11 -38 -38 -8 -38 14 0 20 -7 20 -21 0 -12 8 -28 18
-35 20 -16 36 -18 27 -4 -10 16 18 50 37 44 12 -4 18 0 18 11 0 16 -32 17 -57
2 -8 -5 -13 -3 -13 7 0 8 5 18 10 21 13 8 3 25 -13 24 -7 0 -24 -5 -39 -11z"/>
<path d="M5090 644 c0 -9 5 -14 12 -12 18 6 21 28 4 28 -9 0 -16 -7 -16 -16z"/>
<path d="M5138 597 c-4 -19 -1 -27 8 -27 15 0 16 6 5 35 -7 17 -8 17 -13 -8z"/>
<path d="M5057 592 c-16 -17 -16 -20 -2 -26 16 -6 30 14 23 34 -2 7 -11 4 -21
-8z"/>
<path d="M4910 591 c0 -6 9 -11 19 -11 11 0 22 -6 24 -12 3 -8 6 -6 6 5 1 9
-3 17 -8 17 -5 0 -16 3 -25 6 -9 3 -16 1 -16 -5z"/>
<path d="M3712 4988 c-11 -11 -17 -68 -8 -68 3 0 17 5 32 10 26 10 26 11 9 30
-10 12 -13 20 -7 20 7 0 12 5 12 10 0 14 -23 13 -38 -2z"/>
<path d="M3740 4840 c0 -5 5 -10 10 -10 6 0 10 5 10 10 0 6 -4 10 -10 10 -5 0
-10 -4 -10 -10z"/>
<path d="M3597 4815 c3 -8 9 -12 14 -9 12 7 11 11 -5 17 -10 4 -13 1 -9 -8z"/>
<path d="M3680 4665 c0 -8 4 -15 10 -15 5 0 7 7 4 15 -4 8 -8 15 -10 15 -2 0
-4 -7 -4 -15z"/>
<path d="M4440 4540 c0 -14 29 -32 40 -25 6 3 8 10 5 14 -7 12 -45 21 -45 11z"/>
<path d="M4481 4478 c0 -16 2 -18 6 -8 3 8 11 18 17 22 7 5 4 8 -6 8 -12 0
-18 -7 -17 -22z"/>
<path d="M4590 4446 c0 -14 5 -26 10 -26 6 0 10 9 10 19 0 11 -4 23 -10 26 -6
4 -10 -5 -10 -19z"/>
<path d="M4510 4442 c0 -25 -26 -48 -33 -30 -4 10 -7 10 -14 0 -7 -9 -14 -7
-32 9 -12 12 -25 18 -29 14 -4 -4 -1 -10 6 -12 6 -3 12 -11 12 -19 0 -8 7 -17
15 -20 8 -4 15 -15 15 -25 0 -10 4 -19 10 -19 5 0 7 6 5 13 -3 6 11 25 30 41
35 30 43 50 25 61 -5 3 -10 -3 -10 -13z"/>
<path d="M4352 4384 c1 -9 9 -19 16 -22 9 -3 13 2 10 14 -1 9 -9 19 -16 22 -9
3 -13 -2 -10 -14z"/>
<path d="M3830 4370 c19 -13 30 -13 30 0 0 6 -10 10 -22 10 -19 0 -20 -2 -8
-10z"/>
<path d="M4520 4355 c0 -8 2 -15 4 -15 2 0 12 -3 21 -7 15 -5 16 -3 6 15 -13
25 -31 29 -31 7z"/>
<path d="M4480 4344 c0 -8 5 -12 10 -9 6 4 8 11 5 16 -9 14 -15 11 -15 -7z"/>
<path d="M3858 4296 c-18 -14 -24 -27 -10 -25 24 4 35 -2 25 -12 -8 -8 -20 -9
-42 -1 -16 6 -39 8 -50 5 -20 -5 -20 -6 5 -26 25 -19 27 -20 39 -3 10 13 14
14 18 4 4 -10 7 -11 18 0 7 6 23 12 35 12 13 0 26 5 29 10 4 6 1 9 -7 8 -8 -2
-13 6 -12 20 1 25 -21 29 -48 8z"/>
<path d="M4265 4122 c-3 -8 -1 -20 4 -25 14 -14 78 1 85 20 5 13 4 14 -8 3
-12 -9 -21 -9 -45 3 -27 13 -30 13 -36 -1z"/>
<path d="M4581 4047 c-18 -18 -13 -27 14 -27 15 0 25 6 25 14 0 19 -25 27 -39
13z"/>
<path d="M4529 3967 c-15 -12 -24 -28 -22 -34 7 -19 21 -16 49 10 20 19 23 26
12 34 -10 8 -20 6 -39 -10z"/>
<path d="M4336 3936 c21 -15 30 -14 19 3 -3 6 -14 11 -23 11 -13 0 -13 -2 4
-14z"/>
<path d="M4403 3933 c9 -2 23 -2 30 0 6 3 -1 5 -18 5 -16 0 -22 -2 -12 -5z"/>
<path d="M3720 3819 c0 -5 5 -7 10 -4 6 3 10 8 10 11 0 2 -4 4 -10 4 -5 0 -10
-5 -10 -11z"/>
<path d="M4088 4993 c7 -3 16 -2 19 1 4 3 -2 6 -13 5 -11 0 -14 -3 -6 -6z"/>
<path d="M5337 3449 c5 -16 8 -18 15 -7 7 10 10 9 19 -5 9 -16 29 -15 29 1 0
7 -48 32 -61 32 -4 0 -5 -9 -2 -21z"/>
<path d="M4298 3183 c7 -3 16 -2 19 1 4 3 -2 6 -13 5 -11 0 -14 -3 -6 -6z"/>
<path d="M4260 2591 c0 -5 7 -12 16 -15 24 -9 28 -7 14 9 -14 17 -30 20 -30 6z"/>
</g>
</svg>
