<?xml version="1.0" standalone="no"?>
<!DOCTYPE svg PUBLIC "-//W3C//DTD SVG 20010904//EN"
 "http://www.w3.org/TR/2001/REC-SVG-20010904/DTD/svg10.dtd">
<svg version="1.0" xmlns="http://www.w3.org/2000/svg"
 width="275.000000pt" height="183.000000pt" viewBox="0 0 275.000000 183.000000"
 preserveAspectRatio="xMidYMid meet">

<g transform="translate(0.000000,183.000000) scale(0.100000,-0.100000)"
fill="#000000" stroke="none">
<path d="M0 915 l0 -915 1375 0 1375 0 0 915 0 915 -1375 0 -1375 0 0 -915z
m1515 459 c164 -40 315 -152 410 -304 15 -24 42 -80 59 -125 29 -76 31 -87 31
-230 0 -131 -3 -158 -23 -215 -81 -228 -271 -403 -495 -455 -51 -12 -57 -12
-55 2 2 9 -3 18 -11 21 -9 3 -11 0 -6 -8 5 -9 4 -11 -4 -6 -18 11 6 36 27 29
10 -3 8 1 -6 11 -12 10 -20 22 -17 27 4 5 -5 13 -19 19 -14 5 -26 15 -26 21 0
7 -9 4 -22 -7 -16 -13 -19 -14 -10 -2 14 18 7 61 -13 78 -20 16 4 60 33 60 12
0 22 5 22 10 0 6 -7 10 -15 10 -22 0 -18 17 6 23 16 4 19 10 14 28 -6 18 -4
21 9 16 10 -4 15 -3 11 3 -4 7 3 9 19 6 15 -3 24 -1 21 5 -4 5 -10 7 -15 4
-10 -6 -30 26 -30 49 0 9 7 16 16 16 14 0 14 1 0 16 -11 10 -14 24 -10 41 5
20 4 24 -6 18 -12 -8 -12 -5 2 80 2 11 8 24 13 28 6 6 6 10 -2 14 -7 2 -13 16
-13 29 0 22 10 29 34 25 16 -4 56 22 56 35 0 7 7 20 16 29 9 8 13 22 10 30 -3
9 0 12 8 9 8 -3 17 -1 21 5 3 6 -1 11 -9 11 -9 0 -16 6 -16 14 0 9 7 12 20 9
18 -5 20 -11 14 -52 -4 -37 -1 -55 19 -94 14 -26 28 -48 31 -48 34 3 57 -2 70
-15 18 -18 36 -11 36 14 1 28 26 52 51 50 21 -3 24 2 26 30 1 18 4 40 7 47 6
17 -10 30 -17 15 -3 -6 -4 -5 -3 2 2 7 8 13 13 13 6 0 15 3 19 8 4 4 2 7 -5 7
-6 0 -21 16 -33 36 -19 32 -22 34 -31 17 -15 -27 -15 -27 -32 -13 -8 7 -15 9
-15 6 0 -4 -7 0 -16 8 -8 9 -13 20 -9 25 3 5 1 12 -5 16 -5 3 -10 18 -10 33 0
17 -13 41 -36 65 -19 20 -30 37 -24 37 6 0 9 4 5 9 -3 6 -18 3 -34 -7 -27 -15
-30 -15 -45 1 -33 33 -86 16 -86 -28 -1 -20 -1 -20 -15 -1 -8 11 -15 33 -15
49 0 24 -3 27 -21 22 -15 -5 -19 -4 -15 4 4 6 0 18 -8 27 -17 17 -22 54 -7 54
5 0 15 -10 23 -22 l15 -22 12 23 c12 22 13 22 26 4 8 -10 15 -13 15 -6 0 6 -4
15 -10 18 -16 10 -12 35 6 35 9 0 14 7 12 18 -3 11 -12 16 -26 15 -15 -2 -21
1 -16 8 4 7 0 9 -14 5 -13 -4 -22 -1 -26 9 -3 8 -12 15 -21 15 -9 0 -15 9 -15
23 0 18 -2 19 -10 7 -5 -8 -10 -10 -10 -5 0 6 -5 3 -10 -5 -7 -11 -9 -6 -7 17
1 18 7 33 14 33 7 0 10 6 7 14 -11 27 77 27 191 0z m-225 -28 c0 -3 -4 -8 -10
-11 -5 -3 -10 -1 -10 4 0 6 5 11 10 11 6 0 10 -2 10 -4z m115 -146 c3 -5 1
-10 -4 -10 -6 0 -11 5 -11 10 0 6 2 10 4 10 3 0 8 -4 11 -10z m2 -292 c-3 -8
-6 -5 -6 6 -1 11 2 17 5 13 3 -3 4 -12 1 -19z m-17 -19 c0 -5 -7 -9 -15 -9
-15 0 -20 12 -9 23 8 8 24 -1 24 -14z m99 -73 c10 -12 8 -13 -8 -9 -12 3 -21
9 -21 14 0 14 16 11 29 -5z m291 -86 c0 -5 -4 -10 -10 -10 -5 0 -10 5 -10 10
0 6 5 10 10 10 6 0 10 -4 10 -10z m-363 -607 c-4 -3 -2 -11 3 -18 7 -8 5 -12
-5 -12 -8 0 -12 4 -9 9 3 4 0 8 -5 8 -6 0 -11 5 -11 10 0 6 8 10 17 10 9 0 13
-3 10 -7z m-31 -28 c1 -8 -2 -13 -7 -9 -5 3 -9 12 -9 21 0 19 13 9 16 -12z"/>
<path d="M1895 740 c3 -5 8 -10 11 -10 2 0 4 5 4 10 0 6 -5 10 -11 10 -5 0 -7
-4 -4 -10z"/>
<path d="M1881 694 c0 -11 3 -14 6 -6 3 7 2 16 -1 19 -3 4 -6 -2 -5 -13z"/>
<path d="M1440 516 c0 -9 5 -16 10 -16 6 0 10 4 10 9 0 6 -4 13 -10 16 -5 3
-10 -1 -10 -9z"/>
</g>
</svg>
