<?xml version="1.0" standalone="no"?>
<!DOCTYPE svg PUBLIC "-//W3C//DTD SVG 20010904//EN"
 "http://www.w3.org/TR/2001/REC-SVG-20010904/DTD/svg10.dtd">
<svg version="1.0" xmlns="http://www.w3.org/2000/svg"
 width="600.000000pt" height="553.000000pt" viewBox="0 0 600.000000 553.000000"
 preserveAspectRatio="xMidYMid meet">

<g transform="translate(0.000000,553.000000) scale(0.100000,-0.100000)"
fill="#000000" stroke="none">
<path d="M0 2765 l0 -2765 3000 0 3000 0 0 2765 0 2765 -3000 0 -3000 0 0
-2765z m3350 2060 c596 -100 1121 -438 1447 -930 52 -77 177 -316 187 -355 4
-14 -20 30 -53 97 -162 333 -441 646 -756 848 -243 157 -545 272 -841 322
-148 24 -513 25 -663 0 -234 -38 -442 -105 -643 -207 -186 -94 -327 -191 -520
-359 l-73 -64 80 79 c319 316 763 524 1245 583 111 14 477 5 590 -14z m-1930
-668 c0 -2 -12 -14 -27 -28 l-28 -24 24 28 c23 25 31 32 31 24z m-50 -60 c0
-2 -10 -12 -22 -23 l-23 -19 19 23 c18 21 26 27 26 19z m-60 -71 c0 -2 -8 -10
-17 -17 -16 -13 -17 -12 -4 4 13 16 21 21 21 13z m3714 -596 c5 -20 3 -19 -8
5 -7 17 -16 41 -20 55 -5 20 -3 19 8 -5 7 -16 16 -41 20 -55z m113 -712 c-2
-24 -4 -7 -4 37 0 44 2 63 4 43 2 -21 2 -57 0 -80z"/>
</g>
</svg>
