<?xml version="1.0" standalone="no"?>
<!DOCTYPE svg PUBLIC "-//W3C//DTD SVG 20010904//EN"
 "http://www.w3.org/TR/2001/REC-SVG-20010904/DTD/svg10.dtd">
<svg version="1.0" xmlns="http://www.w3.org/2000/svg"
 width="1280.000000pt" height="1280.000000pt" viewBox="0 0 1280.000000 1280.000000"
 preserveAspectRatio="xMidYMid meet">

<g transform="translate(0.000000,1280.000000) scale(0.100000,-0.100000)"
fill="#000000" stroke="none">
<path d="M0 6400 l0 -6400 6400 0 6400 0 0 6400 0 6400 -6400 0 -6400 0 0
-6400z m6740 4029 c47 -5 136 -14 198 -19 63 -6 172 -26 245 -44 73 -19 161
-40 197 -47 36 -6 88 -22 116 -35 29 -12 78 -29 110 -38 144 -41 555 -245 669
-332 24 -18 54 -38 67 -46 58 -31 240 -171 357 -273 209 -183 330 -310 462
-485 23 -30 47 -59 53 -65 10 -9 109 -156 161 -240 11 -16 37 -64 58 -105 21
-41 45 -82 52 -90 7 -8 16 -26 20 -40 4 -14 27 -63 50 -110 87 -173 164 -371
185 -475 4 -22 17 -67 28 -100 29 -87 42 -149 42 -198 0 -24 5 -68 10 -98 9
-49 13 -88 26 -274 13 -167 12 -280 -2 -307 -20 -39 -18 -51 8 -43 20 7 21 5
15 -40 -4 -27 -12 -54 -17 -60 -16 -19 -26 -175 -11 -175 22 0 11 -31 -15 -40
-18 -7 -24 -15 -20 -28 14 -47 17 -90 7 -96 -6 -4 -11 -22 -11 -41 0 -19 -4
-37 -10 -40 -12 -7 -28 -66 -34 -125 -2 -25 -9 -58 -14 -75 -5 -16 -7 -35 -5
-41 2 -6 -3 -17 -11 -23 -10 -9 -13 -22 -9 -42 6 -33 -9 -69 -44 -109 -13 -14
-23 -38 -23 -55 -1 -16 -7 -41 -15 -55 -8 -14 -14 -38 -15 -53 0 -35 -26 -87
-43 -87 -7 0 -21 -19 -31 -42 -10 -24 -28 -66 -42 -93 -13 -28 -24 -58 -24
-67 0 -9 -3 -18 -7 -20 -5 -1 -21 -22 -36 -45 -28 -41 -29 -70 -1 -59 8 3 14
3 14 0 0 -15 -32 -63 -59 -87 -17 -15 -31 -33 -31 -41 0 -8 -7 -16 -15 -20 -8
-3 -14 -10 -13 -15 4 -11 -41 -51 -58 -51 -7 0 -26 -24 -43 -53 -17 -29 -42
-59 -56 -67 -14 -7 -25 -19 -25 -27 0 -7 -4 -13 -9 -13 -5 0 -12 -9 -16 -19
-3 -11 -12 -18 -19 -15 -10 4 -12 -2 -9 -20 7 -34 -11 -54 -52 -62 -26 -5 -32
-10 -28 -25 3 -12 0 -19 -8 -19 -10 -1 -9 -4 3 -11 16 -9 16 -11 -4 -31 -13
-13 -35 -22 -53 -23 -28 0 -30 -3 -30 -35 0 -29 -4 -36 -22 -38 -14 -2 -35
-21 -52 -45 -28 -42 -38 -48 -114 -83 -21 -9 -45 -28 -54 -41 -8 -13 -31 -30
-49 -39 -19 -9 -34 -20 -34 -25 0 -5 -8 -18 -17 -30 -10 -11 -25 -29 -33 -39
-8 -9 -30 -21 -48 -24 -17 -4 -32 -12 -32 -17 0 -6 6 -7 13 -3 9 5 9 4 0 -6
-10 -11 -16 -11 -31 3 -10 9 -23 17 -29 17 -14 0 -25 -28 -13 -35 4 -3 10 0
12 7 4 10 9 9 20 -3 14 -14 14 -17 -3 -27 -10 -7 -26 -12 -35 -12 -19 0 -134
-69 -134 -81 0 -4 -18 -10 -40 -14 -52 -9 -108 -36 -195 -94 -70 -47 -176 -83
-183 -62 -2 7 -10 6 -22 -2 -14 -8 -18 -18 -14 -34 4 -14 2 -23 -6 -23 -6 0
-8 5 -5 10 3 6 -1 10 -9 10 -9 0 -16 -6 -16 -13 0 -20 -36 -45 -74 -53 -20 -3
-33 -10 -30 -15 3 -5 -1 -9 -8 -9 -10 0 -9 -3 1 -9 12 -8 9 -11 -12 -16 -16
-4 -33 -2 -41 4 -11 9 -15 9 -19 -1 -4 -10 -6 -10 -6 0 -1 7 11 18 27 24 51
21 -6 21 -61 0 -101 -39 -95 -35 -64 -40 18 -2 27 -8 24 -17 -4 -10 3 -10 40
1 38 12 43 12 34 0 -7 -8 -27 -17 -46 -20 -19 -4 -71 -18 -116 -32 -75 -24
-87 -25 -156 -15 -99 15 -146 14 -141 -1 3 -7 14 -14 26 -16 31 -5 27 -22 -5
-23 -103 -3 -143 -7 -155 -16 -7 -6 -23 -14 -35 -17 -18 -6 -22 -4 -17 8 5 12
0 15 -20 14 -35 -3 -33 -10 12 -30 l37 -17 -42 0 c-23 -1 -48 -4 -57 -7 -13
-5 -16 1 -16 25 0 31 -14 39 -60 32 -75 -11 -110 -9 -118 5 -12 21 -160 27
-222 8 -25 -7 -58 -16 -73 -19 -24 -5 -27 -8 -17 -20 7 -8 18 -15 26 -15 7 0
17 -6 21 -13 10 -16 54 -34 106 -43 20 -3 37 -10 37 -15 0 -5 -10 -7 -22 -5
-13 3 -61 10 -108 16 -47 6 -101 16 -121 22 -20 6 -42 7 -49 3 -6 -4 -22 3
-36 16 -22 21 -28 22 -56 11 -25 -9 -59 -9 -150 0 -69 7 -113 15 -106 20 8 5
0 8 -22 9 -50 3 -53 3 -75 17 -11 6 -14 12 -7 12 6 0 12 6 12 13 0 7 9 18 20
25 12 7 18 16 16 21 -8 12 29 21 87 21 33 0 47 -4 47 -14 0 -9 15 -14 50 -15
28 0 59 -5 70 -11 28 -15 50 -13 44 5 -4 10 0 15 15 15 12 0 21 -4 21 -9 0 -5
15 -16 34 -25 26 -12 41 -14 60 -6 30 11 36 35 7 25 -12 -3 -21 0 -25 10 -3
10 -13 14 -23 11 -23 -7 -48 8 -39 23 9 14 43 14 51 1 10 -17 35 -11 35 8 0
29 21 42 65 42 46 0 82 21 95 55 7 19 18 24 52 27 36 2 42 6 40 22 -2 11 1 16
10 13 18 -6 48 11 48 28 0 7 9 17 20 20 31 10 24 23 -12 21 -36 -1 -48 26 -15
32 22 4 57 32 57 45 0 5 -11 2 -25 -7 -31 -21 -49 -21 -41 0 5 13 2 15 -13 11
-15 -4 -18 -1 -13 12 4 10 -6 6 -27 -11 -40 -34 -59 -35 -71 -5 -5 12 -9 16
-9 10 -1 -7 -8 -13 -16 -13 -8 0 -15 -7 -15 -15 0 -8 9 -15 20 -15 11 0 20 -5
20 -11 0 -15 -71 -4 -80 12 -6 8 -13 8 -28 0 -15 -8 -28 -8 -49 0 -40 16 -143
18 -143 3 0 -7 6 -15 13 -18 6 -3 3 -5 -8 -3 -12 1 -21 11 -23 25 -4 24 -17
29 -26 10 -5 -10 -7 -10 -12 -1 -3 8 -17 10 -36 6 -22 -4 -29 -3 -24 6 12 18
-22 25 -39 7 -11 -10 -25 -13 -45 -9 -27 5 -31 3 -36 -26 -5 -23 -12 -31 -27
-31 -20 0 -20 0 -1 14 14 11 16 18 8 26 -14 14 -64 -7 -64 -27 0 -7 -9 -13
-21 -13 -11 0 -27 -7 -35 -15 -8 -8 -22 -19 -31 -23 -23 -14 -5 -35 23 -28 28
7 31 -1 7 -20 -11 -8 -13 -13 -5 -14 21 0 13 -19 -15 -34 -24 -12 -31 -12 -56
0 -16 9 -25 20 -21 26 4 6 3 8 -3 5 -6 -4 -22 10 -37 31 -30 44 -32 52 -11 52
8 0 15 -4 15 -10 0 -5 7 -10 15 -10 8 0 15 5 15 10 0 6 8 5 20 -2 28 -18 39 0
11 21 -20 16 -28 16 -60 5 -39 -13 -51 -11 -51 12 0 8 -7 14 -15 14 -8 0 -15
4 -15 9 0 5 7 16 15 25 8 8 15 23 15 32 0 14 -3 15 -12 6 -20 -20 -40 -15 -33
8 6 20 -9 28 -20 10 -4 -7 -12 -7 -24 0 -22 11 -32 4 -24 -17 4 -11 0 -14 -18
-11 -13 2 -23 9 -21 16 1 8 -2 11 -7 8 -5 -4 -13 -1 -16 4 -4 6 -18 15 -32 21
-13 5 -22 13 -19 18 8 12 -21 34 -36 28 -8 -4 -7 -6 5 -6 9 -1 17 -6 17 -11 0
-16 -33 -26 -38 -12 -2 7 -12 12 -23 12 -10 0 -19 4 -19 10 0 16 -29 0 -32
-18 -2 -10 5 -23 17 -29 17 -11 6 -12 -62 -9 -68 2 -83 0 -86 -13 -3 -9 -5 -4
-6 12 -1 25 -21 41 -21 16 0 -6 -12 -1 -26 10 -15 12 -38 21 -53 21 -14 0 -39
9 -55 19 -31 21 -87 21 -112 0 -13 -10 -12 -14 2 -30 16 -18 16 -19 -4 -19
-13 0 -22 6 -22 15 0 8 -5 15 -11 15 -6 0 -9 9 -6 19 7 29 -8 44 -45 45 -34 1
-108 34 -108 47 0 4 -9 5 -20 2 -14 -4 -35 7 -66 32 -41 34 -49 37 -67 26 -17
-11 -21 -11 -28 2 -5 8 -17 13 -27 10 -11 -2 -25 2 -33 9 -8 8 -22 17 -31 21
-10 3 -18 14 -18 23 0 11 -6 15 -18 12 -10 -3 -23 1 -30 9 -22 23 -43 16 -36
-12 4 -14 2 -25 -4 -25 -13 0 -82 66 -82 79 0 5 -11 12 -25 15 -14 4 -25 11
-25 17 0 17 -66 79 -84 79 -9 0 -16 6 -16 13 0 7 -13 26 -29 41 -23 23 -35 27
-59 22 -25 -6 -33 -2 -56 29 -15 19 -32 35 -39 35 -7 0 -17 10 -22 22 -6 13
-19 24 -29 26 -10 2 -42 29 -70 60 -28 30 -66 72 -84 91 -59 63 -62 68 -62 77
0 5 -17 27 -38 49 -42 45 -115 146 -156 215 -24 41 -44 82 -91 182 -8 18 -23
47 -33 63 -10 17 -30 62 -46 100 -31 77 -31 79 -76 184 -36 83 -55 146 -64
210 -4 25 -13 65 -20 90 -24 82 -65 323 -73 436 -14 187 -7 637 10 745 9 52
18 118 21 145 2 28 11 73 20 100 8 28 20 77 26 110 15 75 69 255 109 360 17
44 31 86 31 92 0 7 11 34 24 60 13 27 49 100 80 163 84 170 143 275 203 365
155 230 210 306 267 370 35 39 97 111 139 160 185 218 538 484 914 690 169 92
450 206 563 226 36 7 92 22 125 35 65 24 135 39 253 54 39 5 109 19 155 31 45
11 134 24 197 28 157 11 506 11 610 0z m2803 -4824 c-3 -13 -11 -30 -19 -36
-14 -12 -20 2 -6 15 4 4 8 12 8 17 1 5 2 14 3 19 0 6 5 10 10 10 4 0 6 -11 4
-25z m-62 -128 c-16 -16 -26 0 -10 19 9 11 15 12 17 4 2 -6 -1 -17 -7 -23z
m-511 -657 c0 -5 -4 -10 -10 -10 -5 0 -10 5 -10 10 0 6 5 10 10 10 6 0 10 -4
10 -10z m-4990 -10 c0 -5 -7 -10 -15 -10 -8 0 -15 5 -15 10 0 6 7 10 15 10 8
0 15 -4 15 -10z m4950 -60 c-20 -13 -33 -13 -25 0 3 6 14 10 23 10 15 0 15 -2
2 -10z m-4560 -220 c0 -5 -15 -10 -34 -10 -19 0 -38 5 -41 10 -4 6 10 10 34
10 23 0 41 -4 41 -10z m658 -207 c-10 -2 -26 -2 -35 0 -10 3 -2 5 17 5 19 0
27 -2 18 -5z m132 -53 c0 -5 -4 -10 -10 -10 -5 0 -10 5 -10 10 0 6 5 10 10 10
6 0 10 -4 10 -10z m40 0 c0 -5 -4 -10 -10 -10 -5 0 -10 5 -10 10 0 6 5 10 10
10 6 0 10 -4 10 -10z m328 -42 c3 -13 -3 -18 -22 -18 -14 0 -29 6 -33 14 -4 7
-15 16 -23 19 -8 3 5 5 30 4 34 -1 46 -6 48 -19z m769 -34 c-3 -3 -12 -4 -19
-1 -8 3 -5 6 6 6 11 1 17 -2 13 -5z m-337 -19 c0 -8 -7 -15 -15 -15 -9 0 -12
6 -9 15 4 8 10 15 15 15 5 0 9 -7 9 -15z m164 -36 c-3 -5 -15 -9 -26 -9 -20 0
-20 1 -5 18 10 10 17 25 18 33 0 8 4 3 10 -9 5 -13 7 -28 3 -33z m-524 11 c0
-5 -2 -10 -4 -10 -3 0 -8 5 -11 10 -3 6 -1 10 4 10 6 0 11 -4 11 -10z m960
-10 c0 -5 -6 -10 -14 -10 -8 0 -18 5 -21 10 -3 6 3 10 14 10 12 0 21 -4 21
-10z m-1554 -50 c9 0 13 -4 10 -9 -7 -11 -44 -3 -53 12 -4 7 0 8 11 4 10 -4
24 -7 32 -7z m2244 -260 c0 -5 -9 -10 -21 -10 -11 0 -17 5 -14 10 3 6 13 10
21 10 8 0 14 -4 14 -10z m-142 -25 c-3 -3 -31 -8 -63 -10 -71 -5 -68 2 6 13
53 8 68 7 57 -3z m82 5 c-20 -13 -33 -13 -25 0 3 6 14 10 23 10 15 0 15 -2 2
-10z m-363 -6 c-3 -3 -12 -4 -19 -1 -8 3 -5 6 6 6 11 1 17 -2 13 -5z m-60 -30
c-3 -3 -12 -4 -19 -1 -8 3 -5 6 6 6 11 1 17 -2 13 -5z"/>
<path d="M9715 6310 c3 -5 8 -10 11 -10 2 0 4 5 4 10 0 6 -5 10 -11 10 -5 0
-7 -4 -4 -10z"/>
<path d="M9593 5873 c-15 -5 -17 -23 -4 -23 5 0 11 7 15 15 3 8 4 15 3 14 -1
0 -8 -3 -14 -6z"/>
<path d="M9455 5580 c-3 -5 -1 -10 4 -10 6 0 11 5 11 10 0 6 -2 10 -4 10 -3 0
-8 -4 -11 -10z"/>
<path d="M9378 5416 c-24 -18 -23 -25 2 -19 11 3 20 12 20 19 0 17 0 17 -22 0z"/>
<path d="M8806 4779 c-27 -21 -63 -79 -48 -79 4 0 15 8 24 18 9 9 27 26 40 37
52 43 37 66 -16 24z"/>
<path d="M4168 4673 c6 -2 18 -2 25 0 6 3 1 5 -13 5 -14 0 -19 -2 -12 -5z"/>
<path d="M5645 4460 c3 -5 8 -10 11 -10 2 0 4 5 4 10 0 6 -5 10 -11 10 -5 0
-7 -4 -4 -10z"/>
<path d="M8440 4460 c0 -5 5 -10 10 -10 6 0 10 5 10 10 0 6 -4 10 -10 10 -5 0
-10 -4 -10 -10z"/>
<path d="M5313 4404 c0 -18 4 -24 14 -20 8 3 19 6 24 6 5 0 1 9 -8 20 -23 27
-30 25 -30 -6z"/>
<path d="M8299 4401 c-14 -5 -46 -24 -72 -44 -37 -28 -42 -36 -28 -40 21 -5
42 5 75 38 13 13 36 27 50 31 14 3 23 10 20 15 -6 10 -9 10 -45 0z"/>
<path d="M5520 4350 c0 -4 11 -10 25 -12 14 -3 25 -2 25 2 0 4 -11 10 -25 12
-14 3 -25 2 -25 -2z"/>
<path d="M5200 4310 c0 -5 7 -7 15 -4 8 4 15 8 15 10 0 2 -7 4 -15 4 -8 0 -15
-4 -15 -10z"/>
<path d="M6221 4260 l-23 -20 33 0 c23 0 30 3 20 9 -7 5 -10 14 -7 20 10 15 5
13 -23 -9z"/>
<path d="M6635 4270 c3 -5 12 -7 20 -3 21 7 19 13 -6 13 -11 0 -18 -4 -14 -10z"/>
<path d="M5738 4233 c7 -3 16 -2 19 1 4 3 -2 6 -13 5 -11 0 -14 -3 -6 -6z"/>
<path d="M5720 4210 c0 -5 5 -10 11 -10 5 0 7 5 4 10 -3 6 -8 10 -11 10 -2 0
-4 -4 -4 -10z"/>
<path d="M6740 4170 c0 -5 5 -10 10 -10 6 0 10 5 10 10 0 6 -4 10 -10 10 -5 0
-10 -4 -10 -10z"/>
<path d="M7177 3933 c-15 -14 -6 -23 23 -23 17 0 30 -5 30 -11 0 -5 5 -7 10
-4 6 4 8 11 5 16 -4 5 -1 9 5 9 6 0 8 5 5 10 -7 11 -68 14 -78 3z"/>
<path d="M7327 3933 c-9 -2 -15 -9 -12 -14 4 -5 -3 -9 -15 -9 -12 0 -18 -4
-15 -10 4 -7 19 -4 42 10 l34 20 -5 -22 c-3 -13 -3 -18 0 -12 3 7 15 10 27 8
21 -4 21 -4 2 5 l-20 10 20 0 c17 1 17 3 5 11 -16 10 -33 11 -63 3z"/>
<path d="M7075 3864 c-22 -10 -25 -13 -10 -13 28 1 61 14 49 21 -5 3 -22 -1
-39 -8z"/>
<path d="M5850 3860 c0 -5 15 -10 34 -10 19 0 38 5 41 10 4 6 -10 10 -34 10
-23 0 -41 -4 -41 -10z"/>
</g>
</svg>
