<?xml version="1.0" standalone="no"?>
<!DOCTYPE svg PUBLIC "-//W3C//DTD SVG 20010904//EN"
 "http://www.w3.org/TR/2001/REC-SVG-20010904/DTD/svg10.dtd">
<svg version="1.0" xmlns="http://www.w3.org/2000/svg"
 width="1420.000000pt" height="900.000000pt" viewBox="0 0 1420.000000 900.000000"
 preserveAspectRatio="xMidYMid meet">

<g transform="translate(0.000000,900.000000) scale(0.100000,-0.100000)"
fill="#000000" stroke="none">
<path d="M0 4500 l0 -4500 7100 0 7100 0 0 4500 0 4500 -7100 0 -7100 0 0
-4500z m8633 1435 c28 -31 34 -45 17 -45 -5 0 -10 7 -10 15 0 7 -6 18 -12 22
-25 15 -47 48 -52 78 -6 29 -6 29 11 -5 10 -20 30 -49 46 -65z m146 -253 c13
-31 37 -88 53 -127 17 -38 34 -83 39 -100 4 -16 17 -55 28 -85 12 -30 28 -84
36 -120 9 -36 20 -78 25 -95 5 -16 19 -100 30 -185 35 -249 29 -544 -16 -770
-8 -41 -19 -100 -25 -130 -16 -81 -94 -337 -124 -405 -82 -185 -192 -381 -280
-500 -41 -55 -224 -271 -247 -291 -7 -7 -33 -33 -58 -59 -106 -112 -344 -289
-509 -377 -42 -23 -89 -50 -106 -60 -16 -10 -40 -22 -53 -28 -13 -5 -46 -21
-75 -34 -64 -30 -272 -100 -347 -116 -30 -7 -71 -18 -90 -26 -19 -7 -53 -15
-75 -18 -22 -2 -58 -7 -80 -10 -33 -5 -36 -4 -16 4 17 7 22 16 18 30 -3 11 -1
20 4 20 5 0 9 -10 9 -22 1 -19 2 -20 10 -7 5 9 24 16 47 17 23 1 44 9 53 19
20 23 41 28 34 8 -7 -17 -3 -18 20 -9 9 3 13 10 10 16 -3 5 2 8 12 7 11 -2 25
1 33 5 11 7 13 5 7 -9 -6 -16 -4 -16 11 -4 10 7 37 30 60 51 26 23 53 38 68
38 14 0 25 5 25 10 0 6 9 10 21 10 12 0 38 13 58 29 20 16 48 31 61 33 15 2
25 10 25 20 0 9 4 20 8 24 4 4 7 0 7 -9 0 -9 5 -17 10 -17 6 0 10 7 10 16 0 8
5 12 11 9 5 -4 21 5 35 20 13 14 29 23 34 20 5 -3 7 0 4 9 -4 10 4 16 25 21
17 4 33 11 36 16 4 5 15 9 26 9 10 0 19 5 19 10 0 6 9 10 20 10 11 0 20 5 20
11 0 5 -6 7 -12 3 -7 -4 -2 5 11 19 14 15 33 27 43 27 12 0 23 11 29 28 9 27
59 61 59 40 0 -6 6 -5 15 2 20 17 19 1 -2 -22 -9 -10 -12 -18 -7 -18 15 1 46
49 39 61 -4 5 -1 17 6 25 20 24 3 27 -20 3 -12 -13 -21 -19 -21 -14 0 14 52
65 67 65 16 0 17 -22 1 -38 -9 -9 -9 -12 2 -12 21 0 49 30 43 46 -3 8 1 14 9
14 24 0 49 35 41 56 -6 17 -5 17 11 5 15 -13 22 -8 69 44 29 32 56 72 60 89 5
17 15 38 23 46 47 48 63 72 58 84 -3 7 7 21 21 30 15 10 24 20 21 23 -3 3 12
21 34 41 22 19 40 40 40 47 0 8 15 28 33 46 17 18 32 36 32 40 0 9 34 43 50
50 6 2 9 7 7 12 -1 4 3 7 9 7 6 0 9 6 6 13 -2 6 7 29 20 50 49 78 63 107 51
107 -9 0 -9 3 -1 11 6 6 9 17 7 24 -3 7 0 16 7 21 8 4 10 3 5 -4 -4 -7 -3 -12
3 -12 10 0 39 81 40 113 2 73 4 88 12 93 5 3 9 -2 9 -12 0 -15 2 -15 24 -1 22
15 24 15 29 -3 2 -10 0 -23 -6 -29 -20 -20 3 -11 25 9 12 11 18 20 12 20 -5 0
-8 17 -8 37 1 28 5 37 16 35 11 -1 16 6 16 25 0 24 -2 25 -13 10 -14 -19 -30
-24 -19 -5 4 6 6 30 6 53 -1 26 3 47 12 54 9 8 13 25 11 49 -5 43 14 104 29
95 5 -4 7 0 3 10 -4 11 -2 14 8 11 10 -4 13 10 12 71 -2 58 2 78 13 85 13 9
13 11 0 19 -8 5 -18 7 -23 4 -5 -3 -7 5 -5 18 2 13 9 23 15 22 8 -2 9 6 3 27
-5 18 -5 30 1 30 5 0 9 7 9 15 0 8 4 23 9 33 17 33 31 112 31 172 0 36 4 60
11 60 6 0 8 9 3 23 -4 12 -8 45 -10 72 -1 28 -4 78 -8 112 -4 38 -2 64 4 68
14 9 12 56 -5 85 -8 14 -14 21 -15 17 0 -5 -4 -6 -10 -2 -6 4 -6 15 0 31 7 19
7 23 -2 18 -8 -5 -9 -2 -3 12 20 42 5 171 -30 255 -14 35 -25 71 -25 83 0 26
-22 86 -31 86 -4 0 -5 24 -2 54 4 37 2 56 -7 61 -9 6 -11 0 -6 -21 6 -30 -7
-64 -21 -51 -4 5 -1 12 6 16 11 7 11 17 -3 56 -33 99 9 72 53 -33z m61 -882
c0 -5 -4 -10 -10 -10 -5 0 -10 5 -10 10 0 6 5 10 10 10 6 0 10 -4 10 -10z
m-30 -580 c0 -5 -5 -10 -11 -10 -5 0 -7 5 -4 10 3 6 8 10 11 10 2 0 4 -4 4
-10z m-75 -260 c3 -5 2 -10 -4 -10 -5 0 -13 5 -16 10 -3 6 -2 10 4 10 5 0 13
-4 16 -10z m-15 -78 c0 -15 -2 -15 -10 -2 -13 20 -13 33 0 25 6 -3 10 -14 10
-23z m-582 -937 c-16 -13 -28 -30 -28 -36 0 -7 -3 -10 -6 -6 -8 8 -33 -16 -27
-25 2 -5 -3 -8 -12 -8 -22 0 39 88 68 100 33 12 35 1 5 -25z m-178 -110 c0 -2
-10 -10 -22 -16 -21 -11 -22 -11 -9 4 13 16 31 23 31 12z m-815 -575 c-3 -5
-12 -10 -18 -10 -7 0 -6 4 3 10 19 12 23 12 15 0z m-285 -109 c0 -5 -15 -14
-32 -19 -46 -14 -168 -25 -168 -15 0 15 46 30 69 21 21 -7 96 3 108 16 9 9 23
7 23 -3z m-6630 -1931 c11 -11 20 -29 20 -40 0 -26 -34 -60 -60 -60 -26 0 -60
34 -60 60 0 11 9 29 20 40 11 11 29 20 40 20 11 0 29 -9 40 -20z m100 -52 c-4
-52 -9 -73 -20 -75 -12 -4 -12 -3 -2 5 10 7 13 28 10 76 -2 40 1 66 7 66 6 0
8 -27 5 -72z m416 42 c0 -14 4 -33 8 -43 11 -24 -10 -47 -43 -47 -25 0 -26 2
-26 60 l0 61 30 -3 c24 -2 30 -8 31 -28z m673 13 c0 -11 -3 -13 -6 -5 -2 6
-16 12 -29 12 -18 0 -24 -5 -24 -21 0 -16 5 -20 20 -16 12 3 20 0 20 -8 0 -8
-8 -11 -21 -8 -19 5 -21 3 -17 -25 3 -19 0 -32 -6 -32 -7 0 -11 24 -11 60 l0
60 38 0 c29 0 37 -4 36 -17z m113 -55 c2 -28 -1 -48 -7 -48 -8 0 -12 99 -4
120 3 9 8 -24 11 -72z m100 0 c3 -45 2 -46 -26 -45 -36 2 -56 29 -40 55 7 9
21 17 33 16 14 0 21 5 20 15 -2 23 3 39 7 21 2 -8 4 -36 6 -62z m487 -2 c-11
-37 -22 -66 -24 -64 -3 2 5 35 16 72 11 37 22 66 24 64 3 -2 -5 -35 -16 -72z
m125 66 c3 -5 -8 -6 -25 -4 -37 5 -59 -12 -59 -48 0 -36 22 -53 59 -48 17 2
28 1 25 -4 -9 -14 -57 -9 -76 9 -22 20 -23 61 -1 85 16 18 68 25 77 10z m51
-52 c0 -33 -4 -60 -10 -60 -6 0 -10 27 -10 60 0 33 4 60 10 60 6 0 10 -27 10
-60z m104 43 c0 -11 -3 -13 -6 -5 -2 6 -16 12 -29 12 -18 0 -24 -5 -24 -21 0
-16 5 -20 20 -16 12 3 20 0 20 -8 0 -8 -8 -11 -20 -8 -16 4 -20 0 -20 -21 0
-21 5 -26 24 -26 13 0 27 6 29 13 3 7 6 5 6 -5 1 -14 -7 -18 -36 -18 l-38 0 0
60 0 60 38 0 c29 0 37 -4 36 -17z m43 -38 c-4 -53 -3 -55 21 -55 14 0 28 6 30
13 3 7 6 5 6 -5 1 -14 -7 -18 -36 -18 l-38 0 0 60 c0 33 4 60 10 60 6 0 9 -23
7 -55z m124 5 l18 -51 19 51 c27 68 42 65 42 -10 0 -33 -4 -60 -10 -60 -6 0
-9 23 -8 52 l3 53 -21 -53 c-12 -29 -23 -51 -25 -50 -1 2 -12 26 -23 53 l-21
50 2 -53 c2 -30 -1 -52 -7 -52 -6 0 -10 27 -10 60 0 75 16 79 41 10z m214 -57
c8 -10 6 -13 -8 -13 -13 0 -19 6 -18 18 1 13 -7 17 -29 17 -22 0 -30 -4 -29
-17 1 -12 -5 -18 -20 -18 -12 0 -16 3 -10 8 6 4 22 31 35 61 l23 55 22 -50
c13 -27 28 -55 34 -61z m84 50 l37 -58 -3 58 c-2 33 1 57 7 57 6 0 9 -24 7
-60 -2 -33 -8 -60 -12 -60 -5 0 -25 26 -45 58 l-36 57 3 -58 c2 -33 -1 -57 -7
-57 -6 0 -10 27 -10 60 0 37 4 60 11 60 6 0 28 -26 48 -57z m101 -3 c0 -33 -4
-60 -10 -60 -6 0 -10 27 -10 60 0 33 4 60 10 60 6 0 10 -27 10 -60z m135 -47
c8 -10 6 -13 -8 -13 -13 0 -19 6 -18 18 1 13 -7 17 -29 17 -22 0 -30 -4 -29
-17 1 -12 -5 -18 -20 -18 -12 0 -16 3 -10 8 6 4 22 31 35 61 l23 55 22 -50
c13 -27 28 -55 34 -61z m-2096 65 c8 -5 7 -8 -1 -8 -16 0 -18 -56 -3 -63 6 -3
5 -4 -2 -3 -14 3 -26 60 -19 91 3 14 6 16 9 5 3 -8 10 -18 16 -22z m190 0 c8
-5 7 -8 -1 -8 -16 0 -18 -56 -3 -63 6 -3 5 -4 -2 -3 -14 3 -26 60 -19 91 3 14
6 16 9 5 3 -8 10 -18 16 -22z m-776 -21 c3 -13 -3 -17 -23 -17 -17 0 -25 -5
-22 -12 2 -7 14 -13 26 -12 15 0 19 -2 11 -10 -7 -7 -16 -7 -28 0 -22 14 -27
41 -11 60 16 19 43 14 47 -9z m83 -19 c5 -35 5 -36 -25 -35 -37 2 -42 27 -8
42 30 13 28 29 -3 23 -13 -3 -22 -1 -19 4 3 5 16 8 27 6 16 -2 23 -12 28 -40z
m100 0 c3 -21 2 -38 -3 -38 -4 0 -8 16 -8 36 0 28 -3 35 -17 32 -13 -2 -18
-13 -18 -36 0 -17 -4 -32 -10 -32 -7 0 -12 67 -6 76 1 1 13 1 28 0 24 -1 29
-6 34 -38z m240 0 c5 -35 5 -36 -25 -35 -37 2 -42 27 -8 42 30 13 28 29 -3 23
-13 -3 -22 -1 -19 4 3 5 16 8 27 6 16 -2 23 -12 28 -40z m103 20 c15 -24 -4
-53 -34 -52 -18 1 -21 -4 -18 -28 3 -16 0 -28 -6 -28 -7 0 -10 23 -9 62 1 35
2 63 2 64 1 1 13 1 27 0 15 -1 32 -9 38 -18z m108 -18 c2 -23 -1 -40 -7 -40
-7 0 -12 57 -6 78 4 12 10 -5 13 -38z m88 31 c0 -4 -11 -6 -25 -3 -33 6 -32
-12 1 -27 14 -6 24 -17 22 -24 -5 -14 -58 -23 -58 -9 0 5 11 7 25 4 14 -2 25
0 25 5 0 5 -11 15 -25 21 -25 12 -31 23 -18 35 9 10 53 8 53 -2z m138 -14 c3
-13 -3 -17 -23 -17 -17 0 -25 -5 -22 -12 2 -7 14 -13 26 -12 15 0 19 -2 11
-10 -7 -7 -16 -7 -28 0 -22 14 -27 41 -11 60 16 19 43 14 47 -9z m210 0 c3
-13 -3 -17 -23 -17 -17 0 -25 -5 -22 -12 2 -7 14 -13 26 -12 15 0 19 -2 11
-10 -7 -7 -16 -7 -28 0 -22 14 -27 41 -11 60 16 19 43 14 47 -9z m293 -19 c3
-21 2 -38 -3 -38 -4 0 -8 16 -8 36 0 28 -3 35 -17 32 -13 -2 -18 -13 -18 -36
0 -17 -5 -32 -10 -32 -7 0 -9 15 -7 36 4 31 2 35 -14 32 -14 -2 -19 -12 -19
-36 0 -17 -4 -32 -10 -32 -7 0 -12 69 -6 76 1 0 25 0 53 0 l53 -1 6 -37z m90
0 c5 -35 5 -36 -25 -35 -37 2 -42 27 -8 42 30 13 28 29 -3 23 -13 -3 -22 -1
-19 4 3 5 16 8 27 6 16 -2 23 -12 28 -40z m100 0 c3 -21 2 -38 -3 -38 -4 0 -8
16 -8 36 0 28 -3 35 -17 32 -13 -2 -18 -13 -18 -36 0 -17 -4 -32 -10 -32 -7 0
-12 67 -6 76 1 1 13 1 28 0 24 -1 29 -6 34 -38z m100 0 c3 -21 2 -38 -3 -38
-4 0 -8 16 -8 36 0 28 -3 35 -17 32 -13 -2 -18 -13 -18 -36 0 -17 -4 -32 -10
-32 -7 0 -12 67 -6 76 1 1 13 1 28 0 24 -1 29 -6 34 -38z m-1408 5 c-7 -2 -21
-2 -30 0 -10 3 -4 5 12 5 17 0 24 -2 18 -5z"/>
<path d="M8869 5323 c-13 -16 -12 -17 4 -4 9 7 17 15 17 17 0 8 -8 3 -21 -13z"/>
<path d="M8928 4925 c-8 -8 2 -45 13 -45 10 0 10 8 0 33 -3 10 -9 15 -13 12z"/>
<path d="M8861 4284 c0 -11 3 -14 6 -6 3 7 2 16 -1 19 -3 4 -6 -2 -5 -13z"/>
<path d="M8806 4109 c-22 -77 -24 -90 -13 -86 12 4 31 87 22 95 -2 3 -6 -1 -9
-9z"/>
<path d="M8682 3708 c-7 -7 -12 -19 -12 -27 0 -9 6 -7 20 9 11 13 20 25 20 27
0 7 -17 2 -28 -9z"/>
<path d="M8552 3467 c-15 -26 -17 -37 -8 -37 15 0 40 43 34 61 -2 7 -14 -4
-26 -24z"/>
<path d="M8541 3353 c-7 -8 -11 -16 -8 -19 2 -2 10 2 17 11 17 20 9 27 -9 8z"/>
<path d="M8410 3260 c-9 -16 -8 -18 5 -14 8 4 15 12 15 20 0 20 -7 17 -20 -6z"/>
<path d="M8450 3239 c-13 -24 -4 -41 10 -19 10 16 13 40 5 40 -2 0 -9 -9 -15
-21z"/>
<path d="M8338 3165 c-10 -13 -18 -30 -18 -37 0 -7 9 2 21 21 24 39 22 49 -3
16z"/>
<path d="M8270 3119 c0 -5 5 -7 10 -4 6 3 10 8 10 11 0 2 -4 4 -10 4 -5 0 -10
-5 -10 -11z"/>
<path d="M8342 3088 c-7 -7 -12 -17 -12 -24 0 -7 -16 -26 -35 -43 -20 -17 -32
-31 -27 -31 13 0 56 41 77 74 19 28 17 44 -3 24z"/>
<path d="M8265 3081 c-3 -5 -1 -12 5 -16 5 -3 10 1 10 9 0 18 -6 21 -15 7z"/>
<path d="M7935 2760 c-3 -5 -1 -10 4 -10 6 0 11 5 11 10 0 6 -2 10 -4 10 -3 0
-8 -4 -11 -10z"/>
<path d="M8010 2699 c0 -5 5 -7 10 -4 6 3 10 8 10 11 0 2 -4 4 -10 4 -5 0 -10
-5 -10 -11z"/>
<path d="M7850 2615 c-7 -9 -11 -18 -8 -20 3 -3 11 1 18 10 7 9 11 18 8 20 -3
3 -11 -1 -18 -10z"/>
<path d="M7750 2583 c0 -5 5 -15 10 -23 7 -12 9 -10 7 8 -1 19 -17 33 -17 15z"/>
<path d="M7780 2570 c0 -5 4 -10 9 -10 6 0 13 5 16 10 3 6 -1 10 -9 10 -9 0
-16 -4 -16 -10z"/>
<path d="M7625 2440 c-3 -5 -1 -10 4 -10 6 0 11 5 11 10 0 6 -2 10 -4 10 -3 0
-8 -4 -11 -10z"/>
<path d="M156 214 c-31 -30 -9 -84 34 -84 24 0 50 26 50 50 0 24 -26 50 -50
50 -10 0 -26 -7 -34 -16z m58 -13 c3 -4 -6 -6 -19 -3 -21 3 -25 0 -25 -18 0
-18 4 -21 25 -18 13 3 22 1 19 -3 -3 -5 -14 -9 -25 -9 -22 0 -34 22 -25 45 6
16 41 21 50 6z"/>
<path d="M700 209 c0 -25 33 -22 38 4 2 12 -3 17 -17 17 -15 0 -21 -6 -21 -21z"/>
<path d="M700 155 c0 -22 4 -26 23 -23 14 2 22 10 22 23 0 13 -8 21 -22 23
-19 3 -23 -1 -23 -23z"/>
<path d="M1574 176 c-9 -24 4 -48 23 -44 12 2 18 12 18 28 0 29 -32 41 -41 16z"/>
<path d="M2712 195 c-11 -23 -10 -25 14 -25 22 0 24 2 13 23 -6 12 -13 23 -14
25 -1 1 -7 -9 -13 -23z"/>
<path d="M3032 195 c-11 -23 -10 -25 14 -25 22 0 24 2 13 23 -6 12 -13 23 -14
25 -1 1 -7 -9 -13 -23z"/>
<path d="M375 180 c-3 -5 3 -10 14 -10 12 0 21 5 21 10 0 6 -6 10 -14 10 -8 0
-18 -4 -21 -10z"/>
<path d="M455 149 c-4 -6 -4 -13 -1 -16 8 -8 36 5 36 17 0 13 -27 13 -35 -1z"/>
<path d="M795 149 c-4 -6 -4 -13 -1 -16 8 -8 36 5 36 17 0 13 -27 13 -35 -1z"/>
<path d="M894 176 c-9 -24 4 -48 23 -44 12 2 18 12 18 28 0 29 -32 41 -41 16z"/>
<path d="M1235 180 c-3 -5 3 -10 14 -10 12 0 21 5 21 10 0 6 -6 10 -14 10 -8
0 -18 -4 -21 -10z"/>
<path d="M1445 180 c-3 -5 3 -10 14 -10 12 0 21 5 21 10 0 6 -6 10 -14 10 -8
0 -18 -4 -21 -10z"/>
<path d="M1825 149 c-4 -6 -4 -13 -1 -16 8 -8 36 5 36 17 0 13 -27 13 -35 -1z"/>
</g>
</svg>
