<?xml version="1.0" standalone="no"?>
<!DOCTYPE svg PUBLIC "-//W3C//DTD SVG 20010904//EN"
 "http://www.w3.org/TR/2001/REC-SVG-20010904/DTD/svg10.dtd">
<svg version="1.0" xmlns="http://www.w3.org/2000/svg"
 width="900.000000pt" height="500.000000pt" viewBox="0 0 900.000000 500.000000"
 preserveAspectRatio="xMidYMid meet">

<g transform="translate(0.000000,500.000000) scale(0.100000,-0.100000)"
fill="#000000" stroke="none">
<path d="M0 2500 l0 -2500 4500 0 4500 0 0 2500 0 2500 -4500 0 -4500 0 0
-2500z m4947 1704 c-3 -3 -12 -4 -19 -1 -8 3 -5 6 6 6 11 1 17 -2 13 -5z m142
-38 c136 -32 395 -184 583 -343 262 -222 460 -566 545 -947 30 -138 41 -386
24 -559 -38 -393 -231 -778 -536 -1070 -64 -61 -97 -84 -79 -55 4 7 3 8 -5 4
-6 -4 -9 -11 -6 -16 7 -12 -107 -101 -122 -95 -7 2 -12 -1 -10 -8 1 -7 -6 -11
-16 -11 -10 1 -16 -1 -12 -4 8 -8 -86 -67 -175 -109 -135 -64 -163 -74 -157
-60 6 15 -30 17 -52 3 -12 -8 -11 -11 5 -17 16 -6 15 -8 -11 -14 -16 -4 -43
-14 -58 -22 -44 -22 -43 -8 0 15 21 11 37 25 36 31 -2 6 2 11 7 11 6 0 10 5
10 10 0 6 -7 10 -15 10 -8 0 -15 -4 -15 -10 0 -5 -5 -10 -11 -10 -8 0 -8 4 0
14 14 17 51 28 51 14 0 -5 7 -2 16 6 19 20 28 20 21 2 -4 -10 -1 -13 8 -9 8 3
12 10 8 17 -4 6 -6 18 -5 27 4 25 -23 30 -41 8 -9 -10 -13 -19 -7 -19 5 0 12
5 15 10 4 6 11 8 16 4 6 -3 3 -12 -8 -19 -24 -18 -42 -2 -35 32 3 18 1 24 -7
19 -6 -4 -11 -2 -11 3 0 17 -18 13 -23 -4 -4 -11 -4 -10 -3 2 1 19 36 25 48 9
4 -6 11 -7 15 -2 4 5 2 11 -5 13 -10 4 -10 8 -1 19 7 9 8 14 1 14 -6 0 -12 -5
-14 -11 -4 -12 -38 -1 -38 12 0 5 8 8 18 7 32 -2 52 2 52 12 0 5 -6 7 -13 4
-8 -3 -20 3 -27 13 -12 15 -12 16 0 6 8 -7 19 -13 25 -13 5 1 -1 10 -14 20
-13 11 -19 20 -14 20 5 0 19 -9 31 -20 12 -11 26 -20 33 -20 8 0 8 -4 -1 -15
-6 -8 -9 -19 -6 -24 4 -5 2 -12 -4 -16 -5 -3 -10 -11 -10 -16 0 -6 5 -7 10 -4
6 3 10 1 10 -6 0 -7 3 -10 6 -6 4 3 14 -2 23 -11 9 -10 12 -12 7 -5 -5 7 -5
13 -1 13 4 0 0 11 -9 25 -9 13 -16 30 -15 37 0 7 5 3 11 -9 15 -31 30 -29 16
2 -8 17 -8 28 0 37 8 10 5 13 -14 14 -30 2 -74 30 -74 47 0 8 3 8 9 -2 7 -11
11 -9 20 8 7 13 8 21 2 21 -6 0 -8 6 -5 13 3 8 0 26 -5 40 -6 15 -8 34 -4 42
5 14 7 14 23 0 16 -15 18 -14 23 5 4 16 2 20 -8 16 -8 -3 -21 2 -30 10 -13 14
-15 13 -15 -4 0 -11 -6 -25 -14 -31 -17 -14 -32 3 -34 39 -1 18 1 21 8 11 7
-12 11 -12 25 2 9 10 22 17 28 17 7 0 6 5 -3 11 -11 8 -12 12 -2 16 6 2 12 11
12 19 0 8 4 14 9 14 5 0 8 -20 7 -44 -1 -25 2 -42 6 -40 5 3 6 9 4 13 -3 4 0
13 6 21 8 13 9 12 5 -2 -3 -9 1 -24 9 -35 14 -17 15 -16 10 15 -5 30 -4 32 14
22 23 -12 30 -13 30 -2 0 5 -6 9 -12 10 -50 4 -73 19 -57 38 9 11 8 14 -5 14
-11 0 -14 4 -10 13 5 8 2 8 -9 -2 -9 -7 -17 -20 -17 -27 0 -8 -4 -14 -10 -14
-13 0 -13 6 5 40 9 17 12 30 7 30 -14 0 -43 -36 -35 -43 3 -4 -1 -7 -11 -7
-11 0 -16 6 -14 16 2 8 6 14 9 12 4 -2 16 5 27 15 12 11 26 16 33 11 9 -5 10
1 6 26 -5 24 -4 31 6 27 17 -6 15 36 -2 57 -18 21 -31 20 -31 -3 0 -21 -23
-45 -33 -34 -4 3 -7 1 -7 -5 0 -7 -5 -12 -11 -12 -5 0 -7 6 -4 12 4 7 -1 4 -9
-6 -9 -11 -16 -16 -16 -11 0 5 -5 4 -12 -3 -7 -7 -16 -12 -21 -12 -5 0 -1 7 8
16 9 9 14 23 10 32 -4 12 -3 13 10 2 23 -19 18 0 -7 28 -13 14 -17 22 -10 18
7 -4 19 -2 27 4 11 9 15 9 15 1 0 -6 -4 -11 -10 -11 -5 0 -10 -5 -10 -11 0 -5
5 -7 12 -3 7 4 8 3 4 -4 -6 -11 6 -16 27 -13 4 0 7 -4 7 -10 0 -5 4 -8 10 -4
5 3 7 12 4 19 -3 8 -1 17 5 21 18 10 12 25 -6 18 -15 -6 -16 -4 -5 9 13 16 7
48 -10 48 -6 0 -7 -8 -3 -17 4 -13 3 -15 -5 -7 -6 6 -8 18 -5 27 6 14 10 13
40 -4 18 -11 35 -29 38 -40 5 -20 5 -20 -14 -3 -10 9 -19 13 -19 7 0 -5 8 -17
18 -26 17 -16 19 -14 41 29 12 26 20 48 18 51 -3 2 1 25 8 51 6 26 11 56 9 67
-2 10 2 26 9 33 13 17 18 94 6 86 -5 -3 -9 -15 -9 -26 0 -12 -3 -18 -7 -14 -4
3 -6 25 -4 47 1 24 -2 38 -8 35 -16 -10 -22 29 -10 60 11 25 13 26 17 9 2 -10
0 -21 -6 -23 -12 -4 -5 -32 8 -32 4 0 10 14 14 31 5 26 1 36 -25 60 -17 16
-29 22 -26 14 10 -25 -11 -26 -38 -1 -31 29 -36 76 -11 101 9 9 16 22 16 28 0
7 -7 3 -15 -7 -14 -18 -15 -18 -34 5 -27 32 -27 49 -1 19 16 -18 23 -21 32
-12 17 17 38 15 38 -3 0 -18 12 -19 28 -3 9 9 12 9 12 0 0 -7 3 -12 8 -12 4 0
7 18 7 39 0 30 -2 37 -12 29 -7 -5 -18 -6 -25 -2 -10 6 -10 4 1 -9 7 -10 10
-24 6 -34 -6 -16 -8 -15 -16 6 -5 13 -6 33 -3 45 6 18 5 19 -10 7 -19 -16 -21
-8 -5 21 8 15 8 19 0 14 -6 -4 -11 -2 -11 4 0 22 33 5 37 -19 4 -29 10 -37 20
-28 8 9 -27 87 -39 87 -5 0 -4 9 2 19 7 14 7 22 -1 27 -8 4 -7 9 2 16 11 8 11
9 -1 5 -8 -2 -15 -11 -15 -21 0 -18 -24 -38 -37 -30 -5 3 -15 20 -24 37 -12
26 -12 29 0 14 14 -18 15 -18 25 0 6 10 11 13 11 7 0 -5 -5 -15 -11 -21 -6 -6
-8 -17 -4 -23 12 -19 35 30 28 58 -3 13 -1 22 6 22 6 0 10 -5 9 -11 -2 -6 3
-14 9 -16 14 -5 9 41 -9 90 -12 30 -18 33 -38 14 -12 -10 -12 -9 -1 5 7 9 9
23 5 29 -5 9 -2 10 9 6 9 -3 18 -3 20 1 2 4 2 1 1 -6 -4 -16 17 -63 25 -57 4
2 5 -13 3 -33 -4 -35 -3 -36 12 -17 15 20 21 12 17 -22 -1 -7 5 -13 14 -13 18
0 20 31 3 48 -7 7 -8 12 -2 12 5 0 15 -5 22 -12 7 -7 12 -8 12 -4 0 5 7 3 15
-4 17 -14 21 -1 5 18 -6 6 -7 10 -4 7 4 -3 14 1 22 8 13 10 14 9 8 -10 -4 -12
-2 -24 3 -28 6 -3 8 0 5 8 -3 8 -1 18 5 22 6 3 14 -1 17 -10 4 -8 15 -20 25
-26 15 -7 17 -6 13 6 -4 8 -1 15 5 15 6 0 11 -4 11 -10 0 -15 30 -12 31 3 1 6
5 -10 10 -37 9 -55 4 -73 -16 -56 -10 8 -13 6 -11 -7 0 -10 -5 -18 -11 -18 -7
0 -13 -3 -13 -7 0 -43 0 -43 10 -28 8 13 10 12 10 -2 0 -10 6 -18 14 -18 8 0
21 -3 29 -6 9 -3 16 3 20 15 10 38 32 24 31 -19 0 -21 3 -37 8 -34 4 3 8 12 8
20 0 8 5 12 10 9 22 -13 23 28 2 46 -23 18 -30 59 -11 59 6 0 9 -6 6 -14 -3
-7 3 -20 14 -29 22 -19 24 -15 7 14 -11 17 -10 22 4 33 10 7 21 28 24 47 4 19
13 39 21 46 8 6 12 16 9 21 -3 6 1 13 10 16 9 4 14 9 11 13 -4 3 -2 14 4 24 7
14 14 16 27 10 9 -5 25 -12 36 -15 11 -4 16 -12 12 -21 -6 -18 -2 -19 26 -4
18 10 20 9 15 -5 -4 -9 -2 -16 3 -16 6 0 10 9 10 20 0 11 5 20 10 20 6 0 10
-9 10 -19 0 -10 7 -21 15 -25 8 -3 15 -1 15 4 0 6 -4 10 -10 10 -15 0 -12 56
3 69 8 6 17 8 20 4 4 -3 7 -1 7 6 0 8 -8 11 -20 8 -13 -3 -20 0 -20 8 0 20 19
28 35 15 10 -9 15 -6 20 11 5 14 2 25 -6 30 -10 6 -11 9 -1 9 6 0 12 12 12 26
0 14 -4 23 -10 19 -6 -4 -8 -10 -5 -15 3 -4 -5 -10 -16 -13 -20 -5 -21 -3 -16
30 7 43 15 52 28 33 7 -11 8 -5 4 18 -5 32 2 38 43 33 20 -3 14 17 -8 24 -11
4 -18 11 -15 16 4 5 1 10 -4 10 -41 5 -74 28 -66 47 3 9 3 13 -1 9 -9 -9 -37
91 -29 103 3 5 0 12 -6 16 -8 4 -9 3 -5 -4 4 -7 3 -12 -3 -12 -5 0 -15 8 -20
18 -9 15 -12 15 -20 2 -6 -8 -16 -15 -23 -15 -7 -1 -12 -6 -10 -13 1 -9 -6 -8
-27 3 -34 17 -45 19 -36 6 3 -5 0 -13 -6 -17 -7 -4 -9 -3 -5 4 3 6 2 13 -4 17
-5 3 -10 11 -10 16 0 6 5 7 10 4 6 -3 10 -1 10 4 0 13 -10 14 -29 2 -8 -5 -10
-14 -6 -22 5 -10 5 -11 -2 -4 -19 19 -23 61 -7 83 10 15 11 22 3 22 -6 0 -9 8
-6 20 3 12 1 18 -5 14 -5 -3 -7 -15 -4 -27 3 -13 -4 -31 -20 -49 -13 -16 -24
-25 -24 -19 0 5 5 13 11 16 6 4 8 13 5 21 -3 8 -1 14 4 14 5 0 8 8 8 18 -1 9
2 28 7 42 7 22 6 24 -9 11 -15 -13 -16 -9 -12 52 5 64 4 67 -20 73 -24 6 -35
34 -13 34 6 0 1 11 -12 24 -15 15 -26 21 -30 14 -4 -6 -10 -2 -13 10 -4 11
-13 23 -21 26 -20 7 -19 31 1 50 10 10 11 16 4 16 -8 0 -10 9 -6 26 5 19 2 30
-10 39 -11 8 -13 14 -6 19 6 3 20 -6 31 -20 12 -15 21 -22 21 -17 0 6 11 8 25
5 14 -2 25 -9 25 -14 0 -6 -7 -7 -16 -4 -18 7 -45 -16 -36 -30 4 -5 13 -10 21
-12 12 -3 12 -1 0 14 -13 16 -12 17 11 11 14 -4 31 -7 38 -7 6 0 12 -5 12 -11
0 -6 -6 -9 -14 -6 -10 4 -12 0 -8 -16 3 -12 7 -16 10 -9 2 6 10 12 18 12 11 0
12 4 4 19 -14 28 -12 36 5 21 9 -7 15 -8 15 -2 0 14 -26 22 -37 11 -5 -5 -9
-1 -9 10 0 11 4 18 7 15 4 -2 10 0 14 6 3 5 1 10 -5 10 -6 0 -8 5 -5 10 3 6 1
10 -5 10 -7 0 -7 7 1 23 11 19 10 20 -3 9 -13 -10 -18 -9 -28 3 -18 22 -31 0
-19 -32 8 -20 6 -22 -9 -15 -9 5 -23 7 -29 5 -7 -3 -13 0 -13 7 0 6 -6 10 -12
9 -31 -4 -40 2 -35 21 3 11 2 20 -3 20 -4 0 -10 9 -13 20 -3 11 -10 20 -16 20
-6 0 -11 -9 -11 -20 0 -11 -4 -20 -8 -20 -7 0 -52 74 -52 86 0 7 44 -18 51
-28 3 -5 6 5 6 21 0 26 -3 30 -22 25 -24 -6 -50 18 -42 38 4 8 8 4 13 -10 l7
-23 19 21 c10 11 16 24 13 29 -3 5 -1 12 4 15 4 3 5 24 1 48 -5 23 -6 48 -3
55 3 7 0 13 -7 13 -7 0 -9 8 -5 21 5 15 4 19 -4 14 -7 -4 -20 -4 -29 0 -16 6
-15 8 2 21 23 17 13 19 -16 3 -13 -7 -18 -7 -14 0 4 5 -10 27 -31 48 -20 21
-33 32 -29 26 5 -10 -2 -13 -26 -13 -24 0 -29 3 -18 9 8 6 18 7 22 5 4 -3 5 2
2 10 -7 19 16 22 33 5 9 -9 11 -7 8 7 -2 11 -4 26 -5 34 0 11 -4 10 -16 -5
-14 -19 -15 -17 -10 25 4 31 2 40 -4 30 -9 -13 -10 -13 -10 0 0 13 -2 13 -9 1
-7 -10 -5 -18 5 -26 13 -9 13 -13 -1 -30 -16 -20 -16 -19 -9 4 3 14 2 21 -3
18 -6 -4 -15 5 -22 20 -11 23 -10 25 3 13 11 -9 16 -9 16 -1 0 6 -10 16 -22
22 -22 9 -22 9 2 5 14 -2 36 -7 49 -10z m-58 -38 c11 -21 11 -22 -4 -9 -10 7
-17 17 -17 22 0 15 9 10 21 -13z m19 -64 c0 -8 -4 -12 -10 -9 -5 3 -10 10 -10
16 0 5 5 9 10 9 6 0 10 -7 10 -16z m95 -84 c3 -5 1 -10 -4 -10 -6 0 -11 5 -11
10 0 6 2 10 4 10 3 0 8 -4 11 -10z m-221 -115 c-4 -8 -10 -12 -15 -9 -11 6 -2
24 11 24 5 0 7 -7 4 -15z m256 -25 c0 -5 -7 -10 -16 -10 -8 0 -12 5 -9 10 3 6
10 10 16 10 5 0 9 -4 9 -10z m-45 -40 c3 -5 1 -10 -4 -10 -6 0 -11 5 -11 10 0
6 2 10 4 10 3 0 8 -4 11 -10z m-34 -23 c-10 -9 -11 -8 -5 6 3 10 9 15 12 12 3
-3 0 -11 -7 -18z m-138 -38 c-4 -13 -9 -17 -15 -11 -11 11 -3 32 12 32 4 0 6
-9 3 -21z m127 11 c0 -5 -2 -10 -4 -10 -3 0 -8 5 -11 10 -3 6 -1 10 4 10 6 0
11 -4 11 -10z m30 -11 c0 -6 -4 -7 -10 -4 -5 3 -10 11 -10 16 0 6 5 7 10 4 6
-3 10 -11 10 -16z m-108 -31 c-8 -8 -9 -4 -5 13 4 13 8 18 11 10 2 -7 -1 -18
-6 -23z m138 -8 c0 -5 -4 -10 -9 -10 -6 0 -13 5 -16 10 -3 6 1 10 9 10 9 0 16
-4 16 -10z m-75 -18 c-3 -9 0 -19 7 -24 10 -8 10 -9 -1 -6 -20 6 -33 45 -15
45 9 0 13 -6 9 -15z m-152 -23 c-6 -6 -9 -17 -7 -24 3 -7 1 -16 -5 -19 -13 -9
-10 37 4 46 15 12 20 9 8 -3z m-43 -40 c0 -5 -4 -7 -10 -4 -5 3 -10 1 -10 -6
0 -7 -3 -10 -6 -6 -8 7 4 27 17 27 5 0 9 -5 9 -11z m30 -34 c7 -9 8 -15 2 -15
-5 0 -12 7 -16 15 -3 8 -4 15 -2 15 2 0 9 -7 16 -15z m292 -57 c-6 -6 -15 -8
-19 -4 -4 4 -1 11 7 16 8 5 17 7 19 4 3 -2 -1 -10 -7 -16z m-321 -30 c-11 -11
-13 -10 -7 0 4 7 2 21 -5 30 -12 15 -11 15 6 0 16 -15 17 -20 6 -30z m-228 -3
c-3 -9 -8 -14 -10 -11 -3 3 -2 9 2 15 9 16 15 13 8 -4z m782 -335 c3 -5 1 -10
-4 -10 -6 0 -11 5 -11 10 0 6 2 10 4 10 3 0 8 -4 11 -10z m-335 -171 c0 -8 6
-7 18 2 15 13 16 12 4 -3 -8 -9 -20 -14 -28 -11 -16 6 -19 23 -4 23 6 0 10 -5
10 -11z m210 -25 c0 -8 -4 -12 -10 -9 -5 3 -10 10 -10 16 0 5 5 9 10 9 6 0 10
-7 10 -16z m-400 -8 c0 -3 -4 -8 -10 -11 -5 -3 -10 -1 -10 4 0 6 5 11 10 11 6
0 10 -2 10 -4z m151 -163 c-12 -20 -14 -14 -5 12 4 9 9 14 11 11 3 -2 0 -13
-6 -23z m639 -3 c0 -5 -4 -10 -10 -10 -5 0 -10 5 -10 10 0 6 5 10 10 10 6 0
10 -4 10 -10z m-680 -100 c0 -5 -2 -10 -4 -10 -3 0 -8 5 -11 10 -3 6 -1 10 4
10 6 0 11 -4 11 -10z m646 -37 c-10 -10 -19 5 -10 18 6 11 8 11 12 0 2 -7 1
-15 -2 -18z m-698 -45 c8 -10 12 -18 8 -18 -4 0 -2 -9 4 -20 6 -12 17 -17 28
-14 13 5 14 4 3 -4 -7 -5 -10 -16 -7 -23 4 -8 1 -6 -6 3 -14 17 -46 9 -35 -9
3 -5 2 -15 -2 -22 -6 -9 -8 -4 -8 13 0 15 3 29 8 32 13 8 11 21 -7 38 -10 11
-11 16 -3 16 8 0 6 6 -4 18 -10 10 -14 22 -10 26 4 4 9 1 12 -6 2 -7 10 -21
19 -30z m19 10 c-3 -7 -5 -2 -5 12 0 14 2 19 5 13 2 -7 2 -19 0 -25z m646 -8
c3 -11 2 -18 -3 -15 -4 3 -10 14 -13 25 -3 11 -2 18 3 15 4 -3 10 -14 13 -25z
m-485 -40 c-15 -24 -19 -21 -11 8 3 12 9 19 14 16 5 -3 3 -14 -3 -24z m22 -20
c0 -5 -5 -10 -11 -10 -5 0 -7 5 -4 10 3 6 8 10 11 10 2 0 4 -4 4 -10z m10 -35
c-7 -8 -17 -15 -23 -15 -6 0 -2 7 9 15 25 19 30 19 14 0z m-86 -22 c4 -9 1
-20 -6 -25 -18 -11 -28 -10 -28 3 0 5 5 7 12 3 8 -5 9 0 6 14 -7 26 7 30 16 5z
m-39 -52 c3 -5 2 -12 -3 -15 -5 -3 -9 1 -9 9 0 17 3 19 12 6z m-35 -66 c0 -8
-2 -15 -4 -15 -2 0 -6 7 -10 15 -3 8 -1 15 4 15 6 0 10 -7 10 -15z m20 -60 c0
-5 -5 -3 -10 5 -5 8 -10 20 -10 25 0 6 5 3 10 -5 5 -8 10 -19 10 -25z m37 -10
c1 -40 -2 -43 -17 -14 -9 15 -8 24 1 35 15 19 15 19 16 -21z m382 -16 c-16
-10 -23 -4 -14 10 3 6 11 8 17 5 6 -4 5 -9 -3 -15z m-569 -13 c0 -3 -4 -8 -10
-11 -5 -3 -10 -1 -10 4 0 6 5 11 10 11 6 0 10 -2 10 -4z m105 -86 c3 -5 1 -10
-4 -10 -6 0 -11 5 -11 10 0 6 2 10 4 10 3 0 8 -4 11 -10z m18 -102 c-4 -22 -4
-23 11 -4 17 21 22 11 6 -14 -12 -19 -35 2 -27 24 9 24 16 19 10 -6z m43 -47
c0 -11 -5 -17 -13 -14 -17 6 -17 20 0 26 6 3 12 6 12 6 1 1 1 -7 1 -18z m77
-19 c-3 -12 -9 -19 -14 -16 -5 3 -4 14 2 25 13 26 20 21 12 -9z m-81 -27 c0
-5 -5 -11 -11 -13 -6 -2 -11 4 -11 13 0 9 5 15 11 13 6 -2 11 -8 11 -13z m20
-61 c-9 -16 -10 -14 -9 8 1 15 6 23 11 18 4 -4 4 -16 -2 -26z m-71 -21 c-8
-15 -10 -15 -11 -2 0 17 10 32 18 25 2 -3 -1 -13 -7 -23z m139 -18 c0 -5 -4
-3 -10 5 -5 8 -12 11 -16 7 -4 -4 2 -17 13 -30 24 -27 35 -55 24 -62 -11 -6
-36 23 -27 32 8 9 -24 44 -35 37 -5 -3 -6 2 -3 10 3 9 10 16 15 16 5 0 9 8 9
17 0 15 2 14 15 -3 8 -10 14 -23 15 -29z m-190 -20 c0 -8 4 -15 9 -15 5 0 7
-9 4 -20 -3 -11 -10 -17 -15 -14 -5 3 -7 12 -4 20 3 7 1 16 -4 19 -13 8 -13
25 0 25 6 0 10 -7 10 -15z m98 -23 c11 11 11 8 2 -16 -6 -16 -8 -36 -6 -43 4
-9 1 -12 -7 -8 -6 4 -1 -2 12 -13 13 -10 21 -25 18 -33 -4 -11 -6 -10 -6 2 -1
9 -10 19 -22 22 -17 5 -20 11 -15 38 3 19 -1 42 -11 58 l-15 26 19 -23 c15
-18 21 -20 31 -10z m47 9 c3 -5 1 -12 -4 -15 -5 -3 -11 1 -15 9 -6 16 9 21 19
6z m-101 -46 c-4 -18 -9 -23 -14 -14 -5 7 -3 20 3 30 15 24 20 18 11 -16z m87
-25 c6 0 7 -5 4 -11 -5 -6 -12 -4 -20 8 -7 10 -10 22 -7 28 4 5 8 2 10 -7 2
-10 8 -18 13 -18z m-127 7 c4 4 4 -1 0 -10 -3 -10 -7 -17 -8 -15 -1 2 -8 12
-16 23 -14 18 -13 19 1 8 9 -7 19 -10 23 -6z m179 -14 c-7 -2 -9 -11 -6 -19 3
-7 10 -11 17 -7 8 4 8 2 -1 -7 -6 -7 -9 -19 -6 -27 3 -8 0 -19 -8 -24 -11 -6
-11 -11 -1 -21 14 -14 16 -32 2 -23 -5 3 -10 -1 -10 -9 0 -9 -5 -16 -11 -16
-6 0 -9 9 -6 20 3 11 0 20 -5 20 -7 0 -6 5 1 14 6 7 9 22 5 32 -5 16 -4 16 5
4 6 -8 11 -12 12 -7 5 25 4 33 -2 43 -5 5 -5 20 -2 33 4 17 8 19 17 10 8 -8 8
-13 -1 -16z m-144 -47 c-3 -3 -11 5 -18 17 -13 21 -12 21 5 5 10 -10 16 -20
13 -22z m102 -12 c-5 -16 -10 -21 -10 -12 -1 18 10 51 15 45 2 -1 -1 -16 -5
-33z m-227 10 c5 -14 4 -15 -9 -4 -17 14 -19 20 -6 20 5 0 12 -7 15 -16z m100
0 c3 -8 2 -12 -4 -9 -6 3 -10 10 -10 16 0 14 7 11 14 -7z m-161 -19 c-3 -9 -8
-14 -10 -11 -3 3 -2 9 2 15 9 16 15 13 8 -4z m121 0 c3 -8 1 -15 -4 -15 -6 0
-10 7 -10 15 0 8 2 15 4 15 2 0 6 -7 10 -15z m-249 -29 c0 -15 -4 -21 -9 -16
-5 5 -6 16 -3 24 9 22 12 20 12 -8z m409 -25 c9 -12 8 -12 -11 -2 -15 7 -20
17 -16 28 5 14 8 14 11 2 3 -7 10 -20 16 -28z m-104 -16 c0 -5 -5 -3 -10 5 -5
8 -10 20 -10 25 0 6 5 3 10 -5 5 -8 10 -19 10 -25z m-265 -29 c0 -13 -3 -22
-7 -19 -5 2 -8 13 -8 24 0 10 3 19 8 19 4 0 7 -11 7 -24z m325 -46 c0 -5 -4
-10 -10 -10 -5 0 -10 5 -10 10 0 6 5 10 10 10 6 0 10 -4 10 -10z m-90 -8 c0
-13 -12 -22 -22 -16 -10 6 -1 24 13 24 5 0 9 -4 9 -8z m136 -46 c-8 -19 -12
-37 -8 -40 3 -3 3 -6 1 -6 -3 0 -13 10 -23 22 -14 15 -15 20 -3 15 9 -3 19 3
26 19 17 37 23 28 7 -10z m-222 -11 c-4 -8 -8 -15 -10 -15 -2 0 -4 7 -4 15 0
8 4 15 10 15 5 0 7 -7 4 -15z m44 -13 c6 -18 -15 -14 -22 4 -4 10 -1 14 6 12
6 -2 14 -10 16 -16z m43 -34 c8 -15 8 -18 0 -14 -6 4 -16 16 -22 28 -8 15 -8
18 0 14 6 -4 16 -16 22 -28z m49 11 c-13 -24 -4 -41 10 -19 11 17 13 9 4 -14
-8 -20 -20 -20 -28 0 -6 14 9 54 20 54 2 0 0 -9 -6 -21z m45 -17 c-8 -9 -25
20 -18 31 3 5 10 2 15 -7 6 -10 7 -20 3 -24z m-50 -70 c-3 -3 -11 0 -18 7 -9
10 -8 11 6 5 10 -3 15 -9 12 -12z m-32 -5 c4 3 7 -3 7 -15 0 -12 5 -22 11 -22
7 0 0 -10 -15 -21 -30 -24 -46 -20 -22 4 16 15 12 47 -5 47 -5 0 -9 5 -9 11 0
8 4 9 13 0 8 -6 17 -8 20 -4z m51 -11 c-10 -8 -21 -12 -23 -10 -3 2 4 11 15
18 10 8 21 12 23 10 3 -2 -4 -11 -15 -18z m49 -8 c6 -22 5 -22 -8 -4 -17 22
-20 40 -6 32 5 -3 11 -16 14 -28z m-209 -13 c-4 -18 -1 -27 10 -31 9 -3 16
-11 16 -16 0 -6 -10 -4 -22 5 -25 16 -29 35 -13 54 15 18 16 16 9 -12z m-99
-15 c3 -5 1 -10 -4 -10 -6 0 -11 5 -11 10 0 6 2 10 4 10 3 0 8 -4 11 -10z
m105 -66 c0 -3 -7 -1 -15 6 -8 7 -15 17 -15 22 0 5 7 3 15 -6 8 -8 15 -18 15
-22z m55 13 c-10 -8 -15 -19 -11 -25 4 -7 2 -12 -3 -12 -6 0 -11 6 -11 13 0
15 20 37 34 37 5 0 2 -6 -9 -13z m105 -12 c11 -13 10 -14 -4 -9 -9 3 -16 10
-16 15 0 13 6 11 20 -6z m-45 -14 c-3 -6 -11 -11 -16 -11 -5 0 -4 6 3 14 14
16 24 13 13 -3z m-298 -33 c-3 -8 -6 -5 -6 6 -1 11 2 17 5 13 3 -3 4 -12 1
-19z m397 5 c4 -9 2 -21 -4 -27 -8 -8 -9 -6 -5 7 4 10 2 17 -4 17 -6 0 -11 5
-11 10 0 16 17 11 24 -7z m-39 -12 c-3 -5 5 -17 17 -25 12 -9 17 -16 11 -16
-6 0 -16 7 -24 16 -12 14 -14 13 -21 -7 -5 -12 -11 -19 -15 -16 -6 6 23 57 33
57 3 0 3 -4 -1 -9z m-115 -21 c0 -5 -2 -10 -4 -10 -3 0 -8 5 -11 10 -3 6 -1
10 4 10 6 0 11 -4 11 -10z m60 -25 c-7 -8 -16 -15 -21 -15 -5 0 -1 9 8 20 9
11 19 17 21 15 3 -3 -1 -11 -8 -20z m-245 -23 c-8 -8 -25 10 -19 20 4 6 9 5
15 -3 4 -7 6 -15 4 -17z m172 3 c0 -17 -13 -20 -21 -6 -4 5 0 12 6 14 7 3 13
6 14 6 0 1 1 -6 1 -14z m121 -40 c-3 -3 -9 2 -12 12 -6 14 -5 15 5 6 7 -7 10
-15 7 -18z m-28 5 c0 -5 -2 -10 -4 -10 -3 0 -8 5 -11 10 -3 6 -1 10 4 10 6 0
11 -4 11 -10z m-90 -10 c0 -5 -2 -10 -4 -10 -3 0 -8 5 -11 10 -3 6 -1 10 4 10
6 0 11 -4 11 -10z m54 -39 c-3 -3 -15 6 -27 18 l-22 24 27 -19 c14 -10 24 -21
22 -23z m-53 0 c-8 -5 -10 -14 -6 -22 6 -11 5 -11 -5 -2 -11 10 -11 15 0 28 7
8 15 13 19 10 3 -3 -1 -10 -8 -14z m-1 -91 c0 -5 -4 -10 -10 -10 -5 0 -10 5
-10 10 0 6 5 10 10 10 6 0 10 -4 10 -10z m98 -10 c-7 -11 -16 -20 -20 -20 -11
0 -10 9 5 25 18 21 29 18 15 -5z m-51 4 c-3 -3 -12 -4 -19 -1 -8 3 -5 6 6 6
11 1 17 -2 13 -5z m83 -8 c0 -3 -4 -8 -10 -11 -5 -3 -10 -1 -10 4 0 6 5 11 10
11 6 0 10 -2 10 -4z m-120 -40 c0 -2 -11 -1 -25 2 -14 2 -22 8 -19 13 4 8 44
-6 44 -15z m56 -19 c-2 -53 -16 -68 -51 -57 -26 8 -27 9 -5 7 39 -3 51 14 26
37 l-21 18 22 -6 c18 -6 20 -4 16 14 -4 16 -8 18 -19 9 -9 -7 -14 -8 -14 -1 0
12 20 21 36 15 6 -2 11 -19 10 -36z m-176 -15 c0 -5 -7 -9 -15 -9 -8 0 -15 4
-15 9 0 4 7 8 15 8 8 0 15 -4 15 -8z m233 1 c-7 -2 -21 -2 -30 0 -10 3 -4 5
12 5 17 0 24 -2 18 -5z"/>
<path d="M5370 3770 c0 -5 5 -10 10 -10 6 0 10 5 10 10 0 6 -4 10 -10 10 -5 0
-10 -4 -10 -10z"/>
<path d="M5295 3670 c-3 -6 1 -7 9 -4 18 7 21 14 7 14 -6 0 -13 -4 -16 -10z"/>
<path d="M5305 3640 c-3 -5 -1 -10 4 -10 6 0 11 5 11 10 0 6 -2 10 -4 10 -3 0
-8 -4 -11 -10z"/>
<path d="M5336 3635 c-9 -26 -7 -32 5 -12 6 10 9 21 6 23 -2 3 -7 -2 -11 -11z"/>
<path d="M5401 3414 c0 -11 3 -14 6 -6 3 7 2 16 -1 19 -3 4 -6 -2 -5 -13z"/>
<path d="M5560 3066 c0 -8 -3 -23 -6 -33 -6 -15 -4 -16 6 -6 15 14 21 53 8 53
-4 0 -8 -6 -8 -14z"/>
<path d="M5580 3035 c-7 -9 -11 -18 -8 -20 3 -3 11 1 18 10 7 9 11 18 8 20 -3
3 -11 -1 -18 -10z"/>
<path d="M5965 2609 c20 -37 12 -49 -15 -24 -20 18 -20 18 -19 -26 1 -41 2
-42 9 -14 7 26 8 27 9 6 1 -17 5 -22 17 -17 17 7 17 -4 -2 -78 -8 -34 12 -35
28 -1 13 29 23 32 36 8 7 -12 9 -5 7 23 -3 47 -21 94 -35 94 -6 0 -16 14 -21
30 -6 17 -15 30 -20 30 -5 0 -2 -14 6 -31z m49 -84 c7 -34 -7 -15 -19 25 -5
16 -4 22 3 15 5 -5 12 -23 16 -40z"/>
<path d="M5742 2550 c0 -14 2 -19 5 -12 2 6 2 18 0 25 -3 6 -5 1 -5 -13z"/>
<path d="M5831 2548 c0 -10 -5 -18 -11 -18 -5 0 -9 -4 -7 -9 1 -5 -2 -10 -8
-11 -11 -1 -28 -40 -21 -48 3 -2 17 8 31 22 19 19 25 34 22 54 -2 15 -5 19 -6
10z"/>
<path d="M5840 2479 c0 -9 7 -22 15 -29 19 -16 19 0 0 26 -12 16 -14 16 -15 3z"/>
<path d="M5898 2468 c-6 -15 0 -99 7 -106 3 -3 5 5 5 17 0 12 7 24 15 27 21 9
8 74 -15 74 -4 0 -10 -6 -12 -12z"/>
<path d="M5770 2430 c0 -18 3 -19 20 -10 11 6 20 16 20 22 0 6 -6 5 -17 -3
-11 -10 -14 -10 -9 -1 4 6 2 12 -3 12 -6 0 -11 -9 -11 -20z"/>
<path d="M5145 2399 c-9 -14 -2 -20 14 -10 8 6 9 11 3 15 -6 3 -14 1 -17 -5z"/>
<path d="M5220 2400 c-8 -5 -10 -10 -5 -10 6 0 17 5 25 10 8 5 11 10 5 10 -5
0 -17 -5 -25 -10z"/>
<path d="M5260 2390 c1 -8 7 -24 15 -34 19 -25 19 -16 0 20 -8 16 -15 22 -15
14z"/>
<path d="M5776 2391 c-4 -5 -2 -12 3 -15 5 -4 12 -2 15 3 4 5 2 12 -3 15 -5 4
-12 2 -15 -3z"/>
<path d="M5130 2353 c0 -10 5 -25 10 -33 8 -12 10 -11 10 8 0 12 0 25 1 29 0
4 -4 9 -10 11 -6 2 -11 -5 -11 -15z"/>
<path d="M5180 2355 c-6 -8 -10 -20 -7 -27 3 -7 6 -4 6 7 1 16 3 17 11 5 5 -8
13 -11 17 -6 4 5 2 11 -5 13 -6 3 -10 9 -6 14 9 14 -2 10 -16 -6z"/>
<path d="M5836 2333 c-6 -14 -5 -15 5 -6 7 7 10 15 7 18 -3 3 -9 -2 -12 -12z"/>
<path d="M5930 2324 c0 -11 -5 -25 -11 -31 -7 -7 -7 -13 -1 -17 11 -7 28 51
18 61 -3 4 -6 -3 -6 -13z"/>
<path d="M5818 2283 c7 -3 16 -2 19 1 4 3 -2 6 -13 5 -11 0 -14 -3 -6 -6z"/>
<path d="M5852 2259 c-1 -16 -1 -29 2 -29 7 0 13 50 7 55 -4 2 -8 -10 -9 -26z"/>
<path d="M5190 2259 c0 -11 5 -17 10 -14 6 3 10 13 10 21 0 8 -4 14 -10 14 -5
0 -10 -9 -10 -21z"/>
<path d="M5345 2250 c-3 -5 -2 -10 4 -10 5 0 13 5 16 10 3 6 2 10 -4 10 -5 0
-13 -4 -16 -10z"/>
<path d="M5900 2245 c-10 -12 -10 -15 4 -15 9 0 16 7 16 15 0 8 -2 15 -4 15
-2 0 -9 -7 -16 -15z"/>
<path d="M5200 2223 c1 -13 29 -59 30 -48 0 21 -13 55 -21 55 -5 0 -9 -3 -9
-7z"/>
<path d="M5170 2210 c0 -5 5 -10 10 -10 6 0 10 5 10 10 0 6 -4 10 -10 10 -5 0
-10 -4 -10 -10z"/>
<path d="M5245 2190 c3 -5 8 -10 11 -10 2 0 4 5 4 10 0 6 -5 10 -11 10 -5 0
-7 -4 -4 -10z"/>
<path d="M5454 2189 c-3 -6 -2 -15 3 -20 5 -5 9 -1 9 11 0 23 -2 24 -12 9z"/>
<path d="M5184 2160 c-11 -37 -1 -80 19 -80 5 0 2 10 -6 23 -10 16 -12 28 -5
40 5 10 8 25 6 35 -2 10 -7 3 -14 -18z"/>
<path d="M5397 2178 c4 -7 6 -24 5 -38 -2 -25 -2 -25 9 -3 13 24 6 53 -11 53
-6 0 -8 -5 -3 -12z"/>
<path d="M5123 2150 c1 -11 5 -20 10 -20 5 0 6 -7 3 -16 -3 -8 -1 -24 4 -35
11 -20 40 -26 40 -8 0 5 -5 7 -12 3 -7 -5 -9 -2 -5 9 6 16 -16 72 -33 82 -5 3
-8 -4 -7 -15z m37 -50 c0 -5 -5 -10 -11 -10 -5 0 -7 5 -4 10 3 6 8 10 11 10 2
0 4 -4 4 -10z"/>
<path d="M5095 2146 c-6 -13 -4 -21 3 -24 7 -2 12 -11 12 -20 0 -15 2 -15 10
-2 5 8 5 17 1 20 -5 3 -11 14 -13 25 -5 20 -5 20 -13 1z"/>
<path d="M5072 2110 c13 -20 28 -27 28 -12 0 4 -9 13 -20 20 -19 12 -20 11 -8
-8z"/>
<path d="M5336 2073 c-6 -14 -5 -15 5 -6 7 7 10 15 7 18 -3 3 -9 -2 -12 -12z"/>
<path d="M5515 2030 c3 -5 8 -10 11 -10 2 0 4 5 4 10 0 6 -5 10 -11 10 -5 0
-7 -4 -4 -10z"/>
<path d="M5190 1990 c0 -11 2 -20 4 -20 2 0 6 9 9 20 3 11 1 20 -4 20 -5 0 -9
-9 -9 -20z"/>
<path d="M5304 1965 c0 -21 3 -30 8 -22 10 16 10 44 0 51 -4 2 -8 -11 -8 -29z"/>
<path d="M5216 1967 c3 -10 9 -15 12 -12 3 3 0 11 -7 18 -10 9 -11 8 -5 -6z"/>
<path d="M5526 1943 c-4 -9 -3 -20 1 -24 4 -4 9 3 9 17 2 28 -1 31 -10 7z"/>
<path d="M5210 1933 c0 -6 8 -17 18 -24 16 -13 16 -13 2 6 -8 11 -16 22 -17
24 -2 2 -3 0 -3 -6z"/>
<path d="M5550 1935 c0 -5 5 -17 10 -25 9 -13 11 -13 20 0 8 12 12 12 18 2 7
-10 11 -10 22 3 18 22 5 30 -27 16 -21 -10 -28 -9 -34 1 -5 7 -9 9 -9 3z"/>
<path d="M5205 1844 c1 -13 5 -27 9 -31 4 -5 6 -2 4 6 -1 7 3 16 11 19 8 3 11
0 7 -7 -4 -6 -1 -11 8 -11 18 0 20 18 5 40 -8 12 -12 12 -16 2 -3 -9 -9 -10
-17 -3 -8 7 -11 3 -11 -15z"/>
<path d="M5179 1793 c-2 -32 3 -58 12 -66 5 -4 7 -4 4 -1 -3 4 0 13 6 20 9 11
7 15 -5 20 -12 5 -14 10 -6 19 8 9 8 15 0 20 -5 3 -11 -2 -11 -12z"/>
<path d="M5251 1704 c0 -11 3 -14 6 -6 3 7 2 16 -1 19 -3 4 -6 -2 -5 -13z"/>
<path d="M5277 1669 c7 -7 15 -10 18 -7 3 3 -2 9 -12 12 -14 6 -15 5 -6 -5z"/>
<path d="M5171 1654 c0 -11 3 -14 6 -6 3 7 2 16 -1 19 -3 4 -6 -2 -5 -13z"/>
<path d="M5416 1645 c4 -8 8 -15 10 -15 2 0 4 7 4 15 0 8 -4 15 -10 15 -5 0
-7 -7 -4 -15z"/>
<path d="M5193 1625 c-3 -9 -3 -18 -1 -21 3 -3 8 4 11 16 6 23 -1 27 -10 5z"/>
<path d="M5254 1629 c-3 -6 -1 -16 4 -21 8 -8 11 -5 9 11 -1 24 -3 25 -13 10z"/>
<path d="M5140 1611 c0 -6 7 -14 15 -17 20 -8 19 -16 -6 -43 -12 -12 -18 -25
-15 -28 6 -7 51 46 51 61 0 4 -10 15 -22 24 -16 9 -23 11 -23 3z"/>
<path d="M5290 1596 c0 -15 -4 -25 -9 -22 -5 4 -6 -4 -3 -16 5 -19 7 -20 10
-5 2 9 7 17 11 17 9 0 8 37 -2 46 -4 4 -7 -5 -7 -20z"/>
<path d="M5214 1569 c0 -20 11 -25 20 -10 3 5 0 13 -7 19 -10 8 -13 6 -13 -9z"/>
<path d="M5125 1570 c-3 -6 1 -7 9 -4 18 7 21 14 7 14 -6 0 -13 -4 -16 -10z"/>
<path d="M5156 1515 c-3 -8 -2 -14 2 -12 7 2 12 -6 12 -18 0 -3 -10 -1 -22 5
-21 10 -21 9 2 -9 22 -18 26 -19 37 -5 9 13 9 21 0 35 -14 23 -23 24 -31 4z"/>
<path d="M5240 1509 c0 -5 5 -7 10 -4 6 3 10 8 10 11 0 2 -4 4 -10 4 -5 0 -10
-5 -10 -11z"/>
<path d="M5345 1510 c3 -5 8 -10 11 -10 2 0 4 5 4 10 0 6 -5 10 -11 10 -5 0
-7 -4 -4 -10z"/>
<path d="M5108 1466 c-4 -17 0 -26 13 -29 15 -4 16 -1 7 24 -12 35 -14 36 -20
5z"/>
<path d="M5263 1475 c0 -8 4 -12 9 -9 5 3 6 10 3 15 -9 13 -12 11 -12 -6z"/>
<path d="M5222 1460 c-10 -16 -9 -21 8 -30 19 -10 20 -9 14 17 -9 36 -8 35
-22 13z"/>
<path d="M5147 1454 c6 -15 23 -19 23 -5 0 5 -7 11 -14 14 -10 4 -13 1 -9 -9z"/>
<path d="M5189 1453 c-13 -17 -13 -17 6 -3 11 8 22 16 24 17 2 2 0 3 -6 3 -6
0 -17 -8 -24 -17z"/>
<path d="M5260 1441 c0 -5 5 -13 10 -16 6 -3 10 -2 10 4 0 5 -4 13 -10 16 -5
3 -10 2 -10 -4z"/>
<path d="M5144 1418 c-4 -7 -3 -8 4 -4 8 4 12 0 12 -11 0 -15 2 -15 9 -3 10
15 6 30 -9 30 -5 0 -12 -5 -16 -12z"/>
<path d="M5206 1417 c3 -10 9 -15 12 -12 3 3 0 11 -7 18 -10 9 -11 8 -5 -6z"/>
<path d="M5491 1374 c0 -11 3 -14 6 -6 3 7 2 16 -1 19 -3 4 -6 -2 -5 -13z"/>
<path d="M5270 1310 c0 -13 18 -22 24 -11 3 5 -1 11 -9 15 -8 3 -15 1 -15 -4z"/>
<path d="M5030 1289 c0 -15 18 -19 23 -6 3 8 -1 14 -9 14 -8 0 -14 -4 -14 -8z"/>
<path d="M5226 1273 c-6 -14 -5 -15 5 -6 7 7 10 15 7 18 -3 3 -9 -2 -12 -12z"/>
<path d="M5080 1261 c0 -9 30 -24 36 -18 2 1 -6 8 -16 15 -11 7 -20 8 -20 3z"/>
<path d="M5132 1240 c-6 -11 -18 -17 -26 -14 -10 4 -12 -2 -9 -20 7 -35 15
-32 35 11 19 41 19 53 0 23z"/>
<path d="M5145 1210 c3 -5 8 -10 11 -10 2 0 4 5 4 10 0 6 -5 10 -11 10 -5 0
-7 -4 -4 -10z"/>
<path d="M5390 1185 c0 -8 2 -15 4 -15 2 0 6 7 10 15 3 8 1 15 -4 15 -6 0 -10
-7 -10 -15z"/>
<path d="M5109 1163 c-12 -15 -12 -16 5 -10 14 6 17 4 12 -8 -6 -18 5 -20 22
-3 8 8 9 15 1 25 -15 17 -24 16 -40 -4z"/>
<path d="M5260 1119 c0 -5 5 -7 10 -4 6 3 10 8 10 11 0 2 -4 4 -10 4 -5 0 -10
-5 -10 -11z"/>
<path d="M5200 1110 c13 -9 13 -12 -2 -24 -10 -7 -18 -17 -18 -21 0 -5 11 2
25 15 31 29 32 40 3 40 -19 0 -20 -2 -8 -10z"/>
<path d="M5320 1075 c0 -8 2 -15 4 -15 2 0 6 7 10 15 3 8 1 15 -4 15 -6 0 -10
-7 -10 -15z"/>
<path d="M5223 1065 c0 -11 4 -12 14 -4 7 6 13 13 13 15 0 2 -6 4 -13 4 -8 0
-14 -7 -14 -15z"/>
<path d="M5255 1040 c3 -5 14 -10 23 -10 15 0 15 2 2 10 -20 13 -33 13 -25 0z"/>
<path d="M5177 1003 c-13 -12 -7 -31 11 -38 13 -5 14 -3 5 6 -6 6 -9 18 -6 25
5 15 1 18 -10 7z"/>
<path d="M5173 943 c-17 -6 -17 -23 0 -23 8 0 14 7 14 15 0 8 -1 15 -1 14 -1
0 -7 -3 -13 -6z"/>
<path d="M5205 940 c-3 -6 1 -7 9 -4 18 7 21 14 7 14 -6 0 -13 -4 -16 -10z"/>
</g>
</svg>
